<?xml version="1.0" encoding="UTF-8"?>
<!DOCTYPE svg PUBLIC "-//W3C//DTD SVG 1.1//EN" "http://www.w3.org/Graphics/SVG/1.1/DTD/svg11.dtd">
<!-- Creator: CorelDRAW X7 -->
<svg xmlns="http://www.w3.org/2000/svg" xml:space="preserve" width="1378px" height="1311px" version="1.1" style="shape-rendering:geometricPrecision; text-rendering:geometricPrecision; image-rendering:optimizeQuality; fill-rule:evenodd; clip-rule:evenodd"
viewBox="0 0 5357987 5098831"
 xmlns:xlink="http://www.w3.org/1999/xlink">
 <defs>
  <style type="text/css">
   <![CDATA[
    .fil0 {fill:black}
   ]]>
  </style>
 </defs>
 <g id="Layer_x0020_1">
  <metadata id="CorelCorpID_0Corel-Layer"/>
  <g id="_146607535856">
   <path class="fil0" d="M1593367 3216071l-21111 -14304c-5921,-5875 -7671,-9196 -12724,-15631 -10009,-12747 -15502,-18856 -25870,-34275 45704,7579 49402,20114 59705,64210zm118590 184500c-53659,-34505 -145085,-124130 -186563,-173357 -16177,-19200 -27720,-27854 -43498,-48524 -13468,-17652 -24216,-29925 -37482,-47100 -27895,-36108 -55809,-62662 -72437,-106799 24432,6375 15094,-947 29944,22888 45125,72414 164271,211004 224104,262491 18456,15888 31970,26007 49645,42171 30922,28281 10849,24230 36287,48230zm-118590 -184500l225339 -21658c1277,-39378 2214,-101774 -1571,-140110 -13045,-132201 -216281,-72974 -277621,-33472 -2292,24754 -5470,91522 -16756,113263 -27670,-17189 -84444,-96768 -101467,-129799l31171 -21079c58390,-32236 155158,-68183 217599,-85491 82083,-22750 206112,-45010 294842,-46080 17647,42539 73594,99230 66056,151598 -2531,17565 -63613,111407 -81242,131843l-222446 209400c-17091,-9035 -58620,-48225 -74049,-61803l-50324 -48069c-12784,-17960 -3987,-2108 -9531,-18543zm1833060 -578053c24469,8420 51340,32733 55639,63200 16637,117915 -52254,181404 -102831,231701 12269,28047 25181,30523 39700,56085l-138994 9550 -124805 8754c-28369,9757 -14024,-11915 -17919,25195 9531,20486 -11300,9347 28226,15622l116266 5691 15930 51666 48111 -8305c24119,-68978 37738,-71495 118485,-79129 -29793,38042 -166711,131626 -196944,169608 21221,43766 115022,165617 120042,192355 27445,15126 40081,44477 57311,65037 21984,26242 34983,37858 53719,66558 -87811,35212 -168038,90180 -268912,113900 -39305,28722 -274075,69424 -339341,75809 -131930,12898 -261205,9159 -390681,-9600 -120594,-17473 -230926,-48759 -334776,-88339 -54569,-20799 -249188,-107172 -270598,-140901 -34859,-11947 -81789,-46783 -105610,-70305 50550,-75629 144010,-175024 213094,-226364l247117 -180040c-12288,-29747 -57449,-72511 -69644,-94407l631633 10298c72455,13946 53085,29030 130005,4373 42011,-13463 84843,-20105 132609,-24459 52116,-4750 103304,-4157 156155,-2729 108486,2926 119643,16100 118347,-34578l-1173825 -26343c-15025,-51395 -7313,-43040 -36540,-79056 48423,-24207 29333,-23628 91862,-20009 59291,3427 303105,5761 327183,13606 33086,10780 30706,32723 73764,36531 33701,2981 77825,1456 112679,2071 51005,905 57013,-1125 98991,-13201 70687,-20330 50600,-8622 70186,-45818l381426 2149c-3087,37459 -11975,35323 -22843,66916 151020,19315 160454,54541 155783,-143092zm-1346539 -14974l8143 13606c3625,5452 1645,3491 5623,8470 5314,6651 11088,10914 18079,16853 18254,15511 20169,14313 31377,35208 -52006,5838 -89997,11837 -117575,-24350 21115,-26499 32034,-29911 54353,-49787zm2138787 21194c-39704,165158 -187536,389216 -273179,490733 -28658,33963 -58252,69074 -89579,101044l-97820 92124c-43604,37794 -161864,132008 -219997,154455l-158640 -169664 134984 29453 -20656 -66195 -53829 -18010c-5012,-55051 14800,-49884 49351,-71408 21271,-13247 240791,-209571 334945,-257429 80714,-41027 128090,6311 132045,83153l-149476 -431c-34331,1433 -24368,-5779 -33412,13385 20412,8851 196038,14266 228499,9710l3266 -314602 213498 -76318zm-2499989 760090c86750,48198 86819,55038 158342,99023 166719,102528 343011,176513 545908,215239 321446,61353 599889,25521 881566,-75174 419706,-150046 726586,-474753 905878,-863941 13504,-29315 24138,-58469 36025,-90967 31083,-84949 27468,-55083 36761,-75528 583,113497 -178171,399018 -255215,505749 -18778,26016 -36494,44652 -56921,70067 -347297,432149 -983519,660350 -1560524,543257 -195689,-39709 -530121,-173508 -676496,-311212l-15324 -16513zm1707741 -766310c-2940,3106 -43141,39301 -48322,42438 -32769,19839 -899815,-1281 -987906,-3100 -34822,-721 -158070,2039 -182447,-4254 -52644,-13591 -51794,-95817 -99606,-70273 69685,-67076 184211,-138484 288442,-184271 368941,-162066 714534,-57113 1001879,190821 7304,6311 9325,7308 15167,13077 997,979 2660,2678 3533,3592l9260 11970zm-1867956 41207c-33164,-29030 -38092,-23830 -90557,-11612 -48887,11387 -28562,19435 -57996,53118 -29328,1148 -131534,6857 -145953,-14644 -32778,-48873 -90057,-311506 -95541,-390327 54431,9747 195060,48046 228091,74301l418471 322048c19319,15034 24868,18272 43994,33540l38851 35273c-81927,19875 -195106,29728 -283565,46750l-260763 63673c-14933,-17284 -18819,-24785 -22292,-50402l36393 -28865c86309,24593 12435,53379 153656,21419 39296,-8893 132977,-23463 161451,-40775 -26572,-34354 -88729,-82409 -124240,-113497zm2398968 -823189l275154 208542c77361,58179 71376,41519 71059,93240l-344362 -3514 -1851 -298268zm-2292 -137786l204426 151447c153674,114268 140478,96032 142618,206989 -29641,-14634 -67522,-47468 -92762,-66461l-253313 -190155 -969 -101820zm379423 162108c-24079,-22099 -37987,-118490 -45038,-158998 26853,9260 26903,47945 31786,71532 6045,29199 14855,58225 13252,87466zm-63508 -263299c13982,42171 27551,57715 12788,78220 -10156,-22273 -56525,-134612 -45952,-156596 5342,5930 -156,-6840 11043,16219 2632,5416 5783,15066 7790,20307 6201,16247 9288,26646 14331,41850zm-2543791 498656c-8438,-3463 -15626,5972 -14147,-41532 4419,-141902 15181,-710524 37518,-754386 9109,14180 7630,12871 6840,47996l-16573 663286c-1107,55795 5365,72662 -13638,84636zm1316421 -947930c28460,6348 70664,46572 99225,68367l284185 216594c64624,47610 125026,93998 188910,142462 34399,26091 63811,47936 95849,73406 27978,22246 70829,47477 91986,73416l-28492 397107c-38428,4543 -89621,10707 -122523,-2958 -37647,-15645 -55575,-31129 -103635,-25038 -52387,6637 -45308,29071 -107897,29002l-1177923 -13941c-54399,-845 -224205,5223 -263078,-8654 -40049,-14299 -63076,-29246 -113827,-11975 -61767,21019 -10276,19067 -108026,14051 -12853,-48014 -10694,-499359 -11672,-610426 -2136,-243189 -44381,-180495 84820,-270414 47174,-32828 49305,-26609 115164,-30274 95629,-5324 193563,-7593 289444,-10569 85390,-2646 531362,-27597 577520,-17487l-2724 -34510c-78371,-11763 -247025,-1920 -335019,-1824 -112831,134 -225693,92 -338515,616 -112752,519 -226143,1419 -338845,404 -79313,-716 -61813,19678 -105022,61376 -16697,16114 -73847,77154 -81086,91114 17138,36599 31855,27022 34441,69961l-9118 268539c-1805,59457 -4253,117140 -6123,176247 -1419,44743 10872,143330 -12085,173352 -47481,49539 -104769,-60651 -173384,-11433 -9803,7028 -10335,9173 -18208,17441 -4566,4805 -5687,6210 -10032,10670 -657,671 -2977,4405 -3450,3289 -468,-1107 -2241,2246 -3477,3229 -14271,-16173 -45162,-41032 -77779,-42387 -40596,-1690 -55813,20426 -77374,42254 -15958,-9945 -28814,-22852 -49631,-34073 -21185,-11419 -39645,-12053 -56746,-21226 12797,-234669 149026,-531802 253689,-685146 188883,-276748 470766,-504972 797356,-612548 127144,-41877 101853,-41822 161038,1649 59277,43536 648454,486048 662064,510337zm1063917 218243c-6642,-10707 -49172,-50274 -62102,-65317 -61197,-71160 -426068,-452296 -442522,-483260 92372,50550 231862,177569 287625,243433 58625,69235 179861,206604 216999,305144zm-391582 226369c-615,1258 -450,3527 -487,4161 -3440,61023 20252,-13637 487,18066l-420469 -318626c-26577,-20683 -53902,-42525 -83603,-64311 -91834,-67357 -808637,-607757 -835352,-639897 38740,-12540 95881,-28961 126950,-5888l1314492 1005691 -102018 804zm-1187596 -1028778c122192,-13858 133767,-25892 189511,19724l889007 726068c13987,11281 60049,65717 64022,25677 1626,-16376 -171437,-150455 -183292,-160326l-508404 -415843c-40338,-34308 -84921,-68381 -128324,-104283 -40508,-33513 -87925,-66897 -122687,-104020 71954,-83 143408,5438 212680,14028 87195,10817 111838,9434 163559,55184l286982 270092c22319,20013 32967,34928 55460,57192l283785 266243c20744,17974 38548,44036 58451,37992 10881,-20413 -5701,-29366 -27064,-48083l-168249 -163146c-13877,-14952 -28677,-25847 -44772,-39852l-417010 -397185c97645,25525 310312,100424 370778,154166l64969 68812c21492,22379 38418,47293 59621,67752 77687,74954 263873,283399 345767,373649 11860,13068 20128,17960 32664,30389l124346 136817c42474,50793 70879,105739 87213,177680 -24992,-14869 -37968,-28057 -59001,-43798 -18571,-13899 -37569,-29319 -54720,-43935 -33408,-28465 -83659,-78266 -109822,-74968 5792,20941 152742,133147 170959,147974 75004,61046 75303,32517 108026,210425 -38042,-23003 -71041,-55234 -106942,-84788l-81936 -67375c-27794,-9393 -12439,-8773 -23146,10275 -2939,14984 97273,87434 119946,105987 94995,77733 104535,69575 107488,136298l-333085 -247705 -4221 -68234c-35888,-3215 -71206,4833 -99450,-12985 -23541,-14855 -39995,-36999 -66190,-47959 64040,-65391 1024,-91559 -55570,-42649l-150170 -117272c-53343,-41478 -99799,-75505 -152076,-115908 -101770,-78666 -200182,-154061 -299857,-229180l-599246 -462930zm1703446 934183c-35824,-25360 -103801,-207642 -204486,-334142 -79474,-99850 -159205,-195772 -260865,-275297 -118062,-92349 -107654,-85964 -237107,-164841 -8544,-5204 -13408,-8001 -21732,-13150l-46737 -24510c-73911,-29549 -115269,-56048 -207517,-87990 -54569,-18897 -167202,-39567 -201326,-67251 159559,9393 431286,141360 571778,232661 29310,19049 54334,36251 78854,54858 13651,10358 24868,19811 39337,31465l207476 194380c81624,83277 251889,344734 282325,453817zm-2921138 1407506c-58427,-75170 -136950,-294556 -163867,-412729 -177468,-779157 220792,-1551360 930659,-1859090 138985,-60247 283165,-102248 447602,-124172 108471,-14464 434382,-20881 521425,20766l-33577 6849c-2301,-207 -25874,-5291 -30982,-6247 -139017,-26223 -319797,-21814 -456885,-6251 -291400,33081 -586315,165934 -800677,341224 -117327,95941 -185428,161052 -279237,285150 -335805,444253 -426431,1017799 -215942,1555623 22737,58110 78031,148590 81481,198877zm-171795 -1409114l3279 92c-20895,83213 -52056,154253 -72974,244801 -18437,79805 -34229,176499 -39075,262849 -12434,221638 12622,364651 55271,564231 22048,57100 36839,118618 61087,178708 24110,59723 49980,108210 75661,162140 120787,209383 108945,177151 237682,342731l301176 272013 8571 3459c35199,14037 195754,117019 344591,177486 57890,23522 128311,45162 192107,61670 34482,8920 193086,34376 208928,45566l8971 -3519c409688,19706 686762,-5773 1054197,-214058 237571,-134676 428286,-318534 575071,-539312 17404,-26178 42038,-78955 66571,-97434 2122,-22654 4547,-22186 17381,-44541 59456,-103552 100346,-245220 120704,-281434 26154,-118806 59713,-216708 69777,-352896 30008,-406060 -66939,-821706 -305971,-1138866 -112238,-148925 -144621,-191119 -297675,-322860 -522818,-450023 -1293891,-517113 -1893537,-196618 -221187,118219 -303338,201344 -467706,364559 -28208,28010 -69217,81238 -95009,116772 -160771,221522 -176209,315621 -218656,381489 -6178,9591 -4111,6541 -10422,12972z"/>
   <path class="fil0" d="M5199296 4396065c22540,18001 57573,39889 64229,81858 18107,114172 -117746,156908 -118471,21460 -304,-58142 27243,-79676 54242,-103318zm-2393975 702766l-160247 0c-194601,-5296 -413611,-27046 -567309,-47243 -182502,-23986 -464831,-80466 -645794,-137014 -20165,-6297 -42888,-10537 -66957,-17666 -45290,-13422 -81968,-27229 -127010,-42245 -199590,-66548 -427079,-157583 -615594,-251843 -30784,-15392 -85307,-47109 -115187,-54068 2099,-25236 19829,-46135 32231,-66502 24377,-40036 84945,-152531 94710,-194431 -95192,-7928 -284138,-151181 -331459,-162209 -17308,36076 -1801,38129 -33040,79795 -18497,24676 -37435,40123 -51587,61252 53470,79855 70521,33265 70521,183361 0,188524 -275039,170826 -275039,-14106 0,-111484 44077,-119229 77572,-169255 -22687,-33880 -44445,-48464 -63535,-91609 -29871,-67518 -35690,-138007 -16486,-214091 25447,-100842 23605,-229951 23605,-336057 0,-98531 -24647,-82046 28961,-154400 49415,-66700 98817,-71275 168502,-71275 147483,0 435099,226098 587588,307983 39526,21226 77425,46149 124093,52286 115982,15245 252294,70319 188901,201799 -14868,30844 -53149,58909 -61353,143165 38106,8874 55088,16710 89570,30320 413414,163187 1040279,289302 1490196,286987 48404,-248 73819,8295 112738,7611 38056,-671 64178,-7767 112868,-7588 77779,289 151819,-120 224655,-8066 141759,-15475 283794,-26439 420092,-52415 118347,-22553 278517,-50917 390493,-82014l368192 -104314c0,-109367 -70526,-145797 -70526,-225675 0,-123887 167588,-138273 216769,-149954 196420,-46641 667934,-564695 856412,-323779 66856,85459 41088,81573 41088,121117 0,111287 -4304,241591 10968,348693 7336,51418 19141,109639 22039,150900 8916,126955 -42189,177413 -89427,247953 17078,25507 34496,34395 53783,66112 105224,173049 -126684,338000 -223498,202336 -18401,-25782 -26434,-52024 -30003,-97011 -2531,-31896 -345,-72607 18378,-105945 16788,-29903 37803,-47766 54398,-72543 -47784,-32002 -84627,-87778 -84627,-155153 -29131,19508 -54638,35414 -86010,55037 -30697,19205 -53366,35474 -86222,54831 -119160,70186 -133036,58114 -194486,87599 3032,36453 46967,119054 63691,147868 23936,41226 70981,99841 77352,127171 -35373,8245 -78596,31230 -117249,44951 -235197,83488 -352754,128990 -598084,198831 -293298,83502 -785336,178277 -1090268,186200 -35493,923 -38979,7078 -77086,7547 -25649,308 -52566,-1277 -78086,-515 -32737,979 -35084,5843 -64197,7281zm-2011515 -998475c3017,-23605 679,-13454 9613,-25498l405541 159825c421025,161019 963515,248674 1421943,267304 584355,23748 1158673,-85927 1702440,-266445 62639,-20794 159136,-63255 216539,-75285l31400 155733c29824,65445 35617,123477 88899,223405 13518,25351 30312,48171 41083,72828 -1396,1056 -3684,735 -4382,2884 -698,2145 -3436,2269 -4419,2807 -9742,5351 -5305,3252 -14156,7294l-180486 66397c-51441,17987 -166040,66621 -213144,66203 -28773,23798 -280295,87283 -310073,94522 -108913,26480 -214206,53195 -328047,74256 -244503,45235 -474077,72877 -730358,87544l-380823 1052c-74743,-1985 -151240,-8452 -225804,-14322l-166375 -17097c-3730,-436 -22278,-2751 -24703,-3288l-25410 -10179c-101908,17661 -605902,-116239 -717933,-150276 -103690,-31505 -583900,-197430 -628588,-246230 -42883,-3854 -100736,-43393 -142802,-61146 31992,-65896 64219,-124429 96662,-198216 17170,-39043 73452,-200903 83383,-214072zm-639199 222106c86015,45120 74853,194334 -5990,183411 -37624,-5080 -58951,-44532 -56309,-90488 3004,-52341 34854,-70802 62299,-92923zm5049457 -34303c-26361,-11819 -80544,-68579 -68854,-125270 10092,-48955 84981,-58799 141098,-62841 3036,87351 -23169,151672 -72244,188111zm-5122987 -263699c52047,2315 130014,7685 141272,61413 12402,59199 -40256,110368 -67742,126064 -51781,-31464 -76810,-99179 -73530,-187477zm4276707 100580l-20371 -60081c89138,-28621 97424,-38767 175603,4015 -17611,15613 -51960,23927 -74293,31515 -27160,9228 -52841,19834 -80939,24551zm-3339911 -133422l-14474 57017 -159200 -49654c15218,-22852 38423,-35699 78969,-35557 35267,119 71072,10904 94705,28194zm3281792 1860c-28019,-85303 32213,-103042 115830,-113065 121438,-14551 372877,-210912 476103,-278489 82515,-54022 268053,-181909 344583,-58165 23159,37445 9099,187798 10188,243341 1639,83952 11855,152806 16774,232730 -202777,12117 -424368,250888 -573895,273340 -18134,-33113 -36926,-102142 -49034,-139394l-59704 -123864c-93979,-95049 -148093,-68803 -280845,-36434zm-4201225 -46177c-983,-46250 10045,-104213 12420,-152834 7372,-151299 -25075,-254002 40031,-300022 117084,-82767 418076,153348 554181,236249 52028,31694 161313,98761 231223,107424 44601,5526 103185,11924 124649,45437 58625,91522 -96556,-38979 -219405,19278 -37284,17680 -44371,32797 -73925,59342 -1042,937 -2728,2191 -3757,3155 -42562,39838 -57522,193885 -101485,251972 -75510,-15323 -357559,-178198 -408223,-219947 -42291,-34841 -92381,-43986 -155709,-50054z"/>
   <path class="fil0" d="M3727396 3657122c23306,9173 49006,28750 65886,45350l-21134 20679c-9788,6495 -17238,10097 -27739,14841l-17013 -80870zm441327 -126528l-25907 -52754c11787,-19687 51845,-58570 66870,-69800l50779 19668c-9705,21405 -29236,37794 -44183,56076 -16329,19967 -33242,29301 -47559,46810zm-86626 -173834c15636,6012 26913,9595 42034,15433l35593 19977 -39282 43558 -38345 -78968zm257521 -24790c-7492,-22126 -47059,-32420 -78473,-66741 16049,-21722 15774,-27818 53816,-29706 27789,-1373 61798,745 89974,1599 -17459,33306 -43191,62543 -65317,94848zm-115826 -91412l-46797 -28833c17473,-30858 28883,-45193 43940,-66750 91513,-3950 21736,74320 2857,95583zm428126 -544976c2876,37472 -67747,221151 -88940,252018 -20422,76993 -90737,168965 -122027,239909 -52805,-5020 -83249,-7046 -134731,1048 11106,-59838 -9867,-93419 -65203,-98835 -52235,9311 -106368,92583 -128526,139311l174919 120933c30954,22278 16986,6486 20353,27840 -31336,16224 -176655,-63534 -253226,-82859 -13991,12448 -15654,18167 -35111,30895 6031,42351 91664,199126 111788,242638 -28006,25433 -36816,47256 -71385,63163l35750 -76029c-27064,-35258 -34106,-47747 -69249,-75133 -11814,6674 -67532,55823 -74748,66838 10441,19071 7552,17588 25378,29181 29329,-16485 16265,-25024 47877,-29062 16508,33270 1552,60678 -27092,76989 -99997,56939 -200430,-171644 -26159,-140138 9187,-23853 13642,-16178 23192,-45015 -50049,-13509 -74922,-20748 -117061,15668 -85009,73452 -49144,163968 13702,206140 42663,28635 80337,21919 128599,5144 -33485,39172 -86359,67049 -99477,82598 -11277,-17202 1286,15360 1410,-5976l-205924 -156045c-23766,9595 -21860,14134 -45060,21681l52157 259468 45359 -22756 -11433 -64100c29315,-14244 48069,-33572 78863,-46466l56719 37909c-94343,38841 -222212,174758 -590533,284561 -184394,54973 -377663,83420 -573399,83310 -35052,-19 -69933,243 -104861,-2513 -27744,-2191 -76911,239 -100860,-14010 -40532,8530 -92363,-6858 -132826,-12953 -393882,-57361 -824383,-290735 -1094641,-576233 -62896,-66447 -213342,-235767 -247466,-314639l-51707 -77039c-14395,-24473 -40513,-64091 -42176,-88339 -12356,-10771 1346,7446 -14694,-16591 -32043,-48019 -112633,-272123 -129196,-322672 -37941,-115812 -68629,-276951 -78179,-409289 -19792,-274350 9453,-535941 94526,-794876l21897 -44018c147,-19351 5365,-41886 17872,-56805 44840,-176210 279918,-514816 374214,-606490 94504,-91880 139573,-148824 250897,-235587 518247,-403929 1218413,-545858 1891442,-319875 973529,326880 1541374,1369979 1299214,2354173 -6807,27661 -13950,71840 -30238,92928zm-2059001 -2629388c-159283,12738 -295076,37252 -439748,77573 -336590,93805 -579949,255297 -834672,470325 -103162,87084 -286371,315189 -352024,423238 -395481,650939 -423679,1361390 -86423,2052401 149651,306605 362331,518606 593467,704470 131411,105679 342337,218688 501225,281567 251241,99427 590114,164363 895662,136642 306747,-27826 578677,-100608 812468,-225583 233636,-124893 254747,-156890 424406,-288130 36278,-28066 131723,-132288 165245,-166224 146757,-148562 304060,-395568 398926,-637710 107599,-274640 153422,-558696 137662,-891924 -13513,-285636 -110676,-596517 -225583,-811150 -63829,-119234 -126418,-220475 -203269,-318377 -415930,-529837 -1082776,-863473 -1787342,-807118z"/>
   <path class="fil0" d="M2552339 39402c563165,-57210 1189273,159994 1575903,521526 46268,43265 90355,76318 138300,129551 22600,25088 38084,46911 62272,71825 84844,87389 207256,277006 267796,388169 284704,522758 328129,1173100 114282,1727501 -68170,176742 -166931,367540 -278420,511550 -74711,96511 -159352,198671 -247898,280717l-70342 63480c-24753,20867 -43453,36498 -69671,57439 -304460,243167 -714548,415871 -1131953,449278 -542959,43463 -1012940,-101875 -1433344,-402867 -26316,-18842 -51441,-39066 -75382,-58514 -96009,-78000 -129862,-122931 -205487,-189507 -30123,-26517 -38055,-43435 -63264,-70793 -193140,-209639 -333985,-480480 -424791,-759971 -200168,-616080 -66681,-1375863 319866,-1869361 23169,-29577 36508,-47265 59066,-74554 89418,-108160 158116,-177707 260993,-268058 335437,-294616 730399,-459498 1202074,-507411zm-1967544 2062194c0,151965 1401,180540 19866,332750 10877,89638 42571,236386 69158,318726 60333,186884 116551,328336 222647,496682 9408,14928 13679,23880 23932,39544 18874,28837 34101,52846 54261,79731l112559 148378c12816,13674 18245,16940 30578,32888 13385,17303 14042,18952 29319,34156 111715,111150 217320,217995 348754,307110 154152,104522 339102,206498 516069,266744 691508,235390 1370319,134176 1962142,-275352 836846,-579081 1157662,-1735920 684705,-2688857l-96395 -171593c-138466,-206677 -177298,-257649 -354463,-435397 -340462,-341583 -925561,-587106 -1401650,-587106 -318718,0 -507182,22108 -794224,122578 -65074,22773 -129853,46475 -186076,74862 -213677,107888 -454647,255173 -616741,434051l-181827 206057 -158098 236823c-32374,59428 -58382,109872 -89455,171487 -30757,61013 -51074,122477 -74270,186659 -74003,204734 -120791,434966 -120791,669079z"/>
   <path class="fil0" d="M2666001 4607253c7198,42061 63461,293495 76805,314409l60627 -749 47771 -228950c15383,53177 54858,179379 56048,226047l61257 -2283c17459,-26894 58822,-268453 64678,-318979l-57674 1364 -37031 210820c-12829,-52410 -39007,-168989 -55882,-208937l-64174 2384c-20716,62189 -19315,144442 -47412,195855 -28823,-52828 -17786,-137028 -49369,-191542l-55644 561z"/>
   <path class="fil0" d="M951733 4598121c18323,12595 37312,18713 62111,19908 13073,-29949 89286,-169701 107122,-187394l-6776 228931 55538 18966c19834,-23573 142733,-249909 148429,-277878l-48790 -19591 -96506 182640 7496 -212313 -69437 -26535c-5985,21731 -73158,149885 -98380,171299l15098 -200329c-73470,-33403 -55032,-28832 -65193,100263 -4878,61978 -12517,141718 -10712,202033z"/>
   <path class="fil0" d="M2148438 326797c18231,9958 3496,-3128 20041,14657l31919 46930 -55014 15181 3054 -76768zm-38965 -56953l-16977 247030c-21814,-8484 -115605,-69984 -134120,-86681l37022 -116037c-45676,26247 -51446,-1869 -68859,54404 -10440,33756 -19765,62354 -32029,95541l-41703 -87866 -42502 16522 91669 212777c24381,-3776 29884,-6504 43554,-20192 -20119,-57495 -33632,-40339 -9816,-106203 39742,15181 65625,49227 95822,62667 20086,8939 53654,-15755 109426,-36553l4874 -57486 82014 -24542c14143,12746 26724,28919 42456,40559l43563 -12659c-17138,-31979 -137965,-175617 -163458,-193944l-40936 12663z"/>
   <path class="fil0" d="M3399147 4605599c41698,-3261 114154,-31579 114461,27868 235,45736 -62832,46475 -106202,48583l-8259 -76451zm-58955 -46484c-13055,43434 25860,249665 30077,314817l57256 -6977 -12719 -131222c66015,-9325 76543,38699 139012,109863l66585 -6183c-14804,-28460 -49608,-78256 -73805,-99891 -7864,-7028 -7102,-5631 -15365,-13463 -7896,-7482 -10055,-9949 -15847,-16182 63843,-22351 80282,-108908 31680,-154350 -34257,-32034 -157845,-6031 -206874,3588z"/>
   <path class="fil0" d="M1654288 4551797c66034,9137 122472,7680 96441,84343 -38744,11084 -67338,-1892 -108021,-8920l11580 -75423zm-99414 245500l56223 10064 22627 -124231c60099,-561 67572,59020 103483,151782l64789 11773c-16114,-61404 -34418,-109643 -64872,-151415 40885,-19618 54279,-4924 73787,-48749 56007,-125798 -107787,-151465 -205960,-161910l-50077 312686z"/>
   <path class="fil0" d="M1392656 4488777c122555,-47376 125752,165837 46903,202414 -56236,26090 -96860,-21230 -101118,-71973 -4611,-54918 15099,-115315 54215,-130441zm-6490 -59576c-42236,11332 -64789,31777 -84154,68358 -71316,134723 15351,286344 148194,254145 158975,-38534 130359,-374660 -64040,-322503z"/>
   <path class="fil0" d="M3112422 4781482c-44872,-153835 110474,-212809 141456,-80718 34910,148824 -108384,194091 -141456,80718zm48869 -205781c-49875,10289 -70421,19664 -93263,58666 -50977,87030 -22480,296752 143798,263267 169393,-34119 129542,-359111 -50535,-321933z"/>
   <path class="fil0" d="M2418365 3231895c-12769,11938 -10243,-6716 -12007,31078 102487,8695 405771,-22314 461538,33637 56204,3859 8388,20372 150969,21846 60623,625 121457,1497 182062,2604l9076 -92417c-25755,13003 -41809,40200 -64490,40743 -9026,211 -69158,-21295 -84260,-26564 -80953,-28258 -116120,-20385 -205612,-19632 -88412,740 -372285,-6412 -437276,8705z"/>
   <path class="fil0" d="M2089019 4891300c-14336,-15953 -82565,-182999 -86033,-208551 22103,-27671 45552,-49461 72083,-59025 11777,-25686 22122,-30385 39209,-45111 -73636,-21855 -70012,-18910 -152049,57178 -20720,19223 -21037,30054 -46760,41271l12990 -125591 -57499 -11019 -37036 315047 57334 7290c17762,-88693 -8268,-96878 65583,-134084 6284,25429 16444,51510 26743,78312 33646,87521 12558,70016 105435,84283z"/>
   <path class="fil0" d="M2540599 4878544c1033,-66622 18001,-103446 -41157,-135705 -33912,-18493 -124828,-28870 -102569,-73048 14102,-16931 32815,-22512 60770,-12466 25465,9149 23196,25828 32048,44164l52639 92c4355,-38363 -7776,-43632 -13490,-71173 -24887,-10776 -92009,-59342 -158700,-17418 -47091,29604 -47417,108591 -3348,142687 54665,42305 135912,28162 119996,86460 -5434,19898 -68423,65988 -106947,-14873 -955,-2007 -4051,-8185 -4965,-9903 -717,-1346 -2251,-3666 -2862,-4745 -611,-1093 -1842,-3243 -2981,-4713l-47605 2641c-3739,103222 89290,130561 159820,111650 25158,-6747 25323,-9765 43205,-27844l11892 -11819c956,-928 2770,-2728 4254,-3987z"/>
   <path class="fil0" d="M4014814 4425591l19563 123028 -106161 22594 -21561 -120602 -49714 9646c-8566,24152 428,50912 5081,76038l42015 231081c1539,570 4065,-574 4791,1130 2866,6725 48197,-5742 53076,-7156l-23298 -135393 108104 -23881 21446 134369 56512 -11975 -53452 -309246 -56402 10367z"/>
   <path class="fil0" d="M3673713 4713134l-49644 18979c25424,140790 262743,95702 221802,-51891 -21542,-77700 -82110,-53333 -151625,-74283 -71849,-21653 16513,-107755 71146,-28525 23439,-895 39048,-3229 54748,-14556 -27974,-154768 -287929,-43637 -188368,77118 48335,58629 147767,17569 159237,66235 7459,31658 -24478,52309 -54436,53898 -46337,2449 -41611,-22103 -62860,-46975z"/>
   <path class="fil0" d="M3161911 459163l39218 9582c3945,-6408 2384,-2265 8387,-15728l46071 -134451 -9118 168240 39393 10137c38552,-29246 57775,-98361 91839,-130276l-44179 147281 45107 12613c13917,-77049 56452,-152191 68417,-222721l-62441 -20262c-36196,31731 -58882,92726 -91178,127465l7873 -150078c-17299,-11625 -38483,-18924 -64830,-23701 -19848,30320 -63770,172668 -74559,221899z"/>
   <path class="fil0" d="M2570317 405288l45741 5112 -790 -154951c21928,46167 22176,114659 49966,153086l41487 198 39521 -164065 5301 161534 44752 942 -11175 -234049 -64996 1603 -36641 151240 -44096 -148989 -70847 156 1777 228183z"/>
   <path class="fil0" d="M4284305 4407705c28630,-16472 56314,-23399 90070,-15278 27152,66401 -4372,83962 -73121,94917l-16949 -79639zm3863 270790l52860 -19820 -25420 -116652c27726,-6408 77196,-22489 96979,-37068 31598,-23298 29163,-51606 38864,-95808 -37881,-54615 -25042,-128678 -216837,-47045 -2108,900 -8511,3950 -10326,4828l63880 311565z"/>
   <path class="fil0" d="M1967052 3852091c35038,12282 96649,30628 70705,76056 -36829,22397 -63094,-9329 -100525,-20289l29820 -55767zm34634 -87182c34689,5903 90094,27400 72533,64505 -30109,19939 -57347,-3119 -90419,-14920l17886 -49585zm77526 113874c1397,-1048 3542,-2132 4493,-2701l13421 -7993c51161,-32585 36876,-83741 6601,-104571 -20812,-14322 -105964,-53889 -128903,-59130l-98729 216708c16435,15420 111448,60913 140942,64174 62566,6917 100598,-57587 62175,-106487z"/>
   <path class="fil0" d="M3568724 3947738l-64757 -134337c123152,52594 124171,114457 195212,63158 -36393,-58307 -72175,-157243 -112371,-213984l-40256 20210 69088 137952c-120295,-70333 -131884,-100764 -196948,-75689 5829,43113 85146,166122 104792,222381l45240 -19691z"/>
   <path class="fil0" d="M820695 2507554c-37358,-142701 58514,-104916 44224,-6559l-44224 6559zm88357 -16343c-4134,-49461 -31873,-101875 32677,-97838 18782,21359 22857,52842 26329,89570l-59006 8268zm61193 39925l46571 -2701c-4864,-84067 -14143,-199759 -98972,-186232 -28529,4557 -37679,26825 -50954,44762 -121020,-62244 -107948,90930 -76984,176306l180339 -32135z"/>
   <path class="fil0" d="M2890904 3918308c116790,-26241 113975,74481 94770,139757l-81454 19117c-3247,-27606 -7413,-54210 -11584,-80107 -11373,-70581 -10216,-48373 -3849,-72993 372,-1438 1070,-4010 2117,-5774zm-60843 -36016c-7887,37518 21956,189907 28235,240295 33426,2844 119376,-11639 143510,-26875 34661,-21883 52295,-65593 43117,-123988 -19200,-122215 -99216,-105913 -214862,-89432z"/>
   <path class="fil0" d="M792478 2147051c-13004,-42056 -13945,-99335 43628,-84949 14372,28630 10766,51937 6945,86764l-50573 -1815zm85895 -86708c-14891,-49098 -66966,-78652 -110019,-36182 -30555,30137 -23068,123336 -24818,170785l234784 7744 -290 -48882 -95403 -3587c8125,-60541 57834,-71326 100713,-101191l2710 -52351c-43457,7800 -79184,46485 -107677,63664z"/>
   <path class="fil0" d="M2363732 303610l-7822 -53829c28355,-3432 88219,-24391 94962,13481 6624,37197 -56870,41211 -87140,40348zm-63443 -83135c6339,41947 29168,198451 45121,228105l41615 -8397 -13890 -95247c102179,-3183 93391,119289 170238,64100 -12609,-15135 -23927,-30063 -37665,-44923l-46407 -42483c75473,-34634 34969,-104159 8213,-117048 -32553,-15681 -129247,6725 -167225,15893z"/>
   <path class="fil0" d="M2215313 3798863l-43743 -10757c-23095,35203 -31446,89873 -43714,131713 -34092,116299 -44744,97756 18819,112854l31142 -99469 89795 23431 -29622 106317 48662 10767 67986 -232588 -42020 -11796c-18553,24419 -18043,59245 -35263,85616l-66829 -18525c-1892,-850 -7960,-4199 -9283,-4897l-8791 -5723 22861 -86943z"/>
   <path class="fil0" d="M1373498 3322163l-47298 62322c-992,-974 -2659,-2669 -3743,-3725 -5719,-5586 -5770,-5154 -10822,-10349 -11295,-11639 -7313,-6453 -15902,-20555l77765 -27693zm-209911 20642l32346 39512 51524 -18125c15865,12677 50682,55487 60664,71693l-27390 57995 39548 32659 119542 -225639 -29531 -42153c-36195,5549 -220820,66847 -246703,84058z"/>
   <path class="fil0" d="M4233264 1179365c26200,-17372 102775,-73222 129692,-78596 34152,59153 42098,81908 -18028,120492 -63963,41032 -88500,4258 -111664,-41896zm-59195 -15732c39843,74890 96644,174124 202773,96993 31322,-22769 72409,-58065 57238,-116028 -7373,-28175 -55470,-95243 -69240,-107626 -26655,12944 -174928,107153 -190771,126661z"/>
   <path class="fil0" d="M1769686 3751841c19770,-23949 37468,-35676 64670,-50650l-18240 83217 -46430 -32567zm11617 -80865l-31364 32975c-17482,14589 -21170,16155 -36154,27280 -32263,23963 -40701,37399 -74265,52249 12751,21855 21102,25691 45438,33072 19512,-12337 22397,-19990 43599,-33297l82258 46834 -8911 63535 48234 16811 39135 -252118 -42111 -25071c-42181,15976 -23863,31708 -65859,37730z"/>
   <path class="fil0" d="M3323771 3933866l1152 -81849c21883,11874 45635,43504 54441,65625l-55593 16224zm-43504 -138797l-9940 260424 50926 -14777 1378 -60209 90971 -30666 33132 42907 53549 -12278c-13243,-27344 -150592,-184785 -172135,-200816l-47881 15415z"/>
   <path class="fil0" d="M1417465 855816l71716 64899 31207 -32121c-16683,-24492 -142857,-145683 -168185,-161139 -16123,13762 -18585,14827 -27487,34197 21580,26720 42232,32581 58382,63471 -15434,23701 -35787,44890 -58285,60411l-64789 -59901 -31823 34753c47932,53949 112996,116501 165728,159930l29921 -32989c-21226,-28740 -46388,-38575 -65386,-70521 13348,-25250 37348,-41267 59001,-60990z"/>
   <path class="fil0" d="M3626613 659625l39384 16959c17693,-23233 40251,-56535 47430,-81334 26982,7643 63007,29374 79690,46512 -14474,29990 -37064,54449 -48092,86607l38676 22728 120611 -193963 -31625 -26880c-19967,13027 -15153,12278 -29236,35033 -8879,14341 -15204,25098 -26398,37771 -23541,-13504 -49622,-25470 -71247,-45924l42713 -76203 -36113 -24992 -34284 46884c-26283,44394 -80581,121907 -91509,156802z"/>
   <path class="fil0" d="M1198042 1163633c121066,69580 205230,-166412 71049,-163431 -50288,1116 -106184,85638 -124415,54137 -14790,-25557 14451,-51652 33454,-55143 34054,-6256 32621,4525 48565,-40563 -45538,-13689 -75221,-5223 -102464,25056 -60067,66755 -16641,190564 112610,84439 62690,-51463 65892,28286 36058,50353 -16738,12379 -37899,8281 -59575,4170l-15282 40982z"/>
   <path class="fil0" d="M2917601 323747c4051,-19866 6339,-23288 15860,-41611 3207,-6173 7088,-13950 10331,-18341 7014,-9499 5985,-6509 12420,-12379l16853 77485 -55464 -5154zm-94407 81784l51675 5448 20555 -49727 87351 11304 16858 54031 51496 6022c-10891,-53485 -46880,-207664 -68546,-242560l-47110 -5907c-20362,40706 -111870,198253 -112279,221389z"/>
   <path class="fil0" d="M3582256 434152l-9867 80834 -51004 -27234 60871 -53600zm-180266 98587l44877 25098c14575,-12990 21943,-17115 33045,-36696 34863,5884 53742,23536 87824,36448l-5259 55864 47012 26315 23027 -252132 -43522 -18962c-46939,26660 -160629,144938 -187004,164065z"/>
   <path class="fil0" d="M877303 1639543l81201 -9563 -13996 56075c-25139,-12200 -43191,-27348 -67205,-46512zm-11359 -47463l-39857 3230 -15553 51757c20987,16656 29871,20101 51528,36425 35043,26412 111990,93635 145871,108536l15277 -42700 -42364 -34854 21749 -85091 59282 -9398 12664 -47486 -56834 3174 -151763 16407z"/>
   <path class="fil0" d="M4571461 2053706l-3596 -51441 74283 18814c-13412,19963 -47201,32581 -70687,32627zm-85762 99771c57490,-10344 161373,-85270 225698,-106308l-3477 -53641 -241127 -68312 4176 49820 54559 14427 6996 89795 -49062 29411 2237 44808z"/>
   <path class="fil0" d="M1690052 544342c19181,8791 49856,33545 63792,48262l-46875 30027 -16917 -78289zm-53485 -43329l45304 243024c23242,-6959 23095,-9917 41868,-17175l-7781 -65919c29112,-8846 47049,-27123 74789,-40540 21937,9940 26521,19374 49364,28391l40293 -23472c-35778,-29944 -163532,-127892 -202497,-148107l-41340 23798z"/>
   <path class="fil0" d="M4547167 2474491l7905 -55974 74803 39521 -82708 16453zm-102027 69429c46411,-6312 104149,-31359 149660,-24657l45667 -15310c20110,-3900 23467,-3831 45056,-11290l7901 -48070 -216705 -127515 -6619 47633 47381 25415 -14671 89312c-16445,6748 -42250,8144 -52544,18360 -11014,10932 -14459,35116 -5126,46122z"/>
   <path class="fil0" d="M4492139 1615070l-15511 -55483 77792 2471c-9301,21437 -42502,43600 -62281,53012zm-132628 -104099l14038 46117 58555 4814 25296 88573 -38800 28892 16761 47027c27027,-11341 121402,-102252 149605,-124052 51753,-40008 39544,-42994 23049,-82969l-248504 -8402z"/>
   <path class="fil0" d="M3928629 754946c21681,-13091 41419,-27454 69695,-37711 -6614,25516 -14662,55653 -28414,72887 -24818,-12701 -22788,-15820 -41281,-35176zm127736 -70871c-13394,-12640 -19687,-20486 -37688,-31275l-215776 118673 30284 34808 52097 -25686c36104,17923 39898,36425 72602,50802l-15608 57197c15732,17417 15737,20839 38906,32980l75183 -237499z"/>
   <path class="fil0" d="M1224178 3048759l-59571 86474c-16697,40550 -49278,73874 -71684,108839l25714 44555 251287 -65685 -28405 -44500 -175594 51041c28860,-48028 77021,-99781 103626,-147616 -7772,-19021 -14088,-24808 -23008,-41537 -11750,4093 -10335,2347 -22365,8429z"/>
   <path class="fil0" d="M2564364 4068088l23238 49121 50472 2907 105421 -235674 -53471 -1686 -72570 164712c-11088,-38129 -20472,-76222 -29273,-112752 -16293,-67619 -657,-67734 -73448,-68239 11975,27399 52130,174354 49631,201611z"/>
   <path class="fil0" d="M1606779 816547c14207,-12214 20656,-18539 35424,-34248l-82506 -227677c-20343,10661 -29741,18465 -43062,31069l61936 162517 -148337 -88688 -36856 31611 24960 19921c12186,7409 16021,8369 27495,14864 42287,23959 124953,77007 160946,90631z"/>
   <path class="fil0" d="M4089626 941477c15704,-51120 63305,-101297 81421,-149440 -12710,-23311 -12893,-18309 -31882,-35722 -17731,16095 -115201,191473 -119983,219106l35355 29421c71307,-27239 161130,-58460 224508,-89093l-26365 -39806 -163054 65534z"/>
   <path class="fil0" d="M961448 1387567l138204 20528 42277 2103c14938,-19990 18851,-24455 22494,-51463 -43425,-36444 -143413,-158172 -165112,-171524l-22475 40940 114599 127975 -173536 -22563 -15774 43669 59323 10335z"/>
   <path class="fil0" d="M4562978 2947600l-28704 -83994c21593,-26554 63447,-36283 74159,-60480l-96331 -620 -29958 -86511 -32594 86162 -96102 606c10505,22576 53710,37004 73668,60485l-28033 83690c31143,-11543 52695,-33053 78592,-47582 28286,8608 53797,34422 85303,48244z"/>
   <path class="fil0" d="M963479 2872770c47536,-22402 24725,-11185 104994,37054l-26940 -91058 78518 -50168 -99422 -5085c-7644,-29352 -22590,-55506 -23610,-85592 -19972,13885 -29540,44197 -38630,86028l-98743 1038c21722,21015 49714,36246 75685,56420l-23734 87586c14556,-11314 32218,-19655 51882,-36223z"/>
   <path class="fil0" d="M3212952 4066641c-5531,-57775 -31033,-75864 -8801,-135458 10560,-28299 35842,-94177 38823,-121971 -57578,11828 -56912,2329 -83792,115201 -32300,-17101 -50733,-49365 -77866,-75303 -27266,2016 -34408,2209 -53351,15567 23449,34156 58946,61683 89827,90419 47022,43738 21621,63668 48597,121503l46563 -9958z"/>
   <path class="fil0" d="M4114099 4397553c6412,53159 49856,276487 67379,305976l50973 -11272 -61496 -309122 -56856 14418z"/>
   <path class="fil0" d="M2226493 4712945c16398,57858 -8727,131222 -2508,192236l39300 4262c29793,-6876 19977,-37458 20767,-71665 1736,-74894 15392,-166701 12636,-244714l-58808 -1883c-377,22902 -1557,43136 -2205,63433l-3142 41373c-4938,22052 -2173,9995 -6040,16958z"/>
   <path class="fil0" d="M4466596 1377903c-992,-24997 29177,-49383 50857,-87912l-25387 -46760c-151249,229051 -88417,100314 -172636,174712l19228 39686c36558,-11956 67765,-40646 107520,-37541 44643,3495 92000,13605 136464,17500 -2871,-21859 -14332,-38790 -24166,-51518l-91880 -8167z"/>
   <path class="fil0" d="M4624762 2243943c1231,-1323 2991,-3023 3863,-3817 69585,-63232 83705,-10707 85937,-105132 -28952,9232 -79547,41753 -104053,57086 -58018,36296 -58684,15686 -133188,20812l2559 48391c72859,-147 84645,-8778 135457,27293 26830,19044 63861,43279 93979,57812l97 -54661c-29090,-13913 -55157,-35194 -84651,-47784z"/>
   <path class="fil0" d="M1632047 3584511c4313,-18603 -5475,-822 10165,-23357 10307,-14855 7515,-8613 12848,-12375l13798 -29668c-14694,-16426 -22811,-21685 -42309,-28456 -30523,60545 -98899,131351 -136785,191395 12498,14575 115228,90163 140946,102413l18433 -32622c-20794,-25584 -61546,-44523 -90305,-70526 7478,-19264 17492,-31358 32613,-51376 15627,-20693 19931,-33655 40596,-45428z"/>
   <path class="fil0" d="M1340357 3547319l118926 114162 27119 -22553c-14198,-35107 -63186,-69373 -81022,-90057 32792,-37426 124860,-124773 133101,-142595l-31621 -33077c-13118,9775 -158065,152545 -166503,174120z"/>
   <path class="fil0" d="M953791 1912704l-190880 -23692 -3845 43306c28300,15107 196687,41565 229198,29622l22383 -156789 -40710 -4010 -16146 111563z"/>
   <path class="fil0" d="M4670503 1755837l-4667 -40908c-30252,-3762 -188768,28883 -225739,38570 -6458,31510 16742,134782 30587,160753l35791 -5062 -19517 -114934 183545 -38419z"/>
   <polygon class="fil0" points="2762351,4122780 2813318,4123249 2804109,3880115 2753320,3880216 "/>
   <path class="fil0" d="M2482860 3346379l-1396 3440 -3137 -33017c-36559,-14868 -276101,-927 -333191,1493 24468,44533 101398,32438 153376,31529 61031,-1075 123620,-3780 184348,-3445z"/>
   <path class="fil0" d="M1216939 1273818c9476,-13684 16623,-22044 21983,-39659 -25530,-20408 -177651,-108784 -202956,-114888l-18309 37311c16899,18971 168143,101026 199282,117236z"/>
   <path class="fil0" d="M752580 2307726l230021 -12108 1736 -43572c-24345,-6808 -202998,5415 -215165,8148 -30344,6821 -20620,10537 -16592,47532z"/>
   <path class="fil0" d="M4146216 1121912c22387,-11612 70062,-53843 91338,-71408 25203,-20799 62556,-45984 85321,-70232 -4952,-11171 -5834,-13610 -13018,-22535 -11708,-14529 -7579,-8585 -15539,-14359l-177840 143735 29738 34799z"/>
   <path class="fil0" d="M3213209 3489544l149669 -6426 -4331 -38120 -240190 11855c28768,31506 37408,35318 94852,32691z"/>
   <path class="fil0" d="M2850818 3457790c27946,35736 44909,34115 103727,31648 45607,-1920 94981,-2636 140175,-6821l-2876 -27101c-33536,-9476 -165075,-7432 -241026,2274z"/>
   <path class="fil0" d="M1367696 2601442c-35373,36044 767,-12760 -71274,-13431l2053 28400c16334,7341 17239,671 36893,14107 -27146,18047 -21891,7326 -36305,14106l23 26770 36609 1001 2659 -27735c51749,-252 24754,-1750 38125,-13476 14740,-12931 30072,-13845 32231,-14773l-432 -26838c-53765,-7465 -29030,91 -40582,11869z"/>
   <path class="fil0" d="M2324276 3214982l78 -17197c-37133,-7561 -120222,-3188 -156734,6903l26687 30436 125371 -7359 4598 -12783z"/>
   <path class="fil0" d="M3748640 1398945c48124,13752 90047,-9403 56502,-41947 -25814,-25042 -67549,-8961 -56502,41947z"/>
   <path class="fil0" d="M1304625 2531894c-31643,625 -3279,-468 -16297,6945 5301,32305 -12016,26049 36816,23959l257 -23959c-8378,-5319 14326,-7648 -20776,-6945z"/>
   <polygon class="fil0" points="1417933,2637215 1457960,2635345 1454703,2605948 1420170,2606935 "/>
   <path class="fil0" d="M1368339 2552105c-15397,2021 -6136,1585 -14129,7896l-468 23720 39388 -4511 -129 -24083c-13527,-3132 -8204,-5176 -24662,-3022z"/>
   <path class="fil0" d="M3883229 1318786c14083,18525 3381,15223 31974,10505l0 -21009c-39016,-7414 -21979,3293 -31974,10504z"/>
   <path class="fil0" d="M3876670 1438677c17946,24556 25134,19476 30003,-7055 -29617,-15824 -15948,-3978 -30003,7055z"/>
  </g>
 </g>
</svg>
