<?xml version="1.0" encoding="UTF-8"?>
<!DOCTYPE svg PUBLIC "-//W3C//DTD SVG 1.1//EN" "http://www.w3.org/Graphics/SVG/1.1/DTD/svg11.dtd">
<!-- Creator: CorelDRAW X7 -->
<svg xmlns="http://www.w3.org/2000/svg" xml:space="preserve" width="602px" height="560px" version="1.1" style="shape-rendering:geometricPrecision; text-rendering:geometricPrecision; image-rendering:optimizeQuality; fill-rule:evenodd; clip-rule:evenodd"
viewBox="0 0 883607 821407"
 xmlns:xlink="http://www.w3.org/1999/xlink">
 <defs>
  <style type="text/css">
   <![CDATA[
    .fil2 {fill:none}
    .fil6 {fill:#323232}
    .fil8 {fill:#347A91}
    .fil10 {fill:#A1683C}
    .fil3 {fill:#BF9537}
    .fil7 {fill:#D78A50}
    .fil11 {fill:#DFA173}
    .fil9 {fill:#EFD0B9}
    .fil5 {fill:#F4B4A7}
    .fil0 {fill:#FFC749}
    .fil4 {fill:#FFCFBA}
    .fil1 {fill:white}
   ]]>
  </style>
   <clipPath id="id0">
    <path d="M801359 529034c-68204,-171447 -114609,-338206 -154925,-338553 -40312,-356 -84618,157027 -150860,337158 0,0 -45340,8990 -70190,27434 -23871,17734 -16319,85169 220888,86259 240144,1084 252106,-57342 229414,-79249 -21614,-20860 -74327,-33049 -74327,-33049z"/>
   </clipPath>
   <clipPath id="id1">
    <path d="M690837 685816c-68205,-171446 -114614,-338212 -154925,-338556 -40323,-350 -84618,157030 -150861,337157 0,0 -45339,8990 -70190,27434 -23870,17735 -16324,85175 220883,86259 240144,1079 252106,-57336 229414,-79249 -21614,-20860 -74321,-33045 -74321,-33045z"/>
   </clipPath>
   <clipPath id="id2">
    <path d="M563143 517915c-37937,-37937 -166663,-53704 -166663,-53704l-19428 0 -76889 72487 -51999 -72487 -44315 0c0,0 -128724,15767 -166657,53704 -28208,28207 -35398,217378 -37192,301167l300163 0 300168 0c-1791,-83790 -8981,-272960 -37188,-301167z"/>
   </clipPath>
 </defs>
 <g id="Layer_x0020_1">
  <metadata id="CorelCorpID_0Corel-Layer"/>
  <path class="fil0" d="M801359 529034c-68204,-171447 -114609,-338206 -154925,-338553 -40312,-356 -84618,157027 -150860,337158 0,0 -45340,8990 -70190,27434 -23871,17734 -16319,85169 220888,86259 240144,1084 252106,-57342 229414,-79249 -21614,-20860 -74327,-33049 -74327,-33049z"/>
  <g>
  </g>
  <g style="clip-path:url(#id0)">
   <g>
    <rect class="fil1" transform="matrix(1 -0.0042 0.0042 1 460839 340024)" width="360264" height="69845"/>
    <rect class="fil1" transform="matrix(1 -0.0042 0.0042 1 480518 239791)" width="360264" height="69860"/>
   </g>
  </g>
  <path class="fil2" d="M801359 529034c-68204,-171447 -114609,-338206 -154925,-338553 -40312,-356 -84618,157027 -150860,337158 0,0 -45340,8990 -70190,27434 -23871,17734 -16319,85169 220888,86259 240144,1084 252106,-57342 229414,-79249 -21614,-20860 -74327,-33049 -74327,-33049z"/>
  <path class="fil3" d="M805282 528412c0,0 -227,216 -670,641 -438,419 -1070,1069 -2012,1775 -1863,1425 -4480,3839 -8340,6008 -1893,1173 -3983,2470 -6265,3878 -2396,1174 -4992,2450 -7762,3810 -2804,1296 -5708,2947 -8942,4195 -3267,1168 -6703,2401 -10292,3686 -3618,1178 -7304,2809 -11293,3771 -3992,970 -8112,1970 -12356,3001 -4249,991 -8606,2138 -13096,3075 -4530,641 -9158,1297 -13869,1956 -9427,1198 -19163,3037 -29148,3085 -9966,428 -20094,872 -30219,1311 -10098,-428 -20193,-856 -30129,-1276 -9832,-24 -19696,-1818 -29169,-3012 -4731,-661 -9385,-1306 -13937,-1937 -4505,-898 -8858,-2051 -13117,-3022 -4238,-1015 -8369,-2000 -12361,-2958 -3998,-922 -7690,-2554 -11312,-3711 -3593,-1266 -7034,-2479 -10305,-3632 -3249,-1207 -6157,-2860 -8969,-4136 -2780,-1341 -5382,-2597 -7793,-3761 -2287,-1395 -4390,-2680 -6283,-3834 -3875,-2149 -6496,-4519 -8374,-5938 -946,-704 -1592,-1351 -2039,-1770 -444,-413 -671,-631 -671,-631 0,0 261,177 758,527 503,344 1219,883 2267,1440 2051,1162 4974,2952 8990,4696 1971,926 4155,1947 6532,3055 2479,872 5165,1814 8028,2824 2888,937 5837,2222 9138,3046 3288,853 6747,1749 10355,2692 3627,847 7280,2149 11267,2731 3958,694 8049,1410 12253,2153 4205,710 8493,1587 12908,2207 4441,434 8981,872 13593,1327 9232,911 18630,2105 28612,2135 9813,311 19789,620 29755,931 9942,-315 19878,-635 29665,-946 9823,0 19346,-1267 28617,-2184 4633,-458 9192,-910 13659,-1345 4417,-670 8705,-1542 12904,-2272 4204,-749 8289,-1483 12239,-2189 3982,-626 7630,-1928 11247,-2794 3603,-952 7062,-1869 10347,-2735 3291,-868 6240,-2153 9118,-3115 2860,-1030 5535,-1997 8009,-2887 2360,-1129 4539,-2165 6501,-3100 4012,-1779 6896,-3584 8945,-4767 1040,-562 1764,-1119 2262,-1468 499,-354 754,-536 754,-536z"/>
  <path class="fil0" d="M690837 685816c-68205,-171446 -114614,-338212 -154925,-338556 -40323,-350 -84618,157030 -150861,337157 0,0 -45339,8990 -70190,27434 -23870,17735 -16324,85175 220883,86259 240144,1079 252106,-57336 229414,-79249 -21614,-20860 -74321,-33045 -74321,-33045z"/>
  <path class="fil2" d="M690837 685816c-68205,-171446 -114614,-338212 -154925,-338556 -40323,-350 -84618,157030 -150861,337157 0,0 -45339,8990 -70190,27434 -23870,17735 -16324,85175 220883,86259 240144,1079 252106,-57336 229414,-79249 -21614,-20860 -74321,-33045 -74321,-33045z"/>
  <g>
  </g>
  <g style="clip-path:url(#id1)">
   <g>
    <rect class="fil1" transform="matrix(1 -0.0042 0.0042 1 357899 530958)" width="360268" height="69840"/>
    <rect class="fil1" transform="matrix(1 -0.0042 0.0042 1 349288 394913)" width="360268" height="69860"/>
   </g>
  </g>
  <path class="fil2" d="M690837 685816c-68205,-171446 -114614,-338212 -154925,-338556 -40323,-350 -84618,157030 -150861,337157 0,0 -45339,8990 -70190,27434 -23870,17735 -16324,85175 220883,86259 240144,1079 252106,-57336 229414,-79249 -21614,-20860 -74321,-33045 -74321,-33045z"/>
  <path class="fil3" d="M694754 685196c0,0 -227,216 -670,641 -438,419 -1070,1065 -2012,1775 -1863,1420 -4480,3839 -8340,6008 -1893,1168 -3983,2464 -6265,3874 -2396,1178 -4992,2456 -7762,3810 -2804,1297 -5708,2953 -8942,4199 -3273,1168 -6703,2395 -10292,3681 -3618,1183 -7304,2815 -11293,3776 -3992,967 -8112,1967 -12356,2997 -4249,991 -8606,2139 -13096,3076 -4534,640 -9158,1296 -13869,1956 -9427,1197 -19163,3036 -29148,3085 -9966,428 -20088,871 -30219,1311 -10098,-429 -20193,-857 -30129,-1276 -9828,-24 -19690,-1818 -29163,-3016 -4737,-656 -9389,-1302 -13943,-1932 -4505,-901 -8858,-2051 -13111,-3021 -4244,-1016 -8370,-2001 -12366,-2962 -3997,-917 -7689,-2549 -11307,-3707 -3593,-1273 -7034,-2485 -10311,-3638 -3243,-1204 -6156,-2860 -8966,-4136 -2779,-1341 -5387,-2597 -7792,-3761 -2287,-1395 -4391,-2677 -6283,-3834 -3875,-2149 -6496,-4519 -8374,-5938 -946,-705 -1592,-1351 -2040,-1770 -443,-414 -670,-632 -670,-632 0,0 261,177 758,527 503,345 1218,883 2267,1440 2051,1163 4974,2953 8990,4697 1971,926 4154,1946 6531,3055 2480,872 5160,1818 8029,2829 2884,937 5831,2219 9137,3041 3292,856 6748,1754 10361,2695 3627,848 7275,2144 11267,2725 3958,701 8049,1414 12248,2154 4205,710 8497,1593 12913,2213 4436,428 8976,872 13593,1321 9233,916 18631,2108 28606,2138 9814,311 19789,621 29755,932 9942,-315 19879,-636 29666,-947 9823,0 19346,-1266 28617,-2177 4633,-464 9191,-911 13659,-1351 4420,-671 8708,-1542 12907,-2273 4199,-748 8290,-1482 12239,-2188 3983,-626 7630,-1923 11248,-2791 3603,-952 7062,-1868 10346,-2740 3292,-868 6241,-2154 9119,-3111 2859,-1036 5530,-1997 8004,-2888 2366,-1128 4544,-2164 6507,-3105 4013,-1775 6896,-3578 8946,-4761 1045,-563 1764,-1120 2261,-1468 490,-350 745,-533 745,-533z"/>
  <path class="fil4" d="M300311 433770c-39470,0 -53315,-11602 -73029,-32663l0 176465 147863 0 0 -178777c-14788,22529 -33552,34975 -74834,34975z"/>
  <path class="fil5" d="M299748 424672c-38401,0 -57243,-10972 -72468,-30962l0 7403c19714,21061 33564,32663 73029,32663 41284,0 60047,-12446 74834,-34979l0 -8906c-15618,22404 -34230,34781 -75395,34781z"/>
  <path class="fil4" d="M437000 231221c-547,2998 -1114,6004 -1745,9030 -123,605 -216,1197 -345,1803 -5,-30 -20,-315 -30,-350 -1455,6840 -3075,15500 -4932,20429l-3776 2c1494,-14787 1823,-31169 784,-48672 -31510,4840 -41953,5100 -125744,5141l0 -832c0,0 0,0 -799,0 -794,0 799,0 -4130,0l0 955c-78860,-39 -92928,-937 -125423,-5959 -1069,17567 937,34576 2435,49362l-3769 0c-2677,-9858 -4890,-19612 -6723,-29351 -6,24 -9,177 -15,207 -197,-1036 -356,-1997 -542,-3028 -326,-1844 -671,-3653 -967,-5480 -577,-3513 -1108,-7004 -1557,-10469 -2953,-578 -6190,197 -9227,3845 -8990,10789 4333,62945 16552,73735 3928,3465 7634,4327 11005,3485 4657,16605 10775,32684 18729,46873 11731,20927 20302,38361 30499,51763 15225,19995 34067,30962 72468,30962 41165,0 59777,-12377 75395,-34783 8945,-12835 16916,-28947 27562,-47948 7960,-14189 14067,-30258 18726,-46863 3375,838 7073,-30 10990,-3489 12224,-10784 25551,-62946 16556,-73735 -3041,-3648 -6280,-4411 -9233,-3834 -557,4312 -1237,8679 -1982,13066 -235,1371 -510,2761 -762,4135z"/>
  <path class="fil6" d="M436872 212295c-3243,509 -6265,719 -9137,1162 1045,17502 -75,33886 -1563,48673l3776 0c1857,-4929 3479,-13590 4932,-20430 123,-566 261,-1015 375,-1582 635,-3027 1198,-5963 1745,-8965 252,-1375 527,-2731 764,-4101 745,-4387 1425,-8733 1982,-13051 99,-754 144,-1473 237,-2228 -1030,177 -2046,354 -3111,522z"/>
  <path class="fil6" d="M162246 230020c183,1006 369,1749 557,2761 1833,9744 4046,19492 6723,29351l3770 -2c-1497,-14787 -2617,-31313 -1548,-48879 -2473,-384 -5046,-656 -7792,-1085 -1542,-242 -3031,-419 -4495,-670 104,829 153,1665 261,2494 453,3471 985,6984 1557,10499 296,1829 637,3692 967,5531z"/>
  <path class="fil0" d="M163951 212295c2745,428 4431,829 6905,1213 32496,5022 46562,5180 125423,5219l0 -955c4929,0 3337,0 4130,0 799,0 799,0 799,0l0 955c83789,-39 94234,-650 125744,-5489 2878,-444 6283,-675 9532,-1183 1066,-168 2273,-216 3303,-390 104140,-17225 18936,-52427 18936,-52427 -5058,-56253 -24457,-141860 -127808,-155818 -132,1341 -9651,100424 46759,175007 0,0 -56216,10305 -154550,132 -1183,-123 1440,-1913 2138,-2869 54079,-74113 44936,-170934 44807,-172266 -103518,13880 -122992,99595 -128059,155877 0,0 -84573,34954 17453,52260 1457,252 2951,494 4488,734z"/>
  <path class="fil3" d="M216876 175694c-770,956 -4067,2749 -2770,2874 107875,10173 169250,-123 169250,-123 -61884,-74582 -51582,-173644 -51582,-174991 0,-10 0,-64 0,-64 0,0 -11470,-3390 -29962,-3390 -18492,0 -34923,3364 -34923,3364 0,0 0,54 0,64 0,1332 9311,98158 -50013,172266z"/>
  <path class="fil7" d="M563143 517915c-37937,-37937 -166663,-53704 -166663,-53704l-19428 0 -76889 72487 -51999 -72487 -44315 0c0,0 -128724,15767 -166657,53704 -28208,28207 -35398,217378 -37192,301167l300163 0 300168 0c-1791,-83790 -8981,-272960 -37188,-301167z"/>
  <path class="fil2" d="M563143 517915c-37937,-37937 -166663,-53704 -166663,-53704l-19428 0 -76889 72487 -51999 -72487 -44315 0c0,0 -128724,15767 -166657,53704 -28208,28207 -35398,217378 -37192,301167l300163 0 300168 0c-1791,-83790 -8981,-272960 -37188,-301167z"/>
  <path class="fil2" d="M563143 517915c-37937,-37937 -166663,-53704 -166663,-53704l-19428 0 -76889 72487 -51999 -72487 -44315 0c0,0 -128724,15767 -166657,53704 -28208,28207 -35398,217378 -37192,301167l300163 0 300168 0c-1791,-83790 -8981,-272960 -37188,-301167z"/>
  <path class="fil2" d="M563143 517915c-37937,-37937 -166663,-53704 -166663,-53704l-19428 0 -76889 72487 -51999 -72487 -44315 0c0,0 -128724,15767 -166657,53704 -28208,28207 -35398,217378 -37192,301167l300163 0 300168 0c-1791,-83790 -8981,-272960 -37188,-301167z"/>
  <path class="fil2" d="M563143 517915c-37937,-37937 -166663,-53704 -166663,-53704l-19428 0 -76889 72487 -51999 -72487 -44315 0c0,0 -128724,15767 -166657,53704 -28208,28207 -35398,217378 -37192,301167l300163 0 300168 0c-1791,-83790 -8981,-272960 -37188,-301167z"/>
  <path class="fil2" d="M563143 517915c-37937,-37937 -166663,-53704 -166663,-53704l-19428 0 -76889 72487 -51999 -72487 -44315 0c0,0 -128724,15767 -166657,53704 -28208,28207 -35398,217378 -37192,301167l300163 0 300168 0c-1791,-83790 -8981,-272960 -37188,-301167z"/>
  <path class="fil2" d="M563143 517915c-37937,-37937 -166663,-53704 -166663,-53704l-19428 0 -76889 72487 -51999 -72487 -44315 0c0,0 -128724,15767 -166657,53704 -28208,28207 -35398,217378 -37192,301167l300163 0 300168 0c-1791,-83790 -8981,-272960 -37188,-301167z"/>
  <path class="fil2" d="M563143 517915c-37937,-37937 -166663,-53704 -166663,-53704l-19428 0 -76889 72487 -51999 -72487 -44315 0c0,0 -128724,15767 -166657,53704 -28208,28207 -35398,217378 -37192,301167l300163 0 300168 0c-1791,-83790 -8981,-272960 -37188,-301167z"/>
  <path class="fil2" d="M563143 517915c-37937,-37937 -166663,-53704 -166663,-53704l-19428 0 -76889 72487 -51999 -72487 -44315 0c0,0 -128724,15767 -166657,53704 -28208,28207 -35398,217378 -37192,301167l300163 0 300168 0c-1791,-83790 -8981,-272960 -37188,-301167z"/>
  <path class="fil2" d="M563143 517915c-37937,-37937 -166663,-53704 -166663,-53704l-19428 0 -76889 72487 -51999 -72487 -44315 0c0,0 -128724,15767 -166657,53704 -28208,28207 -35398,217378 -37192,301167l300163 0 300168 0c-1791,-83790 -8981,-272960 -37188,-301167z"/>
  <path class="fil2" d="M563143 517915c-37937,-37937 -166663,-53704 -166663,-53704l-19428 0 -76889 72487 -51999 -72487 -44315 0c0,0 -128724,15767 -166657,53704 -28208,28207 -35398,217378 -37192,301167l300163 0 300168 0c-1791,-83790 -8981,-272960 -37188,-301167z"/>
  <path class="fil2" d="M563143 517915c-37937,-37937 -166663,-53704 -166663,-53704l-19428 0 -76889 72487 -51999 -72487 -44315 0c0,0 -128724,15767 -166657,53704 -28208,28207 -35398,217378 -37192,301167l300163 0 300168 0c-1791,-83790 -8981,-272960 -37188,-301167z"/>
  <path class="fil2" d="M563143 517915c-37937,-37937 -166663,-53704 -166663,-53704l-19428 0 -76889 72487 -51999 -72487 -44315 0c0,0 -128724,15767 -166657,53704 -28208,28207 -35398,217378 -37192,301167l300163 0 300168 0c-1791,-83790 -8981,-272960 -37188,-301167z"/>
  <path class="fil2" d="M563143 517915c-37937,-37937 -166663,-53704 -166663,-53704l-19428 0 -76889 72487 -51999 -72487 -44315 0c0,0 -128724,15767 -166657,53704 -28208,28207 -35398,217378 -37192,301167l300163 0 300168 0c-1791,-83790 -8981,-272960 -37188,-301167z"/>
  <g>
  </g>
  <g style="clip-path:url(#id2)">
   <g>
    <rect class="fil8" x="-68445" y="478996" width="744244" height="9858"/>
    <rect class="fil8" x="-68445" y="557856" width="744244" height="9858"/>
    <rect class="fil8" x="-68445" y="636717" width="744244" height="9858"/>
    <rect class="fil8" x="-68445" y="715577" width="744244" height="9858"/>
    <rect class="fil8" x="-68445" y="794437" width="744244" height="9858"/>
    <rect class="fil9" x="25201" y="414922" width="9858" height="428804"/>
    <rect class="fil9" x="104062" y="414922" width="9858" height="428804"/>
    <rect class="fil9" x="182922" y="414922" width="9858" height="428804"/>
    <rect class="fil9" x="261781" y="414922" width="9858" height="428804"/>
    <rect class="fil9" x="340643" y="414922" width="9858" height="428804"/>
    <rect class="fil9" x="419503" y="414922" width="9858" height="428804"/>
    <rect class="fil9" x="498362" y="414922" width="9858" height="428804"/>
    <rect class="fil9" x="577224" y="414922" width="9858" height="428804"/>
    <rect class="fil9" x="-68445" y="429709" width="744244" height="9858"/>
   </g>
  </g>
  <path class="fil2" d="M563143 517915c-37937,-37937 -166663,-53704 -166663,-53704l-19428 0 -76889 72487 -51999 -72487 -44315 0c0,0 -128724,15767 -166657,53704 -28208,28207 -35398,217378 -37192,301167l300163 0 300168 0c-1791,-83790 -8981,-272960 -37188,-301167z"/>
  <polygon class="fil10" points="101646,821407 98339,720501 92539,821407 "/>
  <polygon class="fil10" points="504322,821407 498521,720501 495209,821407 "/>
  <path class="fil10" d="M269186 476930l21179 47395c0,0 -30554,-38736 -44891,-13312 -5,0 606,-33215 23712,-34083z"/>
  <path class="fil11" d="M222829 426524c0,0 -23352,24289 -25752,51859l42728 62689c0,0 4795,-56953 29381,-64144 0,2 -43955,-22827 -46357,-50404z"/>
  <path class="fil10" d="M331144 481574l-21178 47395c0,0 33406,-32781 44890,-13312 6,0 -599,-33216 -23712,-34083z"/>
  <path class="fil11" d="M375307 428841c0,0 25550,26611 27946,54186l-42728 62689c0,0 -4795,-56953 -29381,-64143 0,1 41762,-25151 44163,-52732z"/>
  <circle class="fil9" cx="306801" cy="587330" r="7546"/>
  <circle class="fil9" cx="306801" cy="643064" r="7546"/>
  <circle class="fil9" cx="306801" cy="698800" r="7546"/>
  <circle class="fil9" cx="306801" cy="754535" r="7546"/>
  <circle class="fil9" cx="306801" cy="810269" r="7546"/>
 </g>
</svg>
