<?xml version="1.0" encoding="UTF-8"?>
<!DOCTYPE svg PUBLIC "-//W3C//DTD SVG 1.1//EN" "http://www.w3.org/Graphics/SVG/1.1/DTD/svg11.dtd">
<!-- Creator: CorelDRAW X7 -->
<svg xmlns="http://www.w3.org/2000/svg" xml:space="preserve" width="1656px" height="1540px" version="1.1" shape-rendering="geometricPrecision" text-rendering="geometricPrecision" image-rendering="optimizeQuality" fill-rule="evenodd" clip-rule="evenodd"
viewBox="0 0 2484981 2310060"
 xmlns:xlink="http://www.w3.org/1999/xlink">
 <g id="Layer_x0020_1">
  <metadata id="CorelCorpID_0Corel-Layer"/>
  <path fill="#FFC749" d="M2253674 1487813c-191812,-482163 -322317,-951143 -435698,-952119 -113371,-1001 -237975,441611 -424268,948198 0,0 -127511,25281 -197398,77153 -67132,49874 -45894,239524 621209,242589 675361,3048 709002,-161264 645184,-222873 -60785,-58665 -209031,-92944 -209031,-92944l2 -4z"/>
  <path fill="white" d="M1512140 1151777l613405 -2576c-25228,-68780 -49274,-134699 -72289,-196127l-471169 1979c-22278,61221 -45534,127232 -69947,196724z"/>
  <path fill="white" d="M1613736 869741l407119 -1710c-29621,-76181 -57530,-142874 -84099,-196120l-239942 1009c-26323,53183 -53860,119891 -83078,196821z"/>
  <path fill="none" d="M2253674 1487813c-191812,-482163 -322317,-951143 -435698,-952119 -113371,-1001 -237975,441611 -424268,948198 0,0 -127511,25281 -197398,77153 -67132,49874 -45894,239524 621209,242589 675361,3048 709002,-161264 645184,-222873 -60785,-58665 -209031,-92944 -209031,-92944l2 -4z"/>
  <path fill="#BF9537" d="M2264707 1486064c0,0 -638,608 -1885,1802 -1232,1179 -3009,3007 -5658,4994 -5239,4008 -12600,10796 -23456,16896 -5323,3298 -11202,6946 -17618,10905 -6738,3302 -14040,6890 -21829,10716 -7885,3643 -16054,8287 -25149,11797 -9187,3283 -18851,6753 -28944,10366 -10175,3311 -20541,7900 -31759,10606 -11227,2729 -22815,5539 -34750,8440 -11948,2787 -24202,6013 -36830,8648 -12740,1802 -25755,3647 -39003,5500 -26511,3370 -53892,8542 -81973,8677 -28028,1205 -56511,2452 -84987,3687 -28398,-1205 -56789,-2408 -84733,-3589 -27650,-68 -55391,-5112 -82031,-8470 -13305,-1859 -26394,-3673 -39196,-5449 -12671,-2525 -24911,-5767 -36889,-8498 -11919,-2854 -23538,-5624 -34764,-8317 -11245,-2594 -21626,-7183 -31813,-10436 -10105,-3560 -19783,-6973 -28981,-10215 -9137,-3395 -17316,-8043 -25224,-11633 -7818,-3770 -15138,-7302 -21917,-10578 -6434,-3923 -12346,-7536 -17671,-10782 -10897,-6044 -18270,-12708 -23550,-16700 -2660,-1979 -4478,-3799 -5736,-4977 -1247,-1160 -1887,-1774 -1887,-1774 0,0 734,497 2132,1482 1414,967 3427,2484 6373,4050 5770,3268 13989,8302 25283,13206 5543,2605 11686,5477 18371,8592 6973,2452 14525,5101 22576,7943 8122,2635 16417,6248 25699,8567 9248,2400 18976,4919 29121,7572 10201,2381 20474,6044 31687,7679 11133,1953 22638,3967 34460,6056 11825,1997 23885,4464 36300,6205 12490,1221 25258,2453 38229,3732 25965,2562 52393,5920 80466,6005 27597,875 55653,1745 83679,2619 27961,-886 55905,-1786 83428,-2660 27625,0 54407,-3563 80481,-6143 13028,-1288 25851,-2558 38414,-3781 12421,-1885 24481,-4338 36290,-6391 11822,-2105 23311,-4170 34419,-6156 11200,-1759 21459,-5422 31632,-7856 10133,-2678 19859,-5258 29099,-7692 9255,-2442 17549,-6055 25643,-8760 8043,-2897 15564,-5617 22523,-8119 6637,-3175 12766,-6090 18284,-8720 11283,-5002 19395,-10078 25155,-13406 2925,-1580 4961,-3146 6361,-4128 1403,-994 2121,-1506 2121,-1506l7 -6z"/>
  <path fill="#FFC749" d="M1942851 1928735c-191813,-482162 -322331,-951163 -435699,-952128 -113401,-986 -237973,441617 -424269,948192 0,0 -127507,25283 -197397,77155 -67130,49875 -45908,239540 621194,242587 675362,3036 709003,-161247 645185,-222873 -60785,-58663 -209014,-92932 -209014,-92932l0 -1z"/>
  <path fill="none" d="M1942851 1928735c-191813,-482162 -322331,-951163 -435699,-952128 -113401,-986 -237973,441617 -424269,948192 0,0 -127507,25283 -197397,77155 -67130,49875 -45908,239540 621194,242587 675362,3036 709003,-161247 645185,-222873 -60785,-58663 -209014,-92932 -209014,-92932l0 -1z"/>
  <path fill="white" d="M1167471 1688965l682611 -2867c-25128,-67775 -49111,-133607 -72087,-196114l-541274 2273c-22076,62248 -45105,128184 -69250,196708z"/>
  <path fill="white" d="M1304781 1305740l403338 -1694c-29837,-76508 -57927,-143204 -84671,-196116l-235018 987c-26499,52843 -54227,119602 -83649,196823z"/>
  <path fill="none" d="M1942851 1928735c-191813,-482162 -322331,-951163 -435699,-952128 -113401,-986 -237973,441617 -424269,948192 0,0 -127507,25283 -197397,77155 -67130,49875 -45908,239540 621194,242587 675362,3036 709003,-161247 645185,-222873 -60785,-58663 -209014,-92932 -209014,-92932l0 -1z"/>
  <path fill="#BF9537" d="M1953867 1926991c0,0 -638,608 -1885,1802 -1232,1178 -3009,2996 -5658,4993 -5239,3994 -12600,10796 -23456,16897 -5323,3283 -11202,6930 -17618,10894 -6738,3313 -14040,6906 -21830,10716 -7884,3646 -16053,8303 -25148,11808 -9205,3283 -18851,6735 -28944,10351 -10176,3326 -20541,7917 -31759,10621 -11227,2718 -22815,5532 -34750,8427 -11948,2787 -24202,6015 -36831,8652 -12750,1800 -25754,3643 -39002,5500 -26511,3367 -53892,8539 -81973,8677 -28028,1203 -56495,2449 -84987,3685 -28400,-1205 -56789,-2409 -84733,-3588 -27640,-67 -55373,-5112 -82015,-8482 -13321,-1846 -26405,-3662 -39212,-5434 -12671,-2534 -24911,-5768 -36873,-8496 -11936,-2857 -23540,-5628 -34777,-8330 -11241,-2580 -21624,-7169 -31798,-10426 -10105,-3579 -19783,-6986 -28999,-10231 -9122,-3386 -17313,-8042 -25216,-11632 -7814,-3771 -15149,-7304 -21913,-10578 -6433,-3923 -12350,-7529 -17671,-10782 -10897,-6044 -18269,-12708 -23550,-16700 -2659,-1983 -4477,-3799 -5737,-4977 -1246,-1164 -1884,-1778 -1884,-1778 0,0 734,498 2130,1482 1416,971 3427,2484 6376,4050 5767,3269 13989,8305 25283,13210 5542,2604 11682,5473 18367,8592 6974,2452 14510,5111 22579,7957 8112,2635 16399,6241 25696,8551 9258,2408 18979,4935 29139,7580 10200,2385 20460,6030 31686,7664 11133,1972 22636,3976 34446,6058 11825,1997 23895,4481 36314,6223 12476,1205 25245,2452 38229,3715 25965,2575 52396,5929 80449,6012 27600,876 55653,1746 83681,2621 27958,-886 55904,-1788 83429,-2663 27625,0 54407,-3560 80481,-6122 13028,-1304 25848,-2560 38412,-3799 12432,-1887 24491,-4336 36299,-6391 11810,-2103 23315,-4168 34421,-6154 11202,-1759 21457,-5408 31633,-7849 10134,-2678 19861,-5252 29097,-7704 9258,-2442 17552,-6059 25646,-8750 8041,-2913 15552,-5617 22510,-8122 6653,-3172 12779,-6087 18300,-8732 11285,-4993 19393,-10063 25159,-13390 2939,-1583 4961,-3149 6359,-4129 1377,-983 2095,-1499 2095,-1499l3 0z"/>
  <path fill="#FFCFBA" d="M844566 1219901c-111002,0 -149939,-32630 -205380,-91858l0 496276 415837 0 0 -502779c-41588,63359 -94358,98361 -210457,98361z"/>
  <path fill="#F4B4A7" d="M842983 1194315c-107996,0 -160984,-30858 -203804,-87074l0 20819c55443,59231 94394,91858 205381,91858 116105,0 168872,-35001 210458,-98371l0 -25048c-43923,63007 -96267,97816 -212035,97816z"/>
  <path fill="#FFCFBA" d="M1228980 650268c-1538,8432 -3133,16886 -4908,25394 -346,1703 -606,3367 -971,5072 -14,-85 -55,-886 -84,-986 -4093,19238 -8648,43592 -13870,57454l-10619 5c4201,-41584 5126,-87657 2204,-136880 -88617,13612 -117986,14342 -353632,14457l0 -2339c0,0 0,0 -2247,0 -2233,0 2247,0 -11615,0l0 2685c-221780,-110 -261342,-2635 -352729,-16759 -3007,49404 2635,97239 6846,138822l-10599 0c-7529,-27725 -13752,-55157 -18908,-82545 -16,67 -25,498 -41,581 -554,-2911 -1002,-5615 -1525,-8514 -916,-5186 -1887,-10273 -2718,-15412 -1623,-9880 -3117,-19696 -4380,-29441 -8305,-1625 -17409,554 -25950,10814 -25283,30341 12186,177022 46550,207367 11047,9743 21470,12167 30951,9800 13096,46698 30301,91917 52671,131821 32991,58853 57095,107885 85773,145575 42820,56232 95808,87074 203804,87074 115768,0 168112,-34809 212035,-97821 25155,-36095 47573,-81409 77513,-134845 22386,-39903 39561,-85095 52664,-131793 9492,2356 19891,-85 30907,-9811 34378,-30328 71859,-177026 46561,-207367 -8553,-10260 -17660,-12405 -25965,-10782 -1566,12126 -3480,24407 -5574,36745 -661,3856 -1434,7764 -2144,11629z"/>
  <path fill="#323232" d="M1228620 597040c-9122,1434 -17619,2024 -25696,3270 2940,49221 -211,95299 -4394,136883l10619 0c5222,-13861 9784,-38218 13870,-57455 346,-1591 734,-2855 1054,-4449 1787,-8513 3371,-16770 4909,-25213 708,-3868 1481,-7681 2147,-11533 2096,-12337 4008,-24558 5574,-36703 279,-2121 406,-4142 667,-6265 -2897,498 -5754,996 -8748,1467l-2 -2z"/>
  <path fill="#323232" d="M456284 646891c515,2829 1038,4918 1566,7764 5154,27404 11379,54819 18908,82545l10603 -7c-4210,-41584 -7359,-88061 -4354,-137463 -6955,-1079 -14191,-1844 -21913,-3051 -4337,-680 -8524,-1178 -12642,-1884 292,2330 430,4682 733,7014 1274,9763 2772,19641 4379,29528 834,5144 1791,10381 2720,15554z"/>
  <path fill="#FFC749" d="M461080 597040c7720,1205 12460,2332 19418,3413 91389,14124 130948,14567 352731,14678l0 -2686c13862,0 9384,0 11615,0 2247,0 2247,0 2247,0l0 2686c235641,-110 265015,-1828 353631,-15436 8096,-1248 17671,-1898 26807,-3326 2999,-473 6393,-608 9290,-1097 292875,-48443 53254,-147442 53254,-147442 -14227,-158201 -68781,-398956 -359438,-438210 -372,3770 -27142,282424 131502,492176 0,0 -158098,28981 -434645,371 -3326,-346 4051,-5380 6014,-8070 152088,-208428 126374,-480721 126011,-484467 -291126,39035 -345893,280095 -360143,438377 0,0 -237845,98301 49085,146971 4097,709 8298,1389 12621,2064l0 -2z"/>
  <path fill="#BF9537" d="M609920 494108c-2165,2688 -11437,7731 -7789,8083 303379,28609 475985,-347 475985,-347 -174038,-209749 -145066,-488342 -145066,-492131 0,-28 0,-178 0,-178 0,0 -32257,-9535 -84264,-9535 -52004,0 -98214,9460 -98214,9460 0,0 0,152 0,181 0,3746 26185,276051 -140654,484467l2 0z"/>
  <path fill="#D78A50" d="M1583734 1456543c-106690,-106690 -468708,-151032 -468708,-151032l-54638 0 -216237 203856 -146237 -203856 -124628 0c0,0 -362012,44342 -468692,151032 -79330,79327 -99551,611338 -104594,846979l844153 0 844169 0c-5038,-235645 -25259,-767652 -104586,-846979l-2 0z"/>
  <path fill="none" d="M1583734 1456543c-106690,-106690 -468708,-151032 -468708,-151032l-54638 0 -216237 203856 -146237 -203856 -124628 0c0,0 -362012,44342 -468692,151032 -79330,79327 -99551,611338 -104594,846979l844153 0 844169 0c-5038,-235645 -25259,-767652 -104586,-846979l-2 0z"/>
  <path fill="none" d="M1583734 1456543c-106690,-106690 -468708,-151032 -468708,-151032l-54638 0 -216237 203856 -146237 -203856 -124628 0c0,0 -362012,44342 -468692,151032 -79330,79327 -99551,611338 -104594,846979l844153 0 844169 0c-5038,-235645 -25259,-767652 -104586,-846979l-2 0z"/>
  <path fill="none" d="M1583734 1456543c-106690,-106690 -468708,-151032 -468708,-151032l-54638 0 -216237 203856 -146237 -203856 -124628 0c0,0 -362012,44342 -468692,151032 -79330,79327 -99551,611338 -104594,846979l844153 0 844169 0c-5038,-235645 -25259,-767652 -104586,-846979l-2 0z"/>
  <path fill="none" d="M1583734 1456543c-106690,-106690 -468708,-151032 -468708,-151032l-54638 0 -216237 203856 -146237 -203856 -124628 0c0,0 -362012,44342 -468692,151032 -79330,79327 -99551,611338 -104594,846979l844153 0 844169 0c-5038,-235645 -25259,-767652 -104586,-846979l-2 0z"/>
  <path fill="none" d="M1583734 1456543c-106690,-106690 -468708,-151032 -468708,-151032l-54638 0 -216237 203856 -146237 -203856 -124628 0c0,0 -362012,44342 -468692,151032 -79330,79327 -99551,611338 -104594,846979l844153 0 844169 0c-5038,-235645 -25259,-767652 -104586,-846979l-2 0z"/>
  <path fill="none" d="M1583734 1456543c-106690,-106690 -468708,-151032 -468708,-151032l-54638 0 -216237 203856 -146237 -203856 -124628 0c0,0 -362012,44342 -468692,151032 -79330,79327 -99551,611338 -104594,846979l844153 0 844169 0c-5038,-235645 -25259,-767652 -104586,-846979l-2 0z"/>
  <path fill="none" d="M1583734 1456543c-106690,-106690 -468708,-151032 -468708,-151032l-54638 0 -216237 203856 -146237 -203856 -124628 0c0,0 -362012,44342 -468692,151032 -79330,79327 -99551,611338 -104594,846979l844153 0 844169 0c-5038,-235645 -25259,-767652 -104586,-846979l-2 0z"/>
  <path fill="none" d="M1583734 1456543c-106690,-106690 -468708,-151032 -468708,-151032l-54638 0 -216237 203856 -146237 -203856 -124628 0c0,0 -362012,44342 -468692,151032 -79330,79327 -99551,611338 -104594,846979l844153 0 844169 0c-5038,-235645 -25259,-767652 -104586,-846979l-2 0z"/>
  <path fill="none" d="M1583734 1456543c-106690,-106690 -468708,-151032 -468708,-151032l-54638 0 -216237 203856 -146237 -203856 -124628 0c0,0 -362012,44342 -468692,151032 -79330,79327 -99551,611338 -104594,846979l844153 0 844169 0c-5038,-235645 -25259,-767652 -104586,-846979l-2 0z"/>
  <path fill="none" d="M1583734 1456543c-106690,-106690 -468708,-151032 -468708,-151032l-54638 0 -216237 203856 -146237 -203856 -124628 0c0,0 -362012,44342 -468692,151032 -79330,79327 -99551,611338 -104594,846979l844153 0 844169 0c-5038,-235645 -25259,-767652 -104586,-846979l-2 0z"/>
  <path fill="none" d="M1583734 1456543c-106690,-106690 -468708,-151032 -468708,-151032l-54638 0 -216237 203856 -146237 -203856 -124628 0c0,0 -362012,44342 -468692,151032 -79330,79327 -99551,611338 -104594,846979l844153 0 844169 0c-5038,-235645 -25259,-767652 -104586,-846979l-2 0z"/>
  <path fill="none" d="M1583734 1456543c-106690,-106690 -468708,-151032 -468708,-151032l-54638 0 -216237 203856 -146237 -203856 -124628 0c0,0 -362012,44342 -468692,151032 -79330,79327 -99551,611338 -104594,846979l844153 0 844169 0c-5038,-235645 -25259,-767652 -104586,-846979l-2 0z"/>
  <path fill="none" d="M1583734 1456543c-106690,-106690 -468708,-151032 -468708,-151032l-54638 0 -216237 203856 -146237 -203856 -124628 0c0,0 -362012,44342 -468692,151032 -79330,79327 -99551,611338 -104594,846979l844153 0 844169 0c-5038,-235645 -25259,-767652 -104586,-846979l-2 0z"/>
  <path fill="#347A91" d="M258894 1374815l488735 0 -19887 -27725 -373716 0c-31763,7998 -64167,17216 -95132,27725zm727981 0l442551 0c-30965,-10509 -63371,-19727 -95134,-27725l-318008 0 -29409 27725z"/>
  <path fill="#347A91" d="M54039 1596593l1580249 0c-1878,-9593 -3817,-18848 -5822,-27723l-1568603 0c-2006,8875 -3946,18130 -5824,27723z"/>
  <path fill="#347A91" d="M24720 1818376l1638887 0c-848,-9304 -1722,-18551 -2627,-27724l-1633631 0c-905,9171 -1781,18420 -2629,27724z"/>
  <path fill="#347A91" d="M9387 2040156l1669551 0c-470,-9192 -959,-18435 -1471,-27723l-1666609 0c-510,9288 -1001,18531 -1471,27723z"/>
  <path fill="#347A91" d="M982 2261936l1686358 0c-232,-8964 -480,-18208 -753,-27723l-1684851 0c-272,9515 -522,18759 -754,27723z"/>
  <path fill="#EFD0B9" d="M98595 2303522l0 -839891c-10252,13719 -19459,35232 -27725,62774l0 777117 27725 0z"/>
  <path fill="#EFD0B9" d="M320376 2303522l0 -947548c-9267,2571 -18521,5252 -27723,8034l0 939514 27723 0z"/>
  <path fill="#EFD0B9" d="M542156 2303522l0 -993663c-7993,1196 -17293,2640 -27724,4350l0 989313 27724 0z"/>
  <polygon fill="#EFD0B9" points="763933,2303522 763933,1397541 736208,1358893 736208,2303522 "/>
  <polygon fill="#EFD0B9" points="985718,2303522 985718,1375906 957993,1402043 957993,2303522 "/>
  <path fill="#EFD0B9" d="M1207497 2303522l0 -983527c-9821,-1771 -19115,-3378 -27724,-4813l0 988340 27724 0z"/>
  <path fill="#EFD0B9" d="M1429274 2303522l0 -928760c-9134,-3099 -18394,-6083 -27725,-8957l0 937717 27725 0z"/>
  <path fill="#EFD0B9" d="M1651059 2303522l0 -600818c-7648,-59285 -16794,-112628 -27725,-155116l0 755934 27725 0z"/>
  <path fill="none" d="M1583734 1456543c-106690,-106690 -468708,-151032 -468708,-151032l-54638 0 -216237 203856 -146237 -203856 -124628 0c0,0 -362012,44342 -468692,151032 -79330,79327 -99551,611338 -104594,846979l844153 0 844169 0c-5038,-235645 -25259,-767652 -104586,-846979l-2 0z"/>
  <polygon fill="#A1683C" points="285857,2310060 276558,2026280 260246,2310060 "/>
  <polygon fill="#A1683C" points="1418311,2310060 1401997,2026280 1392683,2310060 "/>
  <path fill="#A1683C" d="M757033 1341280l59562 133290c0,0 -85928,-108939 -126249,-37438 -14,0 1705,-93410 66685,-95852l2 0z"/>
  <path fill="#DFA173" d="M626663 1199522c0,0 -65673,68308 -72424,145844l120165 176301c0,0 13485,-160170 82629,-180392 0,5 -123614,-64197 -130370,-141753z"/>
  <path fill="#A1683C" d="M931280 1354341l-59560 133288c0,0 93949,-92189 126245,-37436 18,0 -1685,-93414 -66685,-95852z"/>
  <path fill="#DFA173" d="M1055479 1206039c0,0 71855,74839 78595,152389l-120166 176301c0,0 -13484,-160171 -82628,-180390 0,4 117448,-70732 124199,-148300z"/>
  <circle fill="#EFD0B9" cx="862819" cy="1651760" r="21221"/>
  <circle fill="#EFD0B9" cx="862819" cy="1808502" r="21221"/>
  <circle fill="#EFD0B9" cx="862819" cy="1965250" r="21221"/>
  <circle fill="#EFD0B9" cx="862819" cy="2121994" r="21221"/>
  <circle fill="#EFD0B9" cx="862819" cy="2278737" r="21221"/>
 </g>
</svg>
