<?xml version="1.0" encoding="UTF-8"?>
<!DOCTYPE svg PUBLIC "-//W3C//DTD SVG 1.1//EN" "http://www.w3.org/Graphics/SVG/1.1/DTD/svg11.dtd">
<!-- Creator: CorelDRAW X7 -->
<svg xmlns="http://www.w3.org/2000/svg" xml:space="preserve" width="1733px" height="1540px" version="1.1" shape-rendering="geometricPrecision" text-rendering="geometricPrecision" image-rendering="optimizeQuality" fill-rule="evenodd" clip-rule="evenodd"
viewBox="0 0 13623652 12103985"
 xmlns:xlink="http://www.w3.org/1999/xlink">
 <g id="Layer_x0020_1">
  <metadata id="CorelCorpID_0Corel-Layer"/>
  <path fill="#343643" d="M12353022 8050532c0,0 -248591,-15578 -596243,-15578l-5663714 0c-347624,0 -587627,8912 -587627,8912l0 -4106891c0,-347569 240003,-662114 587627,-662114l5663714 28c347568,0 629322,295884 629322,643369l-33079 4132274z"/>
  <rect fill="white" x="5812561" y="3812397" width="6218730" height="4376146"/>
  <path fill="#EAE5E5" d="M13443661 10048961l-1063242 -2014017 -6910985 0 -1063242 2014017c0,0 -328526,389551 -88124,687673 232539,288428 409057,215743 1242276,215743 833164,0 3364629,0 3364629,0 0,0 2531567,0 3364555,0 833219,0 1009645,72713 1242276,-215743 240374,-298038 -88152,-687673 -88152,-687673l9 0z"/>
  <path fill="#7D8993" fill-opacity="0.200000" d="M4246571 10547712c10445,63029 35224,126514 81626,187102 232538,303116 439750,228862 1272923,228862 833164,0 3345977,4614 3345977,4614 0,0 2519489,-4614 3352569,-4614 833312,0 1009738,74254 1242360,-228862 46365,-60588 71237,-123989 81626,-187102l-9377081 0z"/>
  <circle fill="#7D8993" cx="8924948" cy="3572599" r="99414"/>
  <rect fill="#EAE5E5" x="5812561" y="3812397" width="6218730" height="307090"/>
  <rect fill="#EAE5E5" x="5812561" y="4349825" width="383869" height="2380003"/>
  <rect fill="#7D8993" x="6733849" y="4656915" width="1228377" height="307090"/>
  <rect fill="#EAE5E5" x="6733849" y="4963995" width="1228377" height="614207"/>
  <rect fill="#EAE5E5" x="11186746" y="4349788" width="844508" height="230338"/>
  <rect fill="#7D8993" x="11186746" y="4580098" width="844508" height="230338"/>
  <rect fill="#EAE5E5" x="11186746" y="4810436" width="844508" height="230338"/>
  <rect fill="#7D8993" x="11186746" y="5040747" width="844508" height="230338"/>
  <rect fill="#EAE5E5" x="11186746" y="5271085" width="844508" height="230338"/>
  <rect fill="#7D8993" x="11186746" y="5501386" width="844508" height="153559"/>
  <rect fill="#EAE5E5" x="11186746" y="5654945" width="844508" height="153559"/>
  <rect fill="#7D8993" x="11186746" y="5808541" width="844508" height="307090"/>
  <rect fill="#EAE5E5" x="11186746" y="6115593" width="844508" height="230338"/>
  <rect fill="#7D8993" x="11186746" y="6345931" width="844508" height="230338"/>
  <rect fill="#EAE5E5" x="11186746" y="6576241" width="844508" height="230338"/>
  <rect fill="#7D8993" x="11186746" y="6806580" width="844508" height="153559"/>
  <line fill="none" stroke="#EAE5E5" stroke-width="76779.4" x1="8005430" y1="7457539" x2="8439582" y2= "7095840" />
  <rect fill="#7D8993" x="9651251" y="6960101" width="1151626" height="230338"/>
  <rect fill="#EAE5E5" x="9651251" y="7190449" width="1151626" height="614207"/>
  <path fill="white" d="M11818212 8309651c88068,149 132205,233 220265,381 24862,0 48602,8996 52575,19645 9981,28085 14827,42159 24808,70624 3769,10826 -13667,19729 -39142,19729 -89285,-232 -134118,-316 -223403,-613 -25476,0 -48751,-9052 -52056,-19821 -8820,-28493 -13119,-42596 -21966,-70717 -3538,-10705 13954,-19385 38909,-19237l10 9z"/>
  <path fill="white" d="M11871716 8444559c81393,148 122076,315 203377,464 31018,83 60272,11141 64887,24575 13582,38909 20285,58582 33719,98105 4754,13582 -17203,24723 -48750,24723 -82935,-232 -124305,-380 -207212,-612 -31399,0 -60737,-11197 -65119,-24873 -11985,-39550 -17732,-59102 -29802,-98049 -4094,-13378 17872,-24343 48890,-24343l10 10z"/>
  <path fill="white" d="M11925981 8617753c82935,149 124546,316 207444,464 31947,84 61256,11290 65954,25188 13527,39931 20574,59892 34008,100194 4614,13898 -18197,25244 -50283,25188 -84522,-232 -126598,-381 -211129,-613 -32235,0 -62324,-11429 -66242,-25420 -11986,-40302 -17816,-60411 -29942,-100249 -4150,-13871 18337,-24835 50200,-24752l-10 0z"/>
  <path fill="white" d="M11979801 8794476c84755,148 127155,232 211910,464 32466,0 62416,11522 67318,25559 13527,40535 20342,60876 33776,101735 4614,14131 -18661,25559 -51675,25476 -86064,-149 -129123,-316 -215187,-464 -32931,-149 -63197,-11605 -67402,-25708 -11893,-40766 -18049,-61201 -30034,-101735 -4123,-14186 18921,-25476 51303,-25336l-9 9z"/>
  <path fill="white" d="M12033862 8973677c86380,233 129588,316 216032,613 32931,0 63809,11605 68340,25791 13518,40915 20054,61433 33544,102487 4846,14131 -18894,25652 -52344,25652 -87893,-232 -131676,-315 -219485,-547 -33627,-84 -64710,-11661 -68712,-25940 -11986,-41091 -17668,-61572 -29709,-102487 -4178,-14131 19413,-25569 52344,-25569l-10 0z"/>
  <path fill="white" d="M12087608 9154309c88069,232 132205,315 220265,547 33543,0 65119,11661 69928,25885 13434,41147 19961,61664 33311,102719 4382,14047 -19357,25559 -53653,25559 -89433,-232 -134350,-381 -223811,-613 -34323,0 -65639,-11661 -69789,-25884 -11893,-40999 -17667,-61572 -29625,-102636 -4150,-14214 19821,-25652 53365,-25596l9 19z"/>
  <path fill="white" d="M11429264 8308584c88069,232 132345,380 220413,696 24808,0 47906,8764 50979,19413 8588,28084 13286,42076 21883,70568 3222,10909 -14595,19878 -39987,19822 -89285,-232 -134062,-381 -223347,-613 -25243,0 -48602,-9052 -51276,-19877 -7604,-28493 -11289,-42540 -18893,-70568 -2934,-10677 15114,-19441 40219,-19441l9 0z"/>
  <path fill="white" d="M11115099 8442785c224248,548 336280,752 560611,1393 33395,83 63717,11809 68015,26265 11197,37609 16888,56586 28085,94744 4437,14511 -19497,26497 -53217,26497 -228388,-548 -342490,-929 -570823,-1542 -33775,-83 -64181,-12125 -67087,-26729 -8123,-38157 -12125,-57134 -20341,-94651 -3138,-14390 21678,-26060 54757,-25967l0 -10z"/>
  <path fill="white" d="M11416210 8616453c123674,316 185478,465 309235,752 34008,84 65406,12218 69788,26961 11206,38474 16888,57887 28085,96741 4150,14743 -20342,27016 -54897,26868 -125994,-316 -189163,-464 -315093,-752 -34472,-149 -65583,-12274 -69027,-27184 -9284,-38854 -13898,-58211 -23182,-96740 -3398,-14743 21186,-26729 55101,-26636l-10 -10z"/>
  <path fill="white" d="M11145505 8792322c252044,613 378029,984 630167,1625 34620,0 66474,12450 70856,27332 11206,39142 16804,58815 27945,98198 4438,14975 -20889,27249 -56029,27193 -256511,-548 -384650,-845 -641076,-1448 -35168,-149 -66335,-12590 -69464,-27658 -7984,-39373 -11753,-59046 -19728,-98105 -3073,-15003 22718,-27193 57338,-27128l-9 -9z"/>
  <path fill="white" d="M11613989 8972610c86445,232 129588,380 215976,613 32615,0 63346,11660 67263,25651 11606,40999 17269,61489 28781,102571 4002,14131 -20109,25559 -53653,25559 -87836,-148 -131908,-315 -219661,-548 -33720,0 -63810,-11753 -67263,-25884 -10074,-41091 -14883,-61572 -24956,-102487 -3686,-13898 20573,-25559 53504,-25475l9 0z"/>
  <path fill="white" d="M11659574 9153241c87976,149 131909,232 219894,464 33924,84 64654,11810 68572,25940 11605,41147 17584,61665 29162,102719 3917,14131 -20890,25569 -55361,25569 -89434,-149 -134063,-316 -223487,-548 -34091,-84 -64942,-11754 -68480,-25884 -10073,-41092 -15114,-61572 -25243,-102636 -3602,-14251 21502,-25624 54962,-25624l-19 0z"/>
  <path fill="white" d="M11070183 8307795c76232,148 114241,232 190463,464 24872,0 47442,8764 50199,19413 7279,28029 11058,42224 18281,70624 2608,10909 -15672,19645 -41147,19729 -77244,-149 -115782,-232 -193026,-465 -25243,0 -48138,-9144 -50199,-19960 -6295,-28493 -9377,-42596 -15672,-70624 -2432,-10649 16220,-19237 41092,-19181l9 0z"/>
  <path fill="white" d="M10705290 8306894c76000,149 114158,232 190324,381 25244,83 47442,8820 49587,19589 5923,28029 8903,42159 14826,70568 2293,10826 -16368,19729 -41760,19646 -77160,-149 -115865,-232 -193025,-381 -25244,0 -47535,-9052 -49531,-19877 -4995,-28410 -7371,-42596 -12357,-70624 -1829,-10798 16739,-19386 41927,-19293l9 -9z"/>
  <path fill="white" d="M10340602 8305826c76083,232 113925,381 190092,613 25039,84 46745,8904 48751,19590 4669,28028 6907,42159 11521,70568 1681,10825 -17435,19645 -42920,19645 -77160,-148 -115689,-381 -192849,-548 -25420,0 -47154,-8903 -48603,-19821 -3769,-28410 -5542,-42540 -9284,-70569 -1392,-10648 18104,-19468 43292,-19468l0 -10z"/>
  <path fill="white" d="M9975626 8305130c76083,149 114157,232 190324,381 24955,0 46457,8820 47906,19589 3305,28029 4994,42159 8300,70569 1448,10908 -18336,19728 -43617,19589 -77160,-149 -115689,-232 -192849,-381 -25420,0 -46746,-9052 -47767,-19960 -2377,-28410 -3686,-42457 -6062,-70392 -929,-10854 18716,-19386 43756,-19386l9 -9z"/>
  <path fill="white" d="M9611086 8304202c76000,148 114009,232 190175,464 25040,0 45994,8903 46922,19589 2061,28029 3222,42076 5311,70485 752,10965 -19590,19822 -44973,19729 -77160,-149 -115549,-232 -192700,-381 -25244,-148 -46458,-9052 -46922,-19877 -1160,-28493 -1393,-42688 -2469,-70773 -316,-10649 19468,-19320 44656,-19236z"/>
  <path fill="white" d="M9246425 8303273c76000,149 114093,232 190176,464 24955,0 45529,8913 45993,19497 845,28029 1393,42159 2145,70568 315,10909 -20286,19590 -45613,19590 -77067,-149 -115633,-316 -192701,-464 -25336,-84 -46225,-8997 -46076,-19822 148,-28409 148,-42595 315,-70568 0,-10733 20574,-19265 45761,-19265z"/>
  <path fill="white" d="M8881746 8302373c76167,148 114093,232 190324,464 24807,83 45381,8820 45065,19589 -464,28029 -752,42076 -1216,70485 -149,10909 -20954,19729 -46365,19729 -77067,-149 -115689,-232 -192793,-464 -25244,-84 -45613,-9052 -45065,-19961 1448,-28409 2237,-42456 3686,-70485 612,-10770 21325,-19441 46364,-19357z"/>
  <path fill="white" d="M8517197 8301584c76000,148 114157,232 190231,380 25104,149 45065,8913 44220,19590 -1773,28028 -2701,41992 -4530,70392 -548,10825 -21883,19728 -47154,19645 -77160,-149 -115633,-149 -192794,-381 -25243,0 -45148,-9135 -43988,-19961 2758,-28409 4150,-42456 6908,-70485 900,-10732 21938,-19329 47098,-19180l9 0z"/>
  <path fill="white" d="M8152834 8300599c75999,149 114157,233 190324,465 24955,0 44220,8903 43236,19645 -3073,27945 -4763,42075 -7836,70392 -1309,10909 -22486,19728 -47822,19645 -77068,-149 -115922,-316 -193026,-548 -25475,0 -44601,-8996 -43236,-19877 4066,-28409 6155,-42391 10213,-70392 1708,-10649 23275,-19413 48138,-19330l9 0z"/>
  <path fill="white" d="M7788702 8299764c75935,148 113777,148 189804,316 25188,148 44453,8819 42596,19496 -4299,28029 -6527,42159 -10909,70568 -1680,10826 -23739,19646 -49066,19646 -77160,-149 -115866,-232 -192933,-465 -25188,-83 -43849,-9052 -42076,-19960 5367,-28317 8068,-42540 13435,-70485 2088,-10528 24203,-19209 49159,-19125l-10 9z"/>
  <path fill="white" d="M7424330 8298835c75999,149 114092,233 190175,381 25039,149 43672,8904 41519,19645 -5599,28029 -8449,42076 -14131,70485 -2237,10825 -24640,19645 -49911,19497 -77160,-149 -115633,-232 -192701,-381 -25104,-84 -43988,-9052 -41462,-19877 6675,-28410 9980,-42456 16655,-70485 2321,-10593 24807,-19357 49846,-19265l10 0z"/>
  <path fill="white" d="M7060254 8297814c76000,149 113860,316 189860,548 25039,84 43384,8764 40534,19413 -6814,28029 -10129,42159 -16971,70568 -2841,10909 -25559,19729 -50663,19646 -77161,-149 -115782,-316 -192850,-465 -25243,-148 -43616,-9052 -40450,-19877 7919,-28409 11985,-42447 19821,-70485 2906,-10593 25996,-19357 50719,-19357l0 9z"/>
  <path fill="white" d="M6696355 8296979c75934,148 113925,380 189860,612 25039,84 42920,8820 39606,19413 -8124,28029 -12274,41992 -20425,70392 -3139,10826 -26265,19646 -51824,19590 -77012,-149 -115457,-232 -192469,-381 -25243,-83 -42920,-8996 -39606,-19821 9284,-28410 13899,-42540 23183,-70485 3481,-10649 26729,-19330 51675,-19330l0 10z"/>
  <path fill="white" d="M6332456 8296134c75934,148 113860,315 189850,548 24956,83 42391,8764 38705,19413 -9516,27945 -14186,42075 -23739,70392 -3602,10908 -27332,19821 -52567,19728 -77011,-148 -115633,-315 -192617,-464 -25104,-149 -42688,-9145 -38621,-19961 10500,-28316 15810,-42391 26348,-70392 3890,-10649 27592,-19329 52641,-19264z"/>
  <path fill="white" d="M5923872 8295233c87688,149 131444,232 219105,381 24955,83 42159,8903 38009,19496 -10909,28029 -16275,42076 -27184,70392 -4234,10826 -28261,19822 -53504,19729 -88998,-232 -133366,-381 -222326,-613 -25337,0 -42159,-9052 -37610,-19877 11985,-28316 17872,-42391 29857,-70336 4587,-10677 28465,-19357 53653,-19181l0 9z"/>
  <path fill="white" d="M10714575 8441625c79768,232 119839,380 199607,613 30406,0 57748,10825 60505,24027 8068,39318 12218,59112 20341,98950 2702,13285 -20573,24259 -51740,24166 -81161,-148 -121751,-381 -202913,-548 -31018,-83 -58351,-11057 -60588,-24343 -6675,-39930 -10073,-59808 -16739,-99117 -2377,-12969 20982,-23739 51536,-23739l-9 -9z"/>
  <path fill="white" d="M10312053 8440696c79769,149 119784,316 199553,548 30405,0 57134,10909 59279,24027 6155,39318 9144,59196 15291,99127 2144,13350 -21419,24166 -52521,24110 -81217,-232 -121844,-315 -203061,-547 -30935,0 -57654,-11141 -59103,-24492 -4762,-39838 -7139,-59576 -11809,-98894 -2061,-13202 21966,-23944 52371,-23879z"/>
  <path fill="white" d="M9909755 8439796c79769,148 119468,232 199228,464 30405,149 56902,10732 58350,24027 4382,39318 6387,59196 10732,99034 1393,13350 -22950,24110 -53829,24166 -81217,-232 -121612,-381 -202829,-613 -31111,-83 -57283,-10964 -58267,-24343 -2758,-39838 -4234,-59715 -7056,-99033 -1012,-13202 23154,-23795 53653,-23711l18 9z"/>
  <path fill="white" d="M9507290 8438867c79769,149 119700,149 199459,381 30406,0 56030,10909 56958,24111 2293,39318 3370,59195 5691,99033 929,13351 -23646,24176 -54729,24176 -81310,-232 -121752,-381 -203006,-613 -30647,0 -56355,-11141 -56819,-24491 -928,-39838 -1393,-59660 -2237,-98950 -233,-13202 24435,-23739 54664,-23647l19 0z"/>
  <path fill="white" d="M9105001 8437855c79685,149 119607,149 199376,381 30554,0 55658,10909 55890,24027 464,39318 613,59047 1077,98894 232,13435 -25039,24260 -55974,24260 -81217,-149 -121696,-316 -202913,-548 -30786,-84 -55974,-11141 -55825,-24408 984,-39838 1625,-59576 2525,-98894 436,-13026 25531,-23851 55862,-23712l-18 0z"/>
  <path fill="white" d="M8703083 8436778c79621,149 119552,233 199144,381 30405,84 54897,10909 54581,24111 -1541,39234 -2005,59112 -3537,98894 -548,13351 -26116,24259 -57134,24167 -81162,-149 -121845,-233 -203006,-465 -31111,-83 -55742,-11196 -54897,-24575 2989,-39838 4670,-59659 7687,-98894 956,-12942 26608,-23674 57162,-23619z"/>
  <path fill="white" d="M8301166 8435878c79620,148 119375,148 198995,316 30405,148 54525,10964 53272,24110 -3305,39235 -4846,59047 -8124,98894 -1392,13286 -27657,24111 -58814,24111 -81069,-148 -121520,-232 -202598,-464 -30934,-83 -54729,-11057 -53040,-24399 4847,-39838 6991,-59659 11754,-98949 1597,-13119 28084,-23712 58555,-23619z"/>
  <path fill="white" d="M7899165 8434717c79685,149 119607,316 199320,548 30173,84 53736,10965 52139,24111 -5310,39318 -7984,59047 -13350,98894 -1681,13351 -28642,24259 -59576,24111 -81162,-149 -121696,-316 -202830,-464 -30879,-149 -54293,-11197 -52139,-24492 6759,-39838 10129,-59659 16887,-98950 2294,-13174 29078,-23850 59539,-23767l10 9z"/>
  <path fill="white" d="M7497108 8433789c79537,232 119467,316 199088,548 30470,83 53365,10909 50979,24027 -7140,39235 -10677,59047 -17816,98894 -2470,13351 -29802,24259 -60737,24167 -81078,-149 -121519,-316 -202597,-465 -30870,-83 -54062,-11141 -51044,-24398 8587,-39838 13053,-59660 21650,-98894 2813,-13202 30006,-23944 60467,-23879l10 0z"/>
  <path fill="white" d="M7095515 8432805c79620,148 119375,381 199088,613 30554,83 52808,10732 49763,23878 -9052,39318 -13518,59112 -22579,98950 -3222,13351 -30879,24399 -61897,24167 -81162,-149 -121612,-381 -202774,-613 -30786,-84 -53216,-11141 -49818,-24408 10500,-39782 15810,-59576 26264,-98801 3686,-13351 31399,-23879 61953,-23795l0 9z"/>
  <path fill="white" d="M6693737 8431876c79620,149 119467,316 199088,465 30405,83 52139,10825 48519,23971 -10965,39235 -16424,59047 -27426,98894 -3685,13351 -31863,24167 -62881,24167 -80985,-149 -121519,-232 -202542,-464 -31101,-84 -52900,-11197 -48602,-24492 12450,-39838 18745,-59576 31167,-98894 4094,-13118 32262,-23879 62677,-23647z"/>
  <path fill="white" d="M6292153 8430892c79621,149 119468,149 199079,381 30406,84 51824,11057 47358,24166 -12821,39235 -19181,59047 -32095,98802 -4298,13350 -33070,24259 -64032,24176 -81078,-233 -121612,-316 -202681,-548 -30935,0 -52140,-11141 -47442,-24399 14418,-39838 21734,-59659 36245,-98894 4614,-13230 33256,-23674 63578,-23674l-10 -10z"/>
  <path fill="white" d="M5877795 8429871c81078,149 121520,232 202598,464 30786,84 52139,11197 46921,24492 -14650,38909 -22114,58415 -36765,97873 -4902,13582 -35019,24723 -66474,24575 -82470,-149 -123608,-381 -206051,-548 -31631,-84 -52752,-11290 -47209,-24863 16191,-39467 24342,-59047 40534,-97873 5422,-13350 35428,-24166 66446,-24111l0 -9z"/>
  <path fill="white" d="M5811776 8602462c170131,465 255118,697 425332,1161 33924,83 57571,12273 52520,26868 -13202,38473 -19877,57803 -33163,96657 -4994,14826 -37312,26868 -71645,26784 -173204,-380 -259880,-612 -433019,-1077 -34556,-83 -57571,-12357 -51675,-27193 15671,-38770 23507,-58118 39086,-96508 6155,-14799 38566,-26692 72573,-26692l-9 0z"/>
  <path fill="white" d="M5741291 8779064c206516,465 309875,697 516474,1161 34556,148 58815,12357 53736,27332 -12821,39086 -19264,58815 -32095,98105 -4902,15059 -37609,27249 -72778,27193 -210145,-547 -315092,-845 -525154,-1392 -35020,-84 -58731,-12450 -52985,-27426 15728,-39373 23564,-59046 39235,-98104 5830,-14827 39170,-26961 73558,-26869l9 0z"/>
  <path fill="white" d="M5671187 8958154c301947,697 452897,985 754908,1681 35168,0 60356,12506 55742,27564 -11893,39551 -17733,59344 -29709,99034 -4615,15114 -37610,27425 -73382,27332 -307090,-752 -460649,-1160 -767673,-1912 -35781,-84 -60180,-12506 -54201,-27713 15727,-39606 23647,-59279 39374,-98802 6090,-15059 39578,-27249 74950,-27184l-9 0z"/>
  <path fill="white" d="M5600795 9138581c127907,233 191865,381 319772,697 35864,83 60820,12589 55658,27713 -13898,39699 -20806,59511 -34620,99182 -5134,15059 -39550,27332 -76000,27249 -129968,-316 -194938,-316 -324850,-613 -36477,0 -61257,-12599 -55278,-27797 15672,-39606 23415,-59427 39003,-99033 6155,-15031 40534,-27481 76315,-27388l0 -10z"/>
  <path fill="white" d="M6410312 8604087c86983,232 130507,316 217498,548 33395,0 56819,11893 52576,26348 -11605,38770 -17352,58351 -28929,97585 -4298,14511 -35317,26488 -69408,26404 -88440,-232 -132744,-316 -221100,-548 -33776,-83 -57515,-12125 -52669,-26636 13118,-39234 19645,-58814 32847,-97585 4670,-14539 35920,-26199 69176,-26116l9 0z"/>
  <path fill="white" d="M6827948 8605080c86992,233 130515,316 217507,548 33312,0 57515,11893 53885,26348 -9665,38771 -14418,58351 -24111,97586 -3602,14650 -34471,26496 -68247,26404 -88533,-233 -132670,-381 -221110,-613 -33924,0 -58350,-12042 -54117,-26636 11197,-39235 16888,-58731 28085,-97585 4298,-14391 34936,-26144 68098,-26061l10 9z"/>
  <path fill="white" d="M7245760 8606092c87047,149 130515,233 217572,465 33256,0 58035,11985 55046,26404 -7836,38770 -11810,58415 -19646,97585 -2757,14511 -32559,26404 -66566,26348 -88534,-232 -132754,-316 -221259,-548 -33924,-83 -58880,-12041 -55194,-26636 9377,-39234 14047,-58815 23331,-97585 3509,-14362 33460,-26116 66706,-26033l10 0z"/>
  <path fill="white" d="M7663488 8607169c87048,232 130516,381 217656,613 33256,0 58731,11810 56438,26265 -5923,38854 -8820,58499 -14743,97733 -2377,14512 -31863,26497 -65778,26349 -88533,-149 -132669,-381 -221110,-613 -33859,-84 -59511,-12218 -56818,-26729 7455,-39234 11196,-58815 18661,-97585 2729,-14446 32438,-26116 65694,-26033z"/>
  <path fill="white" d="M8081365 8608237c87140,149 130748,232 217888,464 33256,84 59112,11986 57654,26404 -4066,38854 -5979,58351 -10073,97585 -1625,14651 -30405,26553 -64097,26497 -88673,-232 -133041,-381 -221806,-613 -33627,-83 -59948,-12125 -57655,-26729 5543,-39234 8356,-58814 13982,-97668 2210,-14363 30786,-26116 64098,-25940l9 0z"/>
  <path fill="white" d="M8499474 8609138c87140,232 130516,380 217656,612 33311,0 59892,11810 59112,26349 -2061,38854 -3073,58350 -5134,97585 -984,14511 -29486,26497 -63253,26348 -88588,-149 -132985,-232 -221657,-381 -33776,-83 -60505,-12125 -59196,-26784 3770,-39235 5747,-58815 9517,-97669 1244,-14307 29746,-26060 62964,-26060l-9 0z"/>
  <path fill="white" d="M8917667 8610215c87140,232 130608,315 217739,612 33312,0 60588,11810 60356,26265 -315,38854 -548,58416 -845,97669 0,14511 -27945,26552 -61665,26404 -88672,-149 -132985,-232 -221722,-465 -33720,-148 -60969,-12217 -60505,-26868 1857,-39234 2841,-58814 4670,-97585 845,-14334 28697,-26032 61953,-26032l19 0z"/>
  <path fill="white" d="M9335627 8611282c87224,232 130748,381 217972,613 33395,0 61108,11809 61804,26265 1541,38854 2293,58415 3834,97668 697,14595 -26496,26497 -60179,26497 -88672,-232 -133041,-381 -221806,-613 -34091,0 -61489,-12125 -61721,-26784 0,-39235 -148,-58815 -148,-97585 -112,-14446 27072,-26116 60235,-26061l9 0z"/>
  <path fill="white" d="M9754107 8612303c87224,233 130665,233 217889,465 33395,83 61572,12041 62797,26552 3538,38854 5311,58351 8820,97585 1309,14595 -25187,26497 -59195,26404 -88589,-148 -133041,-148 -221723,-380 -34091,-84 -62101,-12274 -62732,-26869 -2006,-39318 -3138,-58814 -5134,-97668 -752,-14511 26060,-26228 59278,-26089z"/>
  <path fill="white" d="M10172541 8613288c87224,232 130748,380 217972,612 33395,0 62417,11986 64330,26404 5310,38854 8068,58416 13434,97585 2005,14595 -24167,26404 -58267,26349 -88589,-149 -132753,-316 -221426,-465 -34007,-83 -63020,-12125 -64413,-26728 -3769,-39235 -5830,-58815 -9609,-97586 -1364,-14511 24807,-26227 57979,-26171z"/>
  <path fill="white" d="M10591282 8614365c87140,232 130608,380 217740,696 33311,0 62732,11754 65638,26265 7223,38853 10909,58415 17965,97668 2701,14595 -23043,26497 -56819,26404 -88765,-232 -133134,-315 -221955,-548 -33859,-83 -63029,-12041 -65406,-26636 -5598,-39234 -8439,-58814 -14130,-97668 -1941,-14511 23563,-26172 56957,-26172l10 -9z"/>
  <path fill="white" d="M11009911 8615525c87224,149 130608,381 217805,548 33394,0 63345,11893 66799,26265 9135,38853 13666,58415 22811,97668 3305,14595 -21419,26497 -55510,26404 -88765,-148 -133134,-316 -221862,-548 -33720,-83 -63810,-12217 -66474,-26729 -7604,-39318 -11605,-58879 -19181,-97733 -2730,-14363 22226,-26033 55630,-25884l-18 9z"/>
  <path fill="white" d="M6470640 8780800c88895,233 133357,316 222261,548 33924,84 58351,12218 54201,26868 -11141,39551 -16656,59279 -27713,99034 -4150,14743 -35633,26868 -70253,26784 -90297,-232 -135362,-380 -225631,-612 -34556,0 -58963,-12274 -54349,-27101 12589,-39782 18893,-59511 31482,-98949 4670,-14744 36217,-26637 69993,-26581l9 9z"/>
  <path fill="white" d="M6897031 8781877c88765,233 133217,316 221954,548 34008,84 58731,12042 55510,26785 -9228,39550 -13750,59344 -22950,99126 -3371,14743 -34704,26729 -69093,26729 -90297,-232 -135362,-316 -225547,-613 -34621,0 -59660,-12218 -55593,-26961 10825,-39782 16135,-59576 26961,-99117 3741,-14650 34936,-26552 68767,-26497l-9 0z"/>
  <path fill="white" d="M7323207 8782889c88905,232 133366,381 222327,613 33775,0 59195,12125 56670,26785 -7279,39466 -10965,59279 -18281,98950 -2933,14826 -33162,26961 -67551,26868 -90362,-232 -135798,-381 -226188,-613 -34555,-84 -59808,-12274 -56494,-27017 8764,-39782 13119,-59511 21883,-99033 3249,-14650 33720,-26553 67634,-26553z"/>
  <path fill="white" d="M7749849 8783966c88765,232 133133,381 221954,613 33859,84 60041,12042 58035,26785 -5459,39466 -8123,59344 -13666,99126 -1913,14827 -31947,26868 -66567,26785 -90213,-233 -135427,-381 -225548,-613 -34704,-84 -60820,-12274 -58267,-27100 6908,-39699 10501,-59428 17436,-98895 2609,-14798 32699,-26784 66623,-26691l0 -10z"/>
  <path fill="white" d="M8176193 8785127c88765,148 133133,316 221954,548 34008,83 60820,12125 59511,26784 -3685,39467 -5542,59344 -9228,99034 -1161,14826 -30405,26961 -65026,26868 -90362,-232 -135594,-316 -225872,-548 -34472,0 -61201,-12357 -59279,-27017 5078,-39782 7835,-59659 12914,-99182 1912,-14771 31074,-26580 65026,-26487z"/>
  <path fill="white" d="M8602657 8786111c88821,232 133218,232 222094,464 34008,84 61340,12218 60737,26868 -1625,39467 -2293,59344 -4002,99034 -752,14826 -29393,26784 -64041,26784 -90362,-232 -135743,-315 -226012,-547 -34556,0 -61953,-12358 -60644,-27101 3138,-39782 4846,-59659 7984,-99117 1105,-14566 29886,-26376 63894,-26376l-10 -9z"/>
  <path fill="white" d="M9029382 8787188c88904,148 133273,232 222270,464 33860,84 61805,12218 61953,26868 149,39551 316,59428 464,99182 -148,14743 -28316,26785 -62797,26785 -90446,-232 -135511,-464 -225873,-696 -34472,0 -62500,-12125 -61953,-27017 1309,-39783 1913,-59576 3222,-99034 585,-14743 28614,-26552 62705,-26552l9 0z"/>
  <path fill="white" d="M9456079 8788348c88904,149 133422,233 222326,465 33775,148 62268,12218 63030,26868 2144,39550 3305,59344 5366,99126 613,14743 -27193,26868 -61665,26868 -90446,-232 -135659,-380 -226012,-613 -34555,0 -62733,-12357 -63113,-27100 -613,-39782 -984,-59511 -1625,-99033 56,-14771 27685,-26757 61693,-26581z"/>
  <path fill="white" d="M9882943 8789249c88904,149 133366,316 222326,464 34091,84 63252,12218 64654,26868 4002,39551 5831,59344 9841,99127 1625,14743 -25568,26868 -59947,26728 -90594,-232 -135975,-315 -226420,-547 -34389,-84 -63253,-12218 -64330,-27017 -2377,-39782 -3686,-59576 -6155,-99126 -929,-14567 25884,-26553 60040,-26497l-9 0z"/>
  <path fill="white" d="M10309816 8790410c88997,232 133505,232 222503,464 33859,83 63577,12125 65638,26868 5830,39467 8681,59279 14511,99033 2238,14827 -24176,26868 -58815,26868 -90501,-232 -135742,-380 -226104,-696 -34556,-83 -64330,-12273 -65955,-27100 -4382,-39782 -6387,-59511 -10732,-99034 -1448,-14566 25104,-26552 58963,-26403l-9 0z"/>
  <path fill="white" d="M10737061 8791486c88904,149 133366,233 222326,465 33924,83 64329,12273 67263,26961 7743,39466 11373,59279 19125,99033 2841,14743 -22867,26961 -57515,26785 -90501,-232 -135798,-316 -226244,-548 -34620,0 -64942,-12274 -67031,-27100 -6211,-39783 -9377,-59576 -15579,-99127 -2376,-14715 23563,-26608 57655,-26459l0 -10z"/>
  <path fill="white" d="M6642702 8960540c90594,233 135799,316 226421,548 34555,84 59715,12274 55973,27193 -10073,39838 -15114,59808 -25187,99823 -3835,14827 -35633,27100 -70717,27017 -92126,-233 -138203,-381 -230339,-613 -35084,0 -60411,-12357 -56122,-27193 11661,-39987 17584,-60040 29254,-99962 4299,-15059 36245,-26961 70717,-26813z"/>
  <path fill="white" d="M7077467 8961469c90501,232 135891,381 226420,696 34621,0 60505,12274 57283,27017 -8123,39931 -12273,59892 -20490,99878 -3073,14827 -34472,26961 -69696,26961 -92042,-232 -138119,-316 -230161,-548 -34936,-148 -61108,-12357 -57190,-27248 9664,-39987 14650,-59948 24342,-99823 3482,-14799 34936,-26924 69492,-26924l0 -9z"/>
  <path fill="white" d="M7512315 8962629c90594,232 135743,316 226244,548 34620,84 61340,12357 58880,27193 -6388,39931 -9516,59892 -15904,99879 -2525,14882 -33079,26961 -68247,26868 -92126,-232 -138212,-316 -230338,-548 -35401,0 -61433,-12357 -58732,-27184 7836,-39986 11754,-59947 19590,-99878 3017,-14883 33664,-26868 68507,-26868l0 -10z"/>
  <path fill="white" d="M7947071 8963697c90594,232 135798,381 226336,613 34788,0 61721,12218 60273,27017 -4531,39930 -6815,60040 -11290,100054 -1541,14883 -31863,26961 -67170,26868 -92126,-232 -138120,-315 -230162,-547 -35085,-84 -62268,-12450 -59947,-27249 5979,-39987 8903,-59892 14882,-99823 2145,-14947 32411,-26924 67087,-26924l-9 -9z"/>
  <path fill="white" d="M8382160 8964681c90734,232 135975,316 226653,548 34555,83 62185,12357 61024,27184 -2609,39931 -4001,59891 -6620,99878 -752,14882 -30405,27017 -65573,26961 -92126,-232 -138212,-381 -230338,-613 -35317,0 -62733,-12450 -61201,-27249 4150,-39986 6155,-59891 10212,-99822 1653,-14920 31306,-26896 65843,-26896l0 9z"/>
  <path fill="white" d="M8817241 8965842c90733,232 135974,315 226708,547 34555,84 62732,12274 62500,27101 -696,39931 -1160,59947 -1773,99962 -84,14826 -29106,26868 -64422,26868 -92126,-149 -138408,-149 -230543,-381 -35224,-149 -63494,-12450 -62500,-27249 2144,-39986 3370,-60040 5459,-99962 928,-14910 29857,-26896 64561,-26896l10 10z"/>
  <path fill="white" d="M9252553 8967011c90594,149 135882,233 226476,465 34704,83 63253,12357 63949,27193 1160,39838 1773,59808 2934,99822 464,15059 -28261,27101 -63578,27017 -92042,-232 -138036,-381 -230106,-613 -35168,0 -64042,-12450 -63865,-27249 380,-39986 548,-59891 928,-99822 84,-14910 28493,-26896 63253,-26813l9 0z"/>
  <path fill="white" d="M9687550 8967903c90826,232 136114,380 226940,613 34620,0 64042,12273 65026,27193 3073,39930 4753,59891 7836,99878 1077,14882 -26785,26961 -62037,26961 -92219,-232 -138268,-316 -230477,-548 -35317,-83 -64710,-12273 -65026,-27193 -1625,-39987 -2293,-60040 -3918,-99962 -752,-14854 27045,-26989 61665,-26924l-9 -18z"/>
  <path fill="white" d="M10123494 8968980c90677,232 135891,380 226569,612 34555,84 64505,12274 66334,27101 4847,39838 7372,59715 12218,99729 1913,14976 -25568,27101 -60643,27017 -92359,-148 -138408,-232 -230719,-464 -35169,-232 -65258,-12450 -66335,-27249 -3370,-39986 -5079,-59947 -8532,-99878 -1393,-14883 26172,-26868 61108,-26868z"/>
  <path fill="white" d="M10558555 8970140c90734,232 136124,232 226857,464 34788,84 64942,12274 67728,27101 6758,39931 10129,59891 16887,99878 2526,14827 -24110,26961 -59344,26961 -92218,-232 -138351,-316 -230486,-548 -35456,0 -65639,-12273 -67551,-27100 -5311,-39987 -8124,-60040 -13583,-99962 -1913,-14882 24807,-26868 59483,-26784l9 -10z"/>
  <path fill="white" d="M10995576 8971124c164059,381 246066,613 410218,984 35223,84 67086,12450 70624,27565 9432,39550 14279,59344 23739,98950 3537,15207 -23043,27564 -58880,27481 -166909,-381 -250271,-697 -417115,-1077 -36152,0 -67496,-12599 -70160,-27797 -7056,-39606 -10732,-59279 -17733,-98745 -2906,-15059 23823,-27426 59307,-27361z"/>
  <path fill="white" d="M6141064 9139974c92275,232 138352,316 230626,548 35400,0 60505,12218 56123,27193 -12042,39987 -17965,60040 -30034,100055 -4438,14882 -37462,27016 -73475,26961 -93751,-232 -140728,-381 -234460,-613 -35865,0 -61108,-12274 -55974,-27193 13527,-39987 20286,-60124 33776,-100111 5226,-14947 38101,-26923 73409,-26840l9 0z"/>
  <path fill="white" d="M6584027 9141051c92358,232 138583,232 230951,464 35316,84 61200,12357 57190,27333 -10213,40070 -15440,60040 -25652,100054 -3537,14743 -35920,26868 -71878,26868 -93815,-232 -140728,-315 -234544,-612 -35781,0 -61711,-12274 -57329,-27184 11744,-39987 17575,-59948 29245,-100055 4326,-14826 36793,-26868 72017,-26868z"/>
  <path fill="white" d="M7027407 9142128c92358,232 138352,232 230719,464 35168,84 61721,12357 58648,27333 -8300,39986 -12450,60123 -20806,100110 -3222,14882 -34788,26868 -70717,26785 -93899,-233 -140793,-316 -234693,-548 -35780,-149 -62268,-12218 -58499,-27100 9665,-39987 14511,-60041 24176,-100055 4094,-14855 35865,-27156 71181,-26989l-9 0z"/>
  <path fill="white" d="M7470555 9143196c92358,232 138732,315 231091,612 35168,0 62417,12358 59808,27194 -6388,39986 -9517,60040 -15904,100054 -2470,14975 -34008,26961 -69788,26868 -93900,-148 -140729,-232 -234628,-464 -35864,0 -62881,-12357 -59892,-27249 7985,-39986 11893,-60040 19878,-100054 2868,-14976 34035,-27045 69435,-26961z"/>
  <path fill="white" d="M7913908 9144189c92451,232 138583,381 231007,613 35223,83 62732,12273 61200,27184 -4614,39986 -6759,59947 -11289,99961 -1681,14827 -32411,27101 -68248,27101 -93982,-232 -140876,-464 -234859,-697 -35781,-83 -63346,-12217 -61025,-27100 5979,-39986 8997,-60124 14976,-100110 2321,-14975 33023,-27017 68247,-26961l-9 9z"/>
  <path fill="white" d="M8357372 9145350c92451,148 138732,232 231183,380 35224,149 63401,12450 62500,27193 -2701,39987 -3918,60180 -6619,100194 -984,14827 -31343,26961 -67171,26961 -93899,-232 -140793,-464 -234692,-696 -36013,-84 -64098,-12274 -62556,-27193 4233,-39987 6155,-59948 10361,-100055 1652,-14743 31742,-26784 67003,-26784l-9 0z"/>
  <path fill="white" d="M8801188 9146334c92358,232 138584,315 231007,547 35400,84 64190,12506 63726,27249 -752,39987 -1216,60180 -1912,100194 -84,14827 -29942,26868 -65871,26785 -93816,-149 -140728,-232 -234544,-464 -36152,0 -64710,-12358 -64042,-27249 2293,-39987 3538,-60040 5831,-100055 872,-14882 30442,-27072 65815,-27017l-10 10z"/>
  <path fill="white" d="M9244801 9147401c92451,232 138639,316 231183,548 35456,84 64329,12357 64886,27249 1161,39987 1774,60124 2934,100110 464,14883 -28493,27017 -64506,26961 -94048,-232 -140876,-380 -234924,-612 -35865,-84 -65175,-12358 -65175,-27194 465,-39986 613,-60040 1077,-100054 112,-14883 29310,-27073 64534,-27017l-9 9z"/>
  <path fill="white" d="M9688562 9148571c92506,232 138815,232 231322,464 35317,84 65351,12357 66651,27249 2989,39987 4233,60040 7223,100055 1077,14882 -27333,27100 -63401,26961 -94048,-232 -141109,-381 -235157,-613 -36013,0 -65639,-12273 -66186,-27193 -1542,-39987 -2145,-60040 -3686,-100110 -437,-14920 27973,-26961 63224,-26813l10 0z"/>
  <path fill="white" d="M10132611 9149555c92506,149 138815,316 231322,548 35317,149 65722,12506 67495,27249 4847,39986 7223,60040 12042,100054 1857,14976 -25940,27017 -61665,27017 -94132,-232 -141341,-464 -235389,-696 -35920,-84 -66103,-12274 -67495,-27100 -3305,-39987 -4902,-60041 -8207,-100055 -1421,-14882 26431,-27156 61897,-27017z"/>
  <path fill="white" d="M10577439 9150623c167374,381 251144,548 418481,984 35920,0 67959,12589 70772,27657 7511,39699 11141,59576 18568,99266 2841,15114 -24640,27332 -61488,27249 -170066,-381 -255118,-613 -425100,-984 -36533,-149 -68015,-12590 -69872,-27713 -5227,-39606 -7752,-59511 -12970,-99127 -1940,-15114 25763,-27388 61600,-27332l9 0z"/>
  <path fill="white" d="M11231633 9152164c87976,232 131909,316 219894,613 33544,0 64274,11661 67635,25884 9664,41091 14362,61572 24027,102571 3537,14278 -21883,25707 -56030,25651 -89368,-148 -133969,-232 -223347,-380 -34472,-232 -64877,-11893 -67635,-26116 -8123,-40999 -12273,-61433 -20573,-102432 -2841,-14186 22347,-25800 56029,-25800l0 9z"/>
  <path fill="white" d="M7717234 9427242c791700,1913 1583225,3835 2374926,5599 36384,83 67031,12218 68247,27016 16804,185478 25244,277697 41844,454494 1216,14130 -29013,25420 -67171,25420 -833925,-1857 -1667840,-3538 -2501765,-5311 -38242,-83 -67635,-11605 -65175,-25652 31631,-176973 47442,-269248 78841,-454809 2237,-14678 34156,-26812 70253,-26757z"/>
  <path fill="white" d="M7572346 9967196c499178,1077 748781,1541 1248200,2525 7984,0 14362,2525 14279,5311 -1681,36384 -2609,54293 -4382,89981 -149,2934 -7140,5078 -14883,5134 -504720,-984 -756997,-1448 -1261485,-2469 -7984,0 -13982,-2470 -13518,-5227 6527,-35688 9832,-53737 16368,-90065 548,-2962 7223,-5255 15440,-5190l-19 0z"/>
  <path fill="white" d="M8944247 9970037c499410,1077 749310,1541 1248952,2609 8067,0 14511,2376 14826,5310 3361,36301 5134,54349 8532,89982 381,2840 -6155,5134 -13982,5134 -505008,-984 -757461,-1625 -1262237,-2609 -7984,0 -14650,-2377 -14362,-5227 1392,-35688 2144,-53736 3537,-90130 149,-2757 6731,-5078 14743,-5078l-9 9z"/>
  <path fill="#4F5954" d="M8771888 7415844c-397155,-397155 -1432313,-637761 -2069062,-755836 57747,56438 92739,94976 92739,94976l393469 1214944 -429018 411341 336428 720000 -530001 3002716 2784623 0c-27945,-1228378 -140124,-4249143 -579178,-4688141z"/>
  <path fill="#4F5954" d="M2578034 8381817l-428925 -410821 393330 -1213960c0,0 35549,-35549 93584,-90502 -637678,118911 -1662159,353019 -2056696,747537 -439518,439379 -551465,3461443 -579327,4689821l1052565 28 0 0 389004 0 90130 -1568343 51443 1568343 1188623 0 -530195 -3002336 336483 -719767 -19 0z"/>
  <path fill="#FFCFBA" d="M3519840 6012721c0,464 232,984 232,1448 3222,-1160 6676,-2934 9832,-4057 -2376,7047 -4530,14363 -6907,21418 49586,386794 566441,678213 647890,721829l21966 3686 482615 883131 485512 -877913c-2470,-752 -4763,-1913 -7223,-2609 0,0 530056,-247514 658660,-612954l0 -604209c-230339,350920 -522602,544846 -1165590,544846 -614811,0 -830555,-180715 -1137645,-508861l0 439973c3222,-1309 6675,-2934 9897,-4066 204,-205 752,-1653 752,-1653l9 -9z"/>
  <polygon fill="#34393E" points="1441550,12103985 1583123,12103985 1531680,10535642 "/>
  <path fill="white" d="M6016286 7045873l-404907 713009c0,0 -73846,-875295 -450288,-996536l-485511 877913 -482615 -883130 -21966 -3686c6991,3769 11809,6294 11809,6294 -382876,112004 -457659,999145 -457659,999145l-390861 -688285c-22866,320932 -25939,680997 -9841,1115910 16656,451133 382793,2151672 782334,3917478l568734 0 632079 0c359462,-1765806 689353,-3466345 706018,-3917478 16656,-448663 19794,-815579 2674,-1140634z"/>
  <path fill="#3B433F" d="M3529960 6010112c-3222,1161 -6675,2934 -9841,4057 548,5923 2237,11522 2989,17436 2238,-7140 4382,-14446 6852,-21502l0 9z"/>
  <path fill="#3B433F" d="M3334335 7070513l-38622 -68015c36765,-422027 217192,-968962 223487,-988004 -3222,1216 -6620,2841 -9897,4067 -284223,109858 -691823,476078 -873299,647890 -58035,54962 -93584,90501 -93584,90501l-393329 1213960 428925 410821 -336511 719768 530288 3002484 478697 0 856356 0c-399532,-1765806 -765762,-3466345 -782334,-3917478 -16135,-434932 -13053,-795006 9804,-1115994l19 0z"/>
  <path fill="#3B433F" d="M6760072 8381817l429017 -410821 -393469 -1213960c0,0 -35019,-36385 -92738,-92823 -178422,-174188 -577341,-542042 -859392,-640750 50200,147960 88209,305780 116711,478140 34555,159677 66706,338423 80846,500867l-24640 43385c17120,324989 14046,691971 -2609,1140569 -16739,451132 -346640,2151671 -706018,3917478l830118 27 428628 0 529964 -3002335 -336428 -719768 10 -9z"/>
  <path fill="#BFBFBF" d="M3523062 6031530c-752,-5830 -2470,-11428 -2990,-17435 0,-464 -232,-928 -232,-1448 0,0 -464,1448 -612,1773 -6295,19032 -186787,565977 -223487,988004l38622 68015 390860 688285c0,0 74774,-887141 457659,-999144 0,0 -4846,-2526 -11809,-6295 -81570,-43440 -598416,-334942 -648011,-721745l0 -10z"/>
  <path fill="#BFBFBF" d="M5153905 6759737c2470,697 4763,1857 7223,2609 376442,121232 450288,996536 450288,996536l404907 -713009 24640 -43384c-14130,-162463 -46281,-341182 -80837,-500859 -56818,-262489 -119987,-473154 -119987,-473154 -3537,40766 -14047,79908 -27481,118242 -128687,365496 -658743,613010 -658743,613010l-10 9z"/>
  <g id="_906784979504">
  </g>
  <g id="_906784978960">
  </g>
  <g id="_906784977872">
  </g>
  <g id="_906784978384">
   <path fill="#FFCFBA" d="M3507771 6195376c9990,-33488 18661,-61804 25568,-83687 -8820,27481 -17444,55333 -25568,83687z"/>
   <path fill="#F4B4A7" d="M4645026 6134732c642988,0 1012012,-193916 1165571,-544781l0 -64561c-233551,303172 -526130,469301 -1121500,469301 -643276,0 -934341,-197677 -1181707,-555281l0 186554c230311,328026 522732,508768 1137626,508768l10 0z"/>
   <path fill="#3B433F" d="M5863266 6073448c1624,4846 3082,9981 4762,14827 465,-4067 1681,-7985 2061,-12042 -2293,-780 -4670,-2089 -6823,-2785z"/>
   <path fill="#FFCFBA" d="M4689079 5994691c595453,0 887967,-166139 1121499,-469301 161998,-210285 295652,-486580 482142,-819321 123896,-220962 219095,-471372 291576,-729971 52669,13062 110239,-372 171199,-54349 190323,-167977 397990,-980475 257809,-1148452 -47209,-56958 -97724,-68804 -143801,-59808 -8680,66883 -19125,134350 -30647,202365 -3917,23183 -8587,46514 -12914,69873 -8207,44981 -16739,90120 -26264,135510 -1913,9748 -3445,19265 -5543,28929 -149,-557 -316,-2061 -464,-2608 -22718,106637 -47906,244385 -76835,321155l-58759 -28c33924,-307081 57282,-758380 -22570,-1130728 -138249,-644344 -607486,-1189914 -962185,-1134033 -349945,55361 -627316,219801 -984540,224043 -357364,-4233 -634828,-168209 -984764,-223635 -354615,-55964 -823842,489198 -962138,1133569 -79918,372348 -56494,823703 -22663,1130784l-58731 0c-41695,-153559 -76166,-308241 -104631,-459887 -84,324 -149,1225 -233,1541 -2701,-14131 -4846,-27797 -7455,-41927 -5542,-30935 -11206,-61721 -16275,-92451 -8996,-54526 -17212,-108726 -24110,-162463 -46077,-8996 -96509,2934 -143811,59892 -140116,167977 67551,980474 257819,1148451 61108,53969 118846,67403 171366,54294 72546,258655 167893,509102 291817,730026 162147,289302 285616,535646 422343,733342 247458,357511 538496,555188 1181763,555188z"/>
   <path fill="#323232" d="M2548251 2968579c2469,13750 4995,26348 7687,40070 28493,151693 62965,306329 104632,459887l58731 0c-33859,-307080 -57274,-758380 22662,-1130728 138259,-644343 607496,-1189914 962139,-1134033 350001,55361 627400,219801 984763,224044 357224,-4234 634689,-168209 984541,-223635 354699,-55974 823926,489197 962185,1133569 79852,372347 56493,823703 22569,1130783l58787 0c28929,-76779 54117,-214490 76835,-321155 1913,-9052 4150,-17732 5979,-26952 9516,-45297 17965,-90213 26256,-135185 4298,-23331 8996,-46514 12914,-69705 11512,-68015 21966,-135418 30637,-202301 82285,-634539 33720,-1215398 -181727,-1676957 -337634,-723500 -1299995,-1032159 -1999013,-1036281 -699324,4150 -1661611,312865 -1999245,1036281 -215503,461624 -264021,1042511 -181727,1677050 6991,53746 15291,108030 24111,162528 4985,30934 10760,61804 16275,92738l9 -18z"/>
  </g>
 </g>
</svg>
