<?xml version="1.0" encoding="UTF-8"?>
<!DOCTYPE svg PUBLIC "-//W3C//DTD SVG 1.1//EN" "http://www.w3.org/Graphics/SVG/1.1/DTD/svg11.dtd">
<!-- Creator: CorelDRAW X7 -->
<svg xmlns="http://www.w3.org/2000/svg" xml:space="preserve" width="555px" height="520px" version="1.1" style="shape-rendering:geometricPrecision; text-rendering:geometricPrecision; image-rendering:optimizeQuality; fill-rule:evenodd; clip-rule:evenodd"
viewBox="0 0 16687106 15645588"
 xmlns:xlink="http://www.w3.org/1999/xlink">
 <defs>
  <style type="text/css">
   <![CDATA[
    .str0 {stroke:#EAE5E5;stroke-width:94043.7}
    .fil5 {fill:none}
    .fil12 {fill:#323232}
    .fil0 {fill:#343643}
    .fil9 {fill:#34393E}
    .fil10 {fill:#3B433F}
    .fil6 {fill:#4F5954}
    .fil4 {fill:#7D8993}
    .fil14 {fill:#BF9537}
    .fil11 {fill:#BFBFBF}
    .fil2 {fill:#EAE5E5}
    .fil8 {fill:#F4B4A7}
    .fil13 {fill:#FFC749}
    .fil7 {fill:#FFCFBA}
    .fil1 {fill:white}
    .fil3 {fill:#7D8993;fill-opacity:0.200000}
   ]]>
  </style>
 </defs>
 <g id="Layer_x0020_1">
  <metadata id="CorelCorpID_0Corel-Layer"/>
  <path class="fil0" d="M15130764 10680677c0,0 -304487,-19086 -730313,-19086l-6937269 0c-425792,0 -719758,10912 -719758,10912l0 -5030379c0,-425720 293966,-810993 719758,-810993l6937269 35c425720,0 770831,362420 770831,788034l-40518 5061477z"/>
  <rect class="fil1" x="7119599" y="5489543" width="7617078" height="5360171"/>
  <path class="fil2" d="M16466640 13128479l-1302324 -2466888 -8465000 0 -1302324 2466888c0,0 -402404,477149 -107940,842306 284832,353286 501033,264254 1521617,264254 1020513,0 4121218,0 4121218,0 0,0 3100812,0 4121112,0 1020583,0 1236678,89068 1521617,-264254 294428,-365050 -107976,-842306 -107976,-842306z"/>
  <path class="fil3" d="M5201477 13739372c12795,77197 43148,154963 99979,229174 284832,371270 538636,280319 1559149,280319 1020513,0 4098365,5651 4098365,5651 0,0 3086027,-5651 4106433,-5651 1020690,0 1236785,90951 1521723,-280319 56796,-74211 87256,-151870 99980,-229174l-11485629 0z"/>
  <circle class="fil4" cx="10931852" cy="5195826" r="121766"/>
  <rect class="fil2" x="7119599" y="5489543" width="7617078" height="376139"/>
  <rect class="fil2" x="7119599" y="6147814" width="470183" height="2915177"/>
  <rect class="fil4" x="8248052" y="6523953" width="1504593" height="376139"/>
  <rect class="fil2" x="8248052" y="6900092" width="1504593" height="752314"/>
  <rect class="fil2" x="13702231" y="6147778" width="1034410" height="282131"/>
  <rect class="fil4" x="13702231" y="6429874" width="1034410" height="282131"/>
  <rect class="fil2" x="13702231" y="6712005" width="1034410" height="282131"/>
  <rect class="fil4" x="13702231" y="6994100" width="1034410" height="282131"/>
  <rect class="fil2" x="13702231" y="7276231" width="1034410" height="282131"/>
  <rect class="fil4" x="13702231" y="7558327" width="1034410" height="188087"/>
  <rect class="fil2" x="13702231" y="7746414" width="1034410" height="188087"/>
  <rect class="fil4" x="13702231" y="7934537" width="1034410" height="376139"/>
  <rect class="fil2" x="13702231" y="8310641" width="1034410" height="282131"/>
  <rect class="fil4" x="13702231" y="8592772" width="1034410" height="282131"/>
  <rect class="fil2" x="13702231" y="8874868" width="1034410" height="282131"/>
  <rect class="fil4" x="13702231" y="9156999" width="1034410" height="188087"/>
  <line class="fil5 str0" x1="9805566" y1="9954344" x2="10337343" y2= "9511315" />
  <rect class="fil4" x="11821464" y="9345051" width="1410584" height="282131"/>
  <rect class="fil2" x="11821464" y="9627182" width="1410584" height="752314"/>
  <path class="fil1" d="M14475693 10998066c107869,178 161928,284 269798,462 30459,0 59532,11018 64401,24062 12227,34404 18162,51642 30389,86509 4620,13257 -16740,24168 -47946,24168 -109362,-284 -164275,-391 -273637,-746 -31206,0 -59710,-11089 -63762,-24275 -10805,-34902 -16065,-52176 -26905,-86616 -4336,-13115 17096,-23742 47662,-23564z"/>
  <path class="fil1" d="M14541232 11163300c99695,178 149524,391 249112,569 37995,106 73821,13648 79472,30104 16634,47661 24844,71759 41300,120167 5828,16633 -21077,30281 -59711,30281 -101578,-284 -152261,-462 -253804,-746 -38456,0 -74389,-13719 -79756,-30460 -14679,-48443 -21716,-72398 -36501,-120095 -5012,-16385 21894,-29820 59888,-29820z"/>
  <path class="fil1" d="M14607695 11375449c101579,178 152546,391 254089,569 39131,107 75028,13826 80786,30850 16563,48906 25199,73359 41655,122726 5651,17025 -22285,30922 -61594,30850 -103533,-284 -155069,-462 -258602,-746 -39487,0 -76344,-14003 -81142,-31135 -14679,-49367 -21823,-73998 -36679,-122797 -5083,-16989 22462,-30423 61487,-30317z"/>
  <path class="fil1" d="M14673625 11591899c103818,178 155744,284 259562,569 39771,0 76451,14110 82457,31312 16563,49652 24915,74567 41371,124610 5651,17309 -22854,31312 -63300,31205 -105417,-177 -158161,-390 -263578,-568 -40340,-178 -77411,-14217 -82564,-31490 -14572,-49937 -22107,-74958 -36786,-124610 -5047,-17380 23173,-31206 62838,-31028z"/>
  <path class="fil1" d="M14739840 11811405c105808,285 158729,391 264608,747 40340,0 78157,14217 83702,31596 16562,50114 24559,75243 41086,125534 5935,17309 -23138,31419 -64118,31419 -107656,-284 -161288,-391 -268838,-675 -41193,-107 -79258,-14288 -84163,-31774 -14679,-50328 -21645,-75420 -36395,-125534 -5118,-17309 23778,-31313 64118,-31313z"/>
  <path class="fil1" d="M14805663 12032653c107869,285 161929,391 269798,676 41086,0 79756,14287 85656,31703 16456,50398 24453,75526 40802,125818 5367,17202 -23706,31312 -65717,31312 -109540,-284 -164559,-462 -274134,-746 -42046,0 -80396,-14288 -85478,-31703 -14572,-50221 -21645,-75420 -36288,-125712 -5083,-17415 24275,-31419 65361,-31348z"/>
  <path class="fil1" d="M13999290 10996751c107869,284 162106,462 269976,853 30388,0 58679,10734 62447,23777 10520,34405 16278,51536 26798,86438 3945,13364 -17877,24346 -48977,24275 -109362,-284 -164203,-462 -273565,-746 -30921,0 -59533,-11089 -62802,-24346 -9312,-34902 -13826,-52105 -23138,-86438 -3590,-13079 18517,-23813 49261,-23813z"/>
  <path class="fil1" d="M13614478 11161132c274668,675 411895,924 686669,1706 40908,107 78049,14465 83310,32165 13719,46063 20685,69307 34404,116044 5438,17771 -23884,32450 -65184,32450 -279749,-675 -419500,-1137 -699179,-1884 -41370,-106 -78618,-14856 -82172,-32734 -9952,-46737 -14857,-69982 -24915,-115937 -3839,-17629 26550,-31917 67067,-31810z"/>
  <path class="fil1" d="M13983296 11373850c151479,391 227183,569 378769,924 41655,107 80112,14963 85478,33018 13720,47129 20686,70906 34405,118497 5082,18055 -24915,33089 -67245,32912 -154323,-391 -231697,-569 -385949,-925 -42224,-177 -80325,-15034 -84554,-33302 -11373,-47591 -17025,-71297 -28398,-118497 -4158,-18055 25946,-32734 67494,-32627z"/>
  <path class="fil1" d="M13651726 11589269c308717,746 463039,1208 771862,1990 42402,0 81427,15248 86793,33481 13720,47946 20579,72043 34227,120273 5438,18340 -25590,33374 -68631,33303 -314190,-675 -471143,-1031 -785226,-1777 -43077,-178 -81249,-15425 -85087,-33872 -9774,-48230 -14394,-72327 -24168,-120166 -3768,-18376 27829,-33303 70230,-33232z"/>
  <path class="fil1" d="M14225549 11810090c105879,285 158730,462 264538,747 39949,0 77588,14288 82386,31419 14217,50220 21147,75313 35258,125640 4904,17309 -24631,31312 -65717,31312 -107585,-177 -161574,-390 -269052,-675 -41300,0 -78157,-14394 -82386,-31703 -12333,-50327 -18233,-75420 -30566,-125534 -4514,-17024 25199,-31312 65539,-31206z"/>
  <path class="fil1" d="M14281385 12031338c107763,178 161574,285 269336,569 41549,107 79188,14465 83986,31774 14216,50399 21538,75527 35719,125818 4798,17309 -25590,31313 -67814,31313 -109539,-178 -164203,-391 -273743,-675 -41761,-107 -79542,-14395 -83878,-31704 -12333,-50327 -18518,-75420 -30922,-125711 -4407,-17451 26337,-31384 67316,-31384z"/>
  <path class="fil1" d="M13559460 10995791c93368,178 139928,285 233296,569 30460,0 58111,10734 61488,23777 8921,34334 13541,51714 22391,86509 3199,13364 -19193,24062 -50398,24169 -94613,-178 -141812,-285 -236425,-569 -30921,0 -58964,-11196 -61487,-24453 -7713,-34902 -11480,-52175 -19193,-86509 -2985,-13043 19868,-23564 50328,-23493z"/>
  <path class="fil1" d="M13112521 10994690c93084,177 139822,284 233119,462 30921,106 58111,10804 60741,23990 7250,34334 10911,51643 18162,86438 2808,13257 -20046,24169 -51145,24062 -94506,-178 -141918,-284 -236424,-462 -30922,0 -58218,-11089 -60670,-24346 -6113,-34796 -9028,-52176 -15141,-86509 -2239,-13222 20508,-23742 51358,-23635z"/>
  <path class="fil1" d="M12665831 10993374c93191,285 139537,463 232835,747 30672,106 57258,10911 59710,23991 5722,34333 8459,51642 14110,86437 2062,13257 -21361,24062 -52566,24062 -94506,-178 -141706,-462 -236211,-675 -31135,0 -57756,-10911 -59533,-24275 -4620,-34796 -6788,-52105 -11373,-86438 -1706,-13044 22178,-23849 53028,-23849z"/>
  <path class="fil1" d="M12218786 10992521c93191,178 139822,285 233119,463 30566,0 56902,10804 58679,23990 4052,34334 6114,51643 10165,86438 1777,13364 -22462,24168 -53419,23991 -94506,-178 -141705,-285 -236211,-462 -31135,0 -57258,-11089 -58502,-24453 -2914,-34796 -4514,-51998 -7428,-86225 -1137,-13292 22924,-23742 53597,-23742z"/>
  <path class="fil1" d="M11772274 10991384c93084,178 139644,284 232941,569 30673,0 56334,10911 57471,23991 2524,34333 3945,51535 6504,86331 924,13434 -23990,24275 -55089,24168 -94506,-178 -141528,-284 -236034,-462 -30921,-178 -56902,-11089 -57471,-24346 -1422,-34902 -1706,-52282 -3021,-86687 -391,-13043 23849,-23670 54699,-23564z"/>
  <path class="fil1" d="M11325620 10990247c93084,178 139750,284 232941,568 30566,0 55765,10912 56334,23885 1030,34333 1706,51642 2630,86437 391,13364 -24844,23991 -55872,23991 -94399,-178 -141634,-391 -236033,-569 -31028,-106 -56619,-11018 -56441,-24275 178,-34795 178,-52175 391,-86437 0,-13151 25199,-23600 56050,-23600z"/>
  <path class="fil1" d="M10878930 10989145c93297,178 139750,284 233119,569 30388,106 55587,10804 55196,23990 -569,34334 -924,51536 -1493,86332 -177,13363 -25661,24168 -56795,24168 -94400,-178 -141706,-284 -236140,-569 -30922,-106 -55872,-11089 -55197,-24452 1777,-34796 2737,-51998 4514,-86332 746,-13186 26123,-23813 56796,-23706z"/>
  <path class="fil1" d="M10432418 10988185c93084,178 139821,285 233012,462 30744,178 55196,10912 54166,23991 -2168,34334 -3306,51429 -5545,86225 -675,13257 -26798,24168 -57755,24061 -94506,-177 -141635,-177 -236140,-462 -30922,0 -55303,-11195 -53882,-24452 3377,-34796 5083,-51998 8459,-86331 1102,-13151 26870,-23671 57685,-23494z"/>
  <path class="fil1" d="M9986119 10986977c93084,178 139821,284 233119,569 30566,0 54165,10911 52957,24061 -3767,34227 -5829,51536 -9596,86225 -1600,13364 -27545,24168 -58573,24062 -94399,-178 -141990,-391 -236424,-676 -31206,0 -54628,-11017 -52958,-24346 4976,-34795 7535,-51926 12511,-86224 2097,-13044 28504,-23778 58964,-23671z"/>
  <path class="fil1" d="M9540104 10985946c93013,178 139360,178 232479,391 30851,178 54451,10805 52176,23884 -5260,34334 -7997,51643 -13364,86438 -2061,13257 -29073,24062 -60101,24062 -94506,-178 -141919,-284 -236318,-569 -30850,-106 -53703,-11089 -51535,-24453 6575,-34688 9880,-52104 16455,-86331 2559,-12901 29642,-23528 60208,-23422z"/>
  <path class="fil1" d="M9093805 10984809c93085,178 139751,284 232942,462 30672,178 53490,10911 50860,24062 -6860,34333 -10343,51535 -17309,86331 -2737,13257 -30175,24062 -61132,23884 -94506,-178 -141634,-284 -236033,-462 -30744,-107 -53882,-11089 -50789,-24346 8174,-34796 12226,-51998 20401,-86331 2843,-12973 30388,-23707 61060,-23600z"/>
  <path class="fil1" d="M8647862 10983565c93084,178 139466,391 232550,675 30673,107 53135,10734 49652,23778 -8352,34333 -12404,51642 -20792,86437 -3483,13364 -31312,24169 -62056,24062 -94506,-177 -141812,-391 -236211,-568 -30921,-178 -53419,-11089 -49545,-24347 9703,-34795 14679,-51997 24275,-86331 3554,-12972 31845,-23706 62127,-23706z"/>
  <path class="fil1" d="M8202132 10982534c93013,178 139537,462 232550,747 30673,106 52566,10804 48515,23777 -9952,34334 -15034,51429 -25022,86225 -3838,13257 -32165,24061 -63477,23990 -94328,-177 -141421,-284 -235749,-462 -30922,-106 -52567,-11018 -48515,-24275 11373,-34795 17024,-52104 28398,-86331 4265,-13044 32734,-23671 63300,-23671z"/>
  <path class="fil1" d="M7756402 10981504c93013,177 139466,390 232550,675 30566,106 51927,10733 47413,23777 -11658,34227 -17380,51536 -29073,86225 -4408,13364 -33481,24275 -64402,24168 -94328,-177 -141635,-391 -235927,-568 -30744,-178 -52282,-11196 -47306,-24453 12866,-34689 19370,-51927 32272,-86225 4762,-13044 33800,-23671 64473,-23599z"/>
  <path class="fil1" d="M7255937 10980402c107408,177 161005,284 268376,462 30566,106 51643,10911 46560,23884 -13363,34333 -19939,51536 -33302,86224 -5190,13257 -34618,24275 -65540,24169 -109006,-285 -163350,-462 -272321,-747 -31028,0 -51642,-11089 -46062,-24346 14678,-34689 21893,-51926 36572,-86153 5616,-13080 34867,-23707 65717,-23493z"/>
  <path class="fil1" d="M13123894 11159710c97705,285 146788,462 244493,747 37248,0 70728,13257 74104,29428 9881,48159 14964,72399 24915,121198 3306,16278 -25199,29713 -63371,29606 -99410,-177 -149133,-462 -248544,-675 -37994,-107 -71475,-13541 -74211,-29820 -8175,-48905 -12333,-73251 -20508,-121410 -2914,-15888 25697,-29074 63122,-29074z"/>
  <path class="fil1" d="M12630858 11158573c97705,178 146717,391 244421,675 37248,0 69982,13364 72612,29429 7535,48159 11196,72505 18731,121411 2630,16349 -26230,29606 -64331,29535 -99482,-284 -149240,-391 -248722,-675 -37887,0 -70621,-13648 -72398,-29998 -5829,-48798 -8744,-72967 -14466,-121126 -2523,-16172 26905,-29322 64153,-29251z"/>
  <path class="fil1" d="M12138106 11157471c97704,178 146326,284 244030,569 37248,178 69698,13150 71475,29428 5367,48160 7819,72506 13150,121305 1706,16349 -28113,29535 -65930,29606 -99481,-284 -148956,-462 -248437,-746 -38101,-107 -70160,-13435 -71368,-29820 -3377,-48799 -5189,-73145 -8637,-121304 -1244,-16172 28363,-29144 65717,-29038z"/>
  <path class="fil1" d="M11645141 11156334c97704,178 146610,178 244314,462 37248,0 68632,13364 69769,29535 2808,48159 4123,72505 6966,121304 1137,16350 -28966,29607 -67032,29607 -99588,-285 -149133,-462 -248650,-747 -37533,0 -69023,-13648 -69591,-29997 -1138,-48799 -1706,-73074 -2737,-121198 -284,-16171 29926,-29073 66961,-28966z"/>
  <path class="fil1" d="M11152389 11155090c97598,178 146503,178 244208,462 37425,0 68169,13364 68453,29429 569,48159 747,72327 1315,121126 285,16456 -30672,29713 -68560,29713 -99482,-178 -149062,-391 -248544,-675 -37710,-107 -68560,-13648 -68383,-29891 1209,-48799 1991,-72967 3093,-121126 533,-15959 31276,-29216 68418,-29038z"/>
  <path class="fil1" d="M10660099 11153775c97526,178 146432,284 243923,462 37248,106 67245,13364 66855,29535 -1884,48053 -2453,72399 -4337,121127 -675,16349 -31987,29713 -69981,29606 -99411,-178 -149241,-284 -248651,-569 -38101,-106 -68276,-13719 -67245,-30104 3660,-48799 5722,-73074 9418,-121126 1173,-15852 32592,-29002 70018,-28931z"/>
  <path class="fil1" d="M10167809 11152673c97527,178 146219,178 243746,391 37247,178 66783,13435 65254,29535 -4051,48053 -5935,72328 -9951,121127 -1706,16278 -33872,29535 -72044,29535 -99303,-178 -148849,-284 -248153,-569 -37887,-106 -67032,-13541 -64970,-29890 5935,-48799 8565,-73074 14394,-121198 1955,-16065 34405,-29038 71724,-28931z"/>
  <path class="fil1" d="M9675412 11151251c97598,178 146504,391 244137,676 36963,106 65823,13434 63869,29535 -6505,48159 -9774,72328 -16350,121126 -2061,16350 -35079,29713 -72967,29536 -99411,-178 -149062,-391 -248437,-569 -37817,-178 -66499,-13719 -63869,-29997 8281,-48799 12404,-73074 20685,-121198 2808,-16136 35613,-29215 72932,-29109z"/>
  <path class="fil1" d="M9182944 11150114c97421,284 146326,391 243853,675 37319,107 65361,13364 62447,29429 -8743,48052 -13079,72328 -21823,121127 -3021,16349 -36501,29712 -74389,29606 -99304,-178 -148849,-391 -248153,-569 -37816,-106 -66214,-13648 -62518,-29890 10520,-48799 15994,-73075 26514,-121127 3448,-16172 36750,-29322 74069,-29251z"/>
  <path class="fil1" d="M8691045 11148906c97527,177 146219,462 243853,746 37425,107 64686,13150 60954,29251 -11089,48159 -16562,72399 -27651,121198 -3946,16349 -37817,29890 -75811,29606 -99411,-178 -148956,-462 -248366,-746 -37710,-107 -65184,-13649 -61026,-29891 12866,-48728 19370,-72968 32166,-121020 4513,-16349 38456,-29251 75881,-29144z"/>
  <path class="fil1" d="M8198933 11147768c97527,178 146326,391 243853,569 37247,107 63868,13257 59426,29357 -13435,48053 -20117,72328 -33587,121127 -4514,16349 -39025,29606 -77020,29606 -99197,-177 -148849,-284 -248082,-568 -38100,-107 -64792,-13719 -59532,-29998 15247,-48799 22960,-72967 38172,-121126 5011,-16065 39522,-29251 76770,-28967z"/>
  <path class="fil1" d="M7707034 11146560c97527,178 146326,178 243853,462 37247,106 63477,13541 58004,29606 -15710,48053 -23493,72328 -39309,121020 -5261,16349 -40518,29713 -78441,29607 -99304,-285 -148956,-391 -248260,-676 -37888,0 -63869,-13648 -58111,-29890 17664,-48799 26621,-73074 44392,-121127 5651,-16207 40731,-29002 77872,-29002z"/>
  <path class="fil1" d="M7199497 11145316c99304,178 148849,284 248153,569 37710,106 63868,13719 57471,29997 -17949,47661 -27083,71546 -45032,119882 -6006,16634 -42899,30282 -81426,30104 -101010,-177 -151408,-462 -252383,-675 -38740,-107 -64615,-13826 -57826,-30459 19832,-48337 29819,-72328 49652,-119883 6646,-16349 43396,-29606 81391,-29535z"/>
  <path class="fil1" d="M7118639 11356719c208382,568 312484,853 520972,1421 41549,107 70515,15035 64331,32912 -16172,47129 -24346,70799 -40624,118390 -6114,18162 -45707,32912 -87753,32805 -212149,-462 -318313,-746 -530391,-1315 -42330,-107 -70515,-15141 -63300,-33303 19193,-47484 28789,-71190 47875,-118212 7535,-18126 47235,-32698 88890,-32698z"/>
  <path class="fil1" d="M7032308 11573026c252951,569 379551,853 632609,1422 42330,178 72043,15141 65823,33480 -15709,47875 -23599,72044 -39309,120167 -6006,18447 -46062,33374 -89139,33303 -257394,-675 -385949,-1031 -643236,-1706 -42899,-107 -71937,-15247 -64899,-33587 19263,-48230 28860,-72328 48052,-120167 7144,-18162 47982,-33018 90099,-32912z"/>
  <path class="fil1" d="M6946439 11792391c369848,853 554737,1208 924656,2061 43077,0 73927,15318 68276,33765 -14572,48443 -21716,72683 -36395,121304 -5651,18517 -46062,33587 -89885,33480 -376139,-924 -564227,-1421 -940295,-2345 -43823,-107 -73714,-15319 -66392,-33943 19264,-48514 28967,-72612 48230,-121020 7464,-18446 48479,-33374 91805,-33302z"/>
  <path class="fil1" d="M6860214 12013390c156669,284 235003,462 391671,853 43930,106 74496,15425 68170,33942 -17025,48621 -25484,72896 -42402,121482 -6291,18446 -48443,33481 -93084,33374 -159192,-391 -238770,-391 -397891,-746 -44676,0 -75029,-15426 -67707,-34050 19193,-48514 28682,-72789 47768,-121304 7535,-18411 49652,-33658 93475,-33551z"/>
  <path class="fil1" d="M7851760 11358709c106555,284 159868,391 266422,675 40909,0 69591,14572 64402,32272 -14217,47484 -21254,71475 -35435,119528 -5261,17770 -43255,32449 -85016,32343 -108332,-285 -162604,-391 -270829,-676 -41371,-106 -70444,-14856 -64509,-32627 16065,-48053 24062,-72043 40234,-119527 5722,-17807 44000,-32095 84731,-31988z"/>
  <path class="fil1" d="M8363314 11359917c106555,285 159867,391 266422,676 40802,0 70444,14572 66001,32272 -11836,47484 -17664,71474 -29535,119527 -4408,17949 -42224,32450 -83595,32343 -108438,-284 -162497,-462 -270829,-746 -41548,0 -71474,-14750 -66285,-32628 13719,-48052 20685,-71936 34404,-119527 5261,-17629 42793,-32023 83417,-31917z"/>
  <path class="fil1" d="M8875081 11361161c106626,178 159867,285 266493,569 40731,0 71083,14679 67423,32343 -9597,47484 -14466,71546 -24062,119527 -3377,17771 -39878,32343 -81533,32272 -108438,-284 -162604,-391 -271007,-675 -41548,-107 -72114,-14750 -67600,-32627 11480,-48053 17202,-72044 28575,-119528 4301,-17593 40980,-31987 81711,-31881z"/>
  <path class="fil1" d="M9386741 11362476c106626,285 159867,463 266600,747 40731,0 71936,14465 69128,32165 -7250,47591 -10804,71653 -18055,119705 -2914,17771 -39025,32450 -80573,32272 -108438,-178 -162497,-462 -270829,-746 -41477,-107 -72896,-14963 -69591,-32734 9134,-48053 13719,-72044 22854,-119528 3341,-17699 39735,-31987 80466,-31881z"/>
  <path class="fil1" d="M9898579 11363792c106732,177 160152,284 266884,568 40731,107 72399,14679 70622,32343 -4976,47591 -7322,71475 -12333,119527 -1991,17949 -37248,32521 -78512,32450 -108616,-284 -162960,-462 -271682,-746 -41193,-107 -73430,-14857 -70622,-32734 6789,-48053 10236,-72044 17131,-119634 2702,-17593 37710,-31988 78512,-31774z"/>
  <path class="fil1" d="M10410702 11364893c106732,285 159867,462 266599,747 40802,0 73358,14465 72399,32272 -2524,47590 -3768,71474 -6291,119527 -1209,17771 -36111,32450 -77481,32272 -108510,-178 -162889,-284 -271505,-462 -41370,-107 -74104,-14857 -72505,-32805 4621,-48053 7037,-72044 11658,-119634 1528,-17522 36430,-31917 77126,-31917z"/>
  <path class="fil1" d="M10922931 11366208c106732,285 159973,391 266706,747 40802,0 74211,14465 73927,32165 -391,47591 -676,71546 -1031,119634 0,17771 -34227,32521 -75527,32343 -108615,-178 -162888,-284 -271575,-569 -41299,-177 -74673,-14963 -74104,-32911 2274,-48053 3483,-72044 5722,-119528 1030,-17557 35151,-31881 75882,-31881z"/>
  <path class="fil1" d="M11434875 11367523c106839,285 160152,462 266990,747 40909,0 74852,14465 75705,32165 1883,47591 2807,71546 4691,119634 853,17878 -32450,32450 -73714,32450 -108616,-285 -162959,-462 -271681,-747 -41762,0 -75314,-14856 -75598,-32805 0,-48052 -178,-72043 -178,-119527 -142,-17700 33161,-31988 73785,-31917z"/>
  <path class="fil1" d="M11947460 11368767c106838,285 160044,285 266883,569 40909,107 75420,14750 76913,32521 4336,47590 6504,71474 10804,119527 1600,17878 -30850,32450 -72505,32343 -108509,-178 -162959,-178 -271575,-462 -41762,-107 -76060,-15034 -76842,-32912 -2452,-48159 -3838,-72043 -6290,-119634 -925,-17770 31916,-32129 72612,-31952z"/>
  <path class="fil1" d="M12459973 11369976c106839,284 160151,462 266990,746 40909,0 76451,14679 78796,32343 6505,47591 9881,71546 16456,119527 2453,17878 -29606,32344 -71368,32272 -108509,-177 -162604,-391 -271220,-568 -41655,-107 -77196,-14857 -78902,-32734 -4621,-48053 -7144,-72044 -11765,-119527 -1670,-17771 30389,-32130 71013,-32059z"/>
  <path class="fil1" d="M12972877 11371291c106732,284 159974,462 266706,853 40802,0 76841,14394 80396,32165 8850,47591 13363,71546 22000,119634 3305,17878 -28220,32450 -69591,32343 -108722,-284 -163066,-391 -271859,-675 -41478,-107 -77197,-14750 -80112,-32628 -6859,-48052 -10342,-72043 -17309,-119633 -2381,-17771 28860,-32059 69769,-32059z"/>
  <path class="fil1" d="M13485639 11372713c106839,177 159974,462 266777,675 40909,0 77588,14572 81818,32165 11195,47591 16740,71546 27935,119634 4052,17878 -26229,32450 -67991,32343 -108723,-178 -163066,-391 -271753,-675 -41300,-107 -78157,-14963 -81426,-32734 -9312,-48159 -14217,-72115 -23494,-119705 -3340,-17593 27226,-31881 68134,-31703z"/>
  <path class="fil1" d="M7925652 11575159c108900,284 163350,391 272250,675 41549,107 71475,14963 66393,32912 -13649,48443 -20401,72612 -33943,121304 -5082,18055 -43645,32912 -86047,32805 -110606,-284 -165802,-462 -276373,-746 -42330,0 -72221,-15034 -66570,-33196 15425,-48728 23138,-72897 38563,-121198 5722,-18055 44356,-32627 85727,-32556z"/>
  <path class="fil1" d="M8447939 11576474c108723,284 163173,391 271860,675 41655,107 71936,14750 67991,32805 -11302,48444 -16847,72683 -28113,121411 -4123,18055 -42508,32734 -84625,32734 -110607,-284 -165803,-391 -276267,-746 -42402,0 -73074,-14963 -68098,-33019 13257,-48727 19761,-72967 33018,-121410 4585,-17949 42792,-32521 84234,-32450z"/>
  <path class="fil1" d="M8969942 11577718c108900,284 163350,462 272322,746 41370,0 72505,14857 69413,32805 -8921,48337 -13435,72612 -22391,121198 -3590,18162 -40625,33018 -82742,32912 -110677,-285 -166336,-462 -277048,-747 -42331,-106 -73252,-15034 -69200,-33089 10733,-48728 16065,-72896 26798,-121304 3981,-17949 41300,-32521 82848,-32521z"/>
  <path class="fil1" d="M9492514 11579033c108722,284 163066,462 271859,746 41478,107 73536,14750 71084,32805 -6682,48337 -9952,72683 -16740,121411 -2346,18162 -39132,32912 -81533,32805 -110500,-284 -165874,-462 -276267,-746 -42508,-107 -74496,-15034 -71368,-33196 8459,-48621 12866,-72790 21361,-121127 3199,-18126 40055,-32805 81604,-32698z"/>
  <path class="fil1" d="M10014730 11580455c108722,177 163066,391 271860,675 41655,106 74495,14856 72896,32805 -4514,48337 -6789,72683 -11302,121304 -1422,18162 -37248,33019 -79650,32912 -110677,-284 -166087,-391 -276657,-675 -42224,0 -74958,-15141 -72612,-33090 6219,-48728 9596,-73074 15816,-121482 2346,-18091 38065,-32556 79649,-32449z"/>
  <path class="fil1" d="M10537088 11581663c108794,284 163173,284 272038,569 41655,106 75135,14963 74389,32911 -1991,48337 -2808,72683 -4905,121305 -924,18162 -36004,32805 -78441,32805 -110677,-285 -166265,-391 -276835,-676 -42331,0 -75882,-15140 -74283,-33196 3839,-48727 5936,-73074 9774,-121410 1351,-17842 36608,-32308 78263,-32308z"/>
  <path class="fil1" d="M11059767 11582978c108900,178 163243,284 272250,569 41477,106 75704,14963 75882,32911 178,48444 391,72790 569,121482 -178,18056 -34689,32806 -76913,32806 -110784,-285 -165980,-569 -276658,-853 -42223,0 -76557,-14857 -75881,-33090 1599,-48728 2345,-72967 3945,-121304 711,-18055 35044,-32521 76806,-32521z"/>
  <path class="fil1" d="M11582409 11584400c108901,177 163422,284 272322,568 41371,178 76273,14963 77197,32912 2630,48444 4052,72683 6575,121411 746,18055 -33303,32912 -75526,32912 -110784,-285 -166158,-462 -276836,-747 -42330,0 -76841,-15140 -77303,-33196 -747,-48728 -1209,-72896 -1991,-121304 71,-18091 33907,-32770 75562,-32556z"/>
  <path class="fil1" d="M12105265 11585501c108901,178 163351,391 272322,569 41762,107 77481,14963 79187,32912 4905,48443 7144,72683 12049,121411 1990,18055 -31313,32912 -73430,32734 -110961,-284 -166549,-391 -277333,-675 -42117,-107 -77481,-14964 -78796,-33090 -2914,-48728 -4514,-72967 -7535,-121411 -1137,-17842 31704,-32521 73536,-32450z"/>
  <path class="fil1" d="M12628121 11586923c109007,285 163528,285 272535,569 41477,106 77872,14856 80396,32912 7144,48336 10627,72612 17771,121304 2736,18162 -29607,32912 -72044,32912 -110855,-285 -166264,-462 -276942,-853 -42330,-107 -78796,-15035 -80786,-33196 -5367,-48728 -7819,-72897 -13151,-121305 -1777,-17842 30744,-32521 72221,-32343z"/>
  <path class="fil1" d="M13151439 11588238c108900,178 163351,285 272322,569 41548,107 78796,15034 82386,33018 9489,48337 13932,72612 23422,121305 3483,18055 -28007,33018 -70444,32805 -110855,-285 -166336,-391 -277120,-676 -42401,0 -79542,-15034 -82101,-33196 -7606,-48728 -11480,-72967 -19086,-121411 -2915,-18019 28860,-32591 70621,-32414z"/>
  <path class="fil1" d="M8136415 11795305c110962,284 166336,391 277333,675 42330,107 73145,15034 68560,33303 -12333,48799 -18517,73252 -30850,122264 -4692,18162 -43646,33196 -86616,33089 -112845,-284 -169285,-462 -282131,-746 -42970,0 -73998,-15141 -68738,-33303 14288,-48976 21539,-73536 35827,-122441 5260,-18447 44391,-33019 86615,-32841z"/>
  <path class="fil1" d="M8668938 11796442c110855,285 166443,462 277333,853 42402,0 74105,15034 70160,33090 -9952,48905 -15034,73358 -25093,122335 -3767,18162 -42223,33018 -85371,33018 -112739,-284 -169179,-391 -281918,-675 -42792,-178 -74851,-15141 -70053,-33374 11835,-48977 17949,-73429 29820,-122264 4265,-18126 42792,-32983 85122,-32983z"/>
  <path class="fil1" d="M9201568 11797864c110962,284 166265,391 277120,675 42401,107 75135,15141 72114,33303 -7819,48906 -11657,73358 -19477,122335 -3092,18233 -40517,33018 -83594,32912 -112845,-285 -169286,-391 -282131,-676 -43361,0 -75242,-15140 -71937,-33302 9597,-48977 14395,-73430 23991,-122335 3696,-18233 41229,-32912 83914,-32912z"/>
  <path class="fil1" d="M9734092 11799179c110961,284 166335,462 277226,746 42615,0 75597,14964 73820,33090 -5544,48905 -8352,73536 -13825,122548 -1884,18233 -39025,33018 -82280,32912 -112845,-284 -169179,-391 -281918,-675 -42970,-107 -76272,-15248 -73429,-33374 7322,-48977 10911,-73359 18233,-122264 2630,-18304 39700,-32983 82173,-32983z"/>
  <path class="fil1" d="M10267006 11800387c111139,285 166549,391 277617,676 42331,106 76166,15141 74745,33302 -3199,48906 -4905,73359 -8104,122335 -924,18233 -37248,33090 -80324,33019 -112846,-285 -169286,-462 -282131,-747 -43255,0 -76842,-15247 -74958,-33373 5082,-48977 7535,-73359 12511,-122264 2025,-18269 38349,-32948 80644,-32948z"/>
  <path class="fil1" d="M10799920 11801809c111140,284 166549,391 277689,675 42330,107 76841,15035 76557,33196 -853,48906 -1422,73430 -2168,122442 -107,18162 -35649,32912 -78903,32912 -112846,-178 -169535,-178 -282380,-462 -43148,-178 -77766,-15248 -76557,-33374 2630,-48977 4123,-73536 6682,-122442 1137,-18268 36572,-32947 79080,-32947z"/>
  <path class="fil1" d="M11333119 11803231c110962,177 166442,284 277404,568 42508,107 77481,15141 78334,33303 1422,48799 2168,73252 3590,122264 569,18446 -34618,33196 -77872,33090 -112739,-285 -169073,-463 -281847,-747 -43077,0 -78441,-15247 -78228,-33374 462,-48976 676,-73358 1138,-122264 106,-18268 34902,-32947 77481,-32840z"/>
  <path class="fil1" d="M11865927 11804333c111246,284 166726,462 277972,746 42402,0 78441,15034 79650,33303 3767,48905 5828,73358 9596,122335 1315,18233 -32805,33018 -75989,33018 -112952,-284 -169356,-391 -282308,-675 -43255,-107 -79259,-15034 -79650,-33303 -1990,-48977 -2807,-73536 -4798,-122442 -924,-18197 33125,-33054 75527,-32982z"/>
  <path class="fil1" d="M12399907 11805648c111068,284 166443,462 277511,746 42330,107 79009,15034 81248,33196 5936,48799 9028,73145 14964,122157 2345,18340 -31313,33196 -74283,33090 -113130,-178 -169534,-285 -282593,-569 -43077,-284 -79934,-15247 -81249,-33374 -4123,-48976 -6219,-73429 -10449,-122335 -1706,-18233 32059,-32911 74851,-32911z"/>
  <path class="fil1" d="M12932786 11807069c111139,285 166727,285 277866,569 42615,107 79543,15034 82955,33196 8281,48906 12404,73358 20685,122335 3092,18162 -29535,33018 -72683,33018 -112952,-284 -169464,-391 -282309,-675 -43432,0 -80396,-15034 -82741,-33196 -6504,-48977 -9952,-73536 -16634,-122442 -2346,-18233 30388,-32911 72861,-32805z"/>
  <path class="fil1" d="M13468082 11808278c200953,462 301394,746 502454,1208 43148,107 82173,15248 86509,33765 11551,48443 17487,72683 29074,121198 4336,18623 -28221,33764 -72115,33658 -204437,-462 -306548,-853 -510914,-1315 -44285,0 -82670,-15426 -85940,-34049 -8637,-48515 -13150,-72612 -21716,-120949 -3554,-18447 29180,-33587 72648,-33516z"/>
  <path class="fil1" d="M7521968 12015096c113023,284 169463,391 282486,675 43361,0 74105,14963 68738,33303 -14750,48976 -22000,73536 -36786,122548 -5438,18233 -45884,33089 -89992,33018 -114835,-284 -172377,-462 -287178,-746 -43929,0 -74851,-15034 -68560,-33303 16563,-48976 24844,-73642 41371,-122619 6397,-18304 46666,-32983 89921,-32876z"/>
  <path class="fil1" d="M8064549 12016411c113130,284 169748,284 282878,568 43254,107 74958,15141 70053,33481 -12511,49083 -18908,73536 -31419,122548 -4336,18055 -44001,32912 -88037,32912 -114907,-285 -172378,-391 -287285,-747 -43823,0 -75597,-15034 -70231,-33302 14395,-48977 21539,-73430 35827,-122549 5295,-18161 45067,-32911 88214,-32911z"/>
  <path class="fil1" d="M8607629 12017726c113129,284 169463,284 282593,568 43077,107 75597,15141 71830,33481 -10165,48977 -15248,73643 -25484,122619 -3945,18233 -42614,32912 -86615,32805 -115013,-284 -172449,-391 -287462,-675 -43824,-178 -76273,-14963 -71653,-33196 11836,-48977 17771,-73536 29607,-122548 5011,-18198 43929,-33267 87184,-33054z"/>
  <path class="fil1" d="M9150424 12019041c113129,284 169925,391 283055,746 43077,0 76450,15141 73252,33303 -7820,48977 -11658,73536 -19477,122548 -3021,18340 -41655,33019 -85479,32912 -115013,-178 -172377,-284 -287391,-569 -43930,0 -77019,-15141 -73358,-33374 9774,-48976 14572,-73536 24346,-122548 3519,-18339 41691,-33125 85052,-33018z"/>
  <path class="fil1" d="M9693467 12020249c113237,285 169748,462 282949,747 43148,106 76841,15034 74958,33302 -5652,48977 -8282,73430 -13826,122442 -2062,18162 -39700,33196 -83595,33196 -115120,-284 -172555,-569 -287675,-853 -43823,-107 -77588,-14963 -74745,-33196 7322,-48977 11018,-73643 18340,-122619 2843,-18340 40447,-33090 83594,-33019z"/>
  <path class="fil1" d="M10236653 12021671c113237,178 169926,284 283162,462 43148,178 77659,15247 76557,33303 -3305,48976 -4798,73713 -8103,122726 -1209,18162 -38386,33018 -82280,33018 -115013,-284 -172449,-569 -287462,-853 -44108,-107 -78512,-15034 -76628,-33303 5189,-48976 7535,-73429 12688,-122548 2026,-18055 38883,-32805 82066,-32805z"/>
  <path class="fil1" d="M10780266 12022879c113129,285 169747,391 282948,676 43361,106 78619,15318 78050,33373 -924,48977 -1493,73714 -2346,122726 -106,18162 -36679,32912 -80680,32805 -114906,-177 -172378,-284 -287284,-568 -44285,0 -79259,-15141 -78441,-33374 2808,-48977 4336,-73536 7144,-122548 1066,-18233 37283,-33161 80609,-33090z"/>
  <path class="fil1" d="M11323629 12024194c113237,285 169819,391 283162,676 43432,106 78796,15141 79472,33373 1421,48977 2168,73643 3589,122620 569,18233 -34902,33089 -79009,33018 -115191,-284 -172556,-462 -287747,-746 -43930,-107 -79827,-15141 -79827,-33303 569,-48977 747,-73536 1315,-122548 142,-18233 35897,-33161 79045,-33090z"/>
  <path class="fil1" d="M11867171 12025616c113307,284 170032,284 283339,569 43254,106 80040,15141 81640,33374 3660,48976 5189,73536 8850,122548 1315,18233 -33481,33196 -77659,33018 -115191,-284 -172840,-462 -288031,-746 -44108,0 -80396,-15034 -81071,-33303 -1884,-48977 -2630,-73536 -4514,-122619 -533,-18269 34262,-33019 77446,-32841z"/>
  <path class="fil1" d="M12411067 12026824c113308,178 170032,391 283340,676 43254,177 80502,15318 82670,33374 5936,48976 8850,73536 14750,122548 2275,18339 -31774,33089 -75526,33089 -115298,-284 -173125,-568 -288316,-853 -44001,-106 -80964,-15034 -82670,-33196 -4052,-48976 -6007,-73536 -10058,-122548 -1742,-18233 32378,-33267 75810,-33090z"/>
  <path class="fil1" d="M12955924 12028140c205005,462 307614,675 512584,1208 44001,0 83239,15425 86687,33871 9205,48622 13648,72968 22746,121589 3483,18517 -30175,33480 -75313,33374 -208311,-462 -312484,-747 -520688,-1209 -44747,-177 -83310,-15425 -85584,-33942 -6398,-48515 -9490,-72896 -15888,-121411 -2381,-18517 31561,-33552 75456,-33480z"/>
  <path class="fil1" d="M13757214 12030023c107763,285 161574,391 269336,747 41087,0 78726,14287 82848,31703 11836,50327 17594,75420 29429,125640 4336,17487 -26798,31490 -68631,31419 -109469,-177 -164097,-284 -273566,-462 -42223,-284 -79471,-14572 -82848,-31987 -9951,-50221 -15034,-75242 -25199,-125463 -3483,-17380 27367,-31597 68631,-31597z"/>
  <path class="fil1" d="M9452565 12366960c969723,2346 1939233,4691 2908957,6859 44569,107 82102,14964 83594,33090 20579,227183 30922,340135 51252,556692 1492,17309 -35542,31134 -82280,31134 -1021437,-2274 -2042873,-4336 -3064310,-6504 -46844,-106 -82848,-14217 -79827,-31419 38740,-216769 58111,-329793 96567,-557083 2737,-17984 41833,-32840 86047,-32769z"/>
  <path class="fil1" d="M9275104 13028322c611427,1315 917157,1884 1528868,3093 9774,0 17593,3092 17487,6504 -2062,44569 -3199,66498 -5367,110215 -178,3590 -8743,6220 -18233,6291 -618215,-1209 -927216,-1777 -1545146,-3021 -9774,0 -17131,-3021 -16562,-6398 7996,-43716 12048,-65823 20045,-110322 675,-3625 8850,-6433 18908,-6362z"/>
  <path class="fil1" d="M10955487 13031805c611710,1316 917797,1884 1529792,3199 9880,0 17771,2915 18162,6504 4122,44463 6290,66570 10449,110216 462,3483 -7535,6291 -17131,6291 -618570,-1209 -927784,-1991 -1546070,-3199 -9774,0 -17949,-2915 -17593,-6398 1706,-43716 2630,-65823 4336,-110393 177,-3376 8245,-6220 18055,-6220z"/>
  <path class="fil6" d="M10744368 9903271c-486461,-486461 -1754380,-781174 -2534310,-925794 70728,69129 113591,116328 113591,116328l481948 1488137 -525486 503841 412072 881900 -649172 3677905 3410772 0c-34226,-1504593 -171631,-5204605 -709415,-5742317z"/>
  <path class="fil6" d="M3157750 11086459l-525379 -503202 481769 -1486928c0,0 43539,-43539 114623,-110855 -781068,145650 -2035908,432402 -2519170,915629 -538352,538174 -675473,4239785 -709593,5744378l1289245 36 0 0 476473 0 110393 -1921001 63016 1921001 1455900 0 -649420 -3677443 412143 -881615z"/>
  <path class="fil7" d="M4311331 8184645c0,569 285,1209 285,1777 3945,-1421 8174,-3589 12048,-4975 -2914,8636 -5544,17593 -8458,26229 60741,473773 693812,830720 793578,884139l26905 4514 591132 1081716 594686 -1075319c-3021,-924 -5829,-2345 -8850,-3198 0,0 649242,-303172 806764,-750786l0 -740088c-282131,429843 -640109,667369 -1427680,667369 -753061,0 -1017314,-221354 -1393453,-623297l0 538921c3945,-1599 8174,-3590 12119,-4976 249,-249 924,-2026 924,-2026z"/>
  <path class="fil8" d="M5691883 8276130c787572,0 1145585,-237526 1427680,-667369l0 -118283c-290661,394123 -648212,610857 -1400597,610857 -764825,0 -1123087,-227858 -1420536,-641814l0 193347c376175,402014 640499,623262 1393453,623262z"/>
  <polygon class="fil9" points="1765718,15645588 1939127,15645588 1876111,13724587 "/>
  <path class="fil1" d="M7369138 9450112l-495951 873334c0,0 -90454,-1072119 -551538,-1220613l-594686 1075318 -591132 -1081715 -26905 -4514c8565,4620 14465,7712 14465,7712 -468974,137192 -560566,1223812 -560566,1223812l-478748 -843052c-28007,393093 -31774,834131 -12049,1366832 20401,552569 468868,2635499 958244,4798362l696620 0 774208 0c440292,-2162863 844367,-4245793 864768,-4798362 20401,-549547 24240,-998974 3270,-1397114z"/>
  <path class="fil10" d="M4323736 8181447c-3946,1421 -8175,3589 -12049,4975 675,7251 2737,14110 3661,21361 2736,-8743 5366,-17700 8388,-26336z"/>
  <path class="fil10" d="M4084112 9480287l-47306 -83310c45032,-516920 266031,-1186848 273744,-1210164 -3946,1493 -8104,3483 -12120,4976 -348133,134562 -847389,583135 -1069667,793578 -71084,67317 -114623,110855 -114623,110855l-481769 1486929 525379 503201 -412179 881615 649527 3677621 586334 0 1048911 0c-489376,-2162863 -937949,-4245793 -958244,-4798362 -19761,-532736 -15993,-973775 12013,-1366939z"/>
  <path class="fil10" d="M8280182 11086459l525486 -503202 -481948 -1486928c0,0 -42899,-44570 -113591,-113698 -218547,-213358 -707176,-663922 -1052643,-784835 61488,181228 108047,374540 142949,585658 42331,195587 81711,414525 99020,613488l-30175 53135c20970,398068 17202,847566 -3199,1397043 -20507,552569 -424583,2635498 -864768,4798361l1016781 36 525024 0 649136 -3677443 -412072 -881615z"/>
  <path class="fil11" d="M4315277 8207676c-925,-7144 -3021,-14003 -3661,-21360 0,-569 -285,-1138 -285,-1777 0,0 -568,1777 -746,2168 -7713,23315 -228783,693243 -273743,1210164l47306 83310 478749 843052c0,0 91591,-1086620 560565,-1223812 0,0 -5935,-3092 -14465,-7712 -99908,-53207 -732979,-410260 -793720,-884033z"/>
  <path class="fil11" d="M6312834 9099634c3022,853 5829,2275 8850,3199 461085,148494 551539,1220613 551539,1220613l495950 -873334 30175 -53135c-17308,-198998 -56689,-417901 -99019,-613487 -69591,-321512 -146966,-579545 -146966,-579545 -4336,49936 -17202,97882 -33658,144832 -157628,447685 -806871,750857 -806871,750857z"/>
  <path class="fil7" d="M5718966 8101335c752385,0 1109829,-216769 1400597,-610857 186488,-252774 345573,-578515 563658,-967449 151870,-270722 268376,-577377 357267,-894126 64508,15887 134952,-569 209803,-66570 233226,-205858 487492,-1200959 315789,-1406817 -58004,-69698 -119811,-84163 -176145,-73145 -10627,81533 -23316,163990 -37426,246838 -5260,30673 -11480,61701 -17131,92551 -9596,52104 -19370,104102 -30281,156668 -2737,12973 -4692,25768 -7535,38741 -107,-675 -391,3305 -569,2630 -27829,130616 -58786,211474 -94221,399561l-72008 -35c28504,-282131 69200,-604851 49190,-938980 -610040,94044 -872481,103427 -2377074,104209l-35 -11551c-94044,0 -68561,0 -83772,0 -15212,0 -10059,0 -10059,0l0 9312c-1598636,-747 -1804210,-12618 -2415068,-106733 -20045,334200 -16065,661647 12404,943778l-72043 -35c-51073,-188088 -93368,-383781 -128270,-569594 -107,462 -178,-1315 -285,-853 -3838,-20223 -6966,-41299 -10520,-61416 -6220,-34689 -12617,-69982 -18162,-104386 -11089,-67139 -21147,-134277 -29713,-200385 -56440,-11018 -118105,3376 -176145,73074 -171632,205858 82741,1200852 315789,1406710 74958,66108 145579,82457 209981,66499 88784,316820 205574,623368 357338,894197 209235,373047 365725,688268 544110,936527 297449,413779 655818,641637 1420536,641637z"/>
  <path class="fil12" d="M8160761 4080381c20046,334128 -1315,656848 -29819,938979l72043 -35c35435,-188088 66392,-268945 94221,-399561 2524,-12227 5545,-26906 7997,-39132 10912,-52566 20686,-105808 30282,-157877 5722,-30850 11835,-62447 17131,-93084 14110,-82848 26799,-165589 37426,-247122 1990,-14679 2736,-29074 4513,-43717 -23493,3945 -47128,10165 -71759,14004 -57293,8992 -110783,19619 -162035,27545z"/>
  <path class="fil12" d="M3095232 4386360c3483,19548 7144,43717 10911,63371 34902,185920 77197,381506 128271,569594l72008 0c-28505,-282131 -49830,-604958 -29820,-939158 -50860,-7819 -103924,-18446 -160791,-27367 -25022,-3945 -48977,-9134 -72968,-13150 1777,14678 2630,28504 4621,43147 8565,66215 18801,132678 29713,199817 5438,34546 11835,68951 18055,103746z"/>
  <path class="fil13" d="M3115740 4050561c56902,8921 127310,17202 178206,25021 610858,94115 816432,105880 2415068,106733l0 -9312c0,0 -4905,0 10236,0 15141,0 -10236,0 83808,0l0 9312c1504592,-747 1767069,-17203 2377073,-111246 51252,-7891 95075,-13933 152333,-22854 24630,-3838 43361,-6575 66854,-10520 1967916,-329331 344649,-998761 344649,-998761 -96496,-1073151 -468868,-2706867 -2440764,-2973182 -2524,25768 -185173,1915919 891211,3338801 0,0 -1073257,196546 -2949297,2452 -22676,-2346 27083,-36502 40447,-54734 1031779,-1414139 857340,-3261710 854887,-3286732 -1975166,264716 -2346792,1900138 -2443572,2973928 0,0 -1620175,669750 345787,999152 23990,3945 48052,7997 73074,11942z"/>
  <path class="fil14" d="M4132592 3352235c-14857,18233 -71688,52460 -46383,54841 2088332,194094 3266082,-2346 3266082,-2346 -1198186,-1423024 -1009424,-3312997 -1009424,-3338835 0,-178 0,-1209 0,-1209 0,0 -222101,-64686 -580114,-64686 -358084,0 -676005,64331 -676005,64331 0,0 0,1030 0,1208 0,24986 194236,1872557 -954156,3286696z"/>
 </g>
</svg>
