<?xml version="1.0" encoding="UTF-8"?>
<!DOCTYPE svg PUBLIC "-//W3C//DTD SVG 1.1//EN" "http://www.w3.org/Graphics/SVG/1.1/DTD/svg11.dtd">
<!-- Creator: CorelDRAW X7 -->
<svg xmlns="http://www.w3.org/2000/svg" xml:space="preserve" width="609px" height="520px" version="1.1" style="shape-rendering:geometricPrecision; text-rendering:geometricPrecision; image-rendering:optimizeQuality; fill-rule:evenodd; clip-rule:evenodd"
viewBox="0 0 3108608 2655595"
 xmlns:xlink="http://www.w3.org/1999/xlink"
 enable-background="new 0 0 298 298">
 <defs>
  <style type="text/css">
   <![CDATA[
    .str0 {stroke:#E6E7E8;stroke-width:10641.5}
    .fil0 {fill:none}
    .fil9 {fill:#323232}
    .fil5 {fill:#34393E}
    .fil7 {fill:#3B433F}
    .fil2 {fill:#4F5954}
    .fil1 {fill:#5BAFB7}
    .fil12 {fill:#5BAFB7}
    .fil11 {fill:#BF9537}
    .fil8 {fill:#BFBFBF}
    .fil4 {fill:#F4B4A7}
    .fil10 {fill:#FFC749}
    .fil3 {fill:#FFCFBA}
    .fil6 {fill:white}
   ]]>
  </style>
 </defs>
 <g id="Layer_x0020_1">
  <metadata id="CorelCorpID_0Corel-Layer"/>
  <rect class="fil0 str0" x="971135" y="548708" width="2132152" height="1552093"/>
  <polygon class="fil1" points="1060243,548708 1060243,612551 1060243,660438 3103287,660438 3103287,612551 3103287,548708 "/>
  <path class="fil2" d="M1823687 1681607c-82568,-82568 -297788,-131921 -430155,-156450 12017,11716 19298,20095 19298,20095l81784 252760 -89174 85615 69960 148342 -110360 623626 238668 0 10708 -326774 18773 326774 310909 0c-5792,-255378 -29047,-882624 -120411,-973988z"/>
  <path class="fil2" d="M535997 1883820l-89192 -85440 81784 -252362c0,0 7408,-7408 19473,-18852 -132560,24740 -345559,72367 -427621,154411 -91364,91376 -114632,718610 -120441,973988l299658 0 18785 -326774 10708 326804 247228 0 -110324 -623524 69942 -148251z"/>
  <path class="fil3" d="M725137 1418869c2076,-6962 3879,-12850 5315,-17398 -1834,5713 -3626,11504 -5315,17398z"/>
  <path class="fil3" d="M871712 1546030l100334 183584 101547 -183584c0,0 95466,-44611 130292,-112013l0 -141037c-31925,72929 -108647,113263 -242324,113263 -127849,0 -188627,-37571 -236514,-105776l0 93897c2968,-1260 6002,-2648 8844,-3655 7764,89324 137821,155321 137821,155321z"/>
  <path class="fil4" d="M961573 1406261c133677,0 210399,-40316 242324,-113262l0 -13423c-48556,63029 -109383,97571 -233160,97571 -133737,0 -194250,-41100 -245678,-115446l0 38784c47881,68199 108677,105776 236514,105776z"/>
  <polygon class="fil5" points="299676,2655595 329151,2655595 318443,2328821 "/>
  <polygon class="fil5" points="1603708,2655595 1633189,2655595 1614422,2328821 "/>
  <path class="fil6" d="M1250963 1608932l-82230 144819c0,0 -15528,-184435 -95128,-207721l-101547 183584 -100334 -183584c-79583,23286 -95129,207721 -95129,207721l-83111 -146381c-4995,67595 -5713,142309 -2316,234439 3493,93855 79678,446660 162820,813768l118052 0 131281 0c74793,-367108 143462,-719919 146943,-813768 3396,-91937 4102,-165981 699,-232877z"/>
  <path class="fil7" d="M693472 1607370l-6177 -10883c5411,-62263 25904,-137634 37830,-177630 1689,-5876 3481,-11667 5315,-17398 2142,-6817 3451,-10744 3451,-10744 -2842,1007 -5876,2377 -8844,3655 -58800,24867 -140186,97988 -176997,132814 -12065,11444 -19473,18852 -19473,18852l-81784 252362 89192 85440 -69942 148233 110348 623524 99520 0 178083 0c-83142,-367108 -159327,-719919 -162820,-813768 -3421,-92148 -2703,-166844 2298,-234457z"/>
  <path class="fil7" d="M1214846 1393520c338,1007 640,2075 990,3083 96,-845 349,-1659 428,-2504 -477,-163 -971,-434 -1418,-579z"/>
  <path class="fil7" d="M1405440 1883820l89174 -85440 -81784 -252362c0,0 -7281,-7583 -19298,-19310 -36805,-35930 -118655,-111362 -177232,-132609 338,1134 34012,113516 41722,202376l-7053 12433c3403,66896 2697,140940 -699,232889 -3481,93855 -72162,446660 -146943,813768l172599 0 89096 0 110354 -623524 -69936 -148221z"/>
  <path class="fil8" d="M733897 1390727c0,0 -1309,3927 -3451,10744 -1436,4548 -3240,10436 -5315,17398 -11920,39996 -32419,115367 -37830,177630l6177 10883 83111 146381c0,0 15546,-184435 95129,-207721 -6,-12 -130063,-66009 -137821,-155315z"/>
  <path class="fil8" d="M1073605 1546030c79600,23286 95128,207721 95128,207721l82230 -144819 7052 -12433c-7709,-88842 -39585,-201224 -39935,-202376 0,-18 1755,-114 1755,-114 0,30 0,66 0,78 0,863 -2154,1659 -2250,2503 -1502,13121 -6702,25603 -12819,37427 -34790,67402 -131161,112013 -131161,112013z"/>
  <path class="fil3" d="M970731 1377147c123795,0 184610,-34542 233160,-97571 33680,-43718 61466,-101161 100238,-170337 25759,-45938 45552,-97999 60621,-151762 10950,2715 22918,-78 35593,-11299 39568,-34923 82743,-203842 53599,-238764 -9815,-11842 -20317,-14304 -29897,-12434 -1804,13905 -3976,27931 -6371,42072 -814,4820 -1785,9670 -2684,14526 -1707,9351 -3481,18737 -5460,28172 -398,2027 -717,4006 -1152,6015 -30,-115 -66,-428 -96,-543 -4724,22170 -9960,50807 -15975,66769l-12216 -6c7052,-63843 11909,-157668 -4693,-235079 -28745,-133960 -126299,-247385 -200041,-235766 -72754,11510 -130419,45697 -204687,46578 -74297,-881 -131981,-34971 -204734,-46494 -73725,-11636 -171278,101704 -200029,235670 -16614,77411 -11746,171248 -4712,235091l-12210 0c-8669,-31925 -15835,-64084 -21753,-95611 -18,67 -31,254 -49,320 -561,-2938 -1007,-5779 -1550,-8717 -1152,-6431 -2329,-12832 -3384,-19220 -1870,-11335 -3578,-22604 -5013,-33777 -9580,-1870 -20065,610 -29898,12452 -29131,34922 14044,203841 53600,238764 12704,11221 24709,14014 35628,11287 15082,53775 34905,105842 60670,151774 33710,60146 59379,111362 87805,152463 51446,74327 111953,115427 245690,115427z"/>
  <path class="fil9" d="M525651 748013c513,2859 1038,5478 1599,8331 5924,31538 13091,63686 21753,95611l12210 0c-7040,-63843 -11908,-157668 4712,-235079 28745,-133960 126298,-247385 200029,-235766 72765,11510 130437,45697 204734,46578 74268,-881 131952,-34971 204687,-46494 73742,-11637 171296,101704 200041,235670 16602,77411 11746,171248 4693,235091l12222 0c6015,-15963 11251,-44593 15975,-66769 398,-1882 862,-3686 1243,-5604 1978,-9417 3734,-18756 5459,-28106 893,-4851 1870,-9671 2685,-14491 2394,-14140 4566,-28154 6370,-42059 17108,-131921 7010,-252682 -37782,-348642 -70196,-150417 -270273,-214586 -415599,-215443 -145391,863 -345451,65044 -415646,215443 -44804,95972 -54891,216739 -37782,348660 1454,11173 3179,22460 5013,33789 1037,6431 2238,12849 3384,19280z"/>
  <g id="_795087993472">
   <path class="fil10" d="M529011 687494c8892,1387 14352,2684 22363,3927 105233,16264 150785,16777 406169,16903l0 -3094c15963,0 10805,0 13375,0 2588,0 2588,0 2588,0l0 3094c271340,-126 305165,-2105 407207,-17778 9320,-1435 20348,-2183 30868,-3830 3451,-543 7360,-700 10696,-1261 337247,-55784 61322,-169782 61322,-169782 -16379,-182166 -79202,-459395 -413891,-504597 -429,4343 -31255,325212 151424,566739 0,0 -182052,33372 -500495,428 -3831,-398 4663,-6195 6925,-9290 175127,-240007 145519,-553552 145103,-557865 -335232,44949 -398297,322527 -414706,504790 0,0 -273880,113196 56520,169239 4717,814 9555,1599 14532,2377z"/>
   <path class="fil11" d="M700404 568965c-2492,3095 -13170,8904 -8971,9309 349342,32944 548099,-399 548099,-399 -200404,-241527 -167043,-562329 -167043,-566691 0,-30 0,-205 0,-205 0,0 -37143,-10979 -97029,-10979 -59885,0 -113093,10895 -113093,10895 0,0 0,175 0,205 0,4313 30151,317876 -161963,557865z"/>
  </g>
  <g id="_795087995584">
   <g>
    <g>
     <path class="fil12" d="M2577714 1631066l-150561 0c-23654,0 -42832,19177 -42832,42837l0 163013c0,23660 19178,42844 42832,42844l150561 0c23654,0 42832,-19184 42832,-42844l0 -163007c0,-23666 -19178,-42843 -42832,-42843z"/>
     <path class="fil12" d="M2711331 1773417c9941,0 18007,-8059 18007,-18007 0,-9942 -8066,-18007 -18007,-18007l-41113 0 0 -40684 41113 0c9941,0 18007,-8066 18007,-18008 0,-9947 -8066,-18013 -18007,-18013l-41475 6c-3523,-39815 -33812,-72035 -72717,-78514l0 -43345c0,-9947 -8059,-18007 -18007,-18007 -9948,0 -18007,8060 -18007,18007l0 42138 -40684 0 0 -42138c0,-9947 -8066,-18007 -18008,-18007 -9947,0 -18007,8060 -18007,18007l0 42138 -40684 0 0 -42138c0,-9947 -8065,-18007 -18013,-18007 -9942,0 -18007,8060 -18007,18007l0 43345c-38905,6479 -69194,38699 -72711,78508l-41475 0c-9947,0 -18007,8066 -18007,18013 0,9942 8060,18008 18007,18008l41107 0 0 40684 -41107 0c-9947,0 -18007,8065 -18007,18007 0,9948 8060,18007 18007,18007l41107 0 0 40690 -41107 0c-9947,0 -18007,8060 -18007,18007 0,9942 8060,18008 18007,18008l41475 0c3523,39809 33812,72029 72717,78508l0 43350c0,9948 8059,18008 18007,18008 9942,0 18007,-8060 18007,-18008l0 -42143 40684 0 0 42143c0,9948 8060,18008 18007,18008 9948,0 18008,-8060 18008,-18008l0 -42143 40684 0 0 42143c0,9948 8065,18008 18007,18008 9948,0 18007,-8060 18007,-18008l0 -43350c38905,-6473 69194,-38693 72717,-78508l41475 0c9941,0 18007,-8060 18007,-18008 0,-9941 -8066,-18007 -18007,-18007l-41107 0 0 -40684 41107 0 0 -6zm-69876 68935c0,32383 -26338,58721 -58722,58721l-160600 0c-32383,0 -58727,-26338 -58727,-58721l0 -173884c0,-32383 26344,-58727 58727,-58727l160600 0c32377,0 58722,26344 58722,58727l0 173884 0 0z"/>
    </g>
   </g>
   <g>
   </g>
   <g>
   </g>
   <g>
   </g>
   <g>
   </g>
   <g>
   </g>
   <g>
   </g>
   <g>
   </g>
   <g>
   </g>
   <g>
   </g>
   <g>
   </g>
   <g>
   </g>
   <g>
   </g>
   <g>
   </g>
   <g>
   </g>
   <g>
   </g>
  </g>
  <g id="_795088000544">
   <g>
    <g>
     <path class="fil12" d="M2866706 992617l0 -23799 87998 -4090 0 -44158 -87998 -4072 0 -18327 -68808 0 0 -80771c0,-18303 -14888,-33216 -33179,-33216l-278266 0c-18297,0 -33191,14901 -33191,33216l0 80771 -68796 0 0 18327 -87986 4072 0 44158 87986 4090 0 23799 68796 0 0 51319 -68796 0 0 18279 -87986 4096 0 44135 87986 4108 0 23793 68796 0 0 56815 -68796 0 0 18333 -87986 4090 0 44135 87986 4078 0 23810 68796 0 0 69791c0,18315 14894,33180 33191,33180l278266 0c18291,0 33185,-14865 33185,-33180l0 -69791 68802 0 0 -23810 87998 -4078 0 -44135 -87998 -4090 0 -18333 -68808 0 0 -56815 68808 0 0 -23799 87998 -4102 0 -44135 -87998 -4096 0 -18285 -68808 0 0 -51313 68808 0 0 0zm-66057 -77012l48611 0 0 17524 88010 4103 0 10834 -88010 4102 0 22997 -48611 0 0 -59560zm-350102 59560l-48641 0 0 -22985 -87991 -4102 0 -10828 87997 -4102 0 -17531 48623 0 0 59548 12 0 0 0zm0 145735l-48641 0 0 -22966 -87997 -4102 0 -10859 87997 -4102 0 -17531 48629 0 0 59560 12 0 0 0zm0 151232l-48641 0 0 -23003 -87997 -4090 0 -10840 87997 -4090 0 -17513 48629 0 0 59530 12 6zm63728 -401434c-11872,0 -21554,-9664 -21554,-21554 0,-11903 9670,-21543 21554,-21543 11891,0 21543,9640 21543,21543 0,11884 -9664,21554 -21543,21554zm286374 341898l48611 0 0 17513 88010 4090 0 10834 -88010 4096 0 22997 -48611 6 0 -59536zm0 -151243l48611 0 0 17530 88010 4102 0 10865 -88010 4096 0 22979 -48611 0 0 -59572z"/>
    </g>
   </g>
   <g>
   </g>
   <g>
   </g>
   <g>
   </g>
   <g>
   </g>
   <g>
   </g>
   <g>
   </g>
   <g>
   </g>
   <g>
   </g>
   <g>
   </g>
   <g>
   </g>
   <g>
   </g>
   <g>
   </g>
   <g>
   </g>
   <g>
   </g>
   <g>
   </g>
  </g>
  <g id="_795088006720">
   <g id="XMLID_21_">
    <path id="XMLID_904_" class="fil12" d="M1958202 1519987c-6847,0 -13079,-4078 -15793,-10418l-57781 -134811 -46409 133677c-2388,6865 -8825,11486 -16089,11552 -48,0 -102,0 -150,0 -7203,0 -13652,-4494 -16138,-11262l-48104 -131041 -46746 130896c-2401,6720 -8705,11263 -15842,11401 -7155,145 -13621,-4138 -16288,-10762l-36075 -89572 -85952 0 0 -34380 97559 0c7016,0 13326,4265 15944,10768l23503 58360 47495 -132977c2431,-6817 8874,-11377 16107,-11407 24,0 54,0 78,0 7203,0 13646,4494 16131,11262l47875 130419 45184 -130129c2329,-6708 8537,-11293 15631,-11540 7106,-248 13609,3885 16403,10406l56929 132838 17483 -55935c2244,-7178 8886,-12065 16402,-12065l97560 0 0 34380 -84921 0 -27587 88281c-2148,6865 -8343,11667 -15528,12035 -296,12 -591,24 -881,24z"/>
   </g>
   <g>
   </g>
   <g>
   </g>
   <g>
   </g>
   <g>
   </g>
   <g>
   </g>
   <g>
   </g>
   <g>
   </g>
   <g>
   </g>
   <g>
   </g>
   <g>
   </g>
   <g>
   </g>
   <g>
   </g>
   <g>
   </g>
   <g>
   </g>
   <g>
   </g>
  </g>
  <g id="_795088010592">
   <g>
    <path class="fil12" d="M2157610 970266l-61497 0c-7432,-107447 -97203,-192591 -206502,-192591 -109299,0 -199070,85144 -206502,192591l-62703 0 0 28842 62703 0c7432,107447 97203,192591 206502,192591 109299,0 199070,-85144 206502,-192591l61497 0 0 -28842zm-267999 192591c-93391,0 -170216,-72222 -177582,-163749l88650 0 0 105878 147823 -93614 0 92293 28841 0 0 -104557 89850 0c-7366,91527 -84197,163749 -177582,163749zm-60091 -246396l107471 68060 -107471 68060 0 -136120zm147823 53805l0 -104557 -28841 0 0 91961 -147823 -93614 0 106210 -88650 0c7366,-91526 84191,-163749 177582,-163749 93385,0 170216,72223 177582,163749l-89850 0z"/>
   </g>
  </g>
 </g>
</svg>
