<?xml version="1.0" encoding="UTF-8"?>
<!DOCTYPE svg PUBLIC "-//W3C//DTD SVG 1.1//EN" "http://www.w3.org/Graphics/SVG/1.1/DTD/svg11.dtd">
<!-- Creator: CorelDRAW X7 -->
<svg xmlns="http://www.w3.org/2000/svg" xml:space="preserve" width="1902px" height="1545px" version="1.1" shape-rendering="geometricPrecision" text-rendering="geometricPrecision" image-rendering="optimizeQuality" fill-rule="evenodd" clip-rule="evenodd"
viewBox="0 0 5346610 4342415"
 xmlns:xlink="http://www.w3.org/1999/xlink">
 <g id="Layer_x0020_1">
  <metadata id="CorelCorpID_0Corel-Layer"/>
  <g id="_908294310352">
   <rect fill="none" stroke="#E6E7E8" stroke-width="18301.9" x="1670290" y="718701" width="3667167" height="2669502"/>
   <polygon fill="#5BAFB7" points="1823552,718705 1823552,828510 1823552,910873 5337455,910873 5337455,828510 5337455,718705 "/>
   <path fill="#4F5954" d="M3136623 2667217c-142013,-142014 -512178,-226897 -739838,-269085 20668,20151 33191,34563 33191,34563l140662 434731 -153374 147252 120326 255138 -189812 1072596 410494 0 18418 -562032 32288 562032 534743 0c-9963,-439233 -49960,-1518057 -207101,-1675199l3 4z"/>
   <path fill="#4F5954" d="M921882 3015010l-153404 -146950 140662 -434047c0,0 12742,-12742 33494,-32425 -227996,42553 -594340,124469 -735483,265579 -157142,157161 -197162,1235965 -207151,1675198l515392 0 32308 -562031 18418 562081 425217 0 -189752 -1072423 120295 -254982 4 0z"/>
   <path fill="#FFCFBA" d="M1247190 2215322c3572,-11974 6672,-22099 9142,-29924 -3153,9826 -6238,19786 -9142,29924z"/>
   <path fill="#FFCFBA" d="M1499290 2434032l172569 315754 174653 -315754c0,0 164196,-76726 224095,-192656l0 -242573c-54909,125431 -186867,194801 -416781,194801 -219892,0 -324425,-64619 -406789,-181923l0 161493c5106,-2167 10324,-4554 15211,-6287 13352,153632 237042,267142 237042,267142l0 3z"/>
   <path fill="#F4B4A7" d="M1653845 2193638c229918,0 361873,-69341 416782,-194801l0 -23086c-83513,108407 -188132,167811 -401023,167811 -230020,0 -334098,-70685 -422550,-198556l0 66708c82353,117294 186916,181924 406788,181924l3 0z"/>
   <polygon fill="#34393E" points="515425,4342415 566118,4342415 547703,3780384 "/>
   <polygon fill="#34393E" points="2758275,4342415 2808978,4342415 2776700,3780384 "/>
   <path fill="white" d="M2151579 2542221l-141429 249079c0,0 -26707,-317218 -163615,-357268l-174653 315754 -172569 -315754c-136877,40050 -163615,357268 -163615,357268l-142946 -251765c-8592,116258 -9827,244764 -3984,403220 6009,161424 137041,768226 280040,1399630l203041 0 225794 0c128638,-631401 246746,-1238216 252731,-1399630 5840,-158128 7055,-285478 1202,-400534l3 0z"/>
   <path fill="#3B433F" d="M1192729 2539532l-10624 -18717c9306,-107090 44555,-236724 65065,-305513 2905,-10105 5985,-20068 9142,-29924 3685,-11725 5936,-18478 5936,-18478 -4887,1733 -10105,4087 -15211,6288 -101134,42768 -241112,168531 -304423,228430 -20752,19683 -33494,32424 -33494,32424l-140662 434048 153404 146950 -120296 254952 189792 1072423 171167 0 306293 0c-142999,-631401 -274031,-1238216 -280040,-1399630 -5882,-158490 -4647,-286962 3954,-403250l-3 -3z"/>
   <path fill="#3B433F" d="M2089460 2171724c581,1733 1102,3569 1703,5301 166,-1454 601,-2855 737,-4305 -820,-279 -1670,-747 -2440,-996z"/>
   <path fill="#3B433F" d="M2417264 3015010l153374 -146950 -140662 -434047c0,0 -12523,-13044 -33191,-33211 -63302,-61798 -204077,-191535 -304825,-228079 580,1952 58497,195239 71760,348075l-12131 21383c5853,115057 4638,242406 -1201,400554 -5986,161424 -124114,768226 -252732,1399630l296861 0 153238 0 189801 -1072423 -120285 -254932 -7 0z"/>
   <path fill="#BFBFBF" d="M1262258 2166920c0,0 -2251,6756 -5936,18478 -2470,7821 -5574,17950 -9142,29924 -20503,68789 -55759,198423 -65065,305513l10624 18716 142946 251766c0,0 26737,-317218 163615,-357268 -10,-20 -223700,-113533 -237042,-267132l0 3z"/>
   <path fill="#BFBFBF" d="M1846532 2434032c136907,40050 163615,357268 163615,357268l141429 -249079 12130 -21383c-13259,-152803 -68085,-346093 -68686,-348075 0,-30 3018,-196 3018,-196 0,53 0,113 0,133 0,1484 -3705,2855 -3871,4306 -2583,22567 -11526,44036 -22046,64370 -59836,115926 -225589,192656 -225589,192656z"/>
   <path fill="#FFCFBA" d="M1669598 2143562c212920,0 317516,-59407 401022,-167811 57927,-75193 105718,-173990 172403,-292970 44302,-79011 78343,-168552 104260,-261021 18833,4671 39419,-133 61217,-19434 68055,-60065 142312,-350595 92187,-410659 -16881,-20367 -34944,-24603 -51420,-21386 -3104,23915 -6839,48040 -10959,72361 -1401,8289 -3070,16632 -4617,24984 -2935,16085 -5986,32225 -9392,48456 -684,3486 -1232,6888 -1982,10344 -53,-199 -113,-737 -166,-933 -8124,38131 -17130,87387 -27474,114838l-21011 -10c12130,-109805 20483,-271179 -8071,-404322 -49434,-230402 -217223,-425486 -344055,-405504 -125132,19796 -224313,78596 -352048,80113 -127785,-1514 -227000,-60148 -352129,-79967 -126802,-20011 -294587,174926 -344038,405338 -28577,133143 -20201,294537 -8104,404342l-21001 0c-14909,-54909 -27235,-110220 -37414,-164445 -29,116 -53,438 -83,551 -966,-5053 -1732,-9939 -2665,-14992 -1982,-11062 -4007,-22070 -5820,-33058 -3217,-19497 -6155,-38878 -8621,-58093 -16476,-3217 -34509,1049 -51424,21416 -50102,60064 24155,350595 92191,410659 21850,19298 42496,24102 61276,19414 25941,92489 60035,182043 104347,261041 57980,103447 102130,191534 151020,262226 88485,127837 192554,198522 422571,198522z"/>
   <path fill="#323232" d="M904088 1061495c883,4916 1786,9421 2748,14328 10189,54242 22515,109536 37414,164445l21001 0c-12107,-109805 -20480,-271179 8104,-404322 49438,-230402 217226,-425486 344038,-405504 125152,19796 224344,78596 352128,80113 127735,-1514 226950,-60148 352049,-79967 126832,-20015 294617,174926 344055,405338 28554,133143 20201,294537 8071,404342l21020 0c10345,-27455 19351,-76697 27475,-114838 684,-3237 1484,-6340 2138,-9637 3403,-16197 6424,-32258 9388,-48339 1537,-8343 3217,-16632 4618,-24925 4116,-24321 7854,-48422 10955,-72338 29423,-226897 12058,-434598 -64981,-599641 -120730,-258707 -464848,-369076 -714801,-370550 -250062,1484 -594153,111873 -714883,370550 -77059,165066 -94408,372777 -64982,599674 2500,19218 5468,38629 8622,58116 1782,11062 3847,22100 5819,33161l4 -6z"/>
   <path fill="#5BAFB7" d="M4433503 2580288l-258956 0c-40684,0 -73669,32982 -73669,73676l0 280372c0,40694 32985,73689 73669,73689l258956 0c40684,0 73669,-32995 73669,-73689l0 -280362c0,-40704 -32985,-73686 -73669,-73686z"/>
   <path fill="#5BAFB7" d="M4663314 2825122c17097,0 30971,-13860 30971,-30970 0,-17100 -13874,-30971 -30971,-30971l-70711 0 0 -69974 70711 0c17097,0 30971,-13873 30971,-30973 0,-17107 -13874,-30980 -30971,-30980l-71335 10c-6058,-68481 -58156,-123898 -125069,-135039l0 -74552c0,-17107 -13860,-30970 -30970,-30970 -17110,0 -30970,13863 -30970,30970l0 72474 -69975 0 0 -72474c0,-17107 -13873,-30970 -30973,-30970 -17107,0 -30970,13863 -30970,30970l0 72474 -69975 0 0 -72474c0,-17107 -13870,-30970 -30980,-30970 -17100,0 -30970,13863 -30970,30970l0 74552c-66913,11145 -119010,66562 -125059,135029l-71335 0c-17107,0 -30971,13873 -30971,30980 0,17100 13864,30973 30971,30973l70701 0 0 69974 -70701 0c-17107,0 -30971,13871 -30971,30971 0,17110 13864,30970 30971,30970l70701 0 0 69984 -70701 0c-17107,0 -30971,13863 -30971,30970 0,17100 13864,30974 30971,30974l71335 0c6058,68470 58156,123884 125069,135028l0 74559c0,17110 13860,30974 30970,30974 17100,0 30970,-13864 30970,-30974l0 -72484 69975 0 0 72484c0,17110 13863,30974 30970,30974 17110,0 30973,-13864 30973,-30974l0 -72484 69975 0 0 72484c0,17110 13870,30974 30970,30974 17110,0 30970,-13864 30970,-30974l0 -74559c66913,-11134 119011,-66548 125069,-135028l71335 0c17097,0 30971,-13864 30971,-30974 0,-17097 -13874,-30970 -30971,-30970l-70701 0 0 -69974 70701 0 0 -10zm-120182 118566c0,55695 -45298,100997 -100998,100997l-276221 0c-55696,0 -101008,-45298 -101008,-100997l0 -299069c0,-55696 45312,-101007 101008,-101007l276221 0c55686,0 100998,45311 100998,101007l0 299069 0 0z"/>
   <path fill="#5BAFB7" d="M4930550 1482200l0 -40933 151352 -7035 0 -75949 -151352 -7005 0 -31521 -118347 0 0 -138923c0,-31481 -25605,-57130 -57067,-57130l-478599 0c-31468,0 -57086,25629 -57086,57130l0 138923 -118324 0 0 31521 -151332 7005 0 75949 151332 7035 0 40933 118324 0 0 88266 -118324 0 0 31438 -151332 7045 0 75910 151332 7064 0 40923 118324 0 0 97718 -118324 0 0 31531 -151332 7035 0 75910 151332 7014 0 40953 118324 0 0 120033c0,31501 25615,57067 57086,57067l478599 0c31458,0 57077,-25566 57077,-57067l0 -120033 118337 0 0 -40953 151352 -7014 0 -75910 -151352 -7035 0 -31531 -118347 0 0 -97718 118347 0 0 -40933 151352 -7054 0 -75910 -151352 -7045 0 -31448 -118347 0 0 -88256 118347 0 0 0zm-113613 -132456l83609 0 0 30140 151371 7058 0 18634 -151371 7055 0 39551 -83609 0 0 -102438zm-602154 102438l-83658 0 0 -39531 -151339 -7055 0 -18624 151349 -7054 0 -30154 83628 0 0 102418 20 0 0 0zm0 250657l-83658 0 0 -39499 -151349 -7054 0 -18678 151349 -7054 0 -30154 83638 0 0 102439 20 0 0 0zm0 260107l-83658 0 0 -39565 -151349 -7034 0 -18644 151349 -7035 0 -30120 83638 0 0 102388 20 10zm109609 -690440c-20420,0 -37072,-16622 -37072,-37072 0,-20473 16632,-37052 37072,-37052 20453,0 37052,16579 37052,37052 0,20440 -16622,37072 -37052,37072zm492545 588042l83609 0 0 30120 151371 7035 0 18634 -151371 7044 0 39552 -83609 10 0 -102398 0 3zm0 -260128l83609 0 0 30151 151371 7054 0 18687 -151371 7045 0 39522 -83609 0 0 -102462 0 3z"/>
   <path id="XMLID_904_" fill="#5BAFB7" d="M3367981 2389239c-11775,0 -22494,-7015 -27162,-17917l-99381 -231866 -79820 229917c-4107,11809 -15178,19756 -27674,19869 -83,0 -176,0 -259,0 -12389,0 -23481,-7728 -27757,-19371l-82735 -225383 -80402 225134c-4130,11560 -14972,19371 -27248,19610 -12307,249 -23428,-7118 -28016,-18511l-62047 -154057 -147833 0 0 -59132 167795 0c12068,0 22920,7336 27422,18521l40424 100376 81690 -228709c4180,-11725 15264,-19567 27704,-19620 40,0 93,0 132,0 12390,0 23471,7729 27744,19371l82340 224311 77713 -223810c4007,-11536 14683,-19424 26883,-19848 12224,-425 23408,6682 28212,17896l97913 228471 30071 -96204c3861,-12346 15284,-20752 28211,-20752l167798 0 0 59132 -146060 0 -47449 151836c-3695,11809 -14349,20068 -26708,20699 -508,20 -1016,40 -1514,40l13 -3z"/>
   <path fill="#5BAFB7" d="M3710951 1443757l-105772 0c-12781,-184802 -167184,-331244 -355169,-331244 -187989,0 -342388,146442 -355170,331244l-107846 0 0 49607 107846 0c12782,184802 167184,331244 355170,331244 187989,0 342388,-146442 355169,-331244l105772 0 0 -49607zm-460941 331244c-160627,0 -292761,-124216 -305429,-281637l152474 0 0 182103 254245 -161009 0 158738 49604 0 0 -179832 154535 0c-12668,157421 -144815,281637 -305429,281637zm-103355 -423786l184842 117058 -184842 117059 0 -234117zm254249 92542l0 -179832 -49604 0 0 158167 -254245 -161009 0 182674 -152474 0c12668,-157421 144802,-281637 305429,-281637 160617,0 292761,124220 305429,281637l-154535 0z"/>
  </g>
 </g>
</svg>
