<?xml version="1.0" encoding="UTF-8"?>
<!DOCTYPE svg PUBLIC "-//W3C//DTD SVG 1.1//EN" "http://www.w3.org/Graphics/SVG/1.1/DTD/svg11.dtd">
<!-- Creator: CorelDRAW X7 -->
<svg xmlns="http://www.w3.org/2000/svg" xml:space="preserve" width="1731px" height="1540px" version="1.1" shape-rendering="geometricPrecision" text-rendering="geometricPrecision" image-rendering="optimizeQuality" fill-rule="evenodd" clip-rule="evenodd"
viewBox="0 0 4712872 4191798"
 xmlns:xlink="http://www.w3.org/1999/xlink">
 <g id="Layer_x0020_1">
  <metadata id="CorelCorpID_0Corel-Layer"/>
  <rect fill="white" stroke="#E6E7E8" stroke-width="7649.05" x="2971963" y="1259257" width="1620389" height="2470437"/>
  <polygon fill="#5BAFB7" fill-opacity="0.301961" points="2971962,1418641 4592352,1418641 4592352,1259258 2971962,1259258 "/>
  <polygon fill="#353739" points="4712872,1365519 2837677,1365519 2929170,807675 4621389,807675 "/>
  <path fill="#5BAFB7" d="M3211027 3171850l0 -284742c0,-67208 66594,-113723 133803,-113723l6646 13c67175,0 125198,46512 125198,113720l0 284732 -265647 0zm0 0l0 0 0 0z"/>
  <rect fill="#353739" x="3184474" y="3118719" width="318765" height="79696"/>
  <path fill="#5BAFB7" d="M3636056 3171850l0 -284742c0,-67208 79134,-113723 146342,-113723l6614 13c67208,0 112687,46512 112687,113720l-9 284732 -265634 0zm0 0l0 0 0 0z"/>
  <rect fill="#353739" x="3609489" y="3118719" width="318765" height="79696"/>
  <path fill="#5BAFB7" d="M4061072 3171850l0 -284742c0,-67208 91644,-113723 158853,-113723l6613 13c67208,0 126732,46512 126732,113720l0 284732 -292201 0 3 0zm0 0l0 0 0 0z"/>
  <rect fill="#353739" x="4061073" y="3118719" width="292201" height="79696"/>
  <rect fill="white" x="1457821" y="1923355" width="1354756" height="1832907"/>
  <polygon fill="#5BAFB7" fill-opacity="0.301961" points="1457822,2029604 2812576,2029604 2812576,1923356 1457822,1923356 "/>
  <polygon fill="#5BAFB7" points="2900213,1976488 1337524,1976488 1413757,1524904 2823974,1524904 "/>
  <path fill="#A4A5A0" d="M1723468 2454629l0 -202473c0,-55993 64012,-89737 120047,-89737l5521 10c55993,0 86946,33734 86946,89737l-9 202463 -212502 0 -3 0zm0 0l0 0 0 0z"/>
  <rect fill="#FFB819" x="1723467" y="2454634" width="239079" height="53132"/>
  <path fill="#A4A5A0" d="M2334428 2454629l0 -202473c0,-55993 57266,-89737 113289,-89737l5552 10c55994,0 93660,33734 93660,89737l10 202463 -212514 0 3 0zm0 0l0 0 0 0z"/>
  <rect fill="#FFB819" x="2307865" y="2454634" width="265633" height="53132"/>
  <path fill="#A4A5A0" d="M1723468 2959345l0 -207123c0,-55993 64012,-85088 120047,-85088l5521 0c55993,0 86946,29089 86946,85088l-9 207123 -212502 0 -3 0zm0 0l0 0 0 0z"/>
  <rect fill="#FFB819" x="1723467" y="2932772" width="239079" height="79696"/>
  <path fill="#A4A5A0" d="M2334428 2959345l0 -207123c0,-55993 57266,-85088 113289,-85088l5552 0c55994,0 93660,29089 93660,85088l10 207123 -212514 0 3 0zm0 0l0 0 0 0z"/>
  <rect fill="#FFB819" x="2307865" y="2932772" width="265633" height="79696"/>
  <path fill="#A4A5A0" d="M1723468 3464047l0 -211768c0,-55993 64012,-80439 120047,-80439l5521 13c55993,0 86946,24436 86946,80439l-9 211759 -212502 0 -3 -4zm0 0l0 0 0 0z"/>
  <rect fill="#FFB819" x="1723467" y="3437487" width="239079" height="79696"/>
  <path fill="#A4A5A0" d="M2334428 3464047l0 -211768c0,-55993 57266,-80439 113289,-80439l5552 13c55994,0 93660,24436 93660,80439l10 211759 -212514 0 3 -4zm0 0l0 0 0 0z"/>
  <rect fill="#FFB819" x="2307865" y="3437487" width="265633" height="79696"/>
  <path fill="#FFCFBA" d="M1612346 2102053c-212694,0 -287339,-62511 -393593,-176035l0 953634 796913 0 0 -966093c-79696,121389 -180816,188497 -403320,188497l0 -3z"/>
  <path fill="#F4B4A7" d="M1218753 1790538l0 135477c106254,113527 180931,176035 393593,176035 222501,0 323624,-67077 403320,-188497l0 -123018 -796913 0 0 3z"/>
  <path fill="#347A91" d="M3035070 2558093c-204431,-204432 -898193,-289410 -898193,-289410l-104717 0 -414364 390670 -280272 -390670 -238841 0c0,0 -693765,84978 -898206,289410 -152043,152052 -190809,1171601 -200477,1623184l1617764 0 1617728 0c-9610,-451583 -48341,-1471129 -200425,-1623184l3 0z"/>
  <polygon fill="#275C6D" points="547829,4191798 530010,3648007 498764,4191798 "/>
  <polygon fill="#275C6D" points="2718060,4191798 2686828,3648007 2668996,4191798 "/>
  <path fill="#275C6D" d="M1323097 2518195c77326,-136674 241837,71905 241837,71905l-114141 -255415c-65198,19057 -104534,103077 -127696,183510z"/>
  <path fill="#AECAD3" d="M1450784 2334666c0,0 -236899,-123070 -249802,-271701 0,0 -125861,130912 -138821,279501l230304 337864c0,0 6697,-79166 30600,-162174 23191,-80387 62530,-164411 127719,-183487l0 -3z"/>
  <path fill="#275C6D" d="M1784770 2359683l-114173 255464c0,0 179973,-176603 241888,-71825 -23159,-80429 -62497,-164534 -127715,-183639z"/>
  <path fill="#AECAD3" d="M1784770 2359683c65237,19096 104585,103200 127748,183639 23882,82959 30570,162061 30570,162061l230285 -337841c-12912,-148622 -150618,-292041 -150618,-292041 -12960,148599 -237982,284179 -237982,284179l-3 3z"/>
  <path fill="#AECAD3" d="M594954 2363358c0,0 50068,-18754 131414,-39634 81361,-20854 141821,-18999 141821,-18999l-6264 946821 755279 0 0 929731 -1080690 0c0,0 6244,-716085 75098,-937673l-16654 -880246 -4 0z"/>
  <path fill="none" stroke="#FFC749" stroke-width="26564.3" d="M777692 3279827c644,25310 -19368,46383 -44707,47049l-8312 241c-25339,643 -46434,-19337 -47068,-44676l-6749 -258576c-662,-25310 19337,-46405 44657,-47048l8343 -242c25340,-643 46406,19366 47068,44676l6768 258576z"/>
  <rect fill="#1A3D49" transform="matrix(0.999499 -0.0323 0.0323 0.999499 585677 3.07118E+006)" width="294487" height="63350"/>
  <circle fill="#FFC749" cx="728434" cy="3281162" r="87606"/>
  <path fill="#AECAD3" d="M2630805 2363358c0,0 -50067,-18754 -131410,-39634 -81365,-20854 -141853,-18999 -141853,-18999l6244 946821 -746582 0 0 929731 1071984 0c0,0 -6244,-716085 -75099,-937673l16716 -880246z"/>
  <path fill="none" stroke="#FFC749" stroke-width="26564.3" d="M2448038 3279827c-643,25310 19340,46383 44679,47049l8312 241c25339,643 46405,-19337 47068,-44676l6777 -258576c643,-25310 -19368,-46405 -44708,-47048l-8311 -242c-25339,-643 -46406,19366 -47068,44676l-6749 258576z"/>
  <rect fill="#1A3D49" transform="matrix(-0.999499 -0.0323 0.0323 -0.999499 2.63697E+006 3.13372E+006)" width="294487" height="63350"/>
  <circle fill="#FFC749" cx="2497297" cy="3281162" r="87606"/>
  <path fill="#347A91" fill-opacity="0.400000" d="M2388836 3703126l-775979 0 -775959 0c0,0 -20854,212515 -50068,478148l826027 0 826047 0c-29195,-265637 -50068,-478148 -50068,-478148z"/>
  <path fill="#FFCFBA" d="M1208248 2145565c3460,-11598 6463,-21404 8855,-28983 -3054,9518 -6041,19163 -8855,28983z"/>
  <path fill="#F4B4A7" d="M1602099 2124563c222678,0 350477,-67157 403657,-188667l0 -22359c-80882,104993 -182207,162527 -388394,162527 -222778,0 -323579,-68459 -409245,-192303l0 64607c79760,113600 181030,176195 393979,176195l3 0z"/>
  <path fill="#3B433F" d="M2023996 2103339c563,1678 1068,3456 1650,5135 161,-1409 582,-2766 714,-4171 -795,-270 -1618,-723 -2364,-964z"/>
  <path fill="#FFCFBA" d="M1617355 2076064c206216,0 307519,-57537 388395,-162527 56103,-72825 102389,-168511 166974,-283745 42907,-76523 75876,-163244 100978,-252801 18240,4523 38177,-129 59289,-18822 65912,-58174 137830,-339555 89284,-397729 -16350,-19725 -33844,-23828 -49801,-20712 -3007,23162 -6624,46527 -10614,70082 -1357,8029 -2974,16109 -4472,24198 -2842,15578 -5797,31210 -9096,46930 -662,3376 -1193,6671 -1920,10018 -51,-192 -109,-713 -160,-903 -7868,36930 -16591,84635 -26610,111222l-20349 -10c11749,-106347 19838,-262640 -7816,-391591 -47878,-223147 -210383,-412087 -333221,-392735 -121192,19173 -217251,76121 -340963,77591 -123761,-1467 -219852,-58254 -341041,-77449 -122809,-19382 -285311,169417 -333205,392574 -27677,128951 -19565,285263 -7848,391610l-20340 0c-14439,-53180 -26378,-106749 -36236,-159267 -28,113 -51,424 -80,534 -936,-4894 -1678,-9627 -2582,-14520 -1919,-10713 -3881,-21375 -5636,-32018 -3116,-18883 -5961,-37653 -8350,-56263 -15957,-3116 -33422,1016 -49804,20741 -48525,58174 23394,339555 89287,397729 21163,18690 41158,23342 59347,18802 25124,89577 58144,176311 101061,252821 56155,100190 98914,185503 146265,253969 85699,123812 186490,192271 409264,192271z"/>
  <path fill="#323232" d="M875950 1028070c855,4761 1730,9124 2662,13877 9868,52533 21806,106086 36236,159266l20340 0c-11726,-106347 -19835,-262640 7848,-391590 47881,-223147 210386,-412088 333205,-392735 121211,19172 217279,76121 341040,77590 123713,-1466 219804,-58254 340964,-77449 122838,-19384 285339,169418 333221,392575 27654,128950 19564,285262 7816,391609l20359 0c10019,-26590 18742,-74281 26609,-111221 663,-3135 1437,-6141 2071,-9334 3295,-15687 6221,-31242 9093,-46817 1488,-8080 3115,-16108 4472,-24140 3987,-23555 7607,-46898 10610,-70060 28497,-219752 11678,-420914 -62935,-580759 -116929,-250561 -450211,-357454 -692292,-358882 -242188,1437 -575445,108350 -692373,358882 -74632,159868 -91435,361039 -62935,580791 2421,18613 5295,37413 8350,56286 1726,10713 3726,21404 5636,32117l3 -6z"/>
  <path fill="#347A91" d="M3567929 2631198c-2875,0 -5749,-727 -8331,-2248 -6913,-4032 -9954,-12404 -7205,-19944l172700 -474807 -208743 -59546c-5395,-1521 -9652,-5698 -11308,-11051 -483,-1589 -720,-3222 -720,-4846 0,-3845 1334,-7636 3896,-10658l423415 -503021c5029,-5977 13559,-7540 20443,-3936 6871,3675 10279,11717 8089,19183l-122079 423488 209881 59891c5424,1520 9684,5716 11308,11099 1656,5398 396,11282 -3279,15549l-475496 555088c-3241,3739 -7874,5759 -12571,5759zm-17983 -581351l201277 57369c4424,1261 8102,4302 10215,8373 2087,4093 2386,8861 794,13153l-147679 406005 399548 -466416 -201010 -57308c-4238,-1187 -7807,-4029 -9955,-7861 -2144,-3843 -2643,-8373 -1424,-12601l105158 -364692 -356924 423978z"/>
 </g>
</svg>
