<?xml version="1.0" encoding="UTF-8"?>
<!DOCTYPE svg PUBLIC "-//W3C//DTD SVG 1.1//EN" "http://www.w3.org/Graphics/SVG/1.1/DTD/svg11.dtd">
<!-- Creator: CorelDRAW X7 -->
<svg xmlns="http://www.w3.org/2000/svg" xml:space="preserve" width="554px" height="521px" version="1.1" style="shape-rendering:geometricPrecision; text-rendering:geometricPrecision; image-rendering:optimizeQuality; fill-rule:evenodd; clip-rule:evenodd"
viewBox="0 0 1922113 1805758"
 xmlns:xlink="http://www.w3.org/1999/xlink">
 <defs>
  <style type="text/css">
   <![CDATA[
    .str1 {stroke:#FFC749;stroke-width:10834.5}
    .str0 {stroke:#E6E7E8;stroke-width:3120.15}
    .fil14 {fill:none}
    .fil15 {fill:#1A3D49}
    .fil9 {fill:#275C6D}
    .fil10 {fill:#323232}
    .fil8 {fill:#347A91}
    .fil2 {fill:#353739}
    .fil3 {fill:#5BAFB7}
    .fil4 {fill:#A4A5A0}
    .fil13 {fill:#AECAD3}
    .fil12 {fill:#BF9537}
    .fil7 {fill:#F4B4A7}
    .fil5 {fill:#FFB819}
    .fil11 {fill:#FFC749}
    .fil6 {fill:#FFCFBA}
    .fil0 {fill:white}
    .fil1 {fill:#5BAFB7;fill-opacity:0.301961}
    .fil16 {fill:#347A91;fill-opacity:0.400000}
   ]]>
  </style>
 </defs>
 <g id="Layer_x0020_1">
  <metadata id="CorelCorpID_0Corel-Layer"/>
  <rect class="fil0 str0" x="1212094" y="609740" width="660866" height="1007552"/>
  <polygon class="fil1" points="1212094,674743 1872960,674743 1872960,609740 1212094,609740 "/>
  <polygon class="fil2" points="1922113,653078 1157327,653078 1194642,425565 1884802,425565 "/>
  <g>
   <path class="fil3" d="M1309596 891422l0 -110634c0,-27410 27160,-62706 54570,-62706l2711 0c27397,0 51061,35296 51061,62706l0 110634 -108342 0zm0 0l0 0 0 0z"/>
  </g>
  <rect class="fil2" x="1298766" y="880588" width="130006" height="21669"/>
  <g>
   <path class="fil3" d="M1482941 891422l0 -110634c0,-27410 32274,-62706 59684,-62706l2698 0c27410,0 45959,35296 45959,62706l-4 110634 -108337 0zm0 0l0 0 0 0z"/>
  </g>
  <rect class="fil2" x="1472106" y="880588" width="130006" height="21669"/>
  <g>
   <path class="fil3" d="M1656281 891422l0 -110634c0,-27410 37377,-62706 64787,-62706l2698 0c27410,0 51687,35296 51687,62706l0 110634 -119172 0zm0 0l0 0 0 0z"/>
  </g>
  <rect class="fil2" x="1656281" y="880588" width="119172" height="21669"/>
  <g>
   <path class="fil3" d="M1309596 1140600l0 -113386c0,-27410 27160,-49120 54570,-49120l2711 0c27397,0 51061,21710 51061,49120l0 113386 -108342 0zm0 0l0 0 0 0z"/>
  </g>
  <rect class="fil2" x="1298766" y="1118931" width="130006" height="32504"/>
  <g>
   <path class="fil3" d="M1482941 1140600l0 -113386c0,-27410 32274,-49120 59684,-49120l2698 0c27410,0 45959,21710 45959,49120l-4 113386 -108337 0zm0 0l0 0 0 0z"/>
  </g>
  <rect class="fil2" x="1472106" y="1118931" width="130006" height="32504"/>
  <g>
   <path class="fil3" d="M1656281 1140600l0 -113386c0,-27410 37377,-49120 64787,-49120l2698 0c27410,0 51687,21710 51687,49120l0 113386 -119172 0zm0 0l0 0 0 0z"/>
  </g>
  <rect class="fil2" x="1656281" y="1118931" width="119172" height="32504"/>
  <g>
   <path class="fil3" d="M1309596 1389779l0 -116130c0,-27410 27160,-46381 54570,-46381l2711 5c27397,0 51061,18970 51061,46380l0 116126 -108342 0zm0 0l0 0 0 0z"/>
  </g>
  <rect class="fil2" x="1298766" y="1368109" width="130006" height="32504"/>
  <g>
   <path class="fil3" d="M1482941 1389779l0 -116130c0,-27410 32274,-46381 59684,-46381l2698 5c27410,0 45959,18970 45959,46380l-4 116126 -108337 0zm0 0l0 0 0 0z"/>
  </g>
  <rect class="fil2" x="1472106" y="1368109" width="130006" height="32504"/>
  <g>
   <path class="fil3" d="M1656281 1389779l0 -116130c0,-27410 37377,-46381 64787,-46381l2698 5c27410,0 51687,18970 51687,46380l0 116126 -119172 0zm0 0l0 0 0 0z"/>
  </g>
  <rect class="fil2" x="1656281" y="1368109" width="119172" height="32504"/>
  <rect class="fil0" x="594561" y="880588" width="552529" height="747539"/>
  <polygon class="fil1" points="594561,923922 1147090,923922 1147090,880588 594561,880588 "/>
  <polygon class="fil3" points="1182833,902257 545499,902257 576590,718082 1151738,718082 "/>
  <g>
   <path class="fil4" d="M702903 1097266l0 -82577c0,-22837 26107,-36599 48960,-36599l2252 4c22836,0 35460,13758 35460,36599l-4 82573 -86668 0zm0 0l0 0 0 0z"/>
  </g>
  <rect class="fil5" x="702903" y="1097266" width="97507" height="21669"/>
  <g>
   <path class="fil4" d="M952081 1097266l0 -82577c0,-22837 23356,-36599 46204,-36599l2265 4c22836,0 38199,13758 38199,36599l4 82573 -86672 0zm0 0l0 0 0 0z"/>
  </g>
  <rect class="fil5" x="941246" y="1097266" width="108337" height="21669"/>
  <g>
   <path class="fil4" d="M702903 1303110l0 -84473c0,-22836 26107,-34703 48960,-34703l2252 0c22836,0 35460,11863 35460,34703l-4 84473 -86668 0zm0 0l0 0 0 0z"/>
  </g>
  <rect class="fil5" x="702903" y="1292272" width="97507" height="32504"/>
  <g>
   <path class="fil4" d="M952081 1303110l0 -84473c0,-22836 23356,-34703 46204,-34703l2265 0c22836,0 38199,11863 38199,34703l4 84473 -86672 0zm0 0l0 0 0 0z"/>
  </g>
  <rect class="fil5" x="941246" y="1292272" width="108337" height="32504"/>
  <g>
   <path class="fil4" d="M702903 1508950l0 -86369c0,-22836 26107,-32807 48960,-32807l2252 5c22836,0 35460,9966 35460,32806l-4 86365 -86668 0zm0 0l0 0 0 0z"/>
  </g>
  <rect class="fil5" x="702903" y="1498116" width="97507" height="32504"/>
  <g>
   <path class="fil4" d="M952081 1508950l0 -86369c0,-22836 23356,-32807 46204,-32807l2265 5c22836,0 38199,9966 38199,32806l4 86365 -86672 0zm0 0l0 0 0 0z"/>
  </g>
  <rect class="fil5" x="941246" y="1498116" width="108337" height="32504"/>
  <path class="fil6" d="M657583 953469c-86746,0 -117190,-25494 -160525,-71796l0 388934 325016 0 0 -394016c-32503,49509 -73745,76878 -164491,76878z"/>
  <path class="fil7" d="M497058 826419l0 55254c43335,46302 73791,71796 160525,71796 90746,0 131988,-27357 164491,-76878l0 -50172 -325016 0z"/>
  <path class="fil8" d="M1237833 1139462c-83376,-83376 -366323,-118034 -366323,-118034l-42708 0 -168996 159333 -114307 -159333 -97409 0c0,0 -282947,34658 -366327,118034 -62010,62014 -77820,477830 -81763,662005l659794 0 659781 0c-3919,-184175 -19716,-599991 -81742,-662005z"/>
  <polygon class="fil9" points="223427,1805758 216159,1583977 203416,1805758 "/>
  <polygon class="fil9" points="1108543,1805758 1095804,1583977 1088532,1805758 "/>
  <path class="fil6" d="M960565 508511c-1192,6544 -2428,13079 -3804,19663 -283,1376 -500,2731 -790,4115 -13,-78 -45,-291 -66,-368 -3206,15048 -6760,34485 -10855,45320l-8300 0c3292,-32504 5741,-70658 3423,-109218 -69228,10638 -98923,11711 -274639,11711l0 0c-1777,0 -3435,0 -5188,0 -1752,0 -3410,0 -5188,0l0 0c-178237,0 -206220,-1126 -277628,-12166 -2370,38687 99,77169 3403,109673l-8292 0c-5884,-21669 -10756,-43511 -14790,-64918 -12,54 -20,197 -32,250 -422,-2264 -770,-4451 -1180,-6707 -737,-4107 -1494,-8202 -2158,-12284 -1269,-7694 -2428,-15330 -3411,-22914 -6490,-1257 -13606,414 -20281,8452 -19760,23716 9533,138359 36382,162063 8635,7629 16780,9512 24191,7661 10237,36501 23684,71842 41168,103019 64266,114655 85391,181845 226342,181845 142315,0 162031,-67190 226310,-181845 17496,-31181 30919,-66518 41160,-103010 7419,1842 15547,-54 24158,-7670 26870,-23704 56163,-138347 36390,-162063 -6683,-8030 -13791,-9709 -20294,-8440 -1236,9500 -2718,19102 -4364,28753 -500,3018 -1114,6052 -1667,9078z"/>
  <path class="fil10" d="M960303 466647c-7141,1118 -13783,1994 -20117,2957 2317,38559 -131,75133 -3423,107633l8295 4c4095,-10835 7649,-30268 10855,-45320 283,-1302 586,-2523 856,-3825 1376,-6596 2600,-13099 3804,-19642 553,-3022 1159,-6056 1679,-9058 1646,-9663 3132,-19240 4365,-28740 229,-1732 323,-3411 540,-5155 -2272,397 -4504,778 -6854,1146z"/>
  <path class="fil10" d="M356652 505911c389,2187 802,4226 1212,6412 4029,21420 8906,43249 14790,64918l8287 0c-3304,-32504 -5773,-69393 -3402,-108088 -5438,-835 -11105,-1646 -17149,-2580 -3390,-532 -6674,-1040 -9901,-1580 229,1896 348,3771 598,5667 987,7583 2158,15244 3411,22934 647,4083 1404,8210 2154,12317z"/>
  <path class="fil11" d="M360390 466647c6036,942 11703,238 17149,1085 71407,11040 99402,12006 277628,12006l0 0c1777,0 3435,0 5188,0 1752,0 3411,0 5188,0l0 0c175715,0 205410,-909 274639,-11547 6338,-975 12980,-1212 20117,-2330 2350,-369 4582,-336 6846,-717 228877,-37875 41385,-115175 41385,-115175 -11125,-123635 -53878,-311786 -281043,-342468 -270,2732 -21333,220676 102728,384701 0,0 -123603,22676 -339741,290 -2612,-262 3141,-4193 4693,-6285 118934,-163005 98751,-375999 98489,-378677 -227542,30497 -270368,218931 -281497,342644 0,0 -185887,76824 38330,114872 3227,528 6498,1069 9901,1601z"/>
  <path class="fil12" d="M486293 386207c-1625,2092 -7910,6036 -5167,6294 227022,22373 355206,-263 355206,-263 -130305,-164025 -109561,-381928 -109561,-384655 0,-20 0,-131 0,-131 0,0 -24147,-7452 -63059,-7452 -38928,0 -73499,7411 -73499,7411 0,0 0,107 0,131 8,2662 21005,215655 -103920,378665z"/>
  <path class="fil9" d="M539615 1123190c31537,-55741 98632,29326 98632,29326l-46552 -104169c-26591,7772 -42634,42040 -52080,74843z"/>
  <path class="fil13" d="M591691 1048339c0,0 -96618,-50193 -101880,-110811 0,0 -51331,53391 -56617,113992l93928 137795c0,0 2731,-32287 12480,-66142 9459,-32786 25502,-67054 52089,-74834z"/>
  <path class="fil9" d="M727905 1058543l-46565 104189c0,0 73401,-72026 98653,-29293 -9446,-32803 -25489,-67104 -52088,-74896z"/>
  <path class="fil13" d="M727905 1058543c26607,7788 42654,42089 52101,74896 9741,33834 12468,66096 12468,66096l93920 -137786c-5266,-60614 -61429,-119106 -61429,-119106 -5286,60605 -97060,115900 -97060,115900z"/>
  <path class="fil13" d="M242647 1060041c0,0 20420,-7649 53596,-16165 33183,-8505 57841,-7748 57841,-7748l-2555 386154 308035 0 0 379185 -440752 0c0,0 2547,-292050 30628,-382424l-6793 -359002z"/>
  <path class="fil14 str1" d="M317175 1433817c262,10323 -7899,18917 -18234,19188l-3390 98c-10335,262 -18938,-7886 -19196,-18221l-2752 -105459c-270,-10323 7886,-18926 18213,-19188l3403 -98c10335,-262 18926,7898 19196,18221l2760 105459z"/>
  <rect class="fil15" transform="matrix(0.9995 -0.0323 0.0323 0.9995 238862 1.34872E+006)" width="120105" height="25837"/>
  <circle class="fil11" cx="297086" cy="1434361" r="35730"/>
  <path class="fil13" d="M1072956 1060041c0,0 -20420,-7649 -53595,-16165 -33184,-8505 -57854,-7748 -57854,-7748l2547 386154 -304490 0 0 379185 437203 0c0,0 -2547,-292050 -30629,-382424l6818 -359002z"/>
  <path class="fil14 str1" d="M998416 1433817c-262,10323 7887,18917 18222,19188l3390 98c10335,262 18926,-7886 19196,-18221l2764 -105459c262,-10323 -7899,-18926 -18234,-19188l-3390 -98c-10335,-262 -18926,7898 -19196,18221l-2752 105459z"/>
  <rect class="fil15" transform="matrix(-0.9995 -0.0323 0.0323 -0.9995 1.07547E+006 1.37423E+006)" width="120105" height="25837"/>
  <circle class="fil11" cx="1018505" cy="1434361" r="35730"/>
  <path class="fil16" d="M974270 1606457l-316479 0 -316470 0c0,0 -8505,86672 -20420,195010l336890 0 336899 0c-11907,-108338 -20420,-195010 -20420,-195010z"/>
 </g>
</svg>
