<?xml version="1.0" encoding="UTF-8"?>
<!DOCTYPE svg PUBLIC "-//W3C//DTD SVG 1.1//EN" "http://www.w3.org/Graphics/SVG/1.1/DTD/svg11.dtd">
<!-- Creator: CorelDRAW X7 -->
<svg xmlns="http://www.w3.org/2000/svg" xml:space="preserve" width="231px" height="221px" version="1.1" style="shape-rendering:geometricPrecision; text-rendering:geometricPrecision; image-rendering:optimizeQuality; fill-rule:evenodd; clip-rule:evenodd"
viewBox="0 0 5903195 5653676"
 xmlns:xlink="http://www.w3.org/1999/xlink">
 <defs>
  <style type="text/css">
   <![CDATA[
    .fil0 {fill:#C5C6C6}
    .fil1 {fill:#5B5B5B}
    .fil2 {fill:#E31E24}
    .fil3 {fill:#2B2A29;fill-rule:nonzero}
   ]]>
  </style>
 </defs>
 <g id="Layer_x0020_1">
  <metadata id="CorelCorpID_0Corel-Layer"/>
  <path class="fil0" d="M3335981 873038l756374 74508 -71 120c221096,64121 354626,365397 385457,694854 121,1259 231,2529 352,3818 816,9149 1572,18328 2227,27506 232,2952 443,5894 655,8847 534,7727 957,15496 1380,23244 232,4735 494,9481 675,14216 282,5924 494,11839 685,17793 252,7627 444,15265 585,22872 0,584 20,1168 20,1753 0,20 0,50 0,70l-936473 0c0,0 0,-50 0,-50 1028,-312017 -63213,-637282 -211866,-889551zm-991041 883888c96865,0 2715424,5713 1202766,5713 -3788,354062 -91142,693372 -230103,887798l5451 3728 787658 -61803c0,0 20,0 20,0l534513 530997 -884755 171323 -1388840 -1508799 -26710 -28957z"/>
  <path class="fil1" d="M1321838 1791898c2832,800394 587359,1452144 1303814,1452144 145479,0 285498,-26901 416287,-76432l381950 189549c-232168,146437 -499823,230224 -784474,230224 -883466,0 -1604052,-805743 -1604052,-1793701 0,-585 30,-1199 30,-1784l0 0c867,-987132 721070,-1791898 1604022,-1791898 284651,0 552306,83767 784474,230194l-381950 189579c-130789,-49551 -270808,-76452 -416287,-76452 -715387,0 -1299219,649806 -1303783,1448577l-31 0zm1019374 -39072l1456124 -1524688 829441 171323 -534473 548205c0,0 -20,0 -20,0l71 -120 -756374 -74508c148210,251523 212501,575570 211866,886740 -477465,-1421 -1154213,-2852 -1202867,-2852l-3768 -4100zm1206635 9813l67778 0 868675 0c0,0 20,0 20,0 6206,363240 -111576,730390 -373638,829673l50 50c0,0 -20,0 -20,0l-787658 61803 -5451 -3728c138961,-194426 226315,-533736 230103,-887798l141 0z"/>
  <path class="fil2" d="M2462903 783275c53521,0 105883,5663 156754,16524l-705594 839255 -10116 216289 728496 865209 31233 29008c-64452,17863 -131666,27415 -200773,27415 -475400,0 -863154,-447793 -863154,-996845 0,-549051 387754,-996855 863154,-996855z"/>
  <path class="fil3" d="M17723 4727269l0 -759366 153298 0 0 337155 309769 -337155 206154 0 -285891 295795 301458 463571 -198386 0 -208632 -356449 -124472 126961 0 229488 -153298 0zm803295 0l0 -759366 153479 0 0 298787 300380 0 0 -298787 153298 0 0 759366 -153298 0 0 -332026 -300380 0 0 332026 -153479 0zm773422 -374988c0,-77440 11486,-142336 34639,-194849 17350,-38559 40856,-73369 70730,-104130 29894,-30599 62598,-53399 98135,-68261 47384,-20161 101842,-30065 163716,-30065 111918,0 201377,34670 268561,104160 67193,69289 100784,165842 100784,289427 0,122689 -33410,218537 -100059,287826 -66669,69137 -155776,103787 -267161,103787 -112976,0 -202808,-34468 -269457,-103243 -66649,-68967 -99888,-163898 -99888,-284652zm157882 -5148c0,85943 19990,151182 59596,195544 39778,44392 90155,66488 151333,66488 61007,0 111223,-21914 150457,-66135 39073,-44010 58710,-109954 58710,-198003 0,-87002 -19103,-151887 -57118,-194849 -38186,-42770 -88916,-64171 -152049,-64171 -63283,0 -114205,21753 -152925,65057 -38558,43315 -58004,108553 -58004,196069zm736656 -379230l280229 0c63112,0 111223,4776 144441,14488 44574,13088 82760,36433 114407,70025 31818,33410 56050,74417 72674,122880 16433,48624 24746,108371 24746,179635 0,62407 -7779,116321 -23345,161600 -18912,55153 -45954,99898 -81329,134004 -26519,25984 -62408,46145 -107667,60654 -33783,10771 -79031,16080 -135776,16080l-288380 0 0 -759366zm153298 128522l0 502836 114387 0c42790,0 73712,-2287 92815,-7255 24745,-6176 45440,-16594 61883,-31465 16453,-14841 29703,-39425 40141,-73370 10257,-33944 15546,-80432 15546,-139152 0,-58689 -5289,-103585 -15546,-135081 -10438,-31456 -24927,-56040 -43496,-73551 -18750,-17672 -42438,-29521 -71072,-35707 -21400,-4957 -63304,-7255 -125903,-7255l-68755 0zm647328 630844l0 -759366 153298 0 0 759366 -153298 0zm537575 0l0 -319663 -278112 -439703 179816 0 178738 300379 175041 -300379 176633 0 -279171 440771 0 318595 -152945 0zm1134465 0l-166920 0 -66296 -172552 -303573 0 -62599 172552 -162658 0 295795 -759366 162144 0 304107 759366zm-282384 -300379l-104664 -281841 -102538 281841 207202 0zm402826 300379l0 -759366 322858 0c81168,0 140018,6881 176804,20503 36775,13602 66296,37834 88422,72675 22095,34992 33047,74770 33047,119696 0,56936 -16805,104130 -50216,141258 -33400,36946 -83616,60473 -150295,70024 33249,19456 60664,40665 82226,63818 21581,23174 50558,64191 87172,123233l92826 148159 -183353 0 -110850 -165298c-39446,-59062 -66317,-96190 -80806,-111575 -14498,-15385 -29873,-25823 -46145,-31647 -16272,-5642 -41904,-8484 -77259,-8484l-30951 0 0 317004 -153480 0zm153480 -438292l113338 0c73551,0 119505,-3022 137913,-9199 18206,-6176 32513,-16977 42952,-32161 10256,-15224 15566,-34135 15566,-56936 0,-25642 -6901,-46145 -20503,-61903 -13622,-15728 -32897,-25632 -57823,-29874 -12383,-1592 -49682,-2479 -111928,-2479l-119515 0 0 192552z"/>
  <polygon class="fil2" points="11476,5010188 5753393,5010188 5753393,4924365 11476,4924365 "/>
  <path class="fil3" d="M245347 5392914l71032 24413c-10912,43032 -29007,74961 -54387,95888 -25279,20816 -57521,31284 -96473,31284 -48231,0 -87888,-17894 -118900,-53591 -31042,-35768 -46619,-84705 -46619,-146618 0,-65622 15647,-116543 46871,-152875 31204,-36241 72221,-54407 123122,-54407 44382,0 80503,14206 108220,42750 16605,16785 28937,41017 37229,72573l-72644 18821c-4211,-20463 -13179,-36614 -26881,-48463 -13622,-11818 -30196,-17692 -49652,-17692 -26901,0 -48805,10458 -65551,31455 -16735,20937 -25098,54881 -25098,101863 0,49823 8202,85329 24776,106447 16503,21189 37974,31748 64352,31748 19546,0 36291,-6700 50306,-20201 14056,-13391 24091,-34579 30297,-63395zm480105 144885l-79827 0 -31718 -89551 -145197 0 -29944 89551 -77793 0 141469 -394091 77561 0 145449 394091zm-135051 -155888l-50075 -146275 -49047 146275 99122 0zm192250 -238203l134023 0c30196,0 53209,2478 69108,7506 21299,6791 39566,18922 54710,36342 15213,17340 26810,38619 34770,63768 7859,25239 11818,56251 11818,93248 0,32372 -3697,60372 -11143,83848 -9058,28634 -21985,51838 -38911,69561 -12685,13481 -29874,23949 -51506,31455 -16151,5602 -37803,8363 -64936,8363l-137933 0 0 -394091zm73319 66689l0 260964 54709 0c20484,0 35285,-1199 44413,-3748 11849,-3234 21723,-8634 29592,-16342 7858,-7698 14206,-20463 19173,-38085 4937,-17602 7446,-41743 7446,-72201 0,-30478 -2509,-53773 -7446,-70115 -4967,-16312 -11899,-29078 -20796,-38156 -8936,-9179 -20271,-15335 -33984,-18549 -10237,-2569 -30297,-3768 -60211,-3768l-32896 0zm685281 182517l71022 24413c-10912,43032 -28977,74961 -54357,95888 -25289,20816 -57521,31284 -96502,31284 -48222,0 -87879,-17894 -118901,-53591 -31042,-35768 -46609,-84705 -46609,-146618 0,-65622 15657,-116543 46871,-152875 31204,-36241 72221,-54407 123112,-54407 44413,0 80533,14206 108251,42750 16594,16785 28936,41017 37228,72573l-72674 18821c-4211,-20463 -13178,-36614 -26871,-48463 -13602,-11818 -30206,-17692 -49632,-17692 -26921,0 -48815,10458 -65551,31455 -16765,20937 -25118,54881 -25118,101863 0,49823 8192,85329 24796,106447 16473,21189 37944,31748 64332,31748 19546,0 36281,-6700 50306,-20201 14046,-13391 24111,-34579 30297,-63395zm304380 54055l69409 12564c-8937,27606 -22982,48624 -42276,63022 -19174,14518 -43284,21662 -72221,21662 -45743,0 -79576,-16131 -101550,-48624 -17350,-25965 -26035,-58811 -26035,-98377 0,-47334 11395,-84422 34226,-111203 22750,-26800 51596,-40191 86427,-40191 39173,0 70024,14046 92704,42116 22569,28090 33390,71022 32473,128925l-174456 0c494,22378 6066,39818 16816,52201 10740,12484 24201,18730 40171,18730 10901,0 20040,-3204 27486,-9642 7435,-6509 13108,-16886 16826,-31183zm3979 -76342c-513,-21944 -5662,-38559 -15566,-49934 -9884,-11385 -21985,-17068 -36191,-17068 -15244,0 -27748,6056 -37622,18096 -9904,11909 -14801,28251 -14629,48906l104008 0zm383774 167172l-69581 0 0 -145711c0,-30831 -1541,-50750 -4493,-59838 -2953,-8988 -7859,-16061 -14539,-21088 -6690,-4968 -14721,-7537 -24111,-7537 -12100,0 -22891,3577 -32473,10741 -9552,7254 -16151,16695 -19708,28543 -3536,11839 -5319,33662 -5319,65592l0 129298 -69592 0 0 -285468 64584 0 0 41954c23012,-32312 51949,-48463 86790,-48463 15305,0 29420,3023 42115,8988 12685,6065 22307,13672 28816,23032 6529,9370 11093,19929 13622,31748 2620,11849 3889,28725 3889,50760l0 177449zm209781 -285468l0 60211 -47526 0 0 115062c0,23294 403,36876 1340,40735 937,3859 2973,6972 6177,9551 3214,2459 7193,3748 11758,3748 6508,0 15798,-2478 28070,-7234l5914 58528c-16242,7537 -34498,11285 -55062,11285 -12524,0 -23829,-2297 -33894,-6791 -10065,-4594 -17441,-10539 -22146,-17793 -4755,-7255 -7959,-17068 -9833,-29451 -1431,-8735 -2197,-26528 -2197,-53238l0 -124402 -31959 0 0 -60211 31959 0 0 -56795 69873 -44040 0 100835 47526 0zm219222 194638l69410 12564c-8947,27606 -22993,48624 -42277,63022 -19174,14518 -43284,21662 -72221,21662 -45752,0 -79576,-16131 -101560,-48624 -17350,-25965 -26035,-58811 -26035,-98377 0,-47334 11405,-84422 34226,-111203 22760,-26800 51596,-40191 86437,-40191 39164,0 70025,14046 92704,42116 22569,28090 33380,71022 32474,128925l-174457 0c494,22378 6066,39818 16806,52201 10751,12484 24211,18730 40171,18730 10912,0 20040,-3204 27486,-9642 7445,-6509 13108,-16886 16836,-31183zm3980 -76342c-514,-21944 -5673,-38559 -15567,-49934 -9884,-11385 -22015,-17068 -36201,-17068 -15234,0 -27738,6056 -37622,18096 -9894,11909 -14791,28251 -14629,48906l104019 0zm211090 167172l-69601 0 0 -285468 64614 0 0 40564c11073,-19174 21068,-31839 29854,-37894 8896,-6065 18841,-9179 30105,-9179 15889,0 31113,4776 45833,14328l-21581 65782c-11638,-8171 -22569,-12292 -32615,-12292 -9803,0 -18025,2831 -24785,8705 -6842,5784 -12081,16343 -15990,31567 -3889,15234 -5834,47173 -5834,95696l0 88191zm405779 115888l-47848 0c-25219,-41370 -44484,-84423 -57692,-129087 -13199,-44604 -19849,-87818 -19849,-129580 0,-51738 8191,-100735 24584,-147001 14136,-40191 32141,-77158 53964,-111011l47617 0c-22670,54316 -38237,100452 -46781,138547 -8453,38085 -12685,78447 -12685,121127 0,29350 2459,59455 7537,90296 4987,30831 11939,60181 20715,87878 5763,18358 15899,44594 30438,78831zm70327 -115888l0 -394091 73298 0 0 394091 -73298 0zm141942 115888c13693,-31940 23406,-56423 28998,-73400 5571,-17068 10821,-36705 15546,-58921 4846,-22197 8383,-43315 10650,-63304 2388,-19919 3496,-40473 3496,-61380 0,-42680 -4151,-83042 -12594,-121127 -8484,-38095 -23950,-84231 -46619,-138547l47364 0c24927,38538 44312,79364 58105,122577 13784,43123 20715,86992 20715,131404 0,37531 -5521,77632 -16412,120473 -12353,47989 -32816,95424 -61148,142225l-48101 0zm348349 -115888l0 -394091 117641 0c44543,0 73672,2005 87173,5964 20816,5854 38307,18710 52352,38539 14045,19798 21067,45410 21067,76694 0,24222 -4050,44594 -12171,61027 -8131,16504 -18357,29451 -30881,38912 -12433,9360 -25118,15586 -37974,18609 -17481,3768 -42861,5693 -76080,5693l-47808 0 0 148653 -73319 0zm73319 -327402l0 111767 40100 0c28897,0 48272,-2015 58015,-6136 9692,-4141 17319,-10559 22921,-19355 5502,-8826 8262,-19012 8262,-30670 0,-14307 -3859,-26155 -11657,-35495 -7708,-9270 -17582,-15144 -29430,-17441 -8796,-1844 -26378,-2670 -52786,-2670l-35425 0zm355472 327402l-106054 -285468 73087 0 49561 145731 14348 48624c3818,-12382 6277,-20553 7193,-24513 2388,-8050 4847,-16131 7446,-24111l50045 -145731 71636 0 -104593 285468 -62669 0zm349054 -285468l0 60211 -47526 0 0 115062c0,23294 393,36876 1330,40735 937,3859 2972,6972 6186,9551 3204,2459 7184,3748 11748,3748 6509,0 15798,-2478 28070,-7234l5925 58528c-16252,7537 -34509,11285 -55063,11285 -12523,0 -23828,-2297 -33904,-6791 -10065,-4594 -17440,-10539 -22145,-17793 -4746,-7255 -7960,-17068 -9834,-29451 -1421,-8735 -2196,-26528 -2196,-53238l0 -124402 -31960 0 0 -60211 31960 0 0 -56795 69883 -44040 0 100835 47526 0zm66901 285468l0 -75526 69601 0 0 75526 -69601 0zm302958 0l0 -390887 73329 0 0 324449 182316 0 0 66438 -255645 0zm446655 -285468l0 60211 -47546 0 0 115062c0,23294 423,36876 1330,40735 967,3859 3002,6972 6206,9551 3204,2459 7184,3748 11728,3748 6529,0 15829,-2478 28091,-7234l5924 58528c-16242,7537 -34508,11285 -55062,11285 -12524,0 -23849,-2297 -33894,-6791 -10066,-4594 -17441,-10539 -22176,-17793 -4726,-7255 -7960,-17068 -9804,-29451 -1430,-8735 -2206,-26528 -2206,-53238l0 -124402 -31949 0 0 -60211 31949 0 0 -56795 69863 -44040 0 100835 47546 0zm308178 285468l-64614 0 0 -41924c-10741,16312 -23436,28443 -38065,36423 -14630,7979 -29330,11919 -44221,11919 -30277,0 -56141,-13209 -77722,-39637 -21471,-26428 -32312,-63304 -32312,-110568 0,-48443 10488,-85238 31465,-110387 20977,-25138 47526,-37803 79596,-37803 29330,0 54781,13300 76272,39819l0 -141933 69601 0 0 394091zm-185812 -148915c0,30458 3910,52483 11688,66155 11163,19617 26891,29551 47032,29551 16050,0 29652,-7445 40916,-22216 11164,-14781 16837,-36876 16837,-66256 0,-32755 -5502,-56423 -16343,-70841 -10891,-14397 -24836,-21652 -41934,-21652 -16473,0 -30267,7164 -41430,21390 -11174,14217 -16766,35516 -16766,63869zm273015 148915l0 -75526 69601 0 0 75526 -69601 0z"/>
  <path class="fil0" d="M3335981 873038l756374 74508 -71 120c221096,64121 354626,365397 385457,694854 121,1259 231,2529 352,3818 816,9149 1572,18328 2227,27506 232,2952 443,5894 655,8847 534,7727 957,15496 1380,23244 232,4735 494,9481 675,14216 282,5924 494,11839 685,17793 252,7627 444,15265 585,22872 0,584 20,1168 20,1753 0,20 0,50 0,70l-936473 0c0,0 0,-50 0,-50 1028,-312017 -63213,-637282 -211866,-889551zm-991041 883888c96865,0 2715424,5713 1202766,5713 -3788,354062 -91142,693372 -230103,887798l5451 3728 787658 -61803c0,0 20,0 20,0l534513 530997 -884755 171323 -1388840 -1508799 -26710 -28957z"/>
  <path class="fil1" d="M1321838 1791898c2832,800394 587359,1452144 1303814,1452144 145479,0 285498,-26901 416287,-76432l381950 189549c-232168,146437 -499823,230224 -784474,230224 -883466,0 -1604052,-805743 -1604052,-1793701 0,-585 30,-1199 30,-1784l0 0c867,-987132 721070,-1791898 1604022,-1791898 284651,0 552306,83767 784474,230194l-381950 189579c-130789,-49551 -270808,-76452 -416287,-76452 -715387,0 -1299219,649806 -1303783,1448577l-31 0zm1019374 -39072l1456124 -1524688 829441 171323 -534473 548205c0,0 -20,0 -20,0l71 -120 -756374 -74508c148210,251523 212501,575570 211866,886740 -477465,-1421 -1154213,-2852 -1202867,-2852l-3768 -4100zm1206635 9813l67778 0 868675 0c0,0 20,0 20,0 6206,363240 -111576,730390 -373638,829673l50 50c0,0 -20,0 -20,0l-787658 61803 -5451 -3728c138961,-194426 226315,-533736 230103,-887798l141 0z"/>
  <path class="fil2" d="M2462903 783275c53521,0 105883,5663 156754,16524l-705594 839255 -10116 216289 728496 865209 31233 29008c-64452,17863 -131666,27415 -200773,27415 -475400,0 -863154,-447793 -863154,-996845 0,-549051 387754,-996855 863154,-996855z"/>
  <path class="fil3" d="M17723 4727269l0 -759366 153298 0 0 337155 309769 -337155 206154 0 -285891 295795 301458 463571 -198386 0 -208632 -356449 -124472 126961 0 229488 -153298 0zm803295 0l0 -759366 153479 0 0 298787 300380 0 0 -298787 153298 0 0 759366 -153298 0 0 -332026 -300380 0 0 332026 -153479 0zm773422 -374988c0,-77440 11486,-142336 34639,-194849 17350,-38559 40856,-73369 70730,-104130 29894,-30599 62598,-53399 98135,-68261 47384,-20161 101842,-30065 163716,-30065 111918,0 201377,34670 268561,104160 67193,69289 100784,165842 100784,289427 0,122689 -33410,218537 -100059,287826 -66669,69137 -155776,103787 -267161,103787 -112976,0 -202808,-34468 -269457,-103243 -66649,-68967 -99888,-163898 -99888,-284652zm157882 -5148c0,85943 19990,151182 59596,195544 39778,44392 90155,66488 151333,66488 61007,0 111223,-21914 150457,-66135 39073,-44010 58710,-109954 58710,-198003 0,-87002 -19103,-151887 -57118,-194849 -38186,-42770 -88916,-64171 -152049,-64171 -63283,0 -114205,21753 -152925,65057 -38558,43315 -58004,108553 -58004,196069zm736656 -379230l280229 0c63112,0 111223,4776 144441,14488 44574,13088 82760,36433 114407,70025 31818,33410 56050,74417 72674,122880 16433,48624 24746,108371 24746,179635 0,62407 -7779,116321 -23345,161600 -18912,55153 -45954,99898 -81329,134004 -26519,25984 -62408,46145 -107667,60654 -33783,10771 -79031,16080 -135776,16080l-288380 0 0 -759366zm153298 128522l0 502836 114387 0c42790,0 73712,-2287 92815,-7255 24745,-6176 45440,-16594 61883,-31465 16453,-14841 29703,-39425 40141,-73370 10257,-33944 15546,-80432 15546,-139152 0,-58689 -5289,-103585 -15546,-135081 -10438,-31456 -24927,-56040 -43496,-73551 -18750,-17672 -42438,-29521 -71072,-35707 -21400,-4957 -63304,-7255 -125903,-7255l-68755 0zm647328 630844l0 -759366 153298 0 0 759366 -153298 0zm537575 0l0 -319663 -278112 -439703 179816 0 178738 300379 175041 -300379 176633 0 -279171 440771 0 318595 -152945 0zm1134465 0l-166920 0 -66296 -172552 -303573 0 -62599 172552 -162658 0 295795 -759366 162144 0 304107 759366zm-282384 -300379l-104664 -281841 -102538 281841 207202 0zm402826 300379l0 -759366 322858 0c81168,0 140018,6881 176804,20503 36775,13602 66296,37834 88422,72675 22095,34992 33047,74770 33047,119696 0,56936 -16805,104130 -50216,141258 -33400,36946 -83616,60473 -150295,70024 33249,19456 60664,40665 82226,63818 21581,23174 50558,64191 87172,123233l92826 148159 -183353 0 -110850 -165298c-39446,-59062 -66317,-96190 -80806,-111575 -14498,-15385 -29873,-25823 -46145,-31647 -16272,-5642 -41904,-8484 -77259,-8484l-30951 0 0 317004 -153480 0zm153480 -438292l113338 0c73551,0 119505,-3022 137913,-9199 18206,-6176 32513,-16977 42952,-32161 10256,-15224 15566,-34135 15566,-56936 0,-25642 -6901,-46145 -20503,-61903 -13622,-15728 -32897,-25632 -57823,-29874 -12383,-1592 -49682,-2479 -111928,-2479l-119515 0 0 192552z"/>
  <polygon class="fil2" points="11476,5010188 5753393,5010188 5753393,4924365 11476,4924365 "/>
  <path class="fil3" d="M245347 5392914l71032 24413c-10912,43032 -29007,74961 -54387,95888 -25279,20816 -57521,31284 -96473,31284 -48231,0 -87888,-17894 -118900,-53591 -31042,-35768 -46619,-84705 -46619,-146618 0,-65622 15647,-116543 46871,-152875 31204,-36241 72221,-54407 123122,-54407 44382,0 80503,14206 108220,42750 16605,16785 28937,41017 37229,72573l-72644 18821c-4211,-20463 -13179,-36614 -26881,-48463 -13622,-11818 -30196,-17692 -49652,-17692 -26901,0 -48805,10458 -65551,31455 -16735,20937 -25098,54881 -25098,101863 0,49823 8202,85329 24776,106447 16503,21189 37974,31748 64352,31748 19546,0 36291,-6700 50306,-20201 14056,-13391 24091,-34579 30297,-63395zm480105 144885l-79827 0 -31718 -89551 -145197 0 -29944 89551 -77793 0 141469 -394091 77561 0 145449 394091zm-135051 -155888l-50075 -146275 -49047 146275 99122 0zm192250 -238203l134023 0c30196,0 53209,2478 69108,7506 21299,6791 39566,18922 54710,36342 15213,17340 26810,38619 34770,63768 7859,25239 11818,56251 11818,93248 0,32372 -3697,60372 -11143,83848 -9058,28634 -21985,51838 -38911,69561 -12685,13481 -29874,23949 -51506,31455 -16151,5602 -37803,8363 -64936,8363l-137933 0 0 -394091zm73319 66689l0 260964 54709 0c20484,0 35285,-1199 44413,-3748 11849,-3234 21723,-8634 29592,-16342 7858,-7698 14206,-20463 19173,-38085 4937,-17602 7446,-41743 7446,-72201 0,-30478 -2509,-53773 -7446,-70115 -4967,-16312 -11899,-29078 -20796,-38156 -8936,-9179 -20271,-15335 -33984,-18549 -10237,-2569 -30297,-3768 -60211,-3768l-32896 0zm685281 182517l71022 24413c-10912,43032 -28977,74961 -54357,95888 -25289,20816 -57521,31284 -96502,31284 -48222,0 -87879,-17894 -118901,-53591 -31042,-35768 -46609,-84705 -46609,-146618 0,-65622 15657,-116543 46871,-152875 31204,-36241 72221,-54407 123112,-54407 44413,0 80533,14206 108251,42750 16594,16785 28936,41017 37228,72573l-72674 18821c-4211,-20463 -13178,-36614 -26871,-48463 -13602,-11818 -30206,-17692 -49632,-17692 -26921,0 -48815,10458 -65551,31455 -16765,20937 -25118,54881 -25118,101863 0,49823 8192,85329 24796,106447 16473,21189 37944,31748 64332,31748 19546,0 36281,-6700 50306,-20201 14046,-13391 24111,-34579 30297,-63395zm304380 54055l69409 12564c-8937,27606 -22982,48624 -42276,63022 -19174,14518 -43284,21662 -72221,21662 -45743,0 -79576,-16131 -101550,-48624 -17350,-25965 -26035,-58811 -26035,-98377 0,-47334 11395,-84422 34226,-111203 22750,-26800 51596,-40191 86427,-40191 39173,0 70024,14046 92704,42116 22569,28090 33390,71022 32473,128925l-174456 0c494,22378 6066,39818 16816,52201 10740,12484 24201,18730 40171,18730 10901,0 20040,-3204 27486,-9642 7435,-6509 13108,-16886 16826,-31183zm3979 -76342c-513,-21944 -5662,-38559 -15566,-49934 -9884,-11385 -21985,-17068 -36191,-17068 -15244,0 -27748,6056 -37622,18096 -9904,11909 -14801,28251 -14629,48906l104008 0zm383774 167172l-69581 0 0 -145711c0,-30831 -1541,-50750 -4493,-59838 -2953,-8988 -7859,-16061 -14539,-21088 -6690,-4968 -14721,-7537 -24111,-7537 -12100,0 -22891,3577 -32473,10741 -9552,7254 -16151,16695 -19708,28543 -3536,11839 -5319,33662 -5319,65592l0 129298 -69592 0 0 -285468 64584 0 0 41954c23012,-32312 51949,-48463 86790,-48463 15305,0 29420,3023 42115,8988 12685,6065 22307,13672 28816,23032 6529,9370 11093,19929 13622,31748 2620,11849 3889,28725 3889,50760l0 177449zm209781 -285468l0 60211 -47526 0 0 115062c0,23294 403,36876 1340,40735 937,3859 2973,6972 6177,9551 3214,2459 7193,3748 11758,3748 6508,0 15798,-2478 28070,-7234l5914 58528c-16242,7537 -34498,11285 -55062,11285 -12524,0 -23829,-2297 -33894,-6791 -10065,-4594 -17441,-10539 -22146,-17793 -4755,-7255 -7959,-17068 -9833,-29451 -1431,-8735 -2197,-26528 -2197,-53238l0 -124402 -31959 0 0 -60211 31959 0 0 -56795 69873 -44040 0 100835 47526 0zm219222 194638l69410 12564c-8947,27606 -22993,48624 -42277,63022 -19174,14518 -43284,21662 -72221,21662 -45752,0 -79576,-16131 -101560,-48624 -17350,-25965 -26035,-58811 -26035,-98377 0,-47334 11405,-84422 34226,-111203 22760,-26800 51596,-40191 86437,-40191 39164,0 70025,14046 92704,42116 22569,28090 33380,71022 32474,128925l-174457 0c494,22378 6066,39818 16806,52201 10751,12484 24211,18730 40171,18730 10912,0 20040,-3204 27486,-9642 7445,-6509 13108,-16886 16836,-31183zm3980 -76342c-514,-21944 -5673,-38559 -15567,-49934 -9884,-11385 -22015,-17068 -36201,-17068 -15234,0 -27738,6056 -37622,18096 -9894,11909 -14791,28251 -14629,48906l104019 0zm211090 167172l-69601 0 0 -285468 64614 0 0 40564c11073,-19174 21068,-31839 29854,-37894 8896,-6065 18841,-9179 30105,-9179 15889,0 31113,4776 45833,14328l-21581 65782c-11638,-8171 -22569,-12292 -32615,-12292 -9803,0 -18025,2831 -24785,8705 -6842,5784 -12081,16343 -15990,31567 -3889,15234 -5834,47173 -5834,95696l0 88191zm405779 115888l-47848 0c-25219,-41370 -44484,-84423 -57692,-129087 -13199,-44604 -19849,-87818 -19849,-129580 0,-51738 8191,-100735 24584,-147001 14136,-40191 32141,-77158 53964,-111011l47617 0c-22670,54316 -38237,100452 -46781,138547 -8453,38085 -12685,78447 -12685,121127 0,29350 2459,59455 7537,90296 4987,30831 11939,60181 20715,87878 5763,18358 15899,44594 30438,78831zm70327 -115888l0 -394091 73298 0 0 394091 -73298 0zm141942 115888c13693,-31940 23406,-56423 28998,-73400 5571,-17068 10821,-36705 15546,-58921 4846,-22197 8383,-43315 10650,-63304 2388,-19919 3496,-40473 3496,-61380 0,-42680 -4151,-83042 -12594,-121127 -8484,-38095 -23950,-84231 -46619,-138547l47364 0c24927,38538 44312,79364 58105,122577 13784,43123 20715,86992 20715,131404 0,37531 -5521,77632 -16412,120473 -12353,47989 -32816,95424 -61148,142225l-48101 0zm348349 -115888l0 -394091 117641 0c44543,0 73672,2005 87173,5964 20816,5854 38307,18710 52352,38539 14045,19798 21067,45410 21067,76694 0,24222 -4050,44594 -12171,61027 -8131,16504 -18357,29451 -30881,38912 -12433,9360 -25118,15586 -37974,18609 -17481,3768 -42861,5693 -76080,5693l-47808 0 0 148653 -73319 0zm73319 -327402l0 111767 40100 0c28897,0 48272,-2015 58015,-6136 9692,-4141 17319,-10559 22921,-19355 5502,-8826 8262,-19012 8262,-30670 0,-14307 -3859,-26155 -11657,-35495 -7708,-9270 -17582,-15144 -29430,-17441 -8796,-1844 -26378,-2670 -52786,-2670l-35425 0zm355472 327402l-106054 -285468 73087 0 49561 145731 14348 48624c3818,-12382 6277,-20553 7193,-24513 2388,-8050 4847,-16131 7446,-24111l50045 -145731 71636 0 -104593 285468 -62669 0zm349054 -285468l0 60211 -47526 0 0 115062c0,23294 393,36876 1330,40735 937,3859 2972,6972 6186,9551 3204,2459 7184,3748 11748,3748 6509,0 15798,-2478 28070,-7234l5925 58528c-16252,7537 -34509,11285 -55063,11285 -12523,0 -23828,-2297 -33904,-6791 -10065,-4594 -17440,-10539 -22145,-17793 -4746,-7255 -7960,-17068 -9834,-29451 -1421,-8735 -2196,-26528 -2196,-53238l0 -124402 -31960 0 0 -60211 31960 0 0 -56795 69883 -44040 0 100835 47526 0zm66901 285468l0 -75526 69601 0 0 75526 -69601 0zm302958 0l0 -390887 73329 0 0 324449 182316 0 0 66438 -255645 0zm446655 -285468l0 60211 -47546 0 0 115062c0,23294 423,36876 1330,40735 967,3859 3002,6972 6206,9551 3204,2459 7184,3748 11728,3748 6529,0 15829,-2478 28091,-7234l5924 58528c-16242,7537 -34508,11285 -55062,11285 -12524,0 -23849,-2297 -33894,-6791 -10066,-4594 -17441,-10539 -22176,-17793 -4726,-7255 -7960,-17068 -9804,-29451 -1430,-8735 -2206,-26528 -2206,-53238l0 -124402 -31949 0 0 -60211 31949 0 0 -56795 69863 -44040 0 100835 47546 0zm308178 285468l-64614 0 0 -41924c-10741,16312 -23436,28443 -38065,36423 -14630,7979 -29330,11919 -44221,11919 -30277,0 -56141,-13209 -77722,-39637 -21471,-26428 -32312,-63304 -32312,-110568 0,-48443 10488,-85238 31465,-110387 20977,-25138 47526,-37803 79596,-37803 29330,0 54781,13300 76272,39819l0 -141933 69601 0 0 394091zm-185812 -148915c0,30458 3910,52483 11688,66155 11163,19617 26891,29551 47032,29551 16050,0 29652,-7445 40916,-22216 11164,-14781 16837,-36876 16837,-66256 0,-32755 -5502,-56423 -16343,-70841 -10891,-14397 -24836,-21652 -41934,-21652 -16473,0 -30267,7164 -41430,21390 -11174,14217 -16766,35516 -16766,63869zm273015 148915l0 -75526 69601 0 0 75526 -69601 0z"/>
  <path class="fil1" d="M1321838 1791898c2832,800394 587359,1452144 1303814,1452144 145479,0 285498,-26901 416287,-76432l381950 189549c-232168,146437 -499823,230224 -784474,230224 -883466,0 -1604052,-805743 -1604052,-1793701 0,-585 30,-1199 30,-1784l0 0c867,-987132 721070,-1791898 1604022,-1791898 284651,0 552306,83767 784474,230194l-381950 189579c-130789,-49551 -270808,-76452 -416287,-76452 -715387,0 -1299219,649806 -1303783,1448577l-31 0zm1019374 -39072l1456124 -1524688 829441 171323 -534473 548205c0,0 -20,0 -20,0l71 -120 -756374 -74508c148210,251523 212501,575570 211866,886740 -477465,-1421 -1154213,-2852 -1202867,-2852l-3768 -4100zm1206635 9813l67778 0 868675 0c0,0 20,0 20,0 6206,363240 -111576,730390 -373638,829673l50 50c0,0 -20,0 -20,0l-787658 61803 -5451 -3728c138961,-194426 226315,-533736 230103,-887798l141 0z"/>
 </g>
</svg>
