<?xml version="1.0" encoding="UTF-8"?>
<!DOCTYPE svg PUBLIC "-//W3C//DTD SVG 1.1//EN" "http://www.w3.org/Graphics/SVG/1.1/DTD/svg11.dtd">
<!-- Creator: CorelDRAW X7 -->
<svg xmlns="http://www.w3.org/2000/svg" xml:space="preserve" width="281px" height="281px" version="1.1" shape-rendering="geometricPrecision" text-rendering="geometricPrecision" image-rendering="optimizeQuality" fill-rule="evenodd" clip-rule="evenodd"
viewBox="0 0 924315 924315"
 xmlns:xlink="http://www.w3.org/1999/xlink">
 <g id="Layer_x0020_1">
  <metadata id="CorelCorpID_0Corel-Layer"/>
  <g id="_801833372768">
   <g>
    <path id="Facebook__x0028_alt_x0029_" fill="white" d="M924315 154063c0,-80952 -73080,-154063 -154051,-154063l-616213 0c-80971,0 -154051,73111 -154051,154063l0 616193c0,80948 73080,154059 154063,154059l308095 0 0 -349186 -112972 0 0 -154051 112972 0 0 -60018c0,-103516 77726,-196738 173308,-196738l124527 0 0 154051 -124527 0c-13629,0 -29524,16548 -29524,41328l0 61377 154051 0 0 154051 -154051 0 0 349186 164322 0c80971,0 154051,-73115 154051,-154063l0 -616189z"/>
   </g>
   <g>
   </g>
   <g>
   </g>
   <g>
   </g>
   <g>
   </g>
   <g>
   </g>
   <g>
   </g>
   <g>
   </g>
   <g>
   </g>
   <g>
   </g>
   <g>
   </g>
   <g>
   </g>
   <g>
   </g>
   <g>
   </g>
   <g>
   </g>
   <g>
   </g>
  </g>
 </g>
</svg>
