<?xml version="1.0" encoding="UTF-8"?>
<!DOCTYPE svg PUBLIC "-//W3C//DTD SVG 1.1//EN" "http://www.w3.org/Graphics/SVG/1.1/DTD/svg11.dtd">
<!-- Creator: CorelDRAW X7 -->
<svg xmlns="http://www.w3.org/2000/svg" xml:space="preserve" width="595px" height="595px" version="1.1" shape-rendering="geometricPrecision" text-rendering="geometricPrecision" image-rendering="optimizeQuality" fill-rule="evenodd" clip-rule="evenodd"
viewBox="0 0 1062131 1062141"
 xmlns:xlink="http://www.w3.org/1999/xlink">
 <g id="Layer_x0020_1">
  <metadata id="CorelCorpID_0Corel-Layer"/>
  <g id="_147639826880">
   <g>
    <g>
     <path fill="red" d="M531059 0c-293293,0 -531059,237772 -531059,531057 0,293282 237766,531084 531057,531084 293291,0 531074,-237791 531074,-531084 0,-293295 -237779,-531057 -531072,-531057zm-386851 731097c0,-165899 145698,-165863 178029,-209241l3702 -19781c-45426,-23032 -77491,-78523 -77491,-143440 0,-85518 55628,-154854 124232,-154854 54021,0 99860,43066 116967,103091 -68720,21838 -119555,96351 -119555,184928 0,60981 24039,117049 63505,152671 -6337,3249 -13387,6562 -19448,9401 -31825,14931 -75939,35687 -107766,77225l-162175 0zm388466 133155l0 -6 -3243 0 -226842 0c0,-165893 145698,-165847 178030,-209227l3699 -19779c-45423,-23031 -77491,-78522 -77491,-143440 0,-85517 55628,-154855 124232,-154855 68604,0 124232,69338 124232,154855 0,64359 -31496,119519 -76314,142898l4214 22489c35471,41275 176323,43966 176323,207065l-226840 0zm223049 -133146l0 -9 0 0c-31838,-41532 -75952,-62284 -107777,-77212 -6263,-2940 -13206,-6200 -19412,-9387 39430,-35668 63498,-91855 63498,-152698 0,-88567 -50818,-163065 -119521,-184909 17097,-60038 62938,-103103 116967,-103103 68613,0 124233,69336 124233,154853 0,64359 -31497,119515 -76315,142898l4214 22489c35471,41269 176324,43956 176324,207078l-162211 0z"/>
    </g>
   </g>
   <g>
   </g>
   <g>
   </g>
   <g>
   </g>
   <g>
   </g>
   <g>
   </g>
   <g>
   </g>
   <g>
   </g>
   <g>
   </g>
   <g>
   </g>
   <g>
   </g>
   <g>
   </g>
   <g>
   </g>
   <g>
   </g>
   <g>
   </g>
   <g>
   </g>
  </g>
 </g>
</svg>
