<?xml version="1.0" encoding="UTF-8"?>
<!DOCTYPE svg PUBLIC "-//W3C//DTD SVG 1.1//EN" "http://www.w3.org/Graphics/SVG/1.1/DTD/svg11.dtd">
<!-- Creator: CorelDRAW X7 -->
<svg xmlns="http://www.w3.org/2000/svg" xml:space="preserve" width="528px" height="528px" version="1.1" shape-rendering="geometricPrecision" text-rendering="geometricPrecision" image-rendering="optimizeQuality" fill-rule="evenodd" clip-rule="evenodd"
viewBox="0 0 6292755 6292741"
 xmlns:xlink="http://www.w3.org/1999/xlink">
 <g id="Layer_x0020_1">
  <metadata id="CorelCorpID_0Corel-Layer"/>
  <g id="_801833976864">
   <g>
    <path fill="white" d="M4556131 0l-2819606 0c-957524,0 -1736525,779043 -1736525,1736567l0 2819592c0,957567 779015,1736568 1736539,1736568l2819592 14c957595,0 1736610,-779043 1736610,-1736567l0 -2819607c28,-957524 -779015,-1736567 -1736610,-1736567zm1178322 4556159c0,649703 -528577,1178251 -1178294,1178251l-2819634 0c-649660,43 -1178208,-528548 -1178208,-1178251l0 -2819592c0,-649660 528548,-1178250 1178208,-1178250l2819606 0c649703,0 1178293,528576 1178293,1178250l-14 2819592 43 0z"/>
    <path fill="white" d="M3146363 1524971c-894091,0 -1621463,727385 -1621463,1621463 0,894063 727386,1621407 1621463,1621407 894092,0 1621478,-727344 1621478,-1621407 0,-894092 -727386,-1621463 -1621478,-1621463zm0 2684511c-586185,0 -1063146,-476877 -1063146,-1063090 0,-586228 476919,-1063147 1063146,-1063147 586242,0 1063161,476919 1063161,1063147 0,586213 -476961,1063090 -1063161,1063090z"/>
    <path fill="white" d="M4835845 1051540c-107564,0 -213242,43555 -289210,119860 -76347,75939 -120225,181646 -120225,289589 0,107607 43921,213285 120225,289590 75939,75939 181646,119859 289210,119859 107944,0 213285,-43920 289590,-119859 76305,-76305 119859,-182012 119859,-289590 0,-107943 -43554,-213650 -119859,-289589 -75939,-76305 -181646,-119860 -289590,-119860z"/>
   </g>
   <g>
   </g>
   <g>
   </g>
   <g>
   </g>
   <g>
   </g>
   <g>
   </g>
   <g>
   </g>
   <g>
   </g>
   <g>
   </g>
   <g>
   </g>
   <g>
   </g>
   <g>
   </g>
   <g>
   </g>
   <g>
   </g>
   <g>
   </g>
   <g>
   </g>
  </g>
 </g>
</svg>
