<?xml version="1.0" encoding="UTF-8"?>
<!DOCTYPE svg PUBLIC "-//W3C//DTD SVG 1.1//EN" "http://www.w3.org/Graphics/SVG/1.1/DTD/svg11.dtd">
<!-- Creator: CorelDRAW X7 -->
<svg xmlns="http://www.w3.org/2000/svg" xml:space="preserve" width="472px" height="472px" version="1.1" style="shape-rendering:geometricPrecision; text-rendering:geometricPrecision; image-rendering:optimizeQuality; fill-rule:evenodd; clip-rule:evenodd"
viewBox="0 0 562675 562675"
 xmlns:xlink="http://www.w3.org/1999/xlink">
 <defs>
  <style type="text/css">
   <![CDATA[
    .fil0 {fill:black}
   ]]>
  </style>
 </defs>
 <g id="Layer_x0020_1">
  <metadata id="CorelCorpID_0Corel-Layer"/>
  <path class="fil0" d="M327506 179167l0 -9708 0 -27730 27623 0 0 9709 -18119 0 0 18021 18119 0 0 9708 -18119 0 0 14032 18119 0 0 9709 -27623 0 0 -23741zm-95401 -37145l36845 0 0 9709 -27343 0 0 16877 27343 0 0 34007 -36845 0 0 -9709 27343 0 0 -14590 -17841 0 0 17 -9502 0 0 -17 0 -36294zm84492 -293l0 9709 -13926 0 0 51470 -9501 0 0 -51470 -13927 0 0 -9709 37354 0zm-106334 0l9502 0 0 61179 -9502 0 0 -61179zm-11523 127249c2568,2272 3530,8609 2463,15325 -559,3518 -1677,7141 -3413,10336 -2165,3988 -6250,6184 -6610,13188 -370,7212 485,16825 359,22809 -366,17083 11639,27175 45209,7121 673,-404 2842,-1978 4980,-3193 12588,-7155 -3992,51263 -55182,54054 -33393,1821 -56377,-24212 -58971,-57774 -678,-8786 11881,3430 20217,7657 11906,6035 21043,7651 25042,-90 7228,-13990 -1535,-41898 8807,-55647 1950,-2594 5848,-7131 9349,-10737 2723,-2805 4893,-5575 7750,-3049zm177234 31653c18038,0 32666,14627 32666,32665 0,18038 -14628,32666 -32666,32666 -18038,0 -32666,-14628 -32666,-32666 0,-18038 14628,-32665 32666,-32665zm-20379 -9994l-3657 -10049 8568 -3120 3657 10048c2351,-605 4773,-1032 7252,-1269l0 -10702 9118 0 0 10702c2477,237 4901,664 7251,1270l3658 -10049 8569 3120 -3659 10050c2227,1065 4354,2299 6371,3686l6880 -8198 6986 5860 -6883 8204c1719,1751 3301,3633 4732,5634l9270 -5353 4561 7897 -9263 5348c1012,2220 1855,4531 2518,6919l10533 -1857 1582 8980 -10539 1858c95,1214 144,2442 144,3680 0,1239 -51,2465 -144,3680l10539 1858 -1582 8982 -10535 -1858c-662,2387 -1505,4698 -2516,6918l9263 5348 -4561 7897 -9270 -5352c-1432,1999 -3014,3882 -4733,5634l6884 8203 -6986 5862 -6880 -8201c-2017,1387 -4145,2622 -6372,3687l3660 10052 -8569 3119 -3658 -10050c-2350,607 -4773,1033 -7251,1271l0 10703 -9118 0 0 -10703c-2478,-238 -4901,-664 -7252,-1269l-3657 10048 -8568 -3119 3657 -10051c-2225,-1066 -4354,-2301 -6371,-3688l-6880 8201 -6984 -5862 6883 -8203c-1718,-1750 -3302,-3635 -4732,-5634l-9273 5352 -4559 -7897 9264 -5348c-1013,-2220 -1855,-4531 -2518,-6918l-10535 1858 -1582 -8982 10539 -1858c-93,-1215 -142,-2441 -142,-3680 0,-1238 48,-2466 142,-3680l-10539 -1858 1582 -8980 10534 1857c662,-2388 1505,-4699 2518,-6919l-9263 -5348 4559 -7897 9270 5353c1432,-2001 3016,-3883 4735,-5634l-6883 -8204 6984 -5860 6880 8198c2017,-1387 4144,-2621 6371,-3687zm-42797 -26800c-9502,3525 -19778,5454 -30507,5454 -10729,0 -21003,-1928 -30507,-5454 15847,13176 26985,31823 30509,53042 3523,-21219 14660,-39866 30505,-53042zm-30702 -176350c48167,0 87228,39061 87228,87229 0,48167 -39061,87227 -87228,87227 -48167,0 -87228,-39060 -87228,-87227 0,-48168 39061,-87229 87228,-87229zm-92916 158333c48166,0 87227,39061 87227,87229 0,48166 -39061,87227 -87227,87227 -48168,0 -87229,-39061 -87229,-87227 0,-48168 39061,-87229 87229,-87229zm185833 0c48166,0 87229,39061 87229,87229 0,48166 -39063,87227 -87229,87227 -48168,0 -87229,-39061 -87229,-87227 0,-48168 39061,-87229 87229,-87229zm-82224 -162057c104541,5902 187516,92052 187516,197442 0,27981 -5863,54598 -16411,78725 2749,-8659 4232,-17866 4232,-27412 0,-50874 -42057,-92132 -93919,-92132 -11476,0 -22473,2024 -32640,5724 20722,-16902 33923,-42377 33923,-70872 0,-47148 -36130,-86033 -82701,-91475zm154286 306870c-35654,53247 -96576,88348 -165739,88348 -70649,0 -132703,-36629 -168008,-91813 17106,22731 44601,37483 75606,37483 46582,0 85249,-33292 92638,-76936 7388,43644 46054,76936 92635,76936 29401,0 55646,-13264 72868,-34018zm-346299 -26288c-11806,-25277 -18406,-53442 -18406,-83140 0,-105749 83539,-192138 188582,-197510 -46860,5177 -83300,44194 -83300,91543 0,28495 13199,53969 33921,70872 -10166,-3700 -21162,-5724 -32639,-5724 -51862,0 -93918,41258 -93918,92132 0,11188 2034,21907 5760,31827zm180561 -364345c155355,0 281338,125983 281338,281337 0,155355 -125983,281338 -281338,281338 -155354,0 -281337,-125983 -281337,-281338 0,-155354 125983,-281337 281337,-281337zm0 38507c134090,0 242831,108742 242831,242830 0,134090 -108741,242831 -242831,242831 -134088,0 -242830,-108741 -242830,-242831 0,-134088 108742,-242830 242830,-242830zm-231584 258459l22089 -1545 311 4459 -22089 1545 -311 -4459zm993 8831l21977 -2700 532 4319 -13572 10798 14676 -1802 506 4124 -21978 2698 -547 -4456 13245 -10618 -14332 1761 -507 -4124zm24651 16883l1837 7962c414,1793 594,3192 536,4199 -80,1352 -492,2591 -1239,3709 -740,1124 -1747,2081 -3015,2871 -1273,787 -2917,1415 -4941,1882 -1773,410 -3357,542 -4744,397 -1692,-176 -3139,-651 -4342,-1432 -912,-582 -1721,-1470 -2430,-2661 -527,-888 -974,-2140 -1347,-3753l-1891 -8193 21576 -4981zm-2647 5199l-14287 3299 750 3249c281,1216 550,2079 816,2590 338,662 769,1181 1300,1551 530,370 1315,586 2347,659 1032,69 2388,-85 4056,-470 1667,-386 2909,-830 3735,-1328 825,-502 1429,-1076 1805,-1718 379,-648 561,-1399 548,-2253 0,-642 -209,-1847 -620,-3625l-450 -1954zm-13454 21265l21058 -6842 1382 4251 -21059 6842 -1381 -4251zm10027 27086l-1744 -4544 4004 -3608 -3172 -8263 -5352 99 -1699 -4429 23763 117 1693 4414 -17493 16214zm5226 -10825l6579 -5794 -8744 153 2165 5641zm-4039 12850l19730 -10053 1975 3878 -9059 14787 13174 -6713 1886 3703 -19728 10052 -2040 -4001 8816 -14505 -12867 6555 -1887 -3703zm19729 22272l2847 3319c-1052,1051 -1626,2100 -1726,3152 -100,1045 236,2126 1017,3241 824,1179 1698,1895 2618,2138 919,252 1711,144 2377,-325 432,-301 705,-682 829,-1145 129,-462 83,-1086 -138,-1868 -146,-533 -570,-1696 -1259,-3487 -888,-2304 -1253,-4100 -1096,-5386 215,-1813 1041,-3223 2477,-4227 925,-649 1970,-989 3143,-1031 1169,-38 2311,289 3422,977 1110,695 2153,1735 3129,3129 1596,2280 2296,4339 2106,6191 -196,1848 -1103,3384 -2731,4611l-2725 -3549c825,-811 1259,-1618 1304,-2417 50,-802 -289,-1716 -1011,-2747 -744,-1065 -1546,-1749 -2404,-2041 -551,-195 -1063,-126 -1532,202 -430,303 -671,741 -721,1317 -67,733 315,2139 1145,4214 825,2078 1313,3701 1463,4867 146,1169 0,2267 -441,3298 -444,1029 -1239,1944 -2383,2746 -1039,727 -2215,1123 -3525,1177 -1312,58 -2559,-284 -3737,-1033 -1183,-745 -2326,-1910 -3428,-3484 -1607,-2294 -2312,-4424 -2112,-6395 200,-1972 1231,-3789 3092,-5444zm14362 14229c1730,-1452 3395,-2411 5001,-2878 1187,-336 2405,-463 3652,-371 1243,94 2366,396 3365,912 1339,680 2579,1711 3740,3094 2097,2499 2999,5147 2706,7950 -288,2800 -1814,5360 -4576,7677 -2740,2300 -5508,3349 -8305,3159 -2793,-194 -5237,-1535 -7324,-4023 -2119,-2522 -3032,-5175 -2745,-7953 291,-2781 1788,-5304 4486,-7567zm3074 3431c-1919,1609 -3002,3279 -3251,4996 -246,1719 205,3260 1352,4626 1143,1363 2574,2073 4297,2122 1715,47 3556,-751 5523,-2401 1943,-1630 3034,-3273 3282,-4927 240,-1655 -234,-3189 -1415,-4599 -1188,-1414 -2628,-2144 -4320,-2197 -1691,-49 -3513,738 -5468,2380zm20550 26676l2164 3997c-2158,1276 -4198,1800 -6128,1571 -1921,-228 -3743,-1170 -5452,-2822 -2114,-2041 -3155,-4444 -3123,-7201 37,-2760 1262,-5396 3680,-7898 2560,-2652 5233,-4047 8021,-4195 2782,-143 5290,860 7523,3016 1947,1879 2975,3984 3078,6312 71,1380 -332,2882 -1202,4508l-3919 -2315c614,-1006 850,-2038 712,-3098 -135,-1055 -633,-1993 -1485,-2817 -1181,-1140 -2549,-1643 -4104,-1504 -1550,138 -3242,1153 -5077,3052 -1945,2015 -2970,3797 -3066,5352 -104,1555 425,2892 1582,4009 857,827 1853,1266 2994,1315 1139,52 2407,-377 3802,-1282zm591 10995l14527 -16711 3373 2931 -14527 16712 -3373 -2932zm6585 5599l13934 -17208 12758 10330 -2359 2914 -9283 -7519 -3089 3815 8637 6994 -2345 2898 -8639 -6996 -3792 4684 9612 7782 -2349 2902 -13085 -10596zm20616 15203l10018 -15427 -5508 -3577 2041 -3144 14758 9584 -2042 3143 -5495 -3568 -10019 15425 -3753 -2436zm17164 10054l4377 -8229 -1141 -15129 4628 2461 491 10182 8619 -5338 4546 2418 -13220 7525 -4362 8204 -3938 -2094zm20570 9441l8294 -20530 14078 5687 -1403 3476 -9929 -4012 -1962 4857 8571 3462 -1404 3476 -8571 -3463 -3525 8724 -4149 -1677zm19853 -4189c622,-2170 1466,-3896 2536,-5182 796,-941 1736,-1727 2819,-2351 1083,-617 2185,-993 3300,-1124 1490,-184 3096,-23 4831,475 3137,898 5366,2588 6690,5076 1327,2483 1493,5458 498,8923 -986,3439 -2692,5857 -5117,7264 -2424,1401 -5201,1656 -8322,761 -3167,-907 -5408,-2595 -6723,-5060 -1315,-2469 -1483,-5396 -512,-8782zm4466 1127c-690,2407 -655,4397 99,5959 758,1564 1993,2588 3708,3080 1709,490 3293,279 4749,-644 1449,-920 2528,-2611 3235,-5078 699,-2439 687,-4411 -34,-5921 -726,-1506 -1976,-2514 -3746,-3021 -1774,-510 -3376,-308 -4809,595 -1429,904 -2498,2577 -3202,5030zm16890 15632l4225 -21736 9242 1797c2322,451 3968,976 4945,1570 977,595 1687,1453 2126,2572 437,1124 532,2324 281,3610 -316,1630 -1060,2888 -2224,3764 -1162,872 -2730,1266 -4691,1168 844,741 1509,1502 1999,2284 488,784 1090,2119 1809,4014l1833 4757 -5249 -1021 -2253 -5349c-799,-1910 -1362,-3121 -1692,-3643 -329,-520 -712,-904 -1145,-1162 -434,-252 -1152,-475 -2164,-672l-886 -172 -1764 9073 -4392 -854zm6831 -11692l3244 630c2106,410 3438,580 3999,505 556,-76 1026,-305 1408,-682 379,-377 636,-890 763,-1543 143,-734 59,-1359 -242,-1885 -303,-526 -799,-917 -1490,-1177 -345,-114 -1408,-346 -3190,-694l-3420 -665 -1072 5511zm28799 16153l642 -18384 -6564 -229 131 -3746 17585 615 -131 3746 -6549 -230 -642 18384 -4472 -156zm13918 287l-772 -22129 16405 -572 130 3746 -11938 416 171 4905 11109 -388 129 3725 -11108 388 211 6024 12359 -432 131 3729 -16827 588zm33507 -11196l4479 756c-322,2487 -1165,4417 -2532,5797 -1364,1373 -3227,2228 -5580,2558 -2911,410 -5445,-250 -7598,-1972 -2153,-1727 -3474,-4317 -3959,-7762 -513,-3652 33,-6617 1633,-8903 1600,-2281 3934,-3640 7008,-4072 2680,-377 4971,108 6869,1460 1132,793 2066,2037 2814,3722l-4239 1663c-415,-1103 -1082,-1925 -2002,-2468 -914,-543 -1961,-728 -3136,-564 -1623,230 -2864,998 -3710,2307 -847,1307 -1088,3267 -719,5880 389,2773 1162,4679 2328,5713 1160,1039 2540,1444 4133,1221 1180,-166 2138,-681 2879,-1552 743,-863 1186,-2128 1332,-3784zm9107 6744l-4981 -21574 4361 -1008 1959 8490 8535 -1971 -1960 -8489 4355 -1006 4981 21576 -4355 1005 -2177 -9433 -8535 1971 2178 9433 -4361 1006zm21686 -5496l-7210 -20936 4114 -1416 13383 11030 -4814 -13982 3929 -1351 7209 20935 -4245 1462 -13140 -10749 4703 13655 -3929 1352zm20890 -7468l-8293 -20531 4142 -1675 8296 20532 -4145 1674zm16692 -17198l4468 -823c547,2447 416,4549 -398,6313 -812,1757 -2269,3199 -4368,4314 -2595,1380 -5202,1628 -7814,746 -2614,-888 -4742,-2868 -6375,-5942 -1732,-3254 -2233,-6229 -1511,-8924 724,-2691 2452,-4766 5192,-6223 2390,-1270 4710,-1598 6955,-976 1335,357 2639,1205 3917,2534l-3414 3012c-768,-893 -1677,-1437 -2726,-1633 -1044,-197 -2092,-14 -3138,543 -1449,768 -2351,1914 -2698,3437 -349,1516 95,3440 1335,5771 1314,2472 2692,3998 4141,4570 1447,580 2881,489 4302,-267 1050,-558 1776,-1369 2176,-2440 402,-1067 385,-2406 -44,-4012zm27823 -7414l-4081 2651 -4362 -3167 -7423 4821 1208 5215 -3976 2582 -4827 -23268 3964 -2574 19497 13740zm-11675 -2861l-7035 -5230 1968 8521 5067 -3291zm13819 1716l-13822 -17067 3474 -2813 11473 14166 8637 -6994 2349 2901 -12111 9807zm20833 -17085l-15382 -15928 11807 -11404 2604 2697 -8592 8298 3409 3530 7995 -7721 2590 2681 -7996 7721 4187 4336 8897 -8591 2592 2684 -12111 11697zm-2081 -28611l5253 -6260c1182,-1409 2190,-2395 3031,-2955 1127,-750 2364,-1165 3707,-1242 1343,-84 2713,142 4107,679 1395,545 2886,1479 4477,2814 1394,1170 2453,2355 3172,3550 877,1458 1370,2901 1468,4329 85,1080 -138,2259 -662,3542 -391,956 -1123,2067 -2186,3335l-5405 6441 -16962 -14233zm5745 -1015l11231 9424 2144 -2556c802,-955 1331,-1689 1578,-2208 325,-668 480,-1327 456,-1972 -22,-646 -323,-1403 -886,-2272 -566,-865 -1505,-1855 -2816,-2955 -1311,-1101 -2414,-1824 -3309,-2184 -899,-357 -1719,-495 -2457,-408 -747,88 -1456,394 -2131,919 -512,385 -1348,1279 -2521,2675l-1289 1537zm7211 -14572l2564 -3662 9823 6879c1559,1091 2604,1755 3127,1987 853,365 1711,407 2570,133 865,-275 1655,-925 2369,-1947 729,-1038 1066,-1972 1010,-2798 -53,-824 -354,-1508 -897,-2045 -543,-545 -1535,-1314 -2970,-2319l-10035 -7026 2564 -3662 9528 6672c2179,1527 3647,2700 4408,3527 761,828 1262,1722 1511,2688 243,964 238,2024 -15,3168 -258,1148 -892,2441 -1897,3877 -1212,1731 -2330,2905 -3359,3519 -1028,615 -2041,957 -3042,1030 -1002,72 -1914,-55 -2729,-381 -1207,-487 -2822,-1442 -4853,-2866l-9677 -6774zm30763 -22037l3300 -3123c1792,1754 2826,3588 3104,5511 276,1916 -161,3919 -1313,5997 -1425,2571 -3476,4197 -6149,4881 -2676,679 -5538,177 -8582,-1511 -3223,-1786 -5264,-4007 -6126,-6662 -860,-2650 -541,-5333 965,-8047 1311,-2367 3077,-3905 5299,-4606 1315,-428 2871,-425 4667,-8l-1222 4387c-1131,-333 -2189,-294 -3177,113 -983,403 -1761,1128 -2336,2164 -795,1435 -929,2887 -391,4353 533,1463 1954,2833 4262,4113 2449,1357 4437,1888 5963,1578 1529,-302 2682,-1160 3462,-2567 578,-1041 744,-2116 495,-3233 -243,-1112 -986,-2226 -2221,-3340zm19091 -21479l-1980 4445 -5384 -280 -3599 8087 3854 3714 -1929 4332 -16721 -16886 1923 -4318 23836 906zm-11350 3958l-8750 -554 6292 6074 2458 -5520zm12837 -8789l-17495 -5684 -2030 6247 -3564 -1158 5437 -16735 3566 1159 -2026 6232 17495 5684 -1383 4255zm4215 -13103l-21388 -5731 1157 -4317 21388 5731 -1157 4317zm-8491 -10082c-2200,-508 -3968,-1260 -5309,-2262 -982,-745 -1816,-1641 -2494,-2692 -674,-1049 -1107,-2128 -1296,-3235 -261,-1479 -187,-3091 220,-4849 734,-3181 2305,-5495 4721,-6948 2409,-1454 5373,-1775 8884,-965 3486,805 5990,2384 7522,4732 1526,2347 1926,5106 1196,8270 -742,3210 -2310,5535 -4702,6979 -2397,1442 -5311,1764 -8742,970zm889 -4519c2442,564 4427,424 5947,-410 1522,-838 2480,-2125 2881,-3864 400,-1733 107,-3303 -890,-4708 -996,-1398 -2740,-2389 -5243,-2967 -2470,-570 -4439,-453 -5909,345 -1466,803 -2407,2106 -2821,3898 -416,1799 -131,3388 844,4773 979,1378 2705,2359 5191,2933zm14933 -17495l-21976 -2698 529 -4319 15780 -7194 -14675 -1802 507 -4124 21976 2698 -547 4456 -15420 7098 14333 1760 -507 4125z"/>
 </g>
</svg>
