<?xml version="1.0" encoding="UTF-8"?>
<!DOCTYPE svg PUBLIC "-//W3C//DTD SVG 1.1//EN" "http://www.w3.org/Graphics/SVG/1.1/DTD/svg11.dtd">
<!-- Creator: CorelDRAW X7 -->
<svg xmlns="http://www.w3.org/2000/svg" xml:space="preserve" width="1541px" height="1540px" version="1.1" shape-rendering="geometricPrecision" text-rendering="geometricPrecision" image-rendering="optimizeQuality" fill-rule="evenodd" clip-rule="evenodd"
viewBox="0 0 12095954 12089760"
 xmlns:xlink="http://www.w3.org/1999/xlink">
 <g id="Layer_x0020_1">
  <metadata id="CorelCorpID_0Corel-Layer"/>
  <circle fill="none" cx="7337450" cy="6905281" r="815477"/>
  <circle fill="none" cx="9935267" cy="5350608" r="505724"/>
  <circle fill="none" cx="7461090" cy="3178199" r="1011402"/>
  <path fill="#347A91" d="M12095945 8306619l-2331909 1611018c12806,15264 25668,30741 38789,48063l1633 -1391c9588,13790 17925,26911 26818,40385 9421,13038 18778,25520 28283,39309l-1855 1067c17406,27606 31900,53562 45078,78887l2129326 -1471132 63846 -346225 -9 19z"/>
  <path fill="#57C4D3" d="M9859596 10044096c-9505,-13789 -18862,-26299 -28274,-39309 -8809,-13502 -17239,-26596 -26827,-40385l-1623 1391c-13094,-17322 -25984,-32883 -38790,-48063 -238155,-282926 -421422,-204734 -465024,33949 0,0 -353440,197984 -1175724,665011 -774073,439736 -859628,620564 -661793,937207l-1298 928c35256,51132 27662,39921 35627,50956 7512,11184 35025,51374 35025,51374l1308 -844c261458,348135 431455,289501 1116561,-278874 727725,-603853 1043970,-855946 1043970,-855946 232248,42536 368991,-92528 210029,-397348 -13177,-25288 -27671,-51281 -45077,-78888l1910 -1159z"/>
  <path fill="#347A91" d="M10470349 7633995l-2774585 1968687c-123325,87548 -152470,258379 -65005,381648 87539,123325 258296,152304 381648,64783l2515028 -1784418c559704,-397117 780982,44381 1253536,-290799 398053,-282453 164173,-714984 164173,-714984l-472554 335273c-152526,-160204 -215241,-317024 -215241,-317024l504890 -358271c-158294,-223215 -471544,-335421 -822748,-86241 -415172,294388 -318433,627288 -469142,801337l0 9z"/>
  <path fill="#347A91" d="M5624710 3778291c62863,192623 155512,373590 275563,537856l183109 -133664c105390,144328 232860,271418 377513,376354l-133145 183489c164489,119504 345752,211624 538552,274024l69762 -215065c165481,53507 341848,83403 525143,83403 547,0 1150,0 1623,0l232 225739c203742,-242 404396,-32364 596407,-94819l-70133 -215853c171851,-55880 331675,-138412 474705,-242680l133442 183211c163885,-119411 307426,-263072 426698,-427023l-183499 -133377c105632,-145255 188942,-307602 244739,-482346l217912 77403c62306,-192159 98722,-392915 98722,-596639l-18 -133237 -241521 0c-10720,-138589 -37872,-272577 -79787,-399871l215537 -70894c-63299,-192475 -156374,-373228 -276546,-537160l-182793 134072c-105715,-144190 -233472,-270871 -378413,-375594l132830 -183823c-164804,-119114 -346225,-210873 -539155,-272957l-69298 215853c-164498,-52811 -339790,-81642 -521842,-81642 -1678,0 -3357,93 -5072,93l-696 -226489c-203658,612 -404247,32790 -596259,95746l70662 215537c-171712,56261 -331452,138969 -474297,243525l-133905 -182970c-163645,119791 -306814,263739 -425790,427940l183629 133052c-104547,144422 -187078,305757 -242588,479287l-232776 -73435c-61621,190992 -111075,390542 -111075,592893l0 3366 263081 -1910c139,184509 29981,361943 84303,528351l-215537 70254 -19 0zm1836376 -1611491c558536,0 1011403,452858 1011403,1011402 0,558628 -452858,1011403 -1011403,1011403 -558544,0 -1011402,-452858 -1011402,-1011403 -56,-558535 452858,-1011402 1011402,-1011402z"/>
  <path fill="#38A1C7" d="M7819877 8386406l-56725 -174226c138589,-45077 266819,-112057 382168,-196165l108321 148705c132134,-96265 247808,-212088 344018,-344305l-148789 -108228c85379,-117418 153453,-248272 198531,-389680l195312 63847c50289,-154900 99483,-316783 99483,-481040l-18 -27754 -231330 0c-2838,-140128 -26299,-274961 -68075,-401791l174225 -57336c-51049,-155215 -126078,-300935 -222983,-433161l-148474 108839c-85175,-116193 -187866,-218291 -304672,-302678l107681 -149020c-132830,-96034 -279152,-170080 -434692,-220063l-55945 174318c-132598,-42620 -273792,-66146 -420643,-66146 -1391,0 -2698,148 -4061,148l-603 -182747c-164173,464 -325917,26447 -480678,77116l57105 174309c-138505,45365 -266670,112605 -381797,196852l-108701 -148557c-131995,96590 -247493,212551 -343322,344917l148937 107913c-83237,114979 -149633,242736 -194302,380638l-165323 -54035c-49593,154065 -65154,314881 -65154,478071l0 2755 163190 -1215c149,148612 24528,291411 68353,425483l-174216 56863c50762,155281 125467,301139 222131,433598l148557 -108553c84943,116342 187495,218691 304069,303318l-108005 148854c132598,96358 278781,170692 434293,220981l56251 -185808c133442,43167 275480,55649 423193,55649 464,0 936,0 1456,0l148 194014c164368,0 326260,-14262 481076,-64690l10 10zm-1297918 -1481129c0,-450317 365171,-815478 815478,-815478 450484,0 815562,365087 815562,815478 0,450401 -365087,815478 -815562,815478 -450400,0 -815478,-365077 -815478,-815478z"/>
  <path fill="#57C4D3" d="M9432898 4662688l-67444 -92065c-81781,59849 -153453,131902 -212848,213998l92361 66925c-50762,70143 -91230,147917 -118957,231710l-85462 -29201c-30731,95579 -21699,195322 -21699,296557l0 1679 63855 -547c148,92129 15264,180605 42379,263600l-108005 35257c31426,96358 77820,186800 137753,268961l92120 -67305c52728,72201 116342,135667 188627,188190l-66971 92297c82244,59793 172918,105854 269331,137058l34970 -115906c82708,26827 170859,33810 262441,33810 315,0 603,0 927,0l84 120951c101857,-93 202267,-12111 298338,-43408l-35173 -106086c85925,-27986 165471,-68603 237088,-120719l67148 92733c81928,-59702 153777,-131291 213395,-213303l-92296 -66981c51420,-70745 92537,-149456 120338,-234306l87753 32354c31195,-96117 25668,-196444 25668,-298329l-28 -6055 -70838 0c-603,-90989 -15700,-178361 -42750,-260374l108089 -35572c-31668,-96274 -78192,-186660 -138366,-268580l-91981 67444c-52811,-72053 -116573,-135435 -188932,-187727l66776 -92528c-82337,-59562 -173159,-105390 -269563,-136446l-34738 108088c-82253,-26447 -169857,-41015 -260902,-41015 -844,0 -1632,83 -2466,83l-371 -113300c-101802,232 -202129,16339 -298162,47831l35405 108089c-85963,28274 -165453,69966 -236894,122165l0 -27zm1008194 687915c0,279300 -226433,505734 -505817,505734 -279300,0 -505734,-226434 -505734,-505734 0,-279300 226434,-505724 505734,-505724 279300,-93 505817,226424 505817,505724z"/>
  <path fill="#347A91" d="M2483833 2667174c6992,53970 15263,108376 24221,163106 -8893,-54647 -17229,-109136 -24221,-163106z"/>
  <path fill="#347A91" d="M6763434 3103080c2226,-10284 3765,-20448 5907,-30732 -2003,9645 -4293,19465 -6380,29118 149,612 371,1067 464,1623l9 -9z"/>
  <path fill="#347A91" d="M2531497 2964028c83,-371 148,-844 232,-1215 -3070,-16015 -6056,-31946 -8893,-47915 3014,16488 5619,32735 8661,49130z"/>
  <path fill="#347A91" d="M6807862 2869673c-3904,23007 -8578,46292 -12806,69447 4228,-23155 8902,-46357 12806,-69447z"/>
  <path fill="#347A91" d="M8757696 7408804c-396514,-396430 -1429903,-635197 -2065564,-753078 57652,56260 92593,95514 92593,95514l392740 1213438 -428330 410906 335969 715911 -529956 2998218 1146059 0 51420 -1569251 90238 1569251 1493063 0c-27810,-1226393 -139673,-4242258 -578250,-4680918l18 9z"/>
  <path fill="#347A91" d="M2573903 8376205l-428237 -410164 392740 -1211982c0,0 35488,-35489 93427,-90358 -636579,118715 -1659545,351149 -2053536,745047 -438661,438726 -550487,3454591 -578297,4680984l1439000 0 90219 -1569252 51448 1569252 1187158 0 -529798 -2997940 335876 -715587z"/>
  <path fill="#347A91" d="M3482429 6142610c9588,-32363 18166,-60090 24917,-81548 -8606,26818 -16951,54053 -24917,81548z"/>
  <path fill="#347A91" d="M4186062 6754142l481883 881615 487661 -881615c0,0 591511,-276026 675526,-675433l0 -539767c-153305,350361 -560075,543977 -1202106,543977 -613878,0 -867445,-180429 -1174046,-508052l0 461954c23758,-11044 46988,-20772 69206,-28505 37353,428877 661886,745836 661886,745836l-10 -10z"/>
  <path fill="#347A91" d="M4629044 6082909c642032,0 1048802,-193606 1202107,-543976l0 -132542c-242273,345845 -531949,536706 -1169604,536706 -665613,0 -953464,-212088 -1206539,-594024l0 225877c306582,327623 560223,507959 1174046,507959l-10 0z"/>
  <polygon fill="#347A91" points="1439000,12089732 1580667,12089732 1529238,10520480 "/>
  <polygon fill="#347A91" points="7701217,12089732 7842884,12089732 7752664,10520480 "/>
  <path fill="#347A91" d="M6007342 7056208l-394882 695455c0,0 -74566,-885695 -456771,-997521l-487651 881615 -481892 -881615c-382168,111826 -456827,997521 -456827,997521l-399119 -702808c-23981,324609 -27514,686932 -11128,1129367 16775,450716 382724,2148568 781899,3911538l567002 -28 630357 0c359254,-1762942 688926,-3460813 705646,-3911538 16311,-441563 19705,-800733 3366,-1121986z"/>
  <path fill="#347A91" d="M3330190 7048771l-29665 -52264c26067,-299553 124716,-662108 181969,-853897 7965,-27523 16339,-54730 24908,-81548 10488,-33495 16951,-52728 16951,-52728 -22219,7817 -45457,17554 -69206,28506 -279847,129519 -652204,464876 -823156,626851 -57939,54870 -93428,90359 -93428,90359l-392739 1211982 428237 410164 -335876 715531 529649 2997996 477896 0 855204 0c-399212,-1762942 -765124,-3460813 -781899,-3911538 -16340,-442491 -12899,-804786 11174,-1129423l-19 9z"/>
  <path fill="#347A91" d="M5833905 6021660c1623,4840 3069,9820 4664,14633 464,-3997 1762,-7910 2059,-11879 -2142,-751 -4572,-1966 -6723,-2754z"/>
  <path fill="#347A91" d="M6749144 8376205l428330 -410164 -392739 -1211982c0,0 -34970,-36333 -92593,-92593 -176739,-172547 -569951,-534926 -851180,-636876 1539,5073 163264,545126 200348,971917l-33866 59701c16339,321253 12955,680423 -3357,1122014 -16720,450716 -346448,2148568 -705646,3911538l828933 -28 427895 0 529890 -2997940 -335996 -715587 -19 0z"/>
  <path fill="#347A91" d="M3524205 6008334c0,0 -6371,19149 -16942,52728 -6751,21458 -15264,49278 -24918,81548 -57243,191780 -155920,554344 -181968,853897l29665 52264 399120 702808c0,0 74658,-885694 456826,-997520 65,83 -624468,-316875 -661793,-745725l10 0z"/>
  <path fill="#347A91" d="M5155680 6754142c382177,111826 456771,997521 456771,997521l394882 -695455 33865 -59701c-37111,-426791 -203649,-966882 -205179,-971917l-4896 -464c0,93 0,242 0,381 0,4052 3134,7910 2698,11869 -1622,14346 -2151,28274 -5072,42323 -84015,399407 -673069,675434 -673069,675434l0 9z"/>
  <path fill="#4F5954" d="M8757696 7408804c-396514,-396430 -1429903,-635197 -2065564,-753078 57652,56260 92593,95514 92593,95514l392740 1213438 -428330 410906 335969 715911 -529956 2998218 1146059 0 51420 -1569251 90238 1569251 1493063 0c-27810,-1226393 -139673,-4242258 -578250,-4680918l18 9z"/>
  <path fill="#4F5954" d="M2573903 8376205l-428237 -410164 392740 -1211982c0,0 35488,-35489 93427,-90358 -636579,118715 -1659545,351149 -2053536,745047 -438661,438726 -550487,3454591 -578297,4680984l1439000 0 90219 -1569252 51448 1569252 1187158 0 -529798 -2997940 335876 -715587z"/>
  <path fill="#FFCFBA" d="M3482429 6142610c9588,-32363 18166,-60090 24917,-81548 -8606,26818 -16951,54053 -24917,81548z"/>
  <path fill="#FFCFBA" d="M4186062 6754142l481883 881615 487661 -881615c0,0 591511,-276026 675526,-675433l0 -539767c-153305,350361 -560075,543977 -1202106,543977 -613878,0 -867445,-180429 -1174046,-508052l0 461954c23758,-11044 46988,-20772 69206,-28505 37353,428877 661886,745836 661886,745836l-10 -10z"/>
  <path fill="#F4B4A7" d="M4629044 6082909c642032,0 1048802,-193606 1202107,-543976l0 -132542c-242273,345845 -531949,536706 -1169604,536706 -665613,0 -953464,-212088 -1206539,-594024l0 225877c306582,327623 560223,507959 1174046,507959l-10 0z"/>
  <polygon fill="#34393E" points="1439000,12089732 1580667,12089732 1529238,10520480 "/>
  <polygon fill="#34393E" points="7701217,12089732 7842884,12089732 7752664,10520480 "/>
  <path fill="white" d="M6007342 7056208l-394882 695455c0,0 -74566,-885695 -456771,-997521l-487651 881615 -481892 -881615c-382168,111826 -456827,997521 -456827,997521l-399119 -702808c-23981,324609 -27514,686932 -11128,1129367 16775,450716 382724,2148568 781899,3911538l567002 -28 630357 0c359254,-1762942 688926,-3460813 705646,-3911538 16311,-441563 19705,-800733 3366,-1121986z"/>
  <path fill="#3B433F" d="M3330190 7048771l-29665 -52264c26067,-299553 124716,-662108 181969,-853897 7965,-27523 16339,-54730 24908,-81548 10488,-33495 16951,-52728 16951,-52728 -22219,7817 -45457,17554 -69206,28506 -279847,129519 -652204,464876 -823156,626851 -57939,54870 -93428,90359 -93428,90359l-392739 1211982 428237 410164 -335876 715531 529649 2997996 477896 0 855204 0c-399212,-1762942 -765124,-3460813 -781899,-3911538 -16340,-442491 -12899,-804786 11174,-1129423l-19 9z"/>
  <path fill="#3B433F" d="M5833905 6021660c1623,4840 3069,9820 4664,14633 464,-3997 1762,-7910 2059,-11879 -2142,-751 -4572,-1966 -6723,-2754z"/>
  <path fill="#3B433F" d="M6749144 8376205l428330 -410164 -392739 -1211982c0,0 -34970,-36333 -92593,-92593 -176739,-172547 -569951,-534926 -851180,-636876 1539,5073 163264,545126 200348,971917l-33866 59701c16339,321253 12955,680423 -3357,1122014 -16720,450716 -346448,2148568 -705646,3911538l828933 -28 427895 0 529890 -2997940 -335996 -715587 -19 0z"/>
  <path fill="#BFBFBF" d="M3524205 6008334c0,0 -6371,19149 -16942,52728 -6751,21458 -15264,49278 -24918,81548 -57243,191780 -155920,554344 -181968,853897l29665 52264 399120 702808c0,0 74658,-885694 456826,-997520 65,83 -624468,-316875 -661793,-745725l10 0z"/>
  <path fill="#BFBFBF" d="M5155680 6754142c382177,111826 456771,997521 456771,997521l394882 -695455 33865 -59701c-37111,-426791 -203649,-966882 -205179,-971917l-4896 -464c0,93 0,242 0,381 0,4052 3134,7910 2698,11869 -1622,14346 -2151,28274 -5072,42323 -84015,399407 -673069,675434 -673069,675434l0 9z"/>
  <g id="_906787029744">
   <path fill="#FFCFBA" d="M3463558 6188123c9978,-33448 18639,-61731 25538,-83588 -8809,27448 -17424,55268 -25538,83588z"/>
   <path fill="#F4B4A7" d="M4599481 6127551c642236,0 1010828,-193690 1164207,-544144l0 -64486c-233277,302817 -525514,468752 -1120187,468752 -642523,0 -933248,-197445 -1180323,-554631l0 186336c230040,327642 522119,508173 1136294,508173l9 0z"/>
   <path fill="#3B433F" d="M5816295 6066338c1623,4841 3079,9969 4757,14809 464,-4061 1679,-7975 2059,-12027 -2291,-779 -4665,-2086 -6816,-2782z"/>
   <path fill="#FFCFBA" d="M4643483 5987673c594756,0 886928,-165944 1120186,-468752 161809,-210038 295306,-486009 481577,-818362 123752,-220702 218839,-470820 291235,-729116 52607,13047 110110,-371 170998,-54285 190102,-167781 397525,-979327 257509,-1147107 -47155,-56892 -97610,-68724 -143633,-59738 -8671,66804 -19103,134192 -30611,202128 -3914,23155 -8578,46459 -12899,69790 -8198,44929 -16720,90015 -26234,135352 -1911,9737 -3441,19242 -5536,28896 -149,-557 -316,-2059 -464,-2606 -22692,106512 -47850,244099 -76745,320779l-58690 -28c33884,-306721 57215,-757492 -22544,-1129404 -138087,-643589 -606774,-1188521 -961058,-1132706 -349535,55297 -626582,219544 -983388,223782 -356945,-4229 -634084,-168012 -983611,-223374 -354200,-55899 -822878,488625 -961012,1132242 -79824,371912 -56427,822739 -22636,1129460l-58662 0c-41646,-153379 -76077,-307880 -104509,-459349 -84,325 -149,1224 -232,1540 -2699,-14114 -4841,-27764 -7446,-41878 -5537,-30899 -11193,-61649 -16256,-92343 -8986,-54462 -17193,-108599 -24083,-162272 -46023,-8986 -96395,2930 -143642,59821 -139952,167781 67472,979327 257517,1147107 61037,53906 118707,67324 171165,54230 72461,258352 167697,508507 291476,729172 161957,288963 285282,535019 421848,732483 247169,357093 537866,554538 1180380,554538z"/>
   <path fill="#323232" d="M2505161 2965104c2467,13733 4989,26317 7678,40023 28460,151515 62891,305970 104509,459349l58663 0c-33820,-306721 -57207,-757493 22636,-1129404 138097,-643590 606784,-1188522 961012,-1132706 349591,55296 626666,219544 983610,223781 356806,-4228 633946,-168012 983389,-223373 354283,-55908 822961,488625 961058,1132242 79759,371912 56427,822739 22543,1129460l58718 0c28895,-76690 54054,-214239 76745,-320779 1911,-9042 4145,-17712 5972,-26921 9505,-45244 17944,-90107 26225,-135027 4293,-23304 8986,-46459 12899,-69623 11499,-67936 21940,-135260 30602,-202064 82188,-633797 33680,-1213976 -181515,-1674994 -337239,-722653 -1298473,-1030951 -1996673,-1035068 -698505,4145 -1659665,312498 -1996905,1035068 -215250,461083 -263712,1041290 -181514,1675087 6983,53683 15273,107903 24083,162337 4980,30898 10747,61732 16256,92630l9 -18z"/>
  </g>
 </g>
</svg>
