<?xml version="1.0" encoding="UTF-8"?>
<!DOCTYPE svg PUBLIC "-//W3C//DTD SVG 1.1//EN" "http://www.w3.org/Graphics/SVG/1.1/DTD/svg11.dtd">
<!-- Creator: CorelDRAW X7 -->
<svg xmlns="http://www.w3.org/2000/svg" xml:space="preserve" width="493px" height="520px" version="1.1" style="shape-rendering:geometricPrecision; text-rendering:geometricPrecision; image-rendering:optimizeQuality; fill-rule:evenodd; clip-rule:evenodd"
viewBox="0 0 1582092 1667992"
 xmlns:xlink="http://www.w3.org/1999/xlink">
 <defs>
  <style type="text/css">
   <![CDATA[
    .fil0 {fill:none}
    .fil11 {fill:#323232}
    .fil7 {fill:#34393E}
    .fil1 {fill:#347A91}
    .fil3 {fill:#38A1C7}
    .fil9 {fill:#3B433F}
    .fil4 {fill:#4F5954}
    .fil2 {fill:#57C4D3}
    .fil13 {fill:#BF9537}
    .fil10 {fill:#BFBFBF}
    .fil6 {fill:#F4B4A7}
    .fil12 {fill:#FFC749}
    .fil5 {fill:#FFCFBA}
    .fil8 {fill:white}
   ]]>
  </style>
 </defs>
 <g id="Layer_x0020_1">
  <metadata id="CorelCorpID_0Corel-Layer"/>
  <circle class="fil0" cx="959703" cy="989887" r="106661"/>
  <circle class="fil0" cx="1299486" cy="786543" r="66147"/>
  <circle class="fil0" cx="975875" cy="502402" r="132287"/>
  <path class="fil1" d="M1582092 1173175l-305003 210714c1675,1997 3357,4021 5073,6287l213 -182c1254,1803 2345,3520 3508,5282 1232,1705 2456,3338 3699,5142l-243 140c2277,3611 4172,7006 5896,10318l278506 -192417 8351 -45284z"/>
  <path class="fil2" d="M1289589 1400429c-1243,-1804 -2467,-3440 -3698,-5142 -1152,-1766 -2255,-3478 -3509,-5282l-212 182c-1713,-2266 -3399,-4301 -5074,-6286 -31150,-37005 -55120,-26778 -60823,4441 0,0 -46228,25895 -153779,86980 -101245,57515 -112435,81167 -86559,122582l-170 121c4611,6688 3618,5222 4660,6665 982,1463 4581,6719 4581,6719l171 -110c34197,45534 56432,37865 146041,-36475 95183,-78981 136546,-111954 136546,-111954 30377,5563 48262,-12102 27471,-51971 -1724,-3308 -3619,-6707 -5896,-10318l250 -152z"/>
  <path class="fil1" d="M1369472 1085199l-362902 257495c-16130,11451 -19942,33795 -8502,49918 11450,16130 33784,19920 49918,8473l328954 -233393c73206,-51941 102148,5805 163956,-38035 52063,-36944 21473,-93516 21473,-93516l-61808 43852c-19950,-20954 -28153,-41465 -28153,-41465l66037 -46860c-20704,-29196 -61676,-43871 -107612,-11280 -54302,38505 -41650,82046 -61361,104811z"/>
  <path class="fil1" d="M735685 580891c8222,25194 20340,48864 36042,70349l23951 -17483c13785,18877 30457,35500 49377,49225l-17415 24000c21514,15630 45223,27680 70440,35841l9124 -28130c21644,6998 44712,10909 68686,10909 72,0 151,0 212,0l30 29525c26649,-31 52893,-4233 78007,-12402l-9173 -28233c22477,-7309 43382,-18104 62089,-31742l17453 23963c21435,-15619 40210,-34409 55810,-55852l-24001 -17445c13816,-18999 24713,-40233 32011,-63089l28502 10124c8150,-25133 12913,-51392 12913,-78037l-3 -17427 -31590 0c-1402,-18127 -4953,-35652 -10436,-52301l28191 -9272c-8279,-25175 -20453,-48816 -36171,-70258l-23909 17536c-13827,-18859 -30537,-35429 -49494,-49126l17373 -24043c-21556,-15580 -45284,-27581 -70519,-35701l-9064 28233c-21515,-6908 -44443,-10678 -68254,-10678 -220,0 -439,12 -663,12l-91 -29624c-26638,80 -52874,4289 -77988,12523l9242 28191c-22459,7359 -43352,18177 -62036,31852l-17514 -23932c-21404,15668 -40130,34496 -55692,55973l24019 17403c-13675,18889 -24470,39991 -31730,62688l-30446 -9605c-8060,24981 -14528,51081 -14528,77548l0 440 34410 -250c18,24133 3921,47341 11026,69106l-28191 9189zm240190 -210775c73054,0 132286,59232 132286,132286 0,73066 -59232,132287 -132286,132287 -73055,0 -132287,-59232 -132287,-132287 -7,-73054 59232,-132286 132287,-132286z"/>
  <path class="fil3" d="M1022803 1183611l-7419 -22788c18127,-5896 34898,-14657 49986,-25657l14168 19450c17282,-12591 32412,-27740 44996,-45034l-19461 -14156c11167,-15358 20071,-32473 25967,-50968l25546 8351c6578,-20260 13012,-41434 13012,-62918l-3 -3630 -30257 0c-371,-18328 -3440,-35963 -8904,-52552l22788 -7499c-6677,-20302 -16491,-39361 -29165,-56655l-19420 14236c-11140,-15198 -24572,-28551 -39850,-39589l14084 -19491c-17373,-12561 -36512,-22246 -56856,-28783l-7317 22800c-17343,-5574 -35811,-8651 -55018,-8651 -182,0 -353,19 -531,19l-79 -23902c-21473,61 -42628,3459 -62870,10087l7469 22799c-18116,5934 -34879,14728 -49937,25747l-14217 -19431c-17264,12633 -32371,27801 -44905,45114l19480 14115c-10887,15039 -19571,31749 -25414,49785l-21625 -7067c-6487,20151 -8522,41185 -8522,62529l0 360 21345 -159c19,19438 3209,38115 8942,55651l-22788 7438c6639,20310 16411,39388 29055,56712l19431 -14198c11110,15217 24523,28604 39771,39672l-14126 19469c17343,12603 36463,22326 56803,28903l7358 -24303c17453,5646 36031,7279 55352,7279 61,0 122,0 190,0l19 25376c21499,0 42673,-1865 62922,-8461zm-169761 -193724c0,-58899 47762,-106661 106661,-106661 58921,0 106672,47751 106672,106661 0,58910 -47751,106660 -106672,106660 -58910,0 -106661,-47750 -106661,-106660z"/>
  <path class="fil2" d="M1233779 696566l-8821 -12042c-10697,7828 -20071,17252 -27839,27990l12080 8753c-6639,9174 -11932,19347 -15559,30306l-11178 -3820c-4020,12501 -2838,25547 -2838,38790l0 219 8352 -72c19,12050 1997,23622 5543,34478l-14126 4611c4111,12603 10178,24433 18018,35179l12049 -8803c6896,9443 15217,17745 24671,24615l-8760 12072c10757,7821 22617,13845 35227,17926l4574 -15160c10818,3509 22348,4422 34326,4422 41,0 79,0 121,0l11 15820c13323,-12 26456,-1584 39021,-5677l-4600 -13875c11239,-3661 21643,-8973 31010,-15790l8783 12129c10716,-7809 20113,-17172 27911,-27899l-12072 -8761c6726,-9253 12103,-19548 15740,-30646l11478 4232c4080,-12572 3357,-25694 3357,-39020l-4 -792 -9265 0c-79,-11902 -2053,-23330 -5592,-34057l14137 -4653c-4142,-12592 -10227,-24414 -18097,-35129l-12031 8821c-6907,-9424 -15247,-17714 -24712,-24554l8734 -12102c-10769,-7791 -22648,-13785 -35258,-17847l-4543 14137c-10758,-3459 -22216,-5365 -34125,-5365 -110,0 -213,11 -323,11l-49 -14819c-13315,30 -26437,2137 -38998,6256l4631 14137c-11243,3698 -21640,9151 -30984,15979zm131866 89977c0,36531 -29616,66147 -66159,66147 -36531,0 -66147,-29616 -66147,-66147 0,-36532 29616,-66147 66147,-66147 36531,-12 66159,29615 66159,66147z"/>
  <path class="fil1" d="M324873 435562c914,7059 1997,14175 3168,21333 -1163,-7147 -2254,-14274 -3168,-21333z"/>
  <path class="fil1" d="M884625 492577c291,-1345 492,-2675 773,-4020 -262,1262 -561,2546 -834,3808 19,80 49,140 61,212z"/>
  <path class="fil1" d="M331107 474389c11,-49 19,-110 30,-159 -402,-2095 -792,-4179 -1163,-6267 394,2156 735,4282 1133,6426z"/>
  <path class="fil1" d="M890437 462048c-511,3009 -1122,6055 -1675,9083 553,-3028 1164,-6063 1675,-9083z"/>
  <path class="fil1" d="M1145465 1055746c-51862,-51851 -187024,-83081 -270166,-98499 7541,7359 12111,12493 12111,12493l51369 158712 -56023 53745 43943 93638 -69315 392153 149899 0 6726 -205250 11803 205250 195285 0c-3638,-160406 -18268,-554867 -75632,-612242z"/>
  <path class="fil1" d="M336654 1182277l-56011 -53647 51369 -158522c0,0 4642,-4642 12220,-11819 -83262,15528 -217061,45928 -268593,97449 -57375,57383 -72001,451844 -75639,612250l188214 0 11800 -205250 6729 205250 155275 0 -69295 -392116 43931 -93595z"/>
  <path class="fil1" d="M455485 890134c1254,-4233 2376,-7859 3259,-10666 -1125,3508 -2217,7070 -3259,10666z"/>
  <path class="fil1" d="M547516 970119l63028 115311 63783 -115311c0,0 77367,-36103 88355,-88344l0 -70599c-20052,45826 -73255,71149 -157230,71149 -80292,0 -113458,-23599 -153559,-66451l0 60422c3107,-1444 6146,-2717 9052,-3729 4885,56095 86571,97552 86571,97552z"/>
  <path class="fil1" d="M605456 882325c83975,0 137178,-25323 157230,-71149l0 -17336c-31688,45235 -69576,70198 -152979,70198 -87059,0 -124708,-27740 -157810,-77696l0 29544c40100,42851 73274,66439 153559,66439z"/>
  <polygon class="fil1" points="188214,1667988 206743,1667988 200017,1462738 "/>
  <polygon class="fil1" points="1007283,1667988 1025812,1667988 1014012,1462738 "/>
  <path class="fil1" d="M785732 1009628l-51650 90962c0,0 -9753,-115845 -59744,-130471l-63782 115311 -63029 -115311c-49986,14626 -59751,130471 -59751,130471l-52203 -91924c-3137,42457 -3599,89848 -1455,147716 2194,58951 50059,281022 102269,511610l74161 -4 82448 0c46989,-230584 90110,-452658 92296,-511610 2133,-57754 2577,-104732 440,-146750z"/>
  <path class="fil1" d="M435573 1008655l-3880 -6836c3410,-39180 16312,-86601 23800,-111685 1042,-3600 2137,-7158 3258,-10666 1372,-4381 2217,-6897 2217,-6897 -2906,1023 -5945,2296 -9052,3729 -36603,16941 -85305,60804 -107665,81989 -7578,7177 -12220,11819 -12220,11819l-51369 158522 56011 53647 -43931 93588 69276 392123 62506 0 111856 0c-52215,-230584 -100075,-452658 -102269,-511610 -2137,-57875 -1687,-105262 1462,-147723z"/>
  <path class="fil1" d="M763046 874314c212,633 402,1285 610,1914 61,-523 231,-1035 269,-1554 -280,-98 -598,-257 -879,-360z"/>
  <path class="fil1" d="M882756 1182277l56023 -53647 -51369 -158522c0,0 -4574,-4752 -12111,-12111 -23117,-22568 -74547,-69966 -111332,-83300 201,663 21355,71300 26206,127122l-4430 7809c2137,42018 1694,88996 -439,146754 -2187,58951 -45315,281022 -92296,511610l108422 -4 55966 0 69307 -392116 -43947 -93595z"/>
  <path class="fil1" d="M460949 872571c0,0 -833,2505 -2216,6897 -883,2807 -1997,6445 -3259,10666 -7487,25084 -20393,72505 -23800,111685l3880 6836 52203 91924c0,0 9765,-115845 59751,-130471 8,11 -81678,-41446 -86559,-97537z"/>
  <path class="fil1" d="M674338 970119c49987,14626 59744,130471 59744,130471l51650 -90962 4429 -7809c-4854,-55822 -26637,-126463 -26838,-127122l-641 -61c0,12 0,31 0,50 0,530 410,1034 353,1553 -212,1876 -281,3698 -663,5536 -10989,52241 -88034,88344 -88034,88344z"/>
  <path class="fil1" d="M609707 864038c83392,0 121287,-24963 152979,-70198 18359,-26198 34629,-59171 56443,-98070 16180,-28862 28612,-61555 38077,-95324 6878,1694 14395,-60 22368,-7097 24853,-21946 51960,-128023 33666,-149981 -6176,-7420 -12773,-8973 -18786,-7799 -1133,8753 -2497,17593 -4009,26487 -512,3008 -1122,6055 -1675,9082 -1061,5794 -2145,11591 -3357,17423 -281,1345 -482,2675 -773,4020 -12,-72 -42,189 -61,121 -2967,13914 -6267,32394 -10045,42420l-7684 3c3039,-30078 3527,-64404 1383,-100063 -64075,9844 -85499,10909 -255930,10988l0 -1163c0,0 382,0 -1243,0 -1626,0 1243,0 -8783,0l0 993c-160406,-80 -188840,-1535 -254919,-11750 -2186,35799 2084,70910 5123,100984l-7669 0c-5445,-20052 -9954,-40100 -13675,-60153 -11,0 -19,0 -30,0 -410,0 -743,-4562 -1122,-6706 -663,-3699 -1345,-7541 -1936,-11220 -1182,-7158 -2255,-14357 -3168,-21405 -6017,-1175 -12603,341 -18779,7760 -18298,21955 8814,128024 33667,149959 7991,7060 15520,8784 22386,7078 9465,33777 21916,66458 38096,95332 19779,35280 35148,65665 51642,90568 33106,49971 70762,77711 157814,77711z"/>
  <path class="fil1" d="M870006 435050c2145,35671 -129,69990 -3156,100064l7676 0c3778,-10026 7079,-28502 10045,-42419 270,-1262 573,-2706 834,-3971 1213,-5847 2296,-11709 3357,-17514 561,-3027 1175,-6104 1675,-9124 1516,-8893 2887,-17756 4009,-26509 212,-1603 299,-3179 500,-4782 -2095,353 -4160,853 -6335,1194 -6605,1038 -12739,2160 -18605,3061z"/>
  <path class="fil1" d="M329985 467974c371,2084 762,4490 1163,6586 3721,19821 8230,40502 13675,60554l7670 0c-3047,-30078 -5324,-64684 -3138,-100484 -5032,-781 -10276,-1766 -15861,-2637 -3138,-493 -6177,-1073 -9162,-1573 212,1754 322,3429 553,5195 913,7059 2004,14168 3168,21314 591,3656 1273,7347 1932,11045z"/>
  <path class="fil1" d="M333486 431833c5585,872 8833,1694 13865,2478 66079,10205 94508,11489 254918,11569l-4 -993c10026,0 7158,0 8783,0 1626,0 1243,0 1243,0l0 993c170432,-80 191856,-1804 255930,-11648 5866,-902 12895,-1614 19499,-2649 2175,-341 4684,-560 6779,-913 211809,-35038 38539,-106702 38539,-106702 -10295,-114421 -49755,-288581 -259980,-316973 -269,2705 -19620,204250 95141,355952 0,0 -114371,20954 -314389,261 -2406,-250 2929,-3891 4362,-5835 109987,-150762 91413,-347733 91151,-350401 -210574,28222 -250193,202575 -260492,317053 0,0 -172008,71092 35489,106300 2990,516 6025,1016 9166,1508z"/>
  <path class="fil4" d="M1145465 1055746c-51862,-51851 -187024,-83081 -270166,-98499 7541,7359 12111,12493 12111,12493l51369 158712 -56023 53745 43943 93638 -69315 392153 149899 0 6726 -205250 11803 205250 195285 0c-3638,-160406 -18268,-554867 -75632,-612242z"/>
  <path class="fil4" d="M336654 1182277l-56011 -53647 51369 -158522c0,0 4642,-4642 12220,-11819 -83262,15528 -217061,45928 -268593,97449 -57375,57383 -72001,451844 -75639,612250l188214 0 11800 -205250 6729 205250 155275 0 -69295 -392116 43931 -93595z"/>
  <path class="fil5" d="M455485 890134c1254,-4233 2376,-7859 3259,-10666 -1125,3508 -2217,7070 -3259,10666z"/>
  <path class="fil5" d="M547516 970119l63028 115311 63783 -115311c0,0 77367,-36103 88355,-88344l0 -70599c-20052,45826 -73255,71149 -157230,71149 -80292,0 -113458,-23599 -153559,-66451l0 60422c3107,-1444 6146,-2717 9052,-3729 4885,56095 86571,97552 86571,97552z"/>
  <path class="fil6" d="M605456 882325c83975,0 137178,-25323 157230,-71149l0 -17336c-31688,45235 -69576,70198 -152979,70198 -87059,0 -124708,-27740 -157810,-77696l0 29544c40100,42851 73274,66439 153559,66439z"/>
  <polygon class="fil7" points="188214,1667988 206743,1667988 200017,1462738 "/>
  <polygon class="fil7" points="1007283,1667988 1025812,1667988 1014012,1462738 "/>
  <path class="fil8" d="M785732 1009628l-51650 90962c0,0 -9753,-115845 -59744,-130471l-63782 115311 -63029 -115311c-49986,14626 -59751,130471 -59751,130471l-52203 -91924c-3137,42457 -3599,89848 -1455,147716 2194,58951 50059,281022 102269,511610l74161 -4 82448 0c46989,-230584 90110,-452658 92296,-511610 2133,-57754 2577,-104732 440,-146750z"/>
  <path class="fil9" d="M435573 1008655l-3880 -6836c3410,-39180 16312,-86601 23800,-111685 1042,-3600 2137,-7158 3258,-10666 1372,-4381 2217,-6897 2217,-6897 -2906,1023 -5945,2296 -9052,3729 -36603,16941 -85305,60804 -107665,81989 -7578,7177 -12220,11819 -12220,11819l-51369 158522 56011 53647 -43931 93588 69276 392123 62506 0 111856 0c-52215,-230584 -100075,-452658 -102269,-511610 -2137,-57875 -1687,-105262 1462,-147723z"/>
  <path class="fil9" d="M763046 874314c212,633 402,1285 610,1914 61,-523 231,-1035 269,-1554 -280,-98 -598,-257 -879,-360z"/>
  <path class="fil9" d="M882756 1182277l56023 -53647 -51369 -158522c0,0 -4574,-4752 -12111,-12111 -23117,-22568 -74547,-69966 -111332,-83300 201,663 21355,71300 26206,127122l-4430 7809c2137,42018 1694,88996 -439,146754 -2187,58951 -45315,281022 -92296,511610l108422 -4 55966 0 69307 -392116 -43947 -93595z"/>
  <path class="fil10" d="M460949 872571c0,0 -833,2505 -2216,6897 -883,2807 -1997,6445 -3259,10666 -7487,25084 -20393,72505 -23800,111685l3880 6836 52203 91924c0,0 9765,-115845 59751,-130471 8,11 -81678,-41446 -86559,-97537z"/>
  <path class="fil10" d="M674338 970119c49987,14626 59744,130471 59744,130471l51650 -90962 4429 -7809c-4854,-55822 -26637,-126463 -26838,-127122l-641 -61c0,12 0,31 0,50 0,530 410,1034 353,1553 -212,1876 -281,3698 -663,5536 -10989,52241 -88034,88344 -88034,88344z"/>
  <path class="fil5" d="M609707 864038c83392,0 121287,-24963 152979,-70198 18359,-26198 34629,-59171 56443,-98070 16180,-28862 28612,-61555 38077,-95324 6878,1694 14395,-60 22368,-7097 24853,-21946 51960,-128023 33666,-149981 -6176,-7420 -12773,-8973 -18786,-7799 -1133,8753 -2497,17593 -4009,26487 -512,3008 -1122,6055 -1675,9082 -1061,5794 -2145,11591 -3357,17423 -281,1345 -482,2675 -773,4020 -12,-72 -42,189 -61,121 -2967,13914 -6267,32394 -10045,42420l-7684 3c3039,-30078 3527,-64404 1383,-100063 -64075,9844 -85499,10909 -255930,10988l0 -1163c0,0 382,0 -1243,0 -1626,0 1243,0 -8783,0l0 993c-160406,-80 -188840,-1535 -254919,-11750 -2186,35799 2084,70910 5123,100984l-7669 0c-5445,-20052 -9954,-40100 -13675,-60153 -11,0 -19,0 -30,0 -410,0 -743,-4562 -1122,-6706 -663,-3699 -1345,-7541 -1936,-11220 -1182,-7158 -2255,-14357 -3168,-21405 -6017,-1175 -12603,341 -18779,7760 -18298,21955 8814,128024 33667,149959 7991,7060 15520,8784 22386,7078 9465,33777 21916,66458 38096,95332 19779,35280 35148,65665 51642,90568 33106,49971 70762,77711 157814,77711z"/>
  <path class="fil11" d="M870006 435050c2145,35671 -129,69990 -3156,100064l7676 0c3778,-10026 7079,-28502 10045,-42419 270,-1262 573,-2706 834,-3971 1213,-5847 2296,-11709 3357,-17514 561,-3027 1175,-6104 1675,-9124 1516,-8893 2887,-17756 4009,-26509 212,-1603 299,-3179 500,-4782 -2095,353 -4160,853 -6335,1194 -6605,1038 -12739,2160 -18605,3061z"/>
  <path class="fil11" d="M329985 467974c371,2084 762,4490 1163,6586 3721,19821 8230,40502 13675,60554l7670 0c-3047,-30078 -5324,-64684 -3138,-100484 -5032,-781 -10276,-1766 -15861,-2637 -3138,-493 -6177,-1073 -9162,-1573 212,1754 322,3429 553,5195 913,7059 2004,14168 3168,21314 591,3656 1273,7347 1932,11045z"/>
  <path class="fil12" d="M333486 431833c5585,872 8833,1694 13865,2478 66079,10205 94508,11489 254918,11569l-4 -993c10026,0 7158,0 8783,0 1626,0 1243,0 1243,0l0 993c170432,-80 191856,-1804 255930,-11648 5866,-902 12895,-1614 19499,-2649 2175,-341 4684,-560 6779,-913 211809,-35038 38539,-106702 38539,-106702 -10295,-114421 -49755,-288581 -259980,-316973 -269,2705 -19620,204250 95141,355952 0,0 -114371,20954 -314389,261 -2406,-250 2929,-3891 4362,-5835 109987,-150762 91413,-347733 91151,-350401 -210574,28222 -250193,202575 -260492,317053 0,0 -172008,71092 35489,106300 2990,516 6025,1016 9166,1508z"/>
  <path class="fil13" d="M444788 357384c-1580,1944 -8241,5593 -5570,5847 221010,20692 346620,-250 346620,-250 -126804,-151729 -105857,-353250 -105857,-355956 0,-19 0,-129 0,-129 0,0 -23505,-6896 -61392,-6896 -37884,0 -71539,6855 -71539,6855 0,0 0,109 0,128 0,2668 19275,199639 -102262,350401z"/>
 </g>
</svg>
