<?xml version="1.0" encoding="UTF-8"?>
<!DOCTYPE svg PUBLIC "-//W3C//DTD SVG 1.1//EN" "http://www.w3.org/Graphics/SVG/1.1/DTD/svg11.dtd">
<!-- Creator: CorelDRAW X7 -->
<svg xmlns="http://www.w3.org/2000/svg" xml:space="preserve" width="235px" height="109px" version="1.1" style="shape-rendering:geometricPrecision; text-rendering:geometricPrecision; image-rendering:optimizeQuality; fill-rule:evenodd; clip-rule:evenodd"
viewBox="0 0 1635525 759540"
 xmlns:xlink="http://www.w3.org/1999/xlink">
 <defs>
  <style type="text/css">
   <![CDATA[
    .str0 {stroke:#3A3668;stroke-width:2084.57}
    .fil7 {fill:none}
    .fil0 {fill:#D92226}
    .fil1 {fill:#32315D}
    .fil5 {fill:#2B2A29;fill-rule:nonzero}
    .fil3 {fill:#D92226;fill-rule:nonzero}
    .fil6 {fill:#3A3668;fill-rule:nonzero}
    .fil2 {fill:#32315D;fill-rule:nonzero}
    .fil4 {fill:black;fill-rule:nonzero}
   ]]>
  </style>
 </defs>
 <g id="Layer_x0020_1">
  <metadata id="CorelCorpID_0Corel-Layer"/>
  <g id="_2785809411696">
   <path class="fil0" d="M135382 759540c52872,-72900 71896,-168711 43521,-296589 -60890,-206101 553,-308734 102289,-377281 -93414,51753 -99195,195019 -28289,383469 20063,103813 1767,203084 -117521,290401z"/>
   <path class="fil1" d="M167110 549417c-190243,-257479 -74183,-404269 129582,-525466 -191219,136558 -211621,303066 -129582,525466z"/>
   <path class="fil1" d="M0 494187c238158,7507 490275,-179141 268742,-184777 144623,51685 -134796,181694 -268742,184777z"/>
   <g>
    <path class="fil2" d="M1562002 40302l0 -33490 -11933 0 0 -6812 31969 0 0 6812 -11878 0 0 33490 -8158 0zm25209 0l0 -40302 12215 0 7222 27480 7137 -27480 12250 0 0 40302 -7539 0 -36 -31726 -7947 31726 -7832 0 -7909 -31726 -24 31726 -7537 0z"/>
    <path class="fil3" d="M555531 386556l0 8855 -170310 0 0 -8855 10825 0c9432,0 17056,-1727 22799,-5083 4174,-2222 7375,-6071 9588,-11564 1808,-3772 2711,-13861 2711,-30259l0 -214264c0,-16638 -903,-27059 -2711,-31233 -1721,-4188 -5244,-7794 -10653,-10921 -5342,-3105 -12630,-4653 -21734,-4653l-10825 0 0 -8954 170310 0 0 8954 -10827 0c-9425,0 -17054,1625 -22794,4987 -4185,2306 -7463,6073 -9845,11566 -1713,3849 -2624,13941 -2624,30254l0 214264c0,16647 911,27059 2711,31241 1882,4189 5499,7789 10825,10905 5414,3195 12628,4760 21727,4760l10827 0zm72815 -65106c11227,0 20657,3937 28445,11722 7803,7871 11652,17306 11652,28369 0,11077 -3940,20416 -11725,28210 -7874,7802 -17312,11651 -28372,11651 -11071,0 -20509,-3849 -28204,-11651 -7794,-7794 -11652,-17133 -11652,-28210 0,-11063 3858,-20498 11652,-28369 7695,-7785 17133,-11722 28204,-11722zm389885 -259200l0 112826 -9345 0c-7058,-29427 -20175,-51983 -39445,-67729 -19185,-15656 -41002,-23540 -65352,-23540 -20334,0 -38948,5832 -55914,17557 -16980,11728 -29444,26976 -37230,45912 -10086,24195 -15172,51092 -15172,80694 0,29116 3694,55684 11080,79621 7372,23945 18848,42055 34592,54281 15670,12299 35993,18373 61005,18373 20498,0 39279,-4432 56338,-13446 17057,-8946 35006,-24361 53944,-46337l0 28126c-18282,19023 -37297,32885 -57063,41412 -19841,8606 -42886,12868 -69370,12868 -34683,0 -65598,-6970 -92575,-20911 -26976,-13933 -47802,-33941 -62479,-60017 -14598,-26148 -21973,-53950 -21973,-83394 0,-31080 8117,-60513 24432,-88392 16231,-27873 38138,-49526 65763,-64851 27635,-15421 56989,-23053 88060,-23053 22876,0 47067,4924 72563,14849 14767,5737 24112,8688 28126,8688 5091,0 9520,-1898 13289,-5660 3776,-3770 6229,-9758 7381,-17877l9345 0zm88386 259200c11238,0 20660,3937 28465,11722 7777,7871 11640,17306 11640,28369 0,11077 -3939,20416 -11733,28210 -7871,7802 -17303,11651 -28372,11651 -11063,0 -20495,-3849 -28207,-11651 -7786,-7794 -11632,-17133 -11632,-28210 0,-11063 3846,-20498 11632,-28369 7712,-7785 17144,-11722 28207,-11722zm195564 -233039l0 132591 6478 0c20659,0 35588,-6472 44935,-19439 9272,-12954 15167,-32133 17793,-57394l9102 0 0 170551 -9102 0c-1970,-18610 -5988,-33782 -12138,-45671 -6234,-11887 -13358,-19834 -21557,-23940 -8125,-4013 -20014,-6079 -35511,-6079l0 91762c0,17962 733,28864 2298,32880 1471,4021 4341,7304 8532,9846 4095,2618 10814,3854 20162,3854l19437 0c30420,0 54767,-7052 73135,-21163 18375,-14017 31498,-35498 39532,-64364l8845 0 -14587 103566 -281577 0 0 -8855 10833 0c9413,0 17046,-1727 22788,-5083 4182,-2222 7370,-6071 9594,-11564 1797,-3772 2702,-13861 2702,-30259l0 -214264c0,-14751 -413,-23770 -1231,-27138 -1556,-5572 -4593,-9922 -8858,-12945 -6149,-4514 -14433,-6724 -24995,-6724l-10833 0 0 -8954 272629 0 0 96355 -9102 0c-4664,-23535 -11145,-40433 -19592,-50678 -8358,-10237 -20250,-17792 -35670,-22552 -8935,-2947 -25743,-4339 -50424,-4339l-33618 0zm255578 233039c11235,0 20659,3937 28459,11722 7791,7871 11637,17306 11637,28369 0,11077 -3936,20416 -11722,28210 -7873,7802 -17306,11651 -28374,11651 -11069,0 -20498,-3849 -28207,-11651 -7786,-7794 -11638,-17133 -11638,-28210 0,-11063 3852,-20498 11638,-28369 7709,-7785 17138,-11722 28207,-11722z"/>
   </g>
   <g>
    <path class="fil4" d="M405319 531646l0 1677 -26535 0 0 -1677 2196 0c2569,0 4424,-744 5592,-2221 730,-979 1089,-3307 1089,-7006l0 -39984c0,-3122 -203,-5187 -591,-6183 -312,-760 -936,-1411 -1885,-1956 -1340,-730 -2741,-1089 -4205,-1089l-2196 0 0 -1677 26535 0 0 1677 -2226 0c-2523,0 -4361,747 -5513,2222 -763,979 -1135,3310 -1135,7006l0 39984c0,3124 202,5190 591,6183 295,760 936,1414 1915,1958 1308,731 2678,1086 4142,1086l2226 0zm17380 -32543c4891,-5824 9547,-8746 13968,-8746 2276,0 4238,575 5874,1710 1649,1133 2941,3012 3923,5622 670,1833 995,4628 995,8390l0 17831c0,2626 219,4396 641,5345 325,744 872,1335 1603,1754 747,421 2117,637 4111,637l0 1677 -20648 0 0 -1677 870 0c1931,0 3288,-295 4065,-886 763,-588 1307,-1458 1606,-2593 123,-449 186,-1880 186,-4257l0 -17164c0,-3805 -498,-6587 -1480,-8310 -982,-1724 -2632,-2580 -4968,-2580 -3598,0 -7179,1972 -10746,5933l0 22121c0,2812 172,4536 498,5206 438,870 1029,1504 1775,1926 750,402 2260,604 4550,604l0 1677 -20745 0 0 -1677 920 0c2133,0 3567,-528 4314,-1600 746,-1072 1121,-3121 1121,-6136l0 -15470c0,-5004 -109,-8048 -344,-9135 -233,-1102 -575,-1849 -1043,-2237 -468,-389 -1105,-591 -1885,-591 -856,0 -1868,235 -3050,684l-686 -1677 12614 -5127 1961 0 0 8746zm61481 -8746l0 14168 -1494 0c-1151,-4443 -2631,-7457 -4437,-9058 -1792,-1600 -4098,-2407 -6885,-2407 -2118,0 -3830,561 -5138,1677 -1294,1119 -1948,2364 -1948,3729 0,1693 484,3154 1434,4366 935,1242 2850,2563 5731,3961l6664 3214c6169,3015 9252,6976 9252,11884 0,3792 -1434,6850 -4314,9164 -2867,2315 -6090,3480 -9641,3480 -2552,0 -5482,-448 -8751,-1335 -1012,-295 -1838,-435 -2476,-435 -686,0 -1247,372 -1636,1119l-1493 0 0 -14912 1493 0c857,4254 2476,7471 4892,9630 2396,2158 5091,3230 8081,3230 2087,0 3800,-604 5124,-1833 1324,-1225 1994,-2716 1994,-4442 0,-2082 -750,-3836 -2230,-5266 -1477,-1428 -4420,-3215 -8844,-5390 -4407,-2174 -7288,-4133 -8658,-5903 -1354,-1724 -2041,-3915 -2041,-6555 0,-3433 1184,-6305 3537,-8622 2350,-2315 5387,-3464 9123,-3464 1653,0 3631,359 5981,1073 1543,465 2571,700 3083,700 500,0 872,-110 1154,-328 263,-217 591,-698 949,-1445l1494 0zm6371 5313l12847 -5127 1729 0 0 9663c2164,-3633 4328,-6197 6508,-7658 2180,-1460 4470,-2191 6883,-2191 4205,0 7709,1631 10513,4911 3442,4007 5154,9224 5154,15656 0,7192 -2071,13125 -6213,17834 -3411,3851 -7709,5777 -12879,5777 -2257,0 -4205,-309 -5854,-946 -1215,-452 -2586,-1352 -4112,-2720l0 12708c0,2875 170,4691 528,5468 345,777 966,1398 1838,1863 857,451 2446,684 4736,684l0 1677 -21959 0 0 -1677 1151 0c1683,30 3116,-279 4301,-947 591,-342 1042,-869 1354,-1616 325,-731 481,-2624 481,-5638l0 -39613c0,-2670 -123,-4363 -358,-5080 -249,-728 -637,-1272 -1168,-1630 -528,-356 -1245,-545 -2164,-545 -717,0 -1650,219 -2771,638l-545 -1491zm14576 7238l0 15596c0,3387 139,5608 405,6664 435,1773 1480,3324 3129,4662 1666,1335 3770,2002 6292,2002 3053,0 5513,-1179 7398,-3556 2475,-3108 3706,-7471 3706,-13096 0,-6385 -1403,-11309 -4204,-14742 -1948,-2374 -4268,-3556 -6946,-3556 -1464,0 -2914,358 -4344,1088 -1092,559 -2914,2189 -5436,4938zm45860 -34359c1264,0 2353,448 3256,1335 889,900 1340,1988 1340,3247 0,1275 -451,2377 -1340,3277 -903,917 -1992,1368 -3256,1368 -1274,0 -2382,-451 -3285,-1368 -919,-900 -1371,-2002 -1371,-3277 0,-1259 452,-2347 1341,-3247 903,-887 2008,-1335 3315,-1335zm3754 21808l0 33553c0,2596 188,4320 577,5173 375,870 933,1507 1682,1926 747,421 2118,637 4096,637l0 1677 -20277 0 0 -1677c2024,0 3395,-202 4082,-591 700,-388 1244,-1039 1666,-1939 404,-903 607,-2643 607,-5206l0 -16124c0,-4489 -140,-7394 -405,-8729 -219,-963 -547,-1631 -1012,-2003 -452,-388 -1075,-577 -1855,-577 -856,0 -1882,235 -3099,684l-638 -1677 12568 -5127 2008 0zm23811 0l0 9414c3474,-6276 7039,-9414 10699,-9414 1650,0 3020,514 4112,1538 1088,1009 1636,2191 1636,3526 0,1198 -392,2208 -1169,3031 -796,823 -1728,1226 -2804,1226 -1058,0 -2243,-528 -3550,-1584 -1325,-1056 -2304,-1584 -2928,-1584 -544,0 -1138,309 -1775,916 -1354,1242 -2771,3308 -4221,6166l0 19946c0,2314 295,4084 872,5266 389,823 1089,1507 2088,2035 1012,545 2445,807 4328,807l0 1677 -21396 0 0 -1677c2117,0 3690,-325 4719,-993 763,-498 1291,-1258 1587,-2330 156,-512 235,-1989 235,-4413l0 -16124c0,-4845 -96,-7720 -298,-8653 -203,-916 -558,-1597 -1089,-2019 -531,-418 -1198,-637 -1978,-637 -949,0 -2008,235 -3192,684l-452 -1677 12661 -5127 1915 0zm29512 -21808c1261,0 2350,448 3253,1335 889,900 1340,1988 1340,3247 0,1275 -451,2377 -1340,3277 -903,917 -1992,1368 -3253,1368 -1278,0 -2383,-451 -3288,-1368 -917,-900 -1368,-2002 -1368,-3277 0,-1259 451,-2347 1338,-3247 902,-887 2008,-1335 3318,-1335zm3751 21808l0 33553c0,2596 188,4320 577,5173 375,870 935,1507 1682,1926 747,421 2118,637 4096,637l0 1677 -20277 0 0 -1677c2024,0 3395,-202 4081,-591 701,-388 1245,-1039 1666,-1939 405,-903 608,-2643 608,-5206l0 -16124c0,-4489 -140,-7394 -405,-8729 -219,-963 -544,-1631 -1012,-2003 -452,-388 -1075,-577 -1855,-577 -856,0 -1882,235 -3097,684l-640 -1677 12568 -5127 2008 0zm23718 8746c4891,-5824 9547,-8746 13968,-8746 2276,0 4237,575 5871,1710 1652,1133 2943,3012 3925,5622 671,1833 996,4628 996,8390l0 17831c0,2626 219,4396 640,5345 326,744 873,1335 1603,1754 747,421 2118,637 4112,637l0 1677 -20649 0 0 -1677 870 0c1932,0 3288,-295 4065,-886 764,-588 1308,-1458 1603,-2593 126,-449 189,-1880 189,-4257l0 -17164c0,-3805 -498,-6587 -1480,-8310 -982,-1724 -2631,-2580 -4968,-2580 -3597,0 -7178,1972 -10745,5933l0 22121c0,2812 172,4536 498,5206 437,870 1028,1504 1775,1926 750,402 2260,604 4549,604l0 1677 -20744 0 0 -1677 919 0c2134,0 3567,-528 4314,-1600 747,-1072 1122,-3121 1122,-6136l0 -15470c0,-5004 -110,-8048 -345,-9135 -232,-1102 -574,-1849 -1042,-2237 -468,-389 -1105,-591 -1885,-591 -856,0 -1868,235 -3053,684l-684 -1677 12614 -5127 1962 0 0 8746zm45660 18920c-2538,-1242 -4500,-2966 -5870,-5203 -1357,-2222 -2041,-4676 -2041,-7378 0,-4118 1557,-7660 4672,-10626 3100,-2968 7086,-4459 11944,-4459 3970,0 7414,963 10325,2889l8830 0c1308,0 2071,33 2274,109 216,77 372,203 451,389 186,279 279,760 279,1461 0,790 -77,1335 -232,1647 -80,139 -249,262 -468,355 -233,93 -996,140 -2304,140l-5435 0c1696,2175 2555,4970 2555,8374 0,3868 -1480,7192 -4457,9957 -2973,2750 -6959,4131 -11974,4131 -2054,0 -4158,-309 -6322,-916 -1324,1165 -2227,2175 -2711,3045 -468,869 -700,1600 -700,2207 0,528 249,1023 747,1505 514,498 1496,840 2943,1056 857,126 2990,249 6402,342 6259,156 10324,388 12176,684 2834,388 5094,1444 6776,3137 1696,1710 2539,3792 2539,6292 0,3417 -1606,6648 -4828,9646 -4750,4429 -10932,6651 -18565,6651 -5870,0 -10822,-1322 -14854,-3962 -2290,-1523 -3428,-3107 -3428,-4738 0,-730 172,-1461 498,-2191 514,-1119 1589,-2686 3192,-4692 219,-279 1762,-1909 4659,-4924 -1589,-946 -2694,-1786 -3348,-2530 -654,-747 -982,-1601 -982,-2550 0,-1069 435,-2314 1291,-3759 859,-1428 2851,-3463 5966,-6089zm7942 -25428c-2243,0 -4128,886 -5638,2673 -1510,1786 -2273,4519 -2273,8201 0,4785 1028,8481 3099,11107 1573,2002 3567,2998 5997,2998 2303,0 4204,-856 5682,-2580 1480,-1723 2226,-4426 2226,-8124 0,-4799 -1042,-8560 -3129,-11277 -1557,-2005 -3535,-2998 -5964,-2998zm-8363 40728c-1433,1540 -2506,2985 -3222,4320 -734,1335 -1092,2563 -1092,3682 0,1445 889,2717 2648,3822 3020,1879 7414,2809 13142,2809 5469,0 9501,-963 12086,-2889 2602,-1925 3893,-3974 3893,-6166 0,-1584 -780,-2703 -2320,-3370 -1589,-668 -4702,-1056 -9375,-1182 -6836,-186 -12086,-528 -15760,-1026zm112671 -63190l1400 20971 -1400 0c-1885,-6276 -4563,-10811 -8051,-13561 -3491,-2765 -7663,-4150 -12554,-4150 -4079,0 -7786,1043 -11088,3125 -3302,2081 -5901,5389 -7802,9957 -1885,4550 -2834,10221 -2834,16994 0,5592 889,10439 2678,14540 1792,4101 4487,7239 8068,9427 3597,2191 7692,3277 12285,3277 4003,0 7540,-853 10590,-2560 3069,-1710 6432,-5113 10092,-10207l1417 933c-3100,5482 -6711,9490 -10839,12037 -4125,2533 -9030,3805 -14701,3805 -10231,0 -18157,-3789 -23762,-11386 -4191,-5654 -6292,-12302 -6292,-19945 0,-6166 1384,-11837 4142,-16994 2757,-5173 6557,-9164 11383,-12007 4845,-2842 10122,-4256 15853,-4256 4454,0 8847,1086 13191,3277 1261,667 2181,1009 2725,1009 810,0 1526,-295 2134,-870 793,-823 1354,-1956 1682,-3416l1683 0zm21302 20224l0 9414c3472,-6276 7039,-9414 10699,-9414 1650,0 3020,514 4112,1538 1089,1009 1633,2191 1633,3526 0,1198 -388,2208 -1168,3031 -793,823 -1729,1226 -2801,1226 -1059,0 -2243,-528 -3551,-1584 -1324,-1056 -2306,-1584 -2927,-1584 -547,0 -1138,309 -1776,916 -1357,1242 -2774,3308 -4221,6166l0 19946c0,2314 296,4084 873,5266 388,823 1089,1507 2087,2035 1012,545 2443,807 4328,807l0 1677 -21398 0 0 -1677c2120,0 3693,-325 4719,-993 763,-498 1294,-1258 1589,-2330 156,-512 233,-1989 233,-4413l0 -16124c0,-4845 -93,-7720 -296,-8653 -202,-916 -561,-1597 -1089,-2019 -530,-418 -1201,-637 -1977,-637 -950,0 -2011,235 -3193,684l-451 -1677 12660 -5127 1915 0zm25789 16964c-33,6166 1480,10997 4517,14507 3036,3496 6617,5253 10729,5253 2725,0 5107,-747 7132,-2238 2024,-1475 3720,-4071 5091,-7737l1403 917c-640,4194 -2492,8002 -5559,11402 -3069,3403 -6915,5110 -11525,5110 -5014,0 -9312,-1939 -12879,-5840 -3565,-3899 -5357,-9135 -5357,-15706 0,-7112 1839,-12674 5499,-16652 3657,-3991 8253,-5980 13779,-5980 4673,0 8519,1538 11526,4615 3006,3075 4516,7192 4516,12349l-28872 0zm0 -2610l19341 0c-156,-2673 -468,-4552 -949,-5638 -763,-1693 -1901,-3031 -3411,-3994 -1494,-977 -3067,-1458 -4719,-1458 -2523,0 -4780,976 -6774,2935 -1994,1956 -3146,4675 -3488,8155zm58103 22556c-4284,3307 -6979,5233 -8084,5747 -1636,761 -3379,1149 -5231,1149 -2897,0 -5280,-993 -7148,-2968 -1868,-1972 -2804,-4566 -2804,-7780 0,-2036 451,-3808 1370,-5283 1245,-2065 3412,-4007 6495,-5840 3099,-1817 8221,-4038 15402,-6648l0 -1633c0,-4147 -654,-6990 -1978,-8544 -1324,-1537 -3239,-2314 -5764,-2314 -1899,0 -3425,514 -4547,1554 -1152,1026 -1729,2205 -1729,3543l96 2639c0,1398 -358,2487 -1075,3248 -717,760 -1666,1132 -2821,1132 -1135,0 -2071,-388 -2787,-1179 -714,-793 -1073,-1879 -1073,-3247 0,-2610 1338,-5017 4016,-7209 2678,-2188 6448,-3277 11290,-3277 3724,0 6760,621 9143,1866 1792,930 3113,2407 3969,4410 547,1291 826,3961 826,7985l0 14135c0,3961 80,6402 236,7285 156,903 405,1491 747,1803 358,296 763,451 1214,451 498,0 919,-109 1291,-311 641,-405 1869,-1508 3707,-3324l0 2547c-3425,4582 -6697,6866 -9810,6866 -1496,0 -2694,-511 -3581,-1537 -889,-1043 -1340,-2796 -1370,-5266zm0 -2969l0 -15858c-4626,1816 -7600,3105 -8957,3868 -2413,1335 -4142,2717 -5184,4177 -1045,1461 -1557,3045 -1557,4769 0,2191 654,3994 1978,5438 1308,1445 2834,2159 4547,2159 2320,0 5373,-1522 9173,-4553zm30070 -46429l0 13700 9763 0 0 3075 -9763 93 0 27045c0,2702 388,4535 1168,5468 763,949 1759,1414 2974,1414 1012,0 1978,-311 2927,-946 935,-624 1666,-1554 2180,-2782l1776 0c-1059,2998 -2569,5250 -4517,6773 -1961,1508 -3969,2268 -6040,2268 -1404,0 -2774,-388 -4112,-1165 -1340,-777 -2320,-1896 -2960,-3340 -637,-1445 -966,-3666 -966,-6678l0 -28150 -6634 0 0 -1444c1683,-668 3395,-1787 5157,-3354 1759,-1584 3316,-3464 4703,-5655 700,-1149 1682,-3264 2943,-6322l1401 0zm24448 -9320c1262,0 2353,448 3256,1335 886,900 1340,1988 1340,3247 0,1275 -454,2377 -1340,3277 -903,917 -1994,1368 -3256,1368 -1277,0 -2382,-451 -3285,-1368 -919,-900 -1371,-2002 -1371,-3277 0,-1259 452,-2347 1341,-3247 903,-887 2008,-1335 3315,-1335zm3754 21808l0 33553c0,2596 186,4320 577,5173 372,870 933,1507 1682,1926 747,421 2118,637 4096,637l0 1677 -20277 0 0 -1677c2024,0 3395,-202 4079,-591 703,-388 1247,-1039 1669,-1939 404,-903 607,-2643 607,-5206l0 -16124c0,-4489 -142,-7394 -405,-8729 -219,-963 -547,-1631 -1012,-2003 -454,-388 -1075,-577 -1855,-577 -856,0 -1885,235 -3099,684l-638 -1677 12568 -5127 2008 0zm9391 1212l19607 0 0 1677 -1278 0c-1184,0 -2087,295 -2711,870 -637,574 -949,1351 -949,2314 0,1059 328,2315 965,3776l9764 23036 9764 -23890c703,-1710 1045,-2998 1045,-3868 0,-435 -110,-777 -359,-1056 -342,-452 -763,-761 -1277,-933 -515,-170 -1573,-249 -3146,-249l0 -1677 13579 0 0 1677c-1586,126 -2678,451 -3285,963 -1075,916 -2024,2457 -2881,4599l-14701 35727 -1945 0 -14904 -35136c-670,-1664 -1308,-2843 -1915,-3557 -607,-717 -1387,-1321 -2323,-1819 -511,-279 -1540,-528 -3050,-777l0 -1677zm59533 -23020c1262,0 2353,448 3256,1335 889,900 1340,1988 1340,3247 0,1275 -451,2377 -1340,3277 -903,917 -1994,1368 -3256,1368 -1274,0 -2382,-451 -3285,-1368 -919,-900 -1371,-2002 -1371,-3277 0,-1259 452,-2347 1341,-3247 903,-887 2008,-1335 3315,-1335zm3754 21808l0 33553c0,2596 186,4320 577,5173 372,870 933,1507 1682,1926 747,421 2118,637 4096,637l0 1677 -20277 0 0 -1677c2024,0 3395,-202 4082,-591 700,-388 1244,-1039 1666,-1939 405,-903 607,-2643 607,-5206l0 -16124c0,-4489 -142,-7394 -405,-8729 -219,-963 -547,-1631 -1012,-2003 -451,-388 -1075,-577 -1855,-577 -856,0 -1885,235 -3099,684l-638 -1677 12568 -5127 2008 0zm23718 -12488l0 13700 9763 0 0 3075 -9763 93 0 27045c0,2702 388,4535 1168,5468 763,949 1759,1414 2974,1414 1012,0 1978,-311 2927,-946 935,-624 1666,-1554 2180,-2782l1776 0c-1059,2998 -2569,5250 -4517,6773 -1961,1508 -3969,2268 -6040,2268 -1404,0 -2774,-388 -4112,-1165 -1341,-777 -2320,-1896 -2960,-3340 -637,-1445 -966,-3666 -966,-6678l0 -28150 -6634 0 0 -1444c1683,-668 3395,-1787 5157,-3354 1759,-1584 3316,-3464 4703,-5655 700,-1149 1682,-3264 2943,-6322l1401 0zm11260 13700l19573 0 0 1677 -965 0c-1371,0 -2397,295 -3083,886 -684,591 -1029,1335 -1029,2222 0,1182 514,2826 1513,4924l10215 21141 9312 -23144c514,-1244 780,-2486 780,-3698 0,-545 -110,-963 -329,-1226 -232,-342 -623,-607 -1135,-810 -514,-202 -1434,-295 -2741,-295l0 -1677 13580 0 0 1677c-1122,126 -1995,358 -2602,730 -607,359 -1278,1043 -2008,2036 -282,418 -796,1584 -1559,3496l-16989 41708c-1652,4037 -3799,7082 -6478,9150 -2664,2066 -5233,3092 -7709,3092 -1792,0 -3272,-515 -4423,-1554 -1168,-1026 -1743,-2208 -1743,-3543 0,-1275 419,-2298 1261,-3061 840,-777 1992,-1163 3455,-1163 1013,0 2383,309 4112,947 1231,418 1994,637 2290,637 919,0 1915,-468 3006,-1398 1073,-916 2164,-2719 3269,-5392l2928 -7301 -15058 -31408c-467,-947 -1184,-2128 -2196,-3543 -763,-1056 -1387,-1786 -1869,-2142 -700,-498 -1822,-916 -3378,-1291l0 -1677zm117387 1959l19155 0 0 1770c-2649,216 -4594,790 -5857,1740 -1262,946 -3239,3835 -5918,8636 -2678,4801 -5698,9290 -9046,13451 2708,3154 5123,5359 7257,6618 2118,1258 4265,1896 6432,1896 2101,0 3876,-575 5323,-1707 1467,-1136 2509,-2813 3116,-5034l1683 1242c-1122,4273 -2927,7441 -5436,9506 -2492,2052 -5389,3075 -8705,3075 -2492,0 -5014,-681 -7583,-2032 -2572,-1368 -5373,-3666 -8426,-6913 -3770,3370 -7165,5701 -10201,6989 -3020,1305 -6259,1956 -9701,1956 -5014,0 -9000,-1335 -11960,-4008 -2944,-2669 -4424,-5870 -4424,-9582 0,-3666 1324,-7332 3989,-10998 2662,-3666 7646,-7457 14980,-11372 -1447,-3154 -2429,-5748 -2960,-7766 -514,-2019 -777,-3945 -777,-5795 0,-5189 1915,-9150 5745,-11883 2990,-2129 6385,-3184 10185,-3184 3630,0 6588,1072 8861,3200 2290,2142 3428,4768 3428,7890 0,3217 -1108,6029 -3319,8450 -2210,2424 -6119,5080 -11725,7956 3860,6850 7895,13139 12084,18873 5356,-6369 8034,-11728 8034,-16064 0,-1381 -451,-2610 -1354,-3696 -670,-807 -1636,-1288 -2880,-1444l0 -1770zm-17427 1179c3770,-1787 6588,-3822 8456,-6090 1869,-2268 2804,-4798 2804,-7580 0,-2189 -670,-3991 -2024,-5422 -1340,-1412 -3023,-2126 -5014,-2126 -2649,0 -4643,917 -5981,2749 -1354,1833 -2024,3620 -2024,5390 0,1474 249,3138 763,4970 515,1833 1527,4536 3020,8109zm7056 28426c-4003,-5452 -6776,-9443 -8317,-11960 -1543,-2517 -3239,-5638 -5093,-9367 -3674,2098 -6432,4412 -8284,6929 -1852,2531 -2788,5266 -2788,8215 0,3248 1043,6123 3146,8577 2101,2470 4938,3696 8503,3696 1915,0 3769,-389 5545,-1149 1789,-777 4218,-2424 7288,-4941zm78190 -48246l0 24418 13643 0c3534,0 5884,-527 7069,-1583 1589,-1398 2459,-3855 2648,-7365l1682 0 0 21530 -1682 0c-421,-3012 -856,-4955 -1278,-5808 -544,-1056 -1447,-1896 -2694,-2503 -1245,-605 -3160,-917 -5745,-917l-13643 0 0 20381c0,2736 126,4396 358,4987 249,591 671,1072 1278,1414 607,356 1775,528 3472,528l10480 0c3488,0 6026,-249 7616,-730 1573,-481 3099,-1444 4547,-2872 1884,-1883 3816,-4725 5794,-8514l1868 0 -5343 15470 -47729 0 0 -1677 2194 0c1464,0 2851,-355 4159,-1056 982,-481 1652,-1211 1994,-2191 358,-976 528,-2965 528,-5980l0 -40170c0,-3915 -389,-6322 -1182,-7222 -1105,-1212 -2927,-1820 -5499,-1820l-2194 0 0 -1677 47746 0 654 13608 -1776 0c-637,-3278 -1338,-5529 -2117,-6757 -780,-1226 -1932,-2159 -3442,-2813 -1214,-448 -3365,-681 -6431,-681l-16975 0zm52683 24216c4889,-5824 9545,-8746 13968,-8746 2274,0 4235,575 5871,1710 1653,1133 2944,3012 3926,5622 667,1833 996,4628 996,8390l0 17831c0,2626 218,4396 637,5345 328,744 873,1335 1606,1754 747,421 2117,637 4112,637l0 1677 -20652 0 0 -1677 873 0c1931,0 3285,-295 4065,-886 763,-588 1308,-1458 1603,-2593 126,-449 186,-1880 186,-4257l0 -17164c0,-3805 -498,-6587 -1477,-8310 -982,-1724 -2632,-2580 -4968,-2580 -3598,0 -7181,1972 -10746,5933l0 22121c0,2812 170,4536 498,5206 435,870 1029,1504 1776,1926 746,402 2256,604 4546,604l0 1677 -20741 0 0 -1677 919 0c2131,0 3564,-528 4311,-1600 750,-1072 1122,-3121 1122,-6136l0 -15470c0,-5004 -110,-8048 -342,-9135 -233,-1102 -577,-1849 -1043,-2237 -467,-389 -1107,-591 -1884,-591 -857,0 -1869,235 -3053,684l-684 -1677 12614 -5127 1961 0 0 8746z"/>
    <path class="fil4" d="M1366458 528509c-2041,2158 -4033,3698 -5981,4628 -1945,933 -4048,1398 -6292,1398 -4560,0 -8549,-1893 -11957,-5701 -3411,-3805 -5110,-8697 -5110,-14663 0,-5964 1885,-11432 5654,-16389 3784,-4955 8626,-7425 14559,-7425 3677,0 6730,1182 9127,3526l0 -7720c0,-4738 -110,-7643 -342,-8729 -233,-1089 -591,-1833 -1076,-2221 -497,-389 -1105,-591 -1838,-591 -793,0 -1836,249 -3160,730l-590 -1677 12518 -5126 2057 0 0 48185c0,4862 109,7830 342,8902 233,1056 591,1817 1105,2235 498,421 1092,638 1759,638 826,0 1918,-263 3302,-777l498 1677 -12472 5126 -2103 0 0 -6026zm0 -3185l0 -21360c-187,-2082 -731,-3975 -1650,-5668 -903,-1710 -2117,-2982 -3630,-3852 -1510,-856 -2974,-1291 -4407,-1291 -2679,0 -5075,1198 -7179,3589 -2771,3154 -4158,7750 -4158,13810 0,6119 1341,10811 4019,14075 2678,3244 5668,4877 8954,4877 2787,0 5465,-1400 8051,-4180zm24199 -18003c-30,6166 1480,10997 4517,14507 3036,3496 6620,5253 10729,5253 2727,0 5110,-747 7134,-2238 2025,-1475 3721,-4071 5091,-7737l1401 917c-637,4194 -2489,8002 -5559,11402 -3066,3403 -6913,5110 -11522,5110 -5015,0 -9312,-1939 -12880,-5840 -3567,-3899 -5356,-9135 -5356,-15706 0,-7112 1836,-12674 5496,-16652 3660,-3991 8253,-5980 13782,-5980 4673,0 8519,1538 11525,4615 3004,3075 4514,7192 4514,12349l-28872 0zm0 -2610l19344 0c-156,-2673 -468,-4552 -952,-5638 -763,-1693 -1899,-3031 -3409,-3994 -1496,-977 -3069,-1458 -4719,-1458 -2522,0 -4782,976 -6773,2935 -1995,1956 -3146,4675 -3491,8155zm58103 22556c-4282,3307 -6976,5233 -8082,5747 -1635,761 -3378,1149 -5233,1149 -2897,0 -5280,-993 -7148,-2968 -1869,-1972 -2801,-4566 -2801,-7780 0,-2036 451,-3808 1370,-5283 1245,-2065 3409,-4007 6492,-5840 3099,-1817 8223,-4038 15402,-6648l0 -1633c0,-4147 -654,-6990 -1978,-8544 -1324,-1537 -3239,-2314 -5762,-2314 -1898,0 -3425,514 -4546,1554 -1152,1026 -1729,2205 -1729,3543l93 2639c0,1398 -359,2487 -1075,3248 -717,760 -1666,1132 -2818,1132 -1138,0 -2071,-388 -2788,-1179 -716,-793 -1075,-1879 -1075,-3247 0,-2610 1341,-5017 4019,-7209 2678,-2188 6448,-3277 11290,-3277 3723,0 6760,621 9143,1866 1789,930 3113,2407 3969,4410 544,1291 826,3961 826,7985l0 14135c0,3961 77,6402 233,7285 156,903 405,1491 746,1803 359,296 764,451 1215,451 501,0 919,-109 1294,-311 637,-405 1869,-1508 3707,-3324l0 2547c-3428,4582 -6697,6866 -9813,6866 -1494,0 -2692,-511 -3581,-1537 -886,-1043 -1338,-2796 -1370,-5266zm0 -2969l0 -15858c-4624,1816 -7600,3105 -8954,3868 -2413,1335 -4142,2717 -5187,4177 -1042,1461 -1557,3045 -1557,4769 0,2191 654,3994 1978,5438 1308,1445 2834,2159 4547,2159 2323,0 5373,-1522 9173,-4553zm15743 -32729l19607 0 0 1677 -1275 0c-1185,0 -2087,295 -2711,870 -638,574 -949,1351 -949,2314 0,1059 325,2315 965,3776l9764 23036 9763 -23890c701,-1710 1045,-2998 1045,-3868 0,-435 -109,-777 -358,-1056 -345,-452 -763,-761 -1278,-933 -514,-170 -1573,-249 -3146,-249l0 -1677 13580 0 0 1677c-1589,126 -2678,451 -3285,963 -1075,916 -2025,2457 -2881,4599l-14701 35727 -1948 0 -14904 -35136c-667,-1664 -1308,-2843 -1915,-3557 -607,-717 -1384,-1321 -2320,-1819 -514,-279 -1540,-528 -3053,-777l0 -1677zm69409 -1212c6339,0 11416,2394 15246,7192 3255,4087 4891,8793 4891,14105 0,3729 -905,7504 -2694,11326 -1792,3822 -4268,6710 -7414,8650 -3162,1942 -6664,2905 -10527,2905 -6308,0 -11323,-2500 -15027,-7501 -3132,-4227 -4705,-8948 -4705,-14198 0,-3822 952,-7627 2851,-11402 1901,-3775 4407,-6571 7523,-8374 3096,-1800 6385,-2703 9856,-2703zm-1417 2982c-1603,0 -3222,482 -4858,1431 -1620,963 -2944,2623 -3940,5017 -1012,2391 -1510,5469 -1510,9227 0,6057 1215,11277 3628,15673 2412,4396 5605,6587 9561,6587 2943,0 5373,-1212 7288,-3635 1914,-2424 2880,-6585 2880,-12489 0,-7394 -1603,-13205 -4795,-17445 -2148,-2905 -4905,-4366 -8254,-4366zm64252 -1770l0 25351c0,4755 110,7660 345,8730 233,1056 591,1803 1089,2221 498,421 1091,638 1759,638 935,0 1994,-263 3179,-777l637 1677 -12521 5126 -2054 0 0 -8746c-3581,3855 -6323,6262 -8207,7255 -1885,996 -3880,1491 -5981,1491 -2336,0 -4360,-667 -6089,-2019 -1713,-1351 -2911,-3091 -3581,-5219 -670,-2129 -996,-5127 -996,-9009l0 -18610c0,-1973 -219,-3341 -640,-4101 -435,-761 -1059,-1352 -1899,-1756 -842,-419 -2369,-605 -4563,-575l0 -1677 14669 0 0 27978c0,3898 670,6445 2024,7657 1354,1228 2990,1833 4905,1833 1311,0 2788,-403 4454,-1226 1652,-823 3630,-2394 5904,-4708l0 -23611c0,-2408 -438,-4038 -1308,-4878 -873,-854 -2678,-1305 -5419,-1368l0 -1677 14293 0zm22334 -1212l0 9414c3472,-6276 7039,-9414 10697,-9414 1652,0 3022,514 4111,1538 1092,1009 1636,2191 1636,3526 0,1198 -388,2208 -1168,3031 -793,823 -1729,1226 -2804,1226 -1059,0 -2240,-528 -3551,-1584 -1321,-1056 -2303,-1584 -2927,-1584 -544,0 -1135,309 -1775,916 -1355,1242 -2772,3308 -4219,6166l0 19946c0,2314 296,4084 870,5266 391,823 1092,1507 2087,2035 1013,545 2446,807 4331,807l0 1677 -21398 0 0 -1677c2117,0 3690,-325 4719,-993 763,-498 1291,-1258 1589,-2330 156,-512 233,-1989 233,-4413l0 -16124c0,-4845 -93,-7720 -296,-8653 -202,-916 -561,-1597 -1091,-2019 -528,-418 -1199,-637 -1978,-637 -949,0 -2008,235 -3193,684l-451 -1677 12660 -5127 1918 0z"/>
   </g>
   <g>
    <polygon class="fil5" points="1616687,440360 369827,440360 369827,434796 1616687,434796 "/>
   </g>
   <g>
    <polygon class="fil5" points="1618105,579498 371244,579498 371244,573934 1618105,573934 "/>
   </g>
   <path class="fil2" d="M444724 717906l0 3058 -58806 0 0 -3058 3696 0c3283,0 5917,-539 7936,-1680 1404,-774 2498,-2084 3286,-3931 615,-1310 922,-4705 922,-10248l0 -72639c0,-5647 -307,-9173 -922,-10585 -583,-1411 -1850,-2620 -3696,-3663 -1882,-1075 -4380,-1578 -7526,-1578l-3696 0 0 -3059 58806 0 0 3059 -3797 0c-3215,0 -5816,539 -7832,1647 -1439,807 -2602,2117 -3387,3964 -616,1310 -889,4705 -889,10215l0 72639c0,5644 306,9173 922,10585 651,1411 1882,2653 3728,3695 1814,1076 4312,1579 7458,1579l3797 0zm50152 -100998l0 44887 2189 0c7148,0 12316,-2183 15530,-6585 3215,-4401 5234,-10852 6123,-19385l3113 0 0 57755 -3113 0c-684,-6283 -2085,-11424 -4208,-15420 -2153,-4033 -4618,-6722 -7422,-8133 -2806,-1409 -6877,-2115 -12212,-2115l0 31112c0,6082 238,9810 753,11154 479,1343 1436,2454 2872,3359 1436,875 3764,1310 6979,1310l6705 0c10570,0 19021,-2385 25316,-7189 6327,-4771 10877,-12061 13683,-21839l3010 0 -5029 35145 -97189 0 0 -3058 3696 0c3283,0 5917,-539 7936,-1680 1403,-774 2498,-2084 3286,-3931 615,-1310 921,-4705 921,-10248l0 -72639c0,-4974 -136,-8065 -410,-9241 -547,-1847 -1573,-3291 -3113,-4334 -2087,-1513 -4960,-2251 -8620,-2251l-3696 0 0 -3059 94109 0 0 32659 -3113 0c-1606,-7997 -3866,-13742 -6774,-17202 -2905,-3494 -7047,-6049 -12381,-7696 -3080,-905 -8861,-1376 -17344,-1376l-11597 0zm146722 -8937l889 36792 -3387 0c-1609,-9173 -5542,-16600 -11837,-22244 -6259,-5643 -13066,-8467 -20353,-8467 -5611,0 -10057,1513 -13375,4503 -3286,2955 -4962,6383 -4962,10180 0,2486 615,4669 1813,6584 1609,2487 4175,5007 7731,7493 2533,1814 8519,5006 17927,9542 13169,6350 22066,12365 26648,18009 4549,5646 6842,12097 6842,19388 0,9273 -3693,17201 -11050,23822 -7353,6617 -16624,9944 -27846,9944 -3556,0 -6910,-337 -10092,-1043 -3146,-670 -7115,-2016 -11870,-3964 -2667,-1042 -4822,-1578 -6499,-1578 -1472,0 -3010,536 -4618,1611 -1609,1075 -2908,2755 -3901,4974l-3009 0 0 -41730 3009 0c2465,11761 7151,20698 14061,26878 6943,6150 14400,9241 22408,9241 6223,0 11150,-1647 14846,-4974 3660,-3291 5507,-7156 5507,-11558 0,-2620 -720,-5173 -2120,-7627 -1404,-2451 -3524,-4803 -6399,-6987 -2872,-2185 -7969,-5041 -15221,-8535 -10229,-4973 -17585,-9205 -22066,-12666 -4481,-3493 -7903,-7359 -10332,-11626 -2394,-4265 -3592,-9003 -3592,-14176 0,-8804 3250,-16297 9818,-22479 6535,-6216 14814,-9307 24837,-9307 3693,0 7217,438 10639,1376 2599,640 5780,1849 9509,3597 3764,1713 6363,2586 7835,2586 1472,0 2599,-403 3387,-1275 820,-840 1573,-2957 2325,-6284l2498 0zm692937 62997l0 30609c0,5980 378,9709 1094,11254 756,1546 2055,2791 3970,3696 1882,908 5370,1379 10467,1379l0 3058 -57129 0 0 -3058c5200,0 8724,-471 10570,-1412 1850,-974 3149,-2183 3902,-3696 785,-1512 1162,-5241 1162,-11221l0 -71666c0,-5980 -377,-9744 -1162,-11255 -753,-1545 -2088,-2790 -3934,-3695 -1882,-941 -5406,-1379 -10538,-1379l0 -3059 49023 0c16146,0 27742,2824 34756,8467 7012,5647 10535,12702 10535,21169 0,7156 -2292,13270 -6806,18411 -4549,5107 -10811,8568 -18748,10417 -5370,1310 -14400,1981 -27162,1981zm0 -54060l0 47642c1814,137 3182,202 4106,202 6738,0 11939,-1948 15566,-5912 3661,-3931 5472,-10012 5472,-18312 0,-8199 -1811,-14179 -5472,-17940 -3627,-3797 -9101,-5680 -16353,-5680l-3319 0zm137590 -8937l889 36792 -3387 0c-1608,-9173 -5542,-16600 -11837,-22244 -6259,-5643 -13066,-8467 -20353,-8467 -5611,0 -10057,1513 -13375,4503 -3285,2955 -4962,6383 -4962,10180 0,2486 615,4669 1813,6584 1609,2487 4175,5007 7731,7493 2534,1814 8519,5006 17927,9542 13169,6350 22063,12365 26648,18009 4549,5646 6842,12097 6842,19388 0,9273 -3693,17201 -11049,23822 -7357,6617 -16625,9944 -27847,9944 -3556,0 -6910,-337 -10091,-1043 -3146,-670 -7116,-2016 -11870,-3964 -2670,-1042 -4823,-1578 -6500,-1578 -1472,0 -3010,536 -4618,1611 -1609,1075 -2908,2755 -3901,4974l-3009 0 0 -41730 3009 0c2465,11761 7151,20698 14061,26878 6943,6150 14401,9241 22405,9241 6226,0 11153,-1647 14849,-4974 3661,-3291 5507,-7156 5507,-11558 0,-2620 -719,-5173 -2120,-7627 -1403,-2451 -3524,-4803 -6399,-6987 -2872,-2185 -7969,-5041 -15221,-8535 -10228,-4973 -17585,-9205 -22066,-12666 -4481,-3493 -7903,-7359 -10332,-11626 -2394,-4265 -3592,-9003 -3592,-14176 0,-8804 3250,-16297 9818,-22479 6536,-6216 14814,-9307 24837,-9307 3693,0 7217,438 10639,1376 2599,640 5780,1849 9509,3597 3764,1713 6363,2586 7835,2586 1472,0 2599,-403 3387,-1275 821,-840 1573,-2957 2325,-6284l2498 0zm18643 2552l58053 0 0 3059 -2908 0c-4344,0 -7353,438 -8997,1310 -1641,908 -2804,2118 -3488,3696 -720,1579 -1061,5510 -1061,11826l0 54027c0,9911 752,16463 2292,19688 1540,3225 4071,5882 7526,7964 3490,2117 7868,3159 13136,3159 6090,0 11290,-1346 15566,-4032 4309,-2689 7526,-6385 9646,-11120 2087,-4739 3146,-12970 3146,-24698l0 -44988c0,-4938 -511,-8467 -1537,-10584 -1062,-2150 -2361,-3595 -3970,-4399 -2462,-1245 -5985,-1849 -10535,-1849l0 -3059 38896 0 0 3059 -2293 0c-3217,0 -5849,604 -7936,1849 -2052,1242 -3559,3124 -4516,5611 -717,1712 -1095,4837 -1095,9372l0 41932c0,12970 -856,22342 -2599,28087 -1745,5748 -5988,11022 -12726,15859 -6740,4806 -15976,7225 -27676,7225 -9682,0 -17208,-1242 -22542,-3729 -7219,-3496 -12316,-7931 -15328,-13407 -3009,-5442 -4514,-12768 -4514,-21940l0 -54027c0,-6382 -342,-10313 -1061,-11859 -684,-1545 -1915,-2790 -3693,-3696 -1781,-941 -5031,-1346 -9786,-1277l0 -3059z"/>
   <path class="fil6" d="M858382 607971l0 38975 -3012 0c-3729,-10653 -9340,-18715 -16729,-24260 -7422,-5542 -15495,-8333 -24254,-8333 -8415,0 -15427,2320 -21005,6957 -5575,4601 -9544,11088 -11870,19420 -2360,8333 -3523,16866 -3523,25601 0,10551 1299,19825 3865,27821 2566,7964 6673,13843 12316,17604 5644,3764 12385,5679 20217,5679 2670,0 5441,-303 8313,-908 2873,-569 5781,-1409 8724,-2451l0 -23048c0,-4336 -309,-7124 -924,-8401 -583,-1278 -1847,-2418 -3729,-3461 -1915,-1006 -4243,-1512 -6979,-1512l-2908 0 0 -3056 54735 0 0 3056c-4174,270 -7047,807 -8688,1679 -1641,843 -2875,2219 -3764,4134 -512,1042 -785,3562 -785,7561l0 23048c-7151,3157 -14609,5510 -22408,7088 -7800,1581 -15840,2353 -24186,2353 -10707,0 -19568,-1412 -26615,-4232 -7047,-2824 -13274,-6552 -18644,-11225 -5370,-4669 -9577,-9875 -12589,-15656 -3866,-7526 -5816,-15924 -5816,-25198 0,-16597 5920,-30609 17790,-42066 11870,-11457 26820,-17169 44848,-17169 5611,0 10672,402 15153,1278 2396,402 6330,1611 11769,3627 5438,2049 8655,3058 9681,3058 1540,0 2976,-538 4311,-1614 1333,-1107 2564,-3225 3694,-6349l3012 0zm85554 81577l-39680 0 -4790 10751c-1541,3529 -2326,6486 -2326,8836 0,3092 1264,5411 3830,6889 1540,875 5201,1480 11017,1882l0 3058 -37391 0 0 -3058c4070,-572 7389,-2219 9988,-4905 2566,-2689 5783,-8232 9648,-16633l40195 -88096 1609 0 40504 90550c3865,8601 7044,14009 9509,16228 1882,1647 4549,2588 8004,2856l0 3058 -54393 0 0 -3058 2192 0c4412,0 7490,-572 9200,-1781 1233,-840 1813,-2082 1813,-3729 0,-974 -169,-1983 -478,-2957 -69,-503 -889,-2588 -2430,-6183l-6021 -13708zm-2804 -6081l-16728 -38001 -17240 38001 33968 0zm143129 -72944l0 29904 -3009 0c-1745,-6889 -3696,-11826 -5849,-14849 -2191,-3026 -5132,-5444 -8896,-7294 -2052,-905 -5745,-1376 -11014,-1376l-8414 0 0 85139c0,5644 306,9173 957,10585 616,1411 1882,2653 3762,3695 1849,1076 4412,1579 7594,1579l3728 0 0 3058 -58838 0 0 -3058 3693 0c3286,0 5885,-539 7835,-1680 1472,-774 2602,-2084 3387,-3931 615,-1310 924,-4705 924,-10248l0 -85139 -8108 0c-7559,0 -13033,1579 -16455,4739 -4823,4401 -7832,10649 -9134,18780l-3182 0 0 -29904 101019 0zm52443 6385l0 44887 2191 0c7148,0 12316,-2183 15530,-6585 3215,-4401 5234,-10852 6123,-19385l3113 0 0 57755 -3113 0c-684,-6283 -2085,-11424 -4208,-15420 -2155,-4033 -4617,-6722 -7421,-8133 -2807,-1409 -6878,-2115 -12215,-2115l0 31112c0,6082 241,9810 755,11154 479,1343 1436,2454 2872,3359 1437,875 3765,1310 6979,1310l6705 0c10571,0 19021,-2385 25316,-7189 6327,-4771 10877,-12061 13684,-21839l3009 0 -5028 35145 -97190 0 0 -3058 3696 0c3283,0 5917,-539 7936,-1680 1404,-774 2498,-2084 3283,-3931 618,-1310 925,-4705 925,-10248l0 -72639c0,-4974 -137,-8065 -411,-9241 -547,-1847 -1573,-3291 -3113,-4334 -2087,-1513 -4960,-2251 -8620,-2251l-3696 0 0 -3059 94109 0 0 32659 -3113 0c-1606,-7997 -3865,-13742 -6773,-17202 -2908,-3494 -7047,-6049 -12382,-7696 -3080,-905 -8861,-1376 -17344,-1376l-11599 0z"/>
   <line class="fil7 str0" x1="707062" y1="610967" x2="707062" y2= "720964" />
   <line class="fil7 str0" x1="1242858" y1="606250" x2="1242858" y2= "716245" />
  </g>
 </g>
</svg>
