<?xml version="1.0" encoding="UTF-8"?>
<!DOCTYPE svg PUBLIC "-//W3C//DTD SVG 1.1//EN" "http://www.w3.org/Graphics/SVG/1.1/DTD/svg11.dtd">
<!-- Creator: CorelDRAW X7 -->
<svg xmlns="http://www.w3.org/2000/svg" xml:space="preserve" width="1493px" height="1493px" version="1.1" style="shape-rendering:geometricPrecision; text-rendering:geometricPrecision; image-rendering:optimizeQuality; fill-rule:evenodd; clip-rule:evenodd"
viewBox="0 0 15367491 15367491"
 xmlns:xlink="http://www.w3.org/1999/xlink">
 <defs>
  <style type="text/css">
   <![CDATA[
    .str0 {stroke:#F1F1F1;stroke-width:256102}
    .fil1 {fill:none}
    .fil0 {fill:#00A89C}
    .fil2 {fill:white;fill-rule:nonzero}
   ]]>
  </style>
 </defs>
 <g id="Layer_x0020_1">
  <metadata id="CorelCorpID_0Corel-Layer"/>
  <rect class="fil0" transform="matrix(0.599738 -0.599738 0.658153 0.658153 -141412 7.68375E+006)" width="13047634" height="11889572" rx="365757" ry="365757"/>
  <path class="fil1 str0" d="M7889189 14690045c-113387,113400 -297488,113400 -410949,0l-6800794 -6800819c-113461,-113485 -113461,-297452 0,-410913l6800794 -6800818c113461,-113461 297562,-113461 410949,0l6800819 6800818c113497,113461 113497,297428 0,410913l-6800819 6800819z"/>
  <path class="fil2" d="M3283058 8376359l345817 0 21727 -152161c75089,88926 213414,181803 413004,181803 235153,0 523656,-110665 523656,-418925 0,-464373 -782518,-416944 -782518,-620485 0,-69156 79041,-104731 136343,-104731 138325,0 252940,82992 252940,229219l357660 0 0 -495984 -339884 0 -19757 165985c-79041,-148197 -247007,-201560 -412992,-201560 -193657,0 -470306,132404 -470306,424859 0,503899 758809,438682 758809,592812 0,83004 -98810,98810 -167966,98810 -82992,-3951 -248989,-31624 -248989,-197608l-367544 0 0 497966z"/>
  <path id="1" class="fil2" d="M4686060 6995095l0 258862 110664 0 0 861558 -110664 0 0 260844 636290 0 0 -260844 -120537 0 0 -306290 150179 0c282582,0 519705,-130410 519705,-391253 0,-225268 -86944,-422877 -545395,-422877l-640242 0zm515753 256892l98798 0c114616,0 183785,63223 183785,179821 0,104731 -79053,164003 -193657,164003l-88926 0 0 -343824z"/>
  <polygon id="2" class="fil2" points="5950738,6995095 5950738,7255939 6075226,7255939 6075226,8113546 5950738,8113546 5950738,8376359 7142308,8376359 7142308,7929774 6800442,7929774 6800442,8113546 6484278,8113546 6484278,7791449 6859725,7791449 6859725,7528624 6484278,7528624 6484278,7255939 6800442,7255939 6800442,7431808 7142308,7431808 7142308,6995095 "/>
  <path id="3" class="fil2" d="M8286448 7876411c-17787,19769 -148209,193657 -314193,193657 -187736,0 -288516,-175869 -288516,-371496 0,-215395 92877,-391265 235153,-391265 140306,0 203541,120550 209463,248989l353720 0 0 -561201 -310243 0 -45447 110653c-17788,-23709 -106713,-134361 -304321,-134361 -258862,0 -600715,272685 -600715,727185 0,440664 278618,709398 697543,709398 258862,0 464373,-130409 598746,-278618l-231190 -252941z"/>
  <polygon id="4" class="fil2" points="8596678,6995095 8596678,7255939 8721167,7255939 8721167,8113546 8596678,8113546 8596678,8376359 9252726,8376359 9252726,8113546 9130219,8113546 9130219,7255939 9252726,7255939 9252726,6995095 "/>
  <path id="5" class="fil2" d="M10898796 8376359l0 -258862 -138325 0 -349768 -1122402 -758809 0 0 254911 81022 0 -266764 867491 -134373 0 0 258862 628387 0 0 -258862 -154130 0 41496 -134373 405089 0 41496 134373 -187723 0 0 258862 792402 0zm-978156 -630357l128452 -426828 130409 426828 -258861 0z"/>
  <polygon id="6" class="fil2" points="10977837,6995095 10977837,7255939 11086519,7255939 11086519,8113546 10977837,8113546 10977837,8376359 12084433,8376359 12084433,7862587 11752452,7862587 11752452,8113546 11497541,8113546 11497541,7255939 11602273,7255939 11602273,6995095 "/>
 </g>
</svg>
